<svg width="160" height="206" viewBox="0 0 160 206" fill="none" xmlns="http://www.w3.org/2000/svg">
<rect width="160" height="206" fill="#E5E5E5"/>
<rect width="160" height="206" rx="1.52487" fill="#F59655"/>
<path d="M108.127 70.9642H51.1092C46.0301 70.9642 41.9127 75.0873 41.9127 80.1734V117.01C41.9127 122.096 46.0301 126.219 51.1092 126.219H84.9621L96.9175 138.191V126.219H108.127C113.206 126.219 117.323 122.096 117.323 117.01V80.1734C117.323 75.0873 113.206 70.9642 108.127 70.9642Z" fill="#B9DCF5"/>
<path d="M96.9183 139.726C96.5193 139.726 96.1274 139.57 95.8342 139.277L84.3278 127.754H81.3046C80.4582 127.754 79.7719 127.067 79.7719 126.219C79.7719 125.372 80.4582 124.685 81.3046 124.685H84.9626C85.3691 124.685 85.7589 124.846 86.0464 125.134L95.3852 134.486V126.219C95.3852 125.372 96.0716 124.685 96.918 124.685H108.128C112.353 124.685 115.791 121.242 115.791 117.01V80.1734C115.791 75.9418 112.353 72.4991 108.128 72.4991H51.1097C46.8839 72.4991 43.446 75.9418 43.446 80.1734V117.01C43.446 121.242 46.8839 124.685 51.1097 124.685H66.6669C67.5133 124.685 68.1997 125.372 68.1997 126.219C68.1997 127.067 67.5133 127.754 66.6669 127.754H51.1097C45.1936 127.754 40.3805 122.935 40.3805 117.01V80.1734C40.3805 74.2491 45.1936 69.4293 51.1097 69.4293H108.128C114.044 69.4293 118.857 74.2491 118.857 80.1734V117.01C118.857 122.935 114.044 127.754 108.128 127.754H98.4507V138.191C98.4507 138.812 98.0772 139.372 97.5046 139.609C97.315 139.688 97.1157 139.726 96.9183 139.726Z" fill="#21396E"/>
<path d="M73.3648 127.754C72.9616 127.754 72.5663 127.59 72.2812 127.304C71.9961 127.019 71.8321 126.623 71.8321 126.219C71.8321 125.816 71.996 125.42 72.2812 125.134C72.5664 124.849 72.9616 124.685 73.3648 124.685C73.7679 124.685 74.1634 124.849 74.4483 125.134C74.7334 125.42 74.8976 125.816 74.8976 126.219C74.8976 126.623 74.7336 127.019 74.4483 127.304C74.1634 127.59 73.7679 127.754 73.3648 127.754Z" fill="#21396E"/>
<path d="M79.6053 76.95C66.8998 76.95 56.4732 87.3006 56.4732 100.024V110.882C56.4732 113.127 59.0636 114.954 61.3057 114.954H62.6611V101.381H61.3057C60.8283 101.381 60.3764 101.479 59.9504 101.631V100.024C59.9504 88.7971 68.3942 80.432 79.6053 80.432C90.8164 80.432 99.2602 88.7971 99.2602 100.024L99.4135 101.631C98.2211 101.479 98.3823 101.381 98.6712 101.381H96.5494V114.954H97.9048C100.147 114.954 102.737 113.127 102.737 110.882V100.024C102.737 87.3006 92.3108 76.95 79.6053 76.95Z" fill="#21396E"/>
<path d="M88.316 100.19H90.4235C91.339 100.19 92.0968 100.432 92.5789 100.743C93.077 101.064 93.1147 101.325 93.1147 101.381V114.954C93.1147 115.011 93.077 115.272 92.5789 115.592C92.0968 115.903 91.339 116.145 90.4235 116.145H88.316C88.0533 116.145 87.8542 116.089 87.7323 116.033V100.302C87.8542 100.246 88.0533 100.19 88.316 100.19Z" fill="#F59655" stroke="#21396E" stroke-width="3.04762"/>
<path d="M68.8225 100.19H70.93C71.1927 100.19 71.3918 100.246 71.5137 100.302V116.033C71.3918 116.089 71.1927 116.145 70.93 116.145H68.8225C67.907 116.145 67.1492 115.903 66.6671 115.592C66.169 115.272 66.1313 115.011 66.1313 114.954V101.381C66.1313 101.325 66.169 101.064 66.6671 100.743C67.1492 100.432 67.907 100.19 68.8225 100.19ZM71.6263 100.368C71.6263 100.368 71.6261 100.368 71.6257 100.368L71.6263 100.368Z" fill="#F59655" stroke="#21396E" stroke-width="3.04762"/>
<path opacity="0.1" d="M158.009 197.793C170.237 184.623 169.468 163.933 156.296 151.704C145.567 141.742 128.74 142.366 118.779 153.094C110.652 161.847 111.163 175.605 119.917 183.732C127.107 190.407 138.378 189.99 145.052 182.801C150.555 176.874 150.209 167.561 144.282 162.058C139.342 157.472 131.617 157.758 127.031 162.697C123.21 166.813 123.424 173.296 127.568 177.143L130.625 173.851C128.32 171.71 128.159 168.087 130.324 165.754C133.203 162.654 138.096 162.446 141.225 165.35C145.341 169.172 145.581 175.628 141.759 179.744C136.766 185.121 128.353 185.433 122.974 180.44C116.032 173.994 115.627 163.093 122.072 156.151C130.351 147.234 144.321 146.716 153.239 154.996C164.6 165.544 165.262 183.377 154.716 194.736C141.316 209.169 118.668 210.008 104.234 196.607C85.9856 179.664 84.9201 150.984 101.887 132.71C122.649 110.348 155.443 106.615 176.55 124.22L179.607 120.928C168.233 111.44 153.265 107.199 137.763 109.258C122.919 111.212 108.987 118.458 98.5936 129.653C79.9458 149.738 81.1175 181.276 101.177 199.9C117.449 215.008 142.927 214.037 158.009 197.793Z" fill="white"/>
<path d="M21.8149 27L21.5223 25.9638H18.499L18.2065 27H16.1219L19.011 18.4667H20.9981L23.8994 27H21.8149ZM18.9379 24.4156H21.0834L20.0107 20.6244L18.9379 24.4156ZM28.6469 21.1242H30.512V26.8171C30.512 27.7274 30.2316 28.4344 29.6709 28.9383C29.1426 29.3934 28.4234 29.621 27.5131 29.621C26.5623 29.621 25.839 29.4178 25.3432 29.0114C24.8637 28.6051 24.6199 28.089 24.6118 27.4632H26.4891C26.5298 27.9915 26.8711 28.2556 27.5131 28.2556C28.269 28.2556 28.6469 27.8168 28.6469 26.939V26.0248C28.3055 26.6749 27.6838 27 26.7817 27C26.0584 27 25.5139 26.7806 25.1482 26.3417C24.7906 25.9029 24.6118 25.3015 24.6118 24.5375V21.1242H26.477V24.2571C26.477 25.1023 26.8223 25.525 27.5131 25.525C27.8789 25.525 28.1592 25.3949 28.3543 25.1349C28.5493 24.8667 28.6469 24.501 28.6469 24.0377V21.1242ZM38.0514 25.3543H38.7219V28.4629H36.9055V27H33.3581V28.4629H31.493V25.3543H32.139C32.5048 25.1755 32.6876 24.7773 32.6876 24.1596V21.1242H38.0514V25.3543ZM34.504 22.5017V24.1109C34.504 24.6635 34.3658 25.143 34.0895 25.5493H36.1985V22.5017H34.504ZM43.862 23.5501L41.7165 26.549V27H39.8513V21.1242H41.7165V24.6594L43.862 21.6484V21.1242H45.715V27H43.862V23.5501ZM52.4368 26.3051C51.8516 26.8903 51.0633 27.1829 50.0718 27.1829C49.0803 27.1829 48.2879 26.8903 47.6947 26.3051C47.1014 25.72 46.8048 24.9723 46.8048 24.0621C46.8048 23.1519 47.1014 22.4083 47.6947 21.8312C48.2879 21.2461 49.0803 20.9535 50.0718 20.9535C51.0633 20.9535 51.8516 21.2461 52.4368 21.8312C53.03 22.4083 53.3267 23.1519 53.3267 24.0621C53.3267 24.9723 53.03 25.72 52.4368 26.3051ZM50.0718 25.5981C50.5025 25.5981 50.8439 25.4559 51.0958 25.1714C51.3477 24.887 51.4737 24.5172 51.4737 24.0621C51.4737 23.607 51.3477 23.2372 51.0958 22.9528C50.8439 22.6683 50.5025 22.5261 50.0718 22.5261C49.633 22.5261 49.2876 22.6683 49.0356 22.9528C48.7918 23.2372 48.6699 23.607 48.6699 24.0621C48.6699 24.5172 48.7918 24.887 49.0356 25.1714C49.2876 25.4559 49.633 25.5981 50.0718 25.5981ZM61.8547 24.0621C61.8547 24.8667 61.5865 25.5656 61.0501 26.1589C60.5218 26.7521 59.8148 27.0772 58.929 27.1341V29.4381H57.0638V27.1341C56.1861 27.0772 55.479 26.7521 54.9427 26.1589C54.4063 25.5656 54.1381 24.8667 54.1381 24.0621C54.1381 23.2657 54.4063 22.5708 54.9427 21.9775C55.479 21.3843 56.1861 21.0592 57.0638 21.0023V18.4667H58.929V21.0023C59.8067 21.0592 60.5137 21.3843 61.0501 21.9775C61.5865 22.5708 61.8547 23.2657 61.8547 24.0621ZM55.9667 24.0621C55.9667 24.4928 56.0845 24.8626 56.3202 25.1714C56.5559 25.4721 56.881 25.6225 57.2954 25.6225V22.5017C56.881 22.5017 56.5559 22.6521 56.3202 22.9528C56.0845 23.2535 55.9667 23.6232 55.9667 24.0621ZM58.7095 25.6225C59.1159 25.6225 59.4369 25.4721 59.6726 25.1714C59.9164 24.8626 60.0383 24.4928 60.0383 24.0621C60.0383 23.6232 59.9164 23.2535 59.6726 22.9528C59.4369 22.6521 59.1159 22.5017 58.7095 22.5017V25.6225ZM65.4062 27.1585C64.5529 27.1585 63.8783 26.87 63.3826 26.293C62.8868 25.7159 62.6389 24.9723 62.6389 24.0621C62.6389 23.1681 62.8949 22.4286 63.4069 21.8434C63.9189 21.2583 64.5935 20.9657 65.4306 20.9657C65.845 20.9657 66.2148 21.0551 66.5399 21.2339C66.865 21.4127 67.1088 21.6565 67.2713 21.9653V21.1242H69.1243V27H67.2713V26.171C67.1088 26.4636 66.8569 26.7034 66.5155 26.8903C66.1823 27.0691 65.8125 27.1585 65.4062 27.1585ZM65.9426 25.6103C66.3896 25.6103 66.7349 25.464 66.9788 25.1714C67.2226 24.8789 67.3445 24.5091 67.3445 24.0621C67.3445 23.6232 67.2226 23.2575 66.9788 22.965C66.7349 22.6724 66.3896 22.5261 65.9426 22.5261C65.52 22.5261 65.1786 22.6683 64.9186 22.9528C64.6666 23.2372 64.5407 23.607 64.5407 24.0621C64.5407 24.5172 64.6666 24.891 64.9186 25.1836C65.1786 25.4681 65.52 25.6103 65.9426 25.6103ZM73.5497 20.795C72.867 20.795 72.3266 20.6406 71.9284 20.3318C71.5383 20.0149 71.3229 19.576 71.2823 19.0152H72.6598C72.6842 19.5029 72.9808 19.7467 73.5497 19.7467C74.1267 19.7467 74.4274 19.5029 74.4518 19.0152H75.8171C75.7846 19.5679 75.5652 20.0027 75.1589 20.3196C74.7525 20.6366 74.2161 20.795 73.5497 20.795ZM74.6834 23.5501L72.5379 26.549V27H70.6728V21.1242H72.5379V24.6594L74.6834 21.6484V21.1242H76.5364V27H74.6834V23.5501ZM77.6506 25.4884H77.87C78.3657 25.4884 78.6136 25.1186 78.6136 24.379V21.1242H83.8799V27H82.0148V22.709H80.4666V24.3181C80.4666 25.1796 80.2756 25.8541 79.8936 26.3417C79.5116 26.8293 78.9509 27.0731 78.2113 27.0731H77.6506V25.4884Z" fill="#333333"/>
</svg>
