<svg width="160" height="206" viewBox="0 0 160 206" fill="none" xmlns="http://www.w3.org/2000/svg">
<rect width="160" height="206" fill="#E5E5E5"/>
<g clip-path="url(#clip0_0_1)">
<rect width="164" height="211" rx="1.56531" fill="#B9DCF5"/>
<g opacity="0.1">
<path d="M93.1207 124.929C94.0287 124.328 94.7854 122.977 94.4828 121.925C93.1207 116.819 90.6992 112.163 88.2778 107.507C86.0076 103.152 83.4348 98.9466 80.5593 95.0417C79.0459 92.9391 77.0785 91.1369 74.8084 89.7852C73.749 89.1844 72.2356 89.0342 71.0248 89.4848C69.3601 90.2357 67.3926 91.287 66.6359 92.9391C65.8792 94.5912 65.8792 96.844 66.7873 98.496C67.676 100.26 69.1446 101.64 70.6046 103.012C71.3821 103.743 72.1572 104.472 72.8409 105.254C75.1111 107.958 77.2298 110.811 79.1973 113.665C79.9592 114.736 80.5879 115.886 81.2175 117.039C82.0887 118.633 82.9616 120.23 84.1915 121.625C85.5536 123.277 87.2184 124.929 89.3372 125.68C90.5479 126.431 92.0613 125.68 93.1207 124.929Z" fill="white"/>
<path d="M142.609 132.739C145.182 134.991 147.906 137.394 149.874 140.098C151.841 142.951 153.355 146.105 154.717 149.259C155.776 151.812 156.381 154.666 156.835 157.519C157.289 160.673 157.592 163.827 157.289 166.981C156.835 171.787 156.079 176.593 154.717 181.099C154.105 183.164 152.997 184.935 151.875 186.728L151.874 186.73C151.61 187.153 151.344 187.578 151.084 188.007C149.42 190.41 147.604 192.513 145.636 194.616C143.82 196.568 142.004 198.37 139.734 199.872C136.707 201.825 133.529 203.477 130.199 204.828C127.324 205.88 124.297 206.48 121.27 206.931C118.849 207.231 116.276 207.231 113.854 207.231C113.303 207.207 112.752 207.186 112.201 207.165C109.426 207.061 106.669 206.957 104.017 206.33C101.205 205.696 98.501 204.526 95.8136 203.363L95.8122 203.363C95.3183 203.149 94.8248 202.936 94.3314 202.726C91.91 201.675 89.4885 200.623 87.3697 199.121C84.4942 197.169 81.9214 194.766 79.6513 192.213C77.5325 189.96 75.4137 187.707 74.203 185.004C72.2356 180.798 71.1762 176.143 70.2681 171.487C69.5114 168.033 69.0574 164.428 69.2087 160.824C69.3601 157.97 69.9654 154.966 71.0248 152.263C72.0842 149.259 73.4463 146.255 75.2624 143.552C77.0785 140.849 79.3486 138.446 81.7701 136.193C84.4942 133.79 87.3697 131.537 90.6992 129.735C94.6341 127.632 98.7203 125.98 102.958 124.779C106.59 123.878 110.374 123.277 114.157 123.427C118.092 123.577 122.178 124.478 125.81 125.98C129.594 127.632 132.923 130.185 136.102 132.889C138.22 134.691 140.188 136.944 141.701 139.347C143.366 141.75 144.728 144.303 145.788 147.157C146.696 149.71 147.15 152.563 147.452 155.267C147.755 158.421 147.755 161.424 147.452 164.578L147.421 164.783C146.977 167.725 146.513 170.797 145.182 173.439C143.366 177.344 141.096 181.099 138.069 184.103C135.042 187.106 131.107 189.359 127.173 191.011C123.994 192.363 120.513 192.813 117.184 193.114C113.4 193.264 109.466 193.264 105.833 192.063C102.528 190.969 99.7242 188.757 97.0794 186.669C96.8178 186.463 96.5577 186.258 96.2989 186.055C94.1801 184.403 92.2126 182.451 90.8506 180.198C89.3372 177.494 88.2778 174.491 87.6724 171.487C87.067 168.633 87.067 165.63 87.5211 162.776C87.9751 159.472 88.7318 156.018 90.5479 153.164C92.364 150.16 95.2395 147.757 98.115 145.805C100.536 144.153 103.412 142.951 106.287 142.351C109.466 141.6 112.946 141.299 116.276 141.75C118.372 142.027 120.469 143.073 122.446 144.059L122.448 144.061L122.462 144.067L122.464 144.068L122.797 144.234C122.843 144.257 122.889 144.28 122.935 144.303C125.054 145.504 127.173 146.706 128.535 148.658C130.048 150.611 131.107 153.014 131.864 155.417C132.469 157.67 132.621 159.922 132.621 162.325C132.469 164.128 132.015 165.93 131.41 167.582C130.563 168.528 129.79 169.547 129.04 170.536L129.039 170.537C128.717 170.962 128.399 171.381 128.081 171.787C126.87 173.289 125.508 174.641 123.692 175.542C121.724 176.593 119.303 177.344 117.033 177.494C114.914 177.645 112.644 177.044 110.676 176.143C108.558 175.091 106.741 173.439 105.531 171.487C104.623 169.985 104.623 168.183 104.623 166.531C104.623 165.029 104.925 163.377 105.682 162.175C106.287 161.124 107.498 160.373 108.558 159.772C109.466 159.172 110.374 158.721 111.433 158.571C111.887 158.571 112.644 158.871 112.644 159.322C112.725 159.724 112.502 160.082 112.278 160.444C112.083 160.759 111.887 161.075 111.887 161.424C111.887 162.325 111.887 163.527 112.492 164.128C113.4 165.029 114.763 165.329 115.973 165.479C117.033 165.63 118.243 165.63 119.151 165.029C120.211 164.428 121.27 163.377 121.573 162.175C122.027 160.974 121.724 159.472 121.27 158.27C120.816 157.069 119.757 156.018 118.849 155.116C117.789 154.215 116.579 153.464 115.368 153.164C114.006 152.864 112.644 153.014 111.433 153.314C109.768 153.615 108.255 154.215 106.741 154.816C105.379 155.417 104.017 156.318 103.109 157.369C101.898 158.721 100.839 160.223 100.234 161.875C99.6284 163.527 99.6284 165.329 99.7797 167.131C99.9311 168.784 100.234 170.586 100.839 172.238C101.444 173.74 102.504 175.242 103.715 176.443C105.077 177.795 106.893 178.846 108.709 179.447C110.222 180.048 112.038 180.348 113.703 180.498C115.822 180.648 117.941 180.798 120.059 180.498C122.481 180.048 124.751 179.297 126.87 178.245C128.535 177.344 130.048 176.293 131.259 174.941C132.469 173.589 133.529 171.937 134.437 170.135C135.345 168.333 136.102 166.531 136.404 164.578C136.707 161.575 136.707 158.571 135.95 155.717C135.194 152.413 134.134 149.109 132.167 146.406C130.618 144.171 128.284 142.585 126.017 141.045C125.847 140.929 125.677 140.814 125.508 140.699C123.389 139.197 121.27 137.995 118.849 137.244C116.73 136.493 114.46 136.193 112.341 136.043C110.374 135.893 108.255 136.043 106.287 136.343C104.169 136.643 102.201 137.394 100.234 138.145C98.2663 139.046 96.2989 140.098 94.4828 141.299C92.6667 142.651 90.8506 144.153 89.3372 145.805C87.9751 147.307 86.7643 148.809 85.705 150.611C84.6456 152.413 83.7375 154.366 83.2835 156.468C82.8295 158.27 82.5268 160.223 82.5268 162.175C82.4929 162.881 82.4439 163.587 82.395 164.291L82.3949 164.292C82.2252 166.734 82.057 169.156 82.5268 171.487C83.1322 174.34 84.3429 177.044 85.8563 179.597C87.5211 182.451 89.4885 185.004 91.7586 187.257C94.1801 189.66 96.9042 191.762 99.7797 193.414C101.898 194.616 104.169 195.517 106.59 196.118C109.617 196.869 112.644 197.469 115.822 197.469C118.243 197.469 120.665 197.319 122.935 196.568C124.906 195.981 126.684 195.013 128.479 194.035L128.479 194.035C129.441 193.511 130.407 192.985 131.41 192.513C131.928 192.256 132.453 192.006 132.979 191.755C134.911 190.834 136.858 189.907 138.523 188.608C140.339 187.257 142.004 185.304 143.215 183.502C144.577 181.7 145.485 179.597 146.393 177.494C147.062 175.945 147.485 174.232 147.903 172.536L147.903 172.536C148.052 171.931 148.201 171.328 148.36 170.736C148.966 168.333 149.268 165.93 149.42 163.377L149.442 163.163C149.737 160.388 150.017 157.748 149.722 154.966C149.42 152.113 148.814 149.259 148.209 146.556C147.604 144.453 146.696 142.351 145.788 140.248L145.788 140.248C145.243 138.95 144.541 137.731 143.852 136.533C143.584 136.067 143.318 135.604 143.063 135.142C142.972 134.961 142.854 134.78 142.733 134.596C142.451 134.166 142.155 133.714 142.155 133.189C141.853 132.889 142.458 132.588 142.609 132.739Z" fill="white"/>
<path d="M35.9138 133.189C34.5517 133.189 33.1897 133.94 32.2816 135.142C31.5249 136.043 31.0709 137.395 31.2222 138.596C31.5249 139.948 32.433 141.149 33.341 141.75C34.5314 142.636 35.9169 143.135 37.2844 143.627C38.0031 143.886 38.7169 144.143 39.3947 144.453C40.3027 144.804 41.1939 145.188 42.0852 145.572C43.8676 146.339 45.6501 147.107 47.5671 147.607C49.053 148.017 50.5389 148.158 52.0248 148.3C53.263 148.418 54.5013 148.536 55.7395 148.809C56.8811 149.075 57.9631 149.549 59.0384 150.02C60.3865 150.61 61.724 151.195 63.1553 151.362C64.366 151.512 65.7281 151.062 66.7875 150.01C67.8469 149.109 68.4522 147.457 68.4522 145.955C68.4522 144.604 67.8469 143.102 66.9388 142.501C65.5454 141.579 63.981 141.11 62.4206 140.642C61.4386 140.348 60.4583 140.053 59.5231 139.647C58.8036 139.335 58.0974 139.009 57.3967 138.686C55.7392 137.922 54.112 137.172 52.41 136.644C50.543 135.99 48.5964 135.573 46.6856 135.164C45.9633 135.01 45.2461 134.856 44.5403 134.691C43.7561 134.527 42.9718 134.33 42.1876 134.133C40.0963 133.606 38.0051 133.08 35.9138 133.189Z" fill="white"/>
<path d="M128.383 211.887C128.644 211.869 128.912 211.846 129.183 211.822C131.119 211.656 133.261 211.471 134.588 212.788C136.355 214.425 137.113 216.88 137.862 219.304C138.076 219.995 138.288 220.683 138.523 221.349C139.885 224.954 140.036 225.404 140.944 229.009L141.051 229.468C141.086 229.617 141.121 229.766 141.156 229.915C141.229 230.23 141.303 230.543 141.376 230.856C142.137 234.108 142.88 237.287 143.517 240.573C143.591 240.978 143.702 241.409 143.815 241.853C144.165 243.219 144.543 244.696 143.971 245.83C143.063 247.332 140.944 248.082 139.28 248.082C137.766 248.233 135.95 247.482 134.891 246.43C133.947 245.494 133.484 244.081 133.073 242.828L133.035 242.712C133.023 242.676 133.011 242.641 133 242.605C132.974 242.528 132.949 242.451 132.923 242.375C132.511 240.901 132.368 239.426 132.225 237.952C132.107 236.723 131.988 235.494 131.713 234.265C131.367 232.806 130.823 231.347 130.28 229.888C129.872 228.794 129.464 227.7 129.14 226.606C128.781 225.396 128.763 224.861 128.745 224.377C128.726 223.839 128.71 223.365 128.232 222.1C127.87 221.166 127.23 220.369 126.595 219.578C125.904 218.716 125.218 217.862 124.902 216.844C124.6 215.642 124.902 214.14 125.659 213.239C126.113 212.188 127.324 211.887 128.383 211.887Z" fill="white"/>
<path d="M161.83 184.553C160.468 184.553 159.106 185.304 157.895 186.055C156.987 186.506 156.23 187.557 156.079 188.308C156.079 189.81 156.079 191.762 157.289 192.663C158.639 193.811 160.419 194.35 162.237 194.9C163.273 195.214 164.322 195.531 165.311 195.967C166.7 196.558 168.09 197.214 169.436 197.849L169.437 197.85L169.437 197.85L169.438 197.85C170.144 198.183 170.839 198.511 171.516 198.821C172.418 199.269 173.342 199.696 174.271 200.126C175.834 200.848 177.413 201.578 178.931 202.426C180.013 203.057 181.014 203.821 182.014 204.584C183.392 205.636 184.768 206.685 186.347 207.382C187.558 207.832 189.071 207.982 190.282 207.532C190.356 207.505 190.431 207.478 190.507 207.451C192.145 206.863 194.25 206.107 194.973 204.528C195.73 202.876 195.125 200.473 193.914 198.971C191.644 196.118 188.466 194.165 185.288 192.363C180.899 189.81 176.358 187.557 171.667 185.905C168.489 184.854 165.159 184.553 161.83 184.553Z" fill="white"/>
<path d="M64.6686 177.945C64.6872 178.204 64.7104 178.47 64.734 178.739C64.9019 180.66 65.0876 182.786 63.7605 184.103C62.1115 185.856 59.6375 186.609 57.1945 187.352C56.4986 187.564 55.8052 187.774 55.1341 188.008C51.5019 189.359 51.0479 189.509 47.4157 190.411C43.6321 191.462 39.6973 192.363 35.7624 192.964C35.3548 193.037 34.92 193.147 34.4735 193.259L34.4732 193.259C33.0962 193.606 31.6082 193.981 30.4654 193.414C28.952 192.513 28.1953 190.411 28.1953 188.758C28.044 187.257 28.8007 185.454 29.8601 184.403C30.8036 183.467 32.2274 183.007 33.4898 182.599L33.4915 182.599L33.495 182.598C33.6482 182.548 33.799 182.499 33.9463 182.451C35.4321 182.041 36.918 181.9 38.4039 181.758C39.6421 181.64 40.8805 181.522 42.1187 181.249C43.5889 180.906 45.0591 180.366 46.5292 179.827C47.6319 179.422 48.7345 179.018 49.8371 178.696C51.0557 178.34 51.5953 178.322 52.083 178.305C52.6249 178.286 53.1028 178.269 54.3774 177.795C55.319 177.435 56.122 176.801 56.919 176.171C57.7873 175.485 58.6485 174.804 59.6743 174.491C60.8851 174.19 62.3985 174.491 63.3065 175.242C64.3659 175.692 64.6686 176.894 64.6686 177.945Z" fill="white"/>
<path d="M92.2126 211.136C92.2126 209.785 91.4558 208.433 90.6991 207.232C90.0938 206.33 89.1857 205.579 88.2777 205.279C86.7643 205.279 84.7968 205.279 83.8888 206.481C82.7319 207.82 82.1891 209.586 81.6346 211.39C81.3186 212.419 80.9987 213.459 80.5593 214.441C79.9636 215.82 79.3029 217.199 78.6625 218.536L78.6623 218.536C78.3264 219.237 77.9962 219.927 77.6838 220.598C77.2324 221.494 76.8021 222.411 76.3694 223.333L76.3692 223.333C75.6411 224.884 74.9058 226.45 74.0516 227.957C73.4154 229.031 72.6456 230.024 71.8769 231.016C70.8169 232.384 69.7591 233.75 69.0573 235.317C68.6033 236.518 68.452 238.02 69.0573 239.372C69.0842 239.445 69.1114 239.52 69.139 239.595C69.7317 241.221 70.4934 243.31 72.0841 244.027C73.7489 244.778 76.1704 244.178 77.6838 242.976C80.5593 240.723 82.5267 237.569 84.3428 234.415C86.9156 230.06 89.1857 225.554 90.8505 220.899C91.9099 217.745 92.2126 214.441 92.2126 211.136Z" fill="white"/>
<path d="M158.046 149.109C158.349 147.757 158.954 146.256 160.014 145.354C162.435 143.102 165.159 141.149 168.186 139.797C172.726 137.845 177.721 136.493 182.564 135.442C186.044 134.691 189.828 133.94 193.309 134.541C195.125 134.841 197.244 136.193 197.849 137.995C198.41 139.667 197.41 141.467 196.538 143.037C196.469 143.16 196.402 143.282 196.336 143.402C195.73 144.603 194.52 145.505 193.309 145.955C191.635 146.48 189.911 146.648 188.194 146.816C186.961 146.936 185.733 147.056 184.531 147.307C182.629 147.726 180.802 148.292 178.996 148.851C178.215 149.092 177.438 149.333 176.661 149.56C176.28 149.668 175.894 149.776 175.505 149.885L175.502 149.886C173.729 150.382 171.89 150.897 170.154 151.512C169.157 151.842 168.18 152.312 167.202 152.784C165.506 153.601 163.804 154.421 161.981 154.516C160.468 154.516 159.106 153.314 158.198 152.113C157.895 151.362 157.895 150.01 158.046 149.109Z" fill="white"/>
<path d="M135.364 124.612C135.307 124.617 135.25 124.623 135.194 124.629C134.286 124.779 133.226 124.629 132.318 124.178C132.255 124.147 132.19 124.115 132.123 124.082C131.226 123.642 130.027 123.054 129.745 122.075C129.388 121.011 129.687 119.761 129.978 118.544C130.057 118.215 130.135 117.889 130.199 117.57C130.26 117.361 130.32 117.15 130.38 116.938C130.928 115.022 131.501 113.02 132.318 111.262C133.68 108.108 135.496 105.104 137.464 102.251C140.188 98.3458 143.063 94.7413 146.242 91.287C147.15 90.3859 148.36 89.3346 149.571 89.4848C151.69 89.7851 153.809 90.9866 155.322 92.4885C156.079 93.2394 156.381 94.5911 156.079 95.6424C155.867 96.6947 155.209 97.5257 154.522 98.3939C154.228 98.7649 153.929 99.1426 153.657 99.5473C152.686 101.053 151.667 102.582 150.638 104.126C149.1 106.433 147.541 108.772 146.09 111.112C145.226 112.598 144.494 114.171 143.759 115.749C142.564 118.316 141.364 120.894 139.583 123.127C138.708 124.284 136.852 124.466 135.364 124.612Z" fill="white"/>
</g>
<path d="M108.128 70.9648H51.1103C46.0313 70.9648 41.9139 75.0879 41.9139 80.174V117.011C41.9139 122.097 46.0313 126.22 51.1103 126.22H84.9633L96.9186 138.192V126.22H108.128C113.207 126.22 117.325 122.097 117.325 117.011V80.174C117.325 75.0879 113.207 70.9648 108.128 70.9648Z" fill="#F59655"/>
<path d="M108.958 83.2438L91.7911 92.6614V104.523L108.958 113.941V83.2438Z" fill="#B9DCF5"/>
<path d="M86.2274 113.327H55.6643C52.5916 113.327 50.1006 110.833 50.1006 107.756V89.4291C50.1006 86.3522 52.5916 83.8577 55.6643 83.8577H86.2274C89.3001 83.8577 91.7911 86.3522 91.7911 89.4291V107.756C91.7911 110.833 89.3003 113.327 86.2274 113.327Z" fill="#B9DCF5"/>
<path d="M96.9189 139.727C96.52 139.727 96.1281 139.571 95.8348 139.277L84.3284 127.755H81.3052C80.4589 127.755 79.7725 127.068 79.7725 126.22C79.7725 125.372 80.4589 124.685 81.3052 124.685H84.9633C85.3698 124.685 85.7595 124.847 86.0471 125.135L95.3859 134.487V126.22C95.3859 125.372 96.0723 124.685 96.9186 124.685H108.128C112.354 124.685 115.792 121.242 115.792 117.011V80.174C115.792 75.9424 112.354 72.4997 108.128 72.4997H51.1103C46.8845 72.4997 43.4466 75.9424 43.4466 80.174V117.011C43.4466 121.242 46.8845 124.685 51.1103 124.685H66.6676C67.514 124.685 68.2003 125.372 68.2003 126.22C68.2003 127.068 67.514 127.755 66.6676 127.755H51.1103C45.1942 127.755 40.3811 122.935 40.3811 117.011V80.174C40.3811 74.2498 45.1942 69.43 51.1103 69.43H108.128C114.044 69.43 118.857 74.2498 118.857 80.174V117.011C118.857 122.935 114.044 127.755 108.128 127.755H98.4514V138.192C98.4514 138.813 98.0778 139.372 97.5052 139.61C97.3156 139.689 97.1164 139.727 96.9189 139.727Z" fill="#21396E"/>
<path d="M73.3655 127.755C72.9623 127.755 72.567 127.591 72.2819 127.305C71.9968 127.02 71.8328 126.624 71.8328 126.22C71.8328 125.816 71.9966 125.42 72.2819 125.135C72.5671 124.849 72.9623 124.685 73.3655 124.685C73.7686 124.685 74.1641 124.849 74.449 125.135C74.7341 125.42 74.8982 125.816 74.8982 126.22C74.8982 126.624 74.7342 127.02 74.449 127.305C74.1641 127.591 73.7686 127.755 73.3655 127.755Z" fill="#21396E"/>
<path d="M109.739 81.9231C109.273 81.6469 108.696 81.6372 108.221 81.8975L93.324 90.0704V89.4291C93.324 85.5107 90.1405 82.3228 86.2276 82.3228H55.6643C51.7514 82.3228 48.5679 85.5107 48.5679 89.4291V107.756C48.5679 111.674 51.7514 114.862 55.6643 114.862H86.2274C90.1403 114.862 93.3238 111.674 93.3238 107.756V107.114L108.221 115.287C108.451 115.413 108.704 115.476 108.958 115.476C109.228 115.476 109.498 115.404 109.739 115.262C110.205 114.985 110.491 114.483 110.491 113.941V83.2437C110.491 82.7016 110.205 82.1996 109.739 81.9231ZM90.2584 107.756C90.2584 109.981 88.45 111.792 86.2274 111.792H55.6643C53.4417 111.792 51.6334 109.981 51.6334 107.756V107.495H63.1973C64.0436 107.495 64.73 106.807 64.73 105.96C64.73 105.112 64.0436 104.425 63.1973 104.425H51.6334V89.4291C51.6334 87.2034 53.4417 85.3926 55.6643 85.3926H86.2274C88.45 85.3926 90.2584 87.2034 90.2584 89.4291V92.6615V104.523V107.756ZM107.425 111.35L93.3238 103.614V93.5706L107.425 85.8348V111.35Z" fill="#21396E"/>
<path d="M68.5256 107.495C67.6792 107.495 66.9853 106.807 66.9853 105.96C66.9853 105.112 67.664 104.425 68.5104 104.425H68.5256C69.3719 104.425 70.0583 105.112 70.0583 105.96C70.0583 106.807 69.3719 107.495 68.5256 107.495Z" fill="#21396E"/>
<path d="M21.5975 22.517C22.1235 22.567 22.5534 22.7758 22.8874 23.1431C23.2296 23.5021 23.4008 23.9779 23.4008 24.5706C23.4008 25.322 23.1503 25.9147 22.6494 26.3488C22.1485 26.7829 21.464 27 20.5957 27H16.8515V18.2343H20.458C21.3262 18.2343 22.0108 18.4388 22.5117 18.8479C23.0209 19.2486 23.2756 19.8038 23.2756 20.5134C23.2756 21.0727 23.1253 21.5235 22.8247 21.8658C22.5242 22.1997 22.1151 22.4168 21.5975 22.517ZM20.0072 19.6994H18.8802V21.8282H20.0072C20.3912 21.8282 20.6918 21.7364 20.9088 21.5527C21.1342 21.3607 21.2469 21.0977 21.2469 20.7638C21.2469 20.4299 21.1384 20.1711 20.9213 19.9874C20.7043 19.7954 20.3996 19.6994 20.0072 19.6994ZM20.1449 25.4597C20.5206 25.4597 20.817 25.3596 21.034 25.1592C21.2511 24.9505 21.3596 24.6666 21.3596 24.3077C21.3596 23.9821 21.2469 23.7233 21.0215 23.5313C20.8045 23.3309 20.5123 23.2307 20.1449 23.2307H18.8802V25.4597H20.1449ZM28.7109 23.4561L26.5069 26.5367V27H24.591V20.9642H26.5069V24.5957L28.7109 21.5026V20.9642H30.6143V27H28.7109V23.4561ZM38.3707 25.3095H39.0594V28.5027H37.1936V27H33.5496V28.5027H31.6336V25.3095H32.2973C32.673 25.1258 32.8608 24.7167 32.8608 24.0823V20.9642H38.3707V25.3095ZM34.7267 22.3792V24.0322C34.7267 24.5999 34.5847 25.0924 34.3009 25.5098H36.4673V22.3792H34.7267ZM45.9963 23.669C45.9963 23.9195 45.9796 24.1991 45.9462 24.508H41.4882C41.5049 24.9004 41.6385 25.2051 41.8889 25.4222C42.1394 25.6392 42.4775 25.7478 42.9032 25.7478C43.4876 25.7478 43.8633 25.5599 44.0303 25.1842H45.9086C45.8168 25.777 45.4912 26.2612 44.9319 26.6368C44.3809 27.0042 43.7047 27.1878 42.9032 27.1878C41.8764 27.1878 41.0666 26.904 40.4739 26.3363C39.8812 25.7686 39.5848 24.9839 39.5848 23.9821C39.5848 22.997 39.8812 22.2206 40.4739 21.6529C41.0666 21.0769 41.8555 20.7889 42.8406 20.7889C43.7756 20.7889 44.5353 21.056 45.1197 21.5903C45.7041 22.1246 45.9963 22.8175 45.9963 23.669ZM41.4882 23.3184H44.1054C44.0971 22.9177 43.9844 22.6088 43.7673 22.3917C43.5502 22.1747 43.2372 22.0661 42.8281 22.0661C42.419 22.0661 42.0935 22.183 41.8514 22.4168C41.6176 22.6422 41.4966 22.9427 41.4882 23.3184ZM52.6097 26.2862C52.0086 26.8873 51.1989 27.1878 50.1804 27.1878C49.1619 27.1878 48.3479 26.8873 47.7385 26.2862C47.1291 25.6851 46.8243 24.9171 46.8243 23.9821C46.8243 23.0471 47.1291 22.2832 47.7385 21.6905C48.3479 21.0894 49.1619 20.7889 50.1804 20.7889C51.1989 20.7889 52.0086 21.0894 52.6097 21.6905C53.2191 22.2832 53.5239 23.0471 53.5239 23.9821C53.5239 24.9171 53.2191 25.6851 52.6097 26.2862ZM50.1804 25.5599C50.6228 25.5599 50.9735 25.4138 51.2322 25.1216C51.491 24.8294 51.6204 24.4496 51.6204 23.9821C51.6204 23.5146 51.491 23.1347 51.2322 22.8425C50.9735 22.5504 50.6228 22.4043 50.1804 22.4043C49.7296 22.4043 49.3748 22.5504 49.116 22.8425C48.8655 23.1347 48.7403 23.5146 48.7403 23.9821C48.7403 24.4496 48.8655 24.8294 49.116 25.1216C49.3748 25.4138 49.7296 25.5599 50.1804 25.5599ZM62.2841 23.9821C62.2841 24.8086 62.0086 25.5265 61.4576 26.1359C60.915 26.7454 60.1887 27.0793 59.2787 27.1377V29.5045H57.3628V27.1377C56.4612 27.0793 55.7349 26.7454 55.1839 26.1359C54.6329 25.5265 54.3574 24.8086 54.3574 23.9821C54.3574 23.164 54.6329 22.4502 55.1839 21.8407C55.7349 21.2313 56.4612 20.8974 57.3628 20.8389V18.2343H59.2787V20.8389C60.1803 20.8974 60.9066 21.2313 61.4576 21.8407C62.0086 22.4502 62.2841 23.164 62.2841 23.9821ZM56.2358 23.9821C56.2358 24.4245 56.3568 24.8044 56.5989 25.1216C56.841 25.4305 57.1749 25.585 57.6007 25.585V22.3792C57.1749 22.3792 56.841 22.5337 56.5989 22.8425C56.3568 23.1514 56.2358 23.5313 56.2358 23.9821ZM59.0533 25.585C59.4707 25.585 59.8005 25.4305 60.0426 25.1216C60.293 24.8044 60.4183 24.4245 60.4183 23.9821C60.4183 23.5313 60.293 23.1514 60.0426 22.8425C59.8005 22.5337 59.4707 22.3792 59.0533 22.3792V25.585ZM65.9324 27.1628C65.0558 27.1628 64.3629 26.8664 63.8536 26.2737C63.3444 25.681 63.0898 24.9171 63.0898 23.9821C63.0898 23.0638 63.3527 22.3041 63.8787 21.703C64.4046 21.1019 65.0975 20.8014 65.9574 20.8014C66.3832 20.8014 66.763 20.8932 67.0969 21.0769C67.4309 21.2605 67.6813 21.511 67.8483 21.8282V20.9642H69.7517V27H67.8483V26.1485C67.6813 26.449 67.4225 26.6953 67.0719 26.8873C66.7296 27.071 66.3498 27.1628 65.9324 27.1628ZM66.4833 25.5724C66.9425 25.5724 67.2973 25.4222 67.5478 25.1216C67.7982 24.8211 67.9234 24.4412 67.9234 23.9821C67.9234 23.5313 67.7982 23.1556 67.5478 22.8551C67.2973 22.5545 66.9425 22.4043 66.4833 22.4043C66.0492 22.4043 65.6986 22.5504 65.4315 22.8425C65.1727 23.1347 65.0433 23.5146 65.0433 23.9821C65.0433 24.4496 65.1727 24.8336 65.4315 25.1342C65.6986 25.4263 66.0492 25.5724 66.4833 25.5724ZM74.2977 20.6261C73.5964 20.6261 73.0412 20.4674 72.6322 20.1502C72.2314 19.8246 72.0102 19.3738 71.9685 18.7978H73.3835C73.4086 19.2987 73.7133 19.5491 74.2977 19.5491C74.8904 19.5491 75.1993 19.2987 75.2243 18.7978H76.6268C76.5934 19.3655 76.368 19.8121 75.9506 20.1377C75.5332 20.4633 74.9822 20.6261 74.2977 20.6261ZM75.4622 23.4561L73.2583 26.5367V27H71.3424V20.9642H73.2583V24.5957L75.4622 21.5026V20.9642H77.3657V27H75.4622V23.4561ZM78.5102 25.4472H78.7356C79.2448 25.4472 79.4995 25.0674 79.4995 24.3077V20.9642H84.9092V27H82.9932V22.5921H81.4029V24.2451C81.4029 25.13 81.2067 25.8229 80.8143 26.3238C80.422 26.8247 79.8459 27.0751 79.0862 27.0751H78.5102V25.4472Z" fill="#333333"/>
</g>
<defs>
<clipPath id="clip0_0_1">
<rect width="160" height="206" rx="1.56531" fill="white"/>
</clipPath>
</defs>
</svg>
