<svg width="344" height="123" viewBox="0 0 344 123" fill="none" xmlns="http://www.w3.org/2000/svg">
<path d="M121 4.54239e-06C137.021 4.54239e-06 152.886 3.15563 167.687 9.28671C182.489 15.4178 195.938 24.4042 207.267 35.733C218.596 47.0617 227.582 60.5109 233.713 75.3126C239.844 90.1143 243 105.979 243 122L121 122V4.54239e-06Z" fill="#F59655"/>
<path d="M-1.11331e-06 0C-1.11331e-06 16.0213 3.12976 31.8857 9.21058 46.6874C15.2914 61.4891 24.2042 74.9383 35.4401 86.267C46.676 97.5958 60.0149 106.582 74.6953 112.713C89.3757 118.844 105.11 122 121 122L121 0L-1.11331e-06 0Z" fill="#2976BC"/>
<path fill-rule="evenodd" clip-rule="evenodd" d="M344 23.1353C339.287 22.936 334.575 23.6282 330.109 25.1802C325.229 26.876 320.746 29.5623 316.938 33.073C313.129 36.5836 310.076 40.844 307.968 45.5906C305.859 50.3373 304.74 55.4692 304.678 60.6691C304.617 65.8689 305.615 71.0262 307.612 75.8219C309.608 80.6176 312.56 84.9497 316.284 88.5504C320.009 92.1511 324.427 94.9438 329.266 96.7558C333.975 98.519 338.984 99.3171 344 99.1049V122.219C336.258 122.423 328.544 121.132 321.275 118.41C313.496 115.497 306.393 111.007 300.405 105.218C294.417 99.4298 289.672 92.4652 286.462 84.7554C283.253 77.0456 281.648 68.7546 281.746 60.395C281.845 52.0354 283.645 43.7851 287.035 36.1541C290.425 28.5232 295.333 21.674 301.455 16.0301C307.578 10.3862 314.785 6.06751 322.631 3.34122C329.006 1.12562 335.694 -2.41114e-05 342.417 3.87357e-10C342.945 1.89208e-06 343.472 0.00693245 344 0.0208089V23.1353Z" fill="#2976BC"/>
<ellipse cx="250.5" cy="34.0671" rx="34.0671" ry="34.5" transform="rotate(90 250.5 34.0671)" fill="#21396E"/>
</svg>
