<svg width="344" height="122" viewBox="0 0 344 122" fill="none" xmlns="http://www.w3.org/2000/svg">
<path d="M291.46 62.3969L235 0V122H344L291.46 62.3969Z" fill="#2976BC"/>
<ellipse cx="310.658" cy="33.9235" rx="33.923" ry="33.3414" transform="rotate(90 310.658 33.9235)" fill="#F59655"/>
<path d="M235 61L113 122L113 0L235 61Z" fill="#21396E"/>
<path d="M113.255 122L113.255 0L-3.05176e-05 0L-3.05176e-05 122L113.255 122Z" fill="#F59655"/>
<path d="M85.7804 94.0896C85.7804 95.7217 87.1235 97.0449 88.7804 97.0449C90.4372 97.0449 91.7804 95.7217 91.7804 94.0896C91.7804 92.4574 90.4372 91.1343 88.7804 91.1343C87.1235 91.1343 85.7804 92.4574 85.7804 94.0896Z" fill="#F0F0F1"/>
<path d="M88.7804 77.1346C87.1304 77.1346 85.7804 78.4644 85.7804 80.0898C85.7804 81.7152 87.1304 83.0451 88.7804 83.0451C90.4304 83.0451 91.7804 81.7152 91.7804 80.0898C91.7804 78.4644 90.4304 77.1346 88.7804 77.1346Z" fill="#F0F0F1"/>
<path d="M88.7804 63.0447C87.1304 63.0447 85.7804 64.3746 85.7804 66C85.7804 67.6254 87.1304 68.9553 88.7804 68.9553C90.4304 68.9553 91.7804 67.6254 91.7804 66C91.7804 64.3007 90.4304 63.0447 88.7804 63.0447Z" fill="#F0F0F1"/>
<path d="M85.7804 51.8177C85.7804 53.4498 87.1235 54.773 88.7804 54.773C90.4372 54.773 91.7804 53.4498 91.7804 51.8177C91.7804 50.1855 90.4372 48.8624 88.7804 48.8624C87.1235 48.8624 85.7804 50.1855 85.7804 51.8177Z" fill="#F0F0F1"/>
<path d="M88.7804 34.8677C87.1304 34.8677 85.7804 36.1976 85.7804 37.823C85.7804 39.4484 87.1304 40.7783 88.7804 40.7783C90.4304 40.7783 91.7804 39.4484 91.7804 37.823C91.7804 36.1237 90.4304 34.8677 88.7804 34.8677Z" fill="#F0F0F1"/>
<path d="M88.7804 20.6873C87.1304 20.6873 85.7804 22.0172 85.7804 23.6426C85.7804 25.268 87.1304 26.5979 88.7804 26.5979C90.4304 26.5979 91.7804 25.268 91.7804 23.6426C91.7804 22.0172 90.4304 20.6873 88.7804 20.6873Z" fill="#F0F0F1"/>
<path d="M69.9191 94.0896C69.9191 95.7217 71.2622 97.0449 72.9191 97.0449C74.5759 97.0449 75.9191 95.7217 75.9191 94.0896C75.9191 92.4574 74.5759 91.1343 72.9191 91.1343C71.2622 91.1343 69.9191 92.4574 69.9191 94.0896Z" fill="#F0F0F1"/>
<path d="M72.9191 77.1346C71.2691 77.1346 69.9191 78.4644 69.9191 80.0898C69.9191 81.7152 71.2691 83.0451 72.9191 83.0451C74.5691 83.0451 75.9191 81.7152 75.9191 80.0898C75.8441 78.4644 74.5691 77.1346 72.9191 77.1346Z" fill="#F0F0F1"/>
<path d="M72.9191 63.0442C71.2691 63.0442 69.9191 64.3741 69.9191 65.9995C69.9191 67.6249 71.2691 68.9548 72.9191 68.9548C74.5691 68.9548 75.9191 67.6249 75.9191 65.9995C75.8441 64.3002 74.5691 63.0442 72.9191 63.0442Z" fill="#F0F0F1"/>
<path d="M69.9191 51.8191C69.9191 53.4513 71.2622 54.7744 72.9191 54.7744C74.5759 54.7744 75.9191 53.4513 75.9191 51.8191C75.9191 50.187 74.5759 48.8638 72.9191 48.8638C71.2622 48.8638 69.9191 50.187 69.9191 51.8191Z" fill="#F0F0F1"/>
<path d="M72.9191 34.8677C71.2691 34.8677 69.9191 36.1976 69.9191 37.823C69.9191 39.4484 71.2691 40.7783 72.9191 40.7783C74.5691 40.7783 75.9191 39.4484 75.9191 37.823C75.8441 36.1237 74.5691 34.8677 72.9191 34.8677Z" fill="#F0F0F1"/>
<path d="M72.9191 20.6873C71.2691 20.6873 69.9191 22.0172 69.9191 23.6426C69.9191 25.268 71.2691 26.5979 72.9191 26.5979C74.5691 26.5979 75.9191 25.268 75.9191 23.6426C75.8441 22.0172 74.5691 20.6873 72.9191 20.6873Z" fill="#F0F0F1"/>
<path d="M53.9806 94.0896C53.9806 95.7217 55.3237 97.0449 56.9806 97.0449C58.6374 97.0449 59.9806 95.7217 59.9806 94.0896C59.9806 92.4574 58.6374 91.1343 56.9806 91.1343C55.3237 91.1343 53.9806 92.4574 53.9806 94.0896Z" fill="#F0F0F1"/>
<path d="M56.9806 77.1346C55.3306 77.1346 53.9806 78.4644 53.9806 80.0898C53.9806 81.7152 55.3306 83.0451 56.9806 83.0451C58.6306 83.0451 59.9806 81.7152 59.9806 80.0898C59.9806 78.4644 58.6306 77.1346 56.9806 77.1346Z" fill="#F0F0F1"/>
<path d="M56.9806 63.0442C55.3306 63.0442 53.9806 64.3741 53.9806 65.9995C53.9806 67.6249 55.3306 68.9548 56.9806 68.9548C58.6306 68.9548 59.9806 67.6249 59.9806 65.9995C59.9806 64.3002 58.6306 63.0442 56.9806 63.0442Z" fill="#F0F0F1"/>
<path d="M53.9806 51.8191C53.9806 53.4513 55.3237 54.7744 56.9806 54.7744C58.6374 54.7744 59.9806 53.4513 59.9806 51.8191C59.9806 50.187 58.6374 48.8638 56.9806 48.8638C55.3237 48.8638 53.9806 50.187 53.9806 51.8191Z" fill="#F0F0F1"/>
<path d="M56.9806 34.8677C55.3306 34.8677 53.9806 36.1976 53.9806 37.823C53.9806 39.4484 55.3306 40.7783 56.9806 40.7783C58.6306 40.7783 59.9806 39.4484 59.9806 37.823C59.9806 36.1237 58.6306 34.8677 56.9806 34.8677Z" fill="#F0F0F1"/>
<path d="M56.9806 20.6873C55.3306 20.6873 53.9806 22.0172 53.9806 23.6426C53.9806 25.268 55.3306 26.5979 56.9806 26.5979C58.6306 26.5979 59.9806 25.268 59.9806 23.6426C59.9806 22.0172 58.6306 20.6873 56.9806 20.6873Z" fill="#F0F0F1"/>
<path d="M38.1271 94.0896C38.1271 95.7217 39.4702 97.0449 41.1271 97.0449C42.7839 97.0449 44.1271 95.7217 44.1271 94.0896C44.1271 92.4574 42.7839 91.1343 41.1271 91.1343C39.4702 91.1343 38.1271 92.4574 38.1271 94.0896Z" fill="#F0F0F1"/>
<path d="M41.1271 77.1346C39.4771 77.1346 38.1271 78.4644 38.1271 80.0898C38.1271 81.7152 39.4771 83.0451 41.1271 83.0451C42.7771 83.0451 44.1271 81.7152 44.1271 80.0898C44.0521 78.4644 42.7771 77.1346 41.1271 77.1346Z" fill="#F0F0F1"/>
<path d="M41.1271 63.0442C39.4771 63.0442 38.1271 64.3741 38.1271 65.9995C38.1271 67.6249 39.4771 68.9548 41.1271 68.9548C42.7771 68.9548 44.1271 67.6249 44.1271 65.9995C44.0521 64.3002 42.7771 63.0442 41.1271 63.0442Z" fill="#F0F0F1"/>
<path d="M38.1271 51.8191C38.1271 53.4513 39.4702 54.7744 41.1271 54.7744C42.7839 54.7744 44.1271 53.4513 44.1271 51.8191C44.1271 50.187 42.7839 48.8638 41.1271 48.8638C39.4702 48.8638 38.1271 50.187 38.1271 51.8191Z" fill="#F0F0F1"/>
<path d="M41.1271 34.8677C39.4771 34.8677 38.1271 36.1976 38.1271 37.823C38.1271 39.4484 39.4771 40.7783 41.1271 40.7783C42.7771 40.7783 44.1271 39.4484 44.1271 37.823C44.0521 36.1237 42.7771 34.8677 41.1271 34.8677Z" fill="#F0F0F1"/>
<path d="M41.1271 20.6873C39.4771 20.6873 38.1271 22.0172 38.1271 23.6426C38.1271 25.268 39.4771 26.5979 41.1271 26.5979C42.7771 26.5979 44.1271 25.268 44.1271 23.6426C44.0521 22.0172 42.7771 20.6873 41.1271 20.6873Z" fill="#F0F0F1"/>
<path d="M22.1906 94.0896C22.1906 95.7217 23.5337 97.0449 25.1906 97.0449C26.8474 97.0449 28.1906 95.7217 28.1906 94.0896C28.1906 92.4574 26.8474 91.1343 25.1906 91.1343C23.5337 91.1343 22.1906 92.4574 22.1906 94.0896Z" fill="#F0F0F1"/>
<path d="M25.1906 77.1346C23.5406 77.1346 22.1906 78.4644 22.1906 80.0898C22.1906 81.7152 23.5406 83.0451 25.1906 83.0451C26.8406 83.0451 28.1906 81.7152 28.1906 80.0898C28.1906 78.4644 26.8406 77.1346 25.1906 77.1346Z" fill="#F0F0F1"/>
<path d="M25.1906 63.0442C23.5406 63.0442 22.1906 64.3741 22.1906 65.9995C22.1906 67.6249 23.5406 68.9548 25.1906 68.9548C26.8406 68.9548 28.1906 67.6249 28.1906 65.9995C28.1906 64.3002 26.8406 63.0442 25.1906 63.0442Z" fill="#F0F0F1"/>
<path d="M22.1906 51.8191C22.1906 53.4513 23.5337 54.7744 25.1906 54.7744C26.8474 54.7744 28.1906 53.4513 28.1906 51.8191C28.1906 50.187 26.8474 48.8638 25.1906 48.8638C23.5337 48.8638 22.1906 50.187 22.1906 51.8191Z" fill="#F0F0F1"/>
<path d="M25.1906 34.8677C23.5406 34.8677 22.1906 36.1976 22.1906 37.823C22.1906 39.4484 23.5406 40.7783 25.1906 40.7783C26.8406 40.7783 28.1906 39.4484 28.1906 37.823C28.1906 36.1237 26.8406 34.8677 25.1906 34.8677Z" fill="#F0F0F1"/>
<path d="M25.1906 20.6873C23.5406 20.6873 22.1906 22.0172 22.1906 23.6426C22.1906 25.268 23.5406 26.5979 25.1906 26.5979C26.8406 26.5979 28.1906 25.268 28.1906 23.6426C28.1906 22.0172 26.8406 20.6873 25.1906 20.6873Z" fill="#F0F0F1"/>
</svg>
