<svg width="344" height="122" viewBox="0 0 344 122" fill="none" xmlns="http://www.w3.org/2000/svg">
<path d="M162.54 62.3969L219 0V122H110L162.54 62.3969Z" fill="#21396E"/>
<path d="M219 0C219 16.0213 222.233 31.8857 228.515 46.6874C234.797 61.4891 244.004 74.9383 255.612 86.267C267.219 97.5958 280.999 106.582 296.165 112.713C311.33 118.844 327.585 122 344 122L344 0L219 0Z" fill="#F59655"/>
<path d="M251 0C251 12.2129 253.406 24.3063 258.079 35.5896C262.753 46.8728 269.603 57.1251 278.239 65.7609C286.875 74.3968 297.127 81.2471 308.41 85.9208C319.694 90.5945 331.787 93 344 93L344 0L251 0Z" fill="#FAC08C"/>
<path d="M279.434 0.00012207C279.434 8.62696 281.104 17.1693 284.349 25.1395C287.593 33.1096 292.349 40.3515 298.345 46.4516C304.34 52.5517 311.458 57.3906 319.292 60.6919C327.125 63.9933 335.521 65.6924 344 65.6924L344 0.00012207L279.434 0.00012207Z" fill="#E0EEF8"/>
<path d="M0 63.6482C0 95.875 26.125 122 58.3518 122V122C93.5037 122 122 93.5037 122 58.3518V58.3518C122 26.125 95.875 2.98023e-06 63.6482 2.98023e-06H0V63.6482Z" fill="#2976BC"/>
</svg>
