<svg width="344" height="122" viewBox="0 0 344 122" fill="none" xmlns="http://www.w3.org/2000/svg">
<path fill-rule="evenodd" clip-rule="evenodd" d="M0.621625 1.11719C0.237602 1.5004 0 2.03029 0 2.61567V121.874L122 121.874L0.621625 1.11719Z" fill="#F59655"/>
<path fill-rule="evenodd" clip-rule="evenodd" d="M122 0.498535H2.11742C1.53214 0.498535 1.00234 0.736785 0.619141 1.12188L62.3974 63.3691L122 121.874V0.498535Z" fill="#21396E"/>
<path d="M344 121.874C327.822 121.874 312.306 115.48 300.866 104.099C289.427 92.7175 283 77.2814 283 61.1861C283 45.0907 289.427 29.6546 300.866 18.2735C312.306 6.89238 327.822 0.498538 344 0.498535L344 61.1861L344 121.874Z" fill="#F59655"/>
<path fill-rule="evenodd" clip-rule="evenodd" d="M202.528 122C236.114 122 263.34 94.6894 263.34 61C263.34 27.3106 236.114 0 202.528 0C168.943 0 141.717 27.3106 141.717 61C141.717 94.6894 168.943 122 202.528 122ZM202.053 91.5C218.058 91.5 231.033 77.8447 231.033 61C231.033 44.1553 218.058 30.5 202.053 30.5C186.047 30.5 173.072 44.1553 173.072 61C173.072 77.8447 186.047 91.5 202.053 91.5Z" fill="#F59655"/>
<path fill-rule="evenodd" clip-rule="evenodd" d="M202.604 108.002C228.439 108.002 249.382 86.9935 249.382 61.0786C249.382 35.1637 228.439 14.1555 202.604 14.1555C176.769 14.1555 155.826 35.1637 155.826 61.0786C155.826 86.9935 176.769 108.002 202.604 108.002ZM202.603 89.5827C218.297 89.5827 231.02 76.8207 231.02 61.078C231.02 45.3353 218.297 32.5733 202.603 32.5733C186.909 32.5733 174.187 45.3353 174.187 61.078C174.187 76.8207 186.909 89.5827 202.603 89.5827Z" fill="#FAC08C"/>
</svg>
