<svg width="138" height="293" viewBox="0 0 138 293" fill="none" xmlns="http://www.w3.org/2000/svg">
<path d="M59.973 0.532133C67.8557 0.532133 75.8883 -0.851461 83.171 2.39142C90.4536 5.6343 96.8435 13.4402 102.417 19.4322C107.991 25.4243 112.413 32.5379 115.429 40.3669C118.446 48.1959 119.998 56.587 119.998 65.0611L59.973 65.0611V0.532133Z" fill="#F59655"/>
<path d="M60 65C52.1207 65 44.3185 63.3317 37.039 60.0902C29.7595 56.8488 23.1451 52.0978 17.5736 46.1084C12.0021 40.119 7.58251 33.0086 4.56723 25.1831C1.55195 17.3576 -3.44416e-07 8.97026 0 0.499997L60 0.5V65Z" fill="#2976BC"/>
<circle cx="55" cy="109" r="38" fill="#2976BC"/>
<path fill-rule="evenodd" clip-rule="evenodd" d="M69.5 293C31.6685 293 1 262.331 1 224.5C1 186.668 31.6685 156 69.5 156C107.332 156 138 186.668 138 224.5C138 262.331 107.332 293 69.5 293ZM70.5 259C52.5507 259 38 243.554 38 224.5C38 205.446 52.5507 190 70.5 190C88.4493 190 103 205.446 103 224.5C103 243.554 88.4493 259 70.5 259Z" fill="#F59655"/>
<path fill-rule="evenodd" clip-rule="evenodd" d="M69.5 278C39.9528 278 16 254.047 16 224.5C16 194.953 39.9528 171 69.5 171C99.0472 171 123 194.953 123 224.5C123 254.047 99.0472 278 69.5 278ZM69.5 257C51.5507 257 37 242.449 37 224.5C37 206.551 51.5507 192 69.5 192C87.4493 192 102 206.551 102 224.5C102 242.449 87.4493 257 69.5 257Z" fill="#FAC08C"/>
</svg>
