<svg width="112" height="297" viewBox="0 0 112 297" fill="none" xmlns="http://www.w3.org/2000/svg">
<path d="M56 111C25.0721 111 0 86.1518 0 55.5C0 24.8482 25.0721 0 56 0C86.9279 0 112 24.8482 112 55.5C112 86.1518 86.9279 111 56 111ZM56 17.7131C34.9429 17.7131 17.8727 34.6309 17.8727 55.5C17.8727 76.3691 34.9429 93.2869 56 93.2869C77.0571 93.2869 94.1273 76.3691 94.1273 55.5C94.1273 34.6309 77.0571 17.7131 56 17.7131Z" fill="#2976BC"/>
<path d="M93.5932 110.814H8.5365V195.022H93.5932V110.814Z" fill="#B9DCF5"/>
<path d="M8.5365 110.814L51.0648 194.834L93.5932 110.814H8.5365Z" fill="#F59655"/>
<path d="M61.7163 246.999L8.53646 195.021L8.53646 296.649L111.203 296.649L61.7163 246.999Z" fill="#2976BC"/>
</svg>
