<svg width="32" height="33" viewBox="0 0 32 33" fill="none" xmlns="http://www.w3.org/2000/svg">
<path fill-rule="evenodd" clip-rule="evenodd" d="M20.018 2.2003C19.5397 1.92416 18.9281 2.08804 18.652 2.56633L17.6317 4.33348L25.4259 8.83348L26.4462 7.06633C26.7223 6.58804 26.5585 5.97645 26.0802 5.7003L20.018 2.2003ZM24.5259 10.3923L16.7317 5.89232L8.81867 19.5981C8.71048 19.7855 8.66599 20.0029 8.69187 20.2177L9.46937 26.6711C9.50924 27.002 9.85565 27.202 10.1622 27.0711L16.1397 24.5177C16.3387 24.4327 16.5047 24.2855 16.6129 24.0981L24.5259 10.3923ZM18.1346 9.00011C18.6129 9.27625 18.7768 9.88784 18.5006 10.3661L14.0006 18.1604C13.7245 18.6387 13.1129 18.8025 12.6346 18.5264C12.1563 18.2502 11.9924 17.6387 12.2686 17.1604L16.7686 9.36613C17.0447 8.88784 17.6563 8.72397 18.1346 9.00011ZM10.6393 22.9459L12.1819 22.7739L12.8044 24.1959L14.347 24.0239L15.215 22.5206L13.0499 21.2706L10.8847 20.0206L10.0168 21.5238L10.6393 22.9459Z" fill="#ffffff"/>
</svg>
