<svg width="12" height="10" viewBox="0 0 12 10" fill="none" xmlns="http://www.w3.org/2000/svg">
<path d="M1.74741 3.83564C1.38049 3.42285 0.748419 3.38567 0.335636 3.75259C-0.0771466 4.11951 -0.114327 4.75158 0.252591 5.16436L1.74741 3.83564ZM5 9L4.25259 9.66436C4.45681 9.89411 4.75534 10.0172 5.06214 9.99807C5.36893 9.97897 5.6499 9.81983 5.82404 9.56653L5 9ZM11.324 1.56653C11.6369 1.11142 11.5216 0.488843 11.0665 0.175958C10.6114 -0.136927 9.98884 -0.0216346 9.67596 0.433471L11.324 1.56653ZM0.252591 5.16436L4.25259 9.66436L5.74741 8.33564L1.74741 3.83564L0.252591 5.16436ZM5.82404 9.56653L11.324 1.56653L9.67596 0.433471L4.17596 8.43347L5.82404 9.56653Z" fill="#2976BC"/>
</svg>
