<svg width="32" height="33" viewBox="0 0 32 33" fill="none" xmlns="http://www.w3.org/2000/svg">
<path fill-rule="evenodd" clip-rule="evenodd" d="M10 27.3V28.5C10 29.0523 10.4477 29.5 11 29.5H25C25.5523 29.5 26 29.0523 26 28.5V8.5C26 7.94772 25.5523 7.5 25 7.5H23.8V26.8C23.8 27.0761 23.5761 27.3 23.3 27.3H10Z" fill="#70A4D2"/>
<path fill-rule="evenodd" clip-rule="evenodd" d="M7 11.3C6.44771 11.3 6 11.7477 6 12.3V25C6 25.2761 6.22386 25.5 6.5 25.5H21.5C21.7761 25.5 22 25.2761 22 25V5C22 4.72386 21.7761 4.5 21.5 4.5H13.8C13.2477 4.5 12.8 4.94772 12.8 5.5V8.9656C12.8 10.2549 11.7549 11.3 10.4656 11.3H7ZM6.17295 9.5C6.14248 9.5 6.12585 9.46578 6.14746 9.44429L10.9737 4.64544C10.9837 4.63554 11 4.64289 11 4.65693V8.9656C11 9.26074 10.7607 9.5 10.4656 9.5H6.17295ZM9 16.4C9 15.9029 9.40294 15.5 9.9 15.5H18.1C18.5971 15.5 19 15.9029 19 16.4C19 16.8971 18.5971 17.3 18.1 17.3H9.9C9.40294 17.3 9 16.8971 9 16.4ZM9.89854 19.5C9.40229 19.5 9 19.9023 9 20.3985C9 20.8948 9.40229 21.2971 9.89853 21.2971H18.1015C18.5977 21.2971 19 20.8948 19 20.3985C19 19.9023 18.5977 19.5 18.1015 19.5H9.89854Z" fill="#70A4D2"/>
</svg>
