<svg width="46" height="54" viewBox="0 0 46 54" fill="none" xmlns="http://www.w3.org/2000/svg">
<rect x="6" y="24.0996" width="14" height="3" rx="1.5" fill="#93B4D2"/>
<rect x="6" y="18.0996" width="23" height="3" rx="1.5" fill="#93B4D2"/>
<rect x="6" y="12.0996" width="23" height="3" rx="1.5" fill="#93B4D2"/>
<mask id="path-4-inside-1_6856_46175" fill="white">
<rect y="0.0996094" width="35" height="45" rx="2"/>
</mask>
<rect y="0.0996094" width="35" height="45" rx="2" stroke="#93B4D2" stroke-width="6" mask="url(#path-4-inside-1_6856_46175)"/>
<mask id="path-5-outside-2_6856_46175" maskUnits="userSpaceOnUse" x="15.3574" y="27.2998" width="31" height="27" fill="black">
<rect fill="white" x="15.3574" y="27.2998" width="31" height="27"/>
<path fill-rule="evenodd" clip-rule="evenodd" d="M31.2635 43.2948C31.1746 43.2981 31.0852 43.2998 30.9954 43.2998C28.5438 43.2998 26.3866 42.0395 25.1362 40.1315C25.102 40.0802 25.0684 40.0284 25.0354 39.9762C24.7469 39.5096 24.5117 39.0066 24.3382 38.4756L24.3395 38.4737C24.1161 37.7894 23.9954 37.0587 23.9954 36.2998C23.9954 32.4338 27.1294 29.2998 30.9954 29.2998C34.8614 29.2998 37.9954 32.4338 37.9954 36.2998C37.9954 37.0551 37.8758 37.7824 37.6545 38.4639C37.5926 38.6545 37.5227 38.8415 37.4453 39.0245C36.4155 41.4591 34.0476 43.1899 31.2635 43.2948ZM30.5379 33.4086C30.7087 32.9979 31.2904 32.9979 31.4612 33.4086L31.9403 34.5604C32.0123 34.7335 32.1751 34.8518 32.362 34.8668L33.6055 34.9665C34.0488 35.002 34.2286 35.5553 33.8908 35.8446L32.9434 36.6562C32.801 36.7781 32.7388 36.9695 32.7823 37.1519L33.0718 38.3653C33.175 38.7979 32.7043 39.1399 32.3248 38.9081L31.2602 38.2578C31.1002 38.1601 30.8989 38.1601 30.7389 38.2578L29.6743 38.9081C29.2948 39.1399 28.8242 38.7979 28.9273 38.3653L29.2168 37.1519C29.2603 36.9695 29.1981 36.7781 29.0557 36.6562L28.1083 35.8446C27.7705 35.5553 27.9503 35.002 28.3936 34.9665L29.6371 34.8668C29.824 34.8518 29.9868 34.7335 30.0588 34.5604L30.5379 33.4086ZM32.5299 45.1695L36.9127 51.6575C37.1169 51.9598 37.5657 51.9487 37.7547 51.6367L39.5128 48.7347C39.5886 48.6095 39.7153 48.5239 39.8597 48.5003L43.2083 47.9527C43.5683 47.8939 43.7461 47.4817 43.5419 47.1794L38.989 40.4394C37.7159 42.8927 35.3466 44.6856 32.5299 45.1695ZM23.005 40.4492L18.4435 47.2018C18.2434 47.4981 18.4099 47.9026 18.7606 47.9721L22.0727 48.6286C22.2047 48.6548 22.3206 48.7331 22.3942 48.8458L24.2397 51.6733C24.4351 51.9727 24.8726 51.9762 25.0727 51.6799L29.4694 45.1713C26.6518 44.6907 24.2808 42.9005 23.005 40.4492Z"/>
</mask>
<path fill-rule="evenodd" clip-rule="evenodd" d="M31.2635 43.2948C31.1746 43.2981 31.0852 43.2998 30.9954 43.2998C28.5438 43.2998 26.3866 42.0395 25.1362 40.1315C25.102 40.0802 25.0684 40.0284 25.0354 39.9762C24.7469 39.5096 24.5117 39.0066 24.3382 38.4756L24.3395 38.4737C24.1161 37.7894 23.9954 37.0587 23.9954 36.2998C23.9954 32.4338 27.1294 29.2998 30.9954 29.2998C34.8614 29.2998 37.9954 32.4338 37.9954 36.2998C37.9954 37.0551 37.8758 37.7824 37.6545 38.4639C37.5926 38.6545 37.5227 38.8415 37.4453 39.0245C36.4155 41.4591 34.0476 43.1899 31.2635 43.2948ZM30.5379 33.4086C30.7087 32.9979 31.2904 32.9979 31.4612 33.4086L31.9403 34.5604C32.0123 34.7335 32.1751 34.8518 32.362 34.8668L33.6055 34.9665C34.0488 35.002 34.2286 35.5553 33.8908 35.8446L32.9434 36.6562C32.801 36.7781 32.7388 36.9695 32.7823 37.1519L33.0718 38.3653C33.175 38.7979 32.7043 39.1399 32.3248 38.9081L31.2602 38.2578C31.1002 38.1601 30.8989 38.1601 30.7389 38.2578L29.6743 38.9081C29.2948 39.1399 28.8242 38.7979 28.9273 38.3653L29.2168 37.1519C29.2603 36.9695 29.1981 36.7781 29.0557 36.6562L28.1083 35.8446C27.7705 35.5553 27.9503 35.002 28.3936 34.9665L29.6371 34.8668C29.824 34.8518 29.9868 34.7335 30.0588 34.5604L30.5379 33.4086ZM32.5299 45.1695L36.9127 51.6575C37.1169 51.9598 37.5657 51.9487 37.7547 51.6367L39.5128 48.7347C39.5886 48.6095 39.7153 48.5239 39.8597 48.5003L43.2083 47.9527C43.5683 47.8939 43.7461 47.4817 43.5419 47.1794L38.989 40.4394C37.7159 42.8927 35.3466 44.6856 32.5299 45.1695ZM23.005 40.4492L18.4435 47.2018C18.2434 47.4981 18.4099 47.9026 18.7606 47.9721L22.0727 48.6286C22.2047 48.6548 22.3206 48.7331 22.3942 48.8458L24.2397 51.6733C24.4351 51.9727 24.8726 51.9762 25.0727 51.6799L29.4694 45.1713C26.6518 44.6907 24.2808 42.9005 23.005 40.4492Z" fill="#93B4D2"/>
<path d="M31.2635 43.2948L31.1883 41.2962H31.1882L31.2635 43.2948ZM25.1362 40.1315L26.8091 39.0353L26.8041 39.0276L26.799 39.0201L25.1362 40.1315ZM25.0354 39.9762L23.3344 41.0281L23.339 41.0355L23.3436 41.0428L25.0354 39.9762ZM24.3382 38.4756L22.6808 37.3562L22.1333 38.1669L22.4371 39.0967L24.3382 38.4756ZM24.3395 38.4737L25.9969 39.593L26.5442 38.7827L26.2408 37.8531L24.3395 38.4737ZM37.6545 38.4639L39.5567 39.0817L39.5567 39.0816L37.6545 38.4639ZM37.4453 39.0245L35.6033 38.2454L35.6033 38.2454L37.4453 39.0245ZM31.4612 33.4086L29.6146 34.1766V34.1766L31.4612 33.4086ZM30.5379 33.4086L32.3845 34.1766V34.1766L30.5379 33.4086ZM31.9403 34.5604L30.0936 35.3285L30.0937 35.3285L31.9403 34.5604ZM32.362 34.8668L32.2022 36.8604L32.362 34.8668ZM33.6055 34.9665L33.7653 32.9729L33.7653 32.9729L33.6055 34.9665ZM33.8908 35.8446L32.5897 34.3257L32.5897 34.3257L33.8908 35.8446ZM32.9434 36.6562L34.2445 38.1751L34.2445 38.1751L32.9434 36.6562ZM32.7823 37.1519L34.7277 36.6878L34.7277 36.6878L32.7823 37.1519ZM33.0718 38.3653L35.0172 37.9013V37.9013L33.0718 38.3653ZM32.3248 38.9081L31.2823 40.6149L31.2823 40.6149L32.3248 38.9081ZM31.2602 38.2578L30.2177 39.9646L30.2177 39.9646L31.2602 38.2578ZM30.7389 38.2578L31.7814 39.9646L31.7814 39.9646L30.7389 38.2578ZM29.6743 38.9081L30.7168 40.6149L30.7168 40.6149L29.6743 38.9081ZM28.9273 38.3653L30.8728 38.8294L30.8728 38.8294L28.9273 38.3653ZM29.2168 37.1519L27.2714 36.6878L27.2714 36.6878L29.2168 37.1519ZM29.0557 36.6562L27.7546 38.1751L27.7546 38.1751L29.0557 36.6562ZM28.1083 35.8446L29.4094 34.3257V34.3257L28.1083 35.8446ZM28.3936 34.9665L28.2338 32.9729L28.2338 32.9729L28.3936 34.9665ZM29.6371 34.8668L29.4773 32.8732H29.4773L29.6371 34.8668ZM30.0588 34.5604L28.2122 33.7923L28.2122 33.7923L30.0588 34.5604ZM36.9127 51.6575L35.2554 52.7771L36.9127 51.6575ZM32.5299 45.1695L32.1913 43.1984L29.1391 43.7227L30.8726 46.289L32.5299 45.1695ZM37.7547 51.6367L39.4653 52.673L39.4653 52.673L37.7547 51.6367ZM39.5128 48.7347L41.2234 49.7709L41.2234 49.7709L39.5128 48.7347ZM39.8597 48.5003L40.1825 50.4741L40.1825 50.4741L39.8597 48.5003ZM43.2083 47.9527L43.531 49.9265L43.2083 47.9527ZM43.5419 47.1794L41.8846 48.2989L41.8846 48.2989L43.5419 47.1794ZM38.989 40.4394L40.6463 39.3199L38.7632 36.5323L37.2137 39.5182L38.989 40.4394ZM18.4435 47.2018L16.7862 46.0822L16.7862 46.0822L18.4435 47.2018ZM23.005 40.4492L24.779 39.5258L23.2281 36.546L21.3477 39.3297L23.005 40.4492ZM18.7606 47.9721L19.1495 46.0103H19.1495L18.7606 47.9721ZM22.0727 48.6286L22.4616 46.6668H22.4616L22.0727 48.6286ZM22.3942 48.8458L24.069 47.7526L24.069 47.7526L22.3942 48.8458ZM24.2397 51.6733L25.9145 50.5801L25.9145 50.5801L24.2397 51.6733ZM25.0727 51.6799L26.73 52.7994V52.7994L25.0727 51.6799ZM29.4694 45.1713L31.1267 46.2908L32.8625 43.7212L29.8057 43.1998L29.4694 45.1713ZM30.9954 45.2998C31.1103 45.2998 31.2248 45.2976 31.3388 45.2933L31.1882 41.2962C31.1244 41.2986 31.0601 41.2998 30.9954 41.2998V45.2998ZM23.4634 41.2277C25.0676 43.6758 27.8413 45.2998 30.9954 45.2998V41.2998C29.2463 41.2998 27.7055 40.4033 26.8091 39.0353L23.4634 41.2277ZM26.799 39.0201C26.7746 38.9836 26.7507 38.9467 26.7273 38.9096L23.3436 41.0428C23.386 41.1101 23.4293 41.1768 23.4735 41.2429L26.799 39.0201ZM26.7365 38.9243C26.5304 38.591 26.3628 38.2324 26.2393 37.8545L22.4371 39.0967C22.6605 39.7807 22.9634 40.4282 23.3344 41.0281L26.7365 38.9243ZM25.9956 39.595L25.9969 39.593L22.6821 37.3543L22.6808 37.3562L25.9956 39.595ZM21.9954 36.2998C21.9954 37.272 22.1503 38.212 22.4382 39.0942L26.2408 37.8531C26.082 37.3667 25.9954 36.8453 25.9954 36.2998H21.9954ZM30.9954 27.2998C26.0248 27.2998 21.9954 31.3292 21.9954 36.2998H25.9954C25.9954 33.5384 28.234 31.2998 30.9954 31.2998V27.2998ZM39.9954 36.2998C39.9954 31.3292 35.9659 27.2998 30.9954 27.2998V31.2998C33.7568 31.2998 35.9954 33.5384 35.9954 36.2998H39.9954ZM39.5567 39.0816C39.842 38.2031 39.9954 37.2674 39.9954 36.2998H35.9954C35.9954 36.8428 35.9096 37.3617 35.7522 37.8461L39.5567 39.0816ZM39.2873 39.8036C39.387 39.568 39.4769 39.3271 39.5567 39.0817L35.7523 37.8461C35.7082 37.9818 35.6584 38.115 35.6033 38.2454L39.2873 39.8036ZM31.3388 45.2933C34.9232 45.1583 37.9649 42.9301 39.2873 39.8036L35.6033 38.2454C34.8662 39.9881 33.172 41.2215 31.1883 41.2962L31.3388 45.2933ZM33.3079 32.6405C32.4539 30.5873 29.5452 30.5873 28.6913 32.6405L32.3845 34.1766C31.8722 35.4086 30.127 35.4086 29.6146 34.1766L33.3079 32.6405ZM33.7869 33.7923L33.3079 32.6405L29.6146 34.1766L30.0936 35.3285L33.7869 33.7923ZM32.5218 32.8732C33.0825 32.9181 33.5709 33.273 33.7869 33.7923L30.0937 35.3285C30.4537 36.194 31.2677 36.7855 32.2022 36.8604L32.5218 32.8732ZM33.7653 32.9729L32.5218 32.8732L32.2022 36.8604L33.4457 36.9601L33.7653 32.9729ZM35.1919 37.3635C36.8808 35.9168 35.9819 33.1506 33.7653 32.9729L33.4457 36.9601C32.1157 36.8535 31.5764 35.1937 32.5897 34.3257L35.1919 37.3635ZM34.2445 38.1751L35.1919 37.3635L32.5897 34.3257L31.6423 35.1372L34.2445 38.1751ZM34.7277 36.6878C34.8583 37.235 34.6717 37.8092 34.2445 38.1751L31.6423 35.1372C30.9303 35.7471 30.6194 36.7041 30.8369 37.616L34.7277 36.6878ZM35.0172 37.9013L34.7277 36.6878L30.8369 37.616L31.1264 38.8294L35.0172 37.9013ZM31.2823 40.6149C33.18 41.774 35.5332 40.0643 35.0172 37.9013L31.1264 38.8294C30.8168 37.5316 32.2286 36.5058 33.3673 37.2012L31.2823 40.6149ZM30.2177 39.9646L31.2823 40.6149L33.3673 37.2012L32.3027 36.551L30.2177 39.9646ZM31.7814 39.9646C31.3014 40.2578 30.6977 40.2578 30.2177 39.9646L32.3027 36.551C31.5027 36.0623 30.4965 36.0623 29.6964 36.551L31.7814 39.9646ZM30.7168 40.6149L31.7814 39.9646L29.6964 36.551L28.6318 37.2012L30.7168 40.6149ZM26.9819 37.9013C26.466 40.0644 28.8191 41.774 30.7168 40.6149L28.6318 37.2012C29.7705 36.5058 31.1824 37.5315 30.8728 38.8294L26.9819 37.9013ZM27.2714 36.6878L26.9819 37.9013L30.8728 38.8294L31.1622 37.616L27.2714 36.6878ZM27.7546 38.1751C27.3274 37.8091 27.1409 37.235 27.2714 36.6878L31.1622 37.616C31.3797 36.7041 31.0688 35.7471 30.3568 35.1372L27.7546 38.1751ZM26.8072 37.3635L27.7546 38.1751L30.3568 35.1372L29.4094 34.3257L26.8072 37.3635ZM28.2338 32.9729C26.0172 33.1506 25.1184 35.9169 26.8072 37.3635L29.4094 34.3257C30.4227 35.1937 29.8835 36.8534 28.5535 36.9601L28.2338 32.9729ZM29.4773 32.8732L28.2338 32.9729L28.5535 36.9601L29.797 36.8604L29.4773 32.8732ZM28.2122 33.7923C28.4282 33.273 28.9166 32.9181 29.4773 32.8732L29.797 36.8604C30.7314 36.7855 31.5455 36.194 31.9055 35.3285L28.2122 33.7923ZM28.6913 32.6405L28.2122 33.7923L31.9055 35.3285L32.3845 34.1766L28.6913 32.6405ZM38.57 50.538L34.1872 44.05L30.8726 46.289L35.2554 52.7771L38.57 50.538ZM36.0441 50.6004C36.6112 49.6644 37.9574 49.6311 38.57 50.538L35.2554 52.7771C36.2765 54.2886 38.5202 54.2331 39.4653 52.673L36.0441 50.6004ZM37.8022 47.6984L36.0441 50.6004L39.4653 52.673L41.2234 49.7709L37.8022 47.6984ZM39.537 46.5265C38.8151 46.6445 38.1811 47.0728 37.8022 47.6984L41.2234 49.7709C40.996 50.1463 40.6156 50.4032 40.1825 50.4741L39.537 46.5265ZM42.8855 45.9789L39.537 46.5265L40.1825 50.4741L43.531 49.9265L42.8855 45.9789ZM41.8846 48.2989C41.272 47.392 41.8055 46.1556 42.8855 45.9789L43.531 49.9265C45.3312 49.6322 46.2203 47.5714 45.1992 46.0599L41.8846 48.2989ZM37.3317 41.559L41.8846 48.2989L45.1992 46.0599L40.6463 39.3199L37.3317 41.559ZM32.8686 47.1406C36.3172 46.5482 39.2101 44.3555 40.7642 41.3606L37.2137 39.5182C36.2217 41.4299 34.376 42.8231 32.1913 43.1984L32.8686 47.1406ZM20.1008 48.3213L24.6623 41.5688L21.3477 39.3297L16.7862 46.0822L20.1008 48.3213ZM19.1495 46.0103C20.2017 46.2188 20.7013 47.4324 20.1008 48.3213L16.7862 46.0822C15.7854 47.5637 16.618 49.5863 18.3717 49.9339L19.1495 46.0103ZM22.4616 46.6668L19.1495 46.0103L18.3717 49.9339L21.6838 50.5905L22.4616 46.6668ZM24.069 47.7526C23.7011 47.1891 23.1217 46.7977 22.4616 46.6668L21.6838 50.5905C21.2877 50.512 20.94 50.2771 20.7193 49.939L24.069 47.7526ZM25.9145 50.5801L24.069 47.7526L20.7193 49.939L22.5649 52.7665L25.9145 50.5801ZM23.4154 50.5604C24.0159 49.6715 25.3282 49.6818 25.9145 50.5801L22.5649 52.7665C23.5421 54.2636 25.7293 54.2809 26.73 52.7994L23.4154 50.5604ZM27.8121 44.0518L23.4154 50.5604L26.73 52.7994L31.1267 46.2908L27.8121 44.0518ZM21.2309 41.3726C22.7884 44.365 25.6834 46.5544 29.1331 47.1428L29.8057 43.1998C27.6203 42.827 25.7732 41.436 24.779 39.5258L21.2309 41.3726Z" fill="#EBF5FC" mask="url(#path-5-outside-2_6856_46175)"/>
</svg>
