<svg width="21" height="21" viewBox="0 0 21 21" fill="none" xmlns="http://www.w3.org/2000/svg">
<path d="M14.0002 4.18623e-06C15.1683 -0.000276259 16.311 0.340386 17.2882 0.980199C18.2654 1.62001 19.0347 2.53115 19.5015 3.60185C19.9684 4.67254 20.1126 5.85622 19.9164 7.00768C19.7203 8.15914 19.1923 9.2283 18.3972 10.084L18.2072 10.278L9.4802 19.005L9.4272 19.055L9.3712 19.1C8.66029 19.7129 7.74402 20.0344 6.80603 20.0002C5.86803 19.966 4.97761 19.5786 4.31321 18.9156C3.64881 18.2526 3.25952 17.363 3.22336 16.4251C3.1872 15.4871 3.50683 14.5702 4.1182 13.858L4.2672 13.694L4.2822 13.683L11.5722 6.379C11.7596 6.19123 12.0139 6.08558 12.2791 6.0853C12.5444 6.08502 12.7989 6.19013 12.9867 6.3775C13.1745 6.56488 13.2801 6.81917 13.2804 7.08444C13.2807 7.34971 13.1756 7.60423 12.9882 7.792L5.6982 15.096L5.6862 15.104C5.39197 15.4182 5.22617 15.8313 5.22151 16.2617C5.21685 16.6922 5.37367 17.1087 5.66103 17.4292C5.94839 17.7497 6.34543 17.9509 6.77383 17.9931C7.20222 18.0352 7.63087 17.9153 7.9752 17.657L8.0972 17.557L8.0982 17.558L16.8002 8.858L16.9592 8.693C17.6593 7.92346 18.0321 6.91143 17.9984 5.87161C17.9647 4.83179 17.5272 3.84601 16.7787 3.12343C16.0302 2.40084 15.0296 1.99829 13.9893 2.0012C12.9489 2.00411 11.9506 2.41224 11.2062 3.139L11.0512 3.299L11.0332 3.311L1.7072 12.641C1.61429 12.7338 1.504 12.8075 1.38264 12.8577C1.26127 12.9079 1.1312 12.9338 0.999849 12.9337C0.868501 12.9337 0.738447 12.9077 0.617115 12.8574C0.495783 12.8071 0.385547 12.7334 0.292703 12.6405C0.199858 12.5476 0.126223 12.4373 0.0760006 12.3159C0.0257786 12.1946 -4.63668e-05 12.0645 6.24931e-08 11.9332C9.38307e-05 11.6679 0.105562 11.4135 0.293203 11.226L9.6022 1.913L9.6482 1.87C10.2083 1.27846 10.8833 0.807492 11.6318 0.485945C12.3803 0.164397 13.1866 -0.000959288 14.0012 4.18623e-06H14.0002Z" fill="#2976BC"/>
</svg>
