<svg width="14" height="12" viewBox="0 0 14 12" fill="none" xmlns="http://www.w3.org/2000/svg">
<path d="M1.6247 6.21913C1.19343 5.87412 0.564141 5.94404 0.219131 6.37531C-0.125878 6.80657 -0.055957 7.43586 0.375305 7.78087L1.6247 6.21913ZM6 11L5.37531 11.7809C5.59108 11.9535 5.86866 12.0291 6.14218 11.9898C6.4157 11.9506 6.66077 11.7998 6.81923 11.5735L6 11ZM13.8192 1.57346C14.1359 1.12101 14.0259 0.497483 13.5735 0.180768C13.121 -0.135946 12.4975 -0.0259117 12.1808 0.426538L13.8192 1.57346ZM0.375305 7.78087L5.37531 11.7809L6.62469 10.2191L1.6247 6.21913L0.375305 7.78087ZM6.81923 11.5735L13.8192 1.57346L12.1808 0.426538L5.18077 10.4265L6.81923 11.5735Z" fill="white"/>
</svg>
