<svg width="42" height="42" viewBox="0 0 42 42" fill="none" xmlns="http://www.w3.org/2000/svg">
<circle cx="21" cy="21" r="20.25" fill="#25B984"/>
<path d="M11.0787 19.5052C10.2532 18.7713 8.98902 18.8457 8.25518 19.6713C7.52135 20.4968 7.59571 21.761 8.42127 22.4948L11.0787 19.5052ZM19.875 30L18.5463 31.4948C18.9864 31.8861 19.5767 32.0634 20.1596 31.9796C20.7425 31.8959 21.2589 31.5594 21.571 31.06L19.875 30ZM32.821 13.06C33.4064 12.1233 33.1217 10.8894 32.185 10.304C31.2483 9.71858 30.0144 10.0033 29.429 10.94L32.821 13.06ZM8.42127 22.4948L18.5463 31.4948L21.2037 28.5052L11.0787 19.5052L8.42127 22.4948ZM21.571 31.06L32.821 13.06L29.429 10.94L18.179 28.94L21.571 31.06Z" fill="white"/>
</svg>
