<svg width="32" height="32" viewBox="0 0 32 32" fill="none" xmlns="http://www.w3.org/2000/svg">
<path d="M16.0002 28.5881C17.4236 28.5881 18.5882 27.4234 18.5882 26H13.4121C13.4121 26.6864 13.6848 27.3447 14.1701 27.83C14.6555 28.3154 15.3138 28.5881 16.0002 28.5881Z" fill="#12A46F"/>
<path fill-rule="evenodd" clip-rule="evenodd" d="M18 5C18 3.89543 17.1046 3 16 3C14.8954 3 14 3.89543 14 5H13.9375C9.99123 5.85853 7.74998 9.09064 7.74998 12.9793V19.839L5 22.7375V24H27V22.7375L24.25 19.839V12.9793C24.25 9.10327 21.995 5.85853 18.0625 5H18Z" fill="#12A46F"/>
</svg>
