<svg width="24" height="24" viewBox="0 0 24 24" fill="none" xmlns="http://www.w3.org/2000/svg">
<circle cx="12" cy="12" r="9" fill="#25B984"/>
<path d="M7.66436 11.2526C7.25158 10.8857 6.61951 10.9229 6.25259 11.3356C5.88567 11.7484 5.92285 12.3805 6.33564 12.7474L7.66436 11.2526ZM11.5 16L10.8356 16.7474C11.0557 16.943 11.3508 17.0317 11.6423 16.9898C11.9338 16.9479 12.1919 16.7797 12.348 16.53L11.5 16ZM17.348 8.53C17.6407 8.06166 17.4983 7.44471 17.03 7.152C16.5617 6.85929 15.9447 7.00166 15.652 7.47L17.348 8.53ZM6.33564 12.7474L10.8356 16.7474L12.1644 15.2526L7.66436 11.2526L6.33564 12.7474ZM12.348 16.53L17.348 8.53L15.652 7.47L10.652 15.47L12.348 16.53Z" fill="white"/>
</svg>
