<svg width="32" height="33" viewBox="0 0 32 33" fill="none" xmlns="http://www.w3.org/2000/svg">
<path fill-rule="evenodd" clip-rule="evenodd" d="M7.01465 4.5V5.5V5.69922H11.1818C11.5605 5.69922 11.9068 5.91322 12.0762 6.25201L12.5234 7.14643C12.6928 7.48522 13.0391 7.69922 13.4178 7.69922H25.7998C26.3521 7.69922 26.7998 8.14693 26.7998 8.69922V21.5H28.0146C28.5669 21.5 29.0146 21.0523 29.0146 20.5V6.5C29.0146 5.94772 28.5669 5.5 28.0146 5.5H16.6327C16.2539 5.5 15.9076 5.286 15.7383 4.94721L15.291 4.05279C15.1216 3.714 14.7754 3.5 14.3966 3.5H8.01465C7.46236 3.5 7.01465 3.94772 7.01465 4.5Z" fill="#ffffff"/>
<path fill-rule="evenodd" clip-rule="evenodd" d="M3.00012 9.5V8.5C3.00012 7.94772 3.44784 7.5 4.00012 7.5H10.3821C10.7609 7.5 11.1071 7.714 11.2765 8.05279L11.7237 8.94721C11.8931 9.286 12.2394 9.5 12.6182 9.5H24.0001C24.5524 9.5 25.0001 9.94772 25.0001 10.5V24.5C25.0001 25.0523 24.5524 25.5 24.0001 25.5H4.00012C3.44784 25.5 3.00012 25.0523 3.00012 24.5V9.5ZM12.106 17.2954C10.5592 17.8423 9.38382 19.0391 9.00843 20.5056C8.8764 21.0214 9.17144 21.5249 9.61084 21.6712C10.8312 22.0776 12.3516 22.3187 13.9999 22.3187C15.6483 22.3187 17.1687 22.0776 18.3892 21.6711C18.8286 21.5247 19.1236 21.0213 18.9916 20.5055C18.6162 19.0393 17.4411 17.8427 15.8947 17.2957C15.4038 17.7585 14.7361 18.0431 14.0005 18.0431C13.2648 18.0431 12.597 17.7584 12.106 17.2954ZM14.0003 16.9652C15.2333 16.9652 16.2329 15.9656 16.2329 14.7326C16.2329 13.4996 15.2333 12.5 14.0003 12.5C12.7673 12.5 11.7677 13.4996 11.7677 14.7326C11.7677 15.9656 12.7673 16.9652 14.0003 16.9652Z" fill="#ffffff"/>
</svg>
