<svg width="317" height="357" viewBox="0 0 317 357" fill="none" xmlns="http://www.w3.org/2000/svg">
<mask id="path-1-outside-1_1_13" maskUnits="userSpaceOnUse" x="0" y="0.189453" width="317" height="357" fill="black">
<rect fill="white" y="0.189453" width="317" height="357"/>
<path fill-rule="evenodd" clip-rule="evenodd" d="M116.535 179.53C116.535 153.53 135.365 132.365 158.496 132.365C181.627 132.365 200.458 153.53 200.458 179.53C200.458 205.529 181.627 226.695 158.496 226.695C135.249 226.695 116.535 205.529 116.535 179.53ZM187.323 147.128C180 138.767 169.771 133.671 158.496 133.671C147.221 133.671 136.993 138.897 129.67 147.128C122.231 155.359 117.698 166.857 117.698 179.53C117.698 192.203 122.347 203.7 129.67 211.931C136.993 220.293 147.221 225.388 158.496 225.388C169.771 225.388 180 220.162 187.323 211.931C194.762 203.7 199.295 192.203 199.295 179.53C199.295 166.857 194.646 155.359 187.323 147.128Z"/>
<path fill-rule="evenodd" clip-rule="evenodd" d="M103.75 179.398C103.75 145.429 128.276 117.861 158.497 117.861C188.719 117.861 213.244 145.429 213.244 179.398C213.244 213.367 188.719 240.935 158.497 240.935C128.276 240.935 103.75 213.367 103.75 179.398ZM196.39 136.805C186.743 125.961 173.259 119.168 158.497 119.168C143.735 119.168 130.252 125.961 120.604 136.805C110.957 147.65 104.912 162.805 104.912 179.398C104.912 195.991 110.957 211.146 120.604 221.99C130.252 232.834 143.735 239.628 158.497 239.628C173.259 239.628 186.743 232.834 196.39 221.99C206.038 211.146 212.082 195.991 212.082 179.398C212.082 162.805 206.038 147.65 196.39 136.805Z"/>
<path fill-rule="evenodd" clip-rule="evenodd" d="M158.503 103.49C121.191 103.49 90.8535 137.46 90.8535 179.529C90.8535 221.468 121.075 255.568 158.503 255.568C195.815 255.568 226.152 221.599 226.152 179.529C226.152 137.59 195.931 103.49 158.503 103.49ZM158.503 104.797C176.868 104.797 193.49 113.158 205.462 126.616C217.435 140.073 224.874 158.756 224.874 179.399C224.874 200.042 217.435 218.725 205.462 232.182C193.49 245.639 176.868 254.001 158.503 254.001C140.138 254.001 123.516 245.639 111.544 232.182C99.5712 218.725 92.1322 200.042 92.1322 179.399C92.1322 158.756 99.5712 140.073 111.544 126.616C123.516 113.158 140.138 104.797 158.503 104.797Z"/>
<path fill-rule="evenodd" clip-rule="evenodd" d="M78.0625 179.528C78.0625 129.619 114.096 89.1172 158.498 89.1172C202.9 89.1172 238.933 129.619 238.933 179.528C238.933 229.437 202.9 269.939 158.498 269.939C114.096 269.939 78.0625 229.437 78.0625 179.528ZM214.524 116.554C200.227 100.353 180.35 90.4238 158.498 90.4238C136.646 90.4238 116.769 100.484 102.472 116.554C88.0588 132.624 79.2249 154.966 79.2249 179.528C79.2249 204.09 88.175 226.432 102.472 242.502C116.769 258.703 136.646 268.632 158.498 268.632C180.35 268.632 200.227 258.572 214.524 242.502C228.937 226.432 237.771 204.09 237.771 179.528C237.771 154.966 228.821 132.624 214.524 116.554Z"/>
<path fill-rule="evenodd" clip-rule="evenodd" d="M158.496 74.6156C107.003 74.6156 65.1582 121.519 65.1582 179.529C65.1582 237.407 106.887 284.442 158.496 284.442C209.988 284.442 251.833 237.538 251.833 179.529C251.833 121.65 210.105 74.6156 158.496 74.6156ZM158.496 75.9221C183.952 75.9221 206.966 87.5501 223.588 106.233C240.21 124.916 250.555 150.916 250.555 179.398C250.555 208.011 240.21 233.88 223.588 252.563C206.966 271.246 183.835 282.874 158.496 282.874C133.04 282.874 110.025 271.246 93.4036 252.563C76.7818 233.88 66.4368 207.88 66.4368 179.398C66.4368 150.785 76.7818 124.916 93.4036 106.233C110.025 87.5501 133.156 75.9221 158.496 75.9221Z"/>
<path fill-rule="evenodd" clip-rule="evenodd" d="M52.377 179.528C52.377 113.68 99.9175 60.2437 158.501 60.2437C217.084 60.2437 264.624 113.68 264.624 179.528C264.624 245.377 217.084 298.813 158.501 298.813C99.9175 298.813 52.377 245.377 52.377 179.528ZM232.775 96.1728C213.713 74.7459 187.443 61.5502 158.501 61.5502C129.442 61.5502 103.172 74.8766 84.2256 96.1728C65.1629 117.6 53.423 147.127 53.423 179.659C53.423 212.322 65.2791 241.849 84.2256 263.145C103.288 284.572 129.558 297.768 158.501 297.768C187.56 297.637 213.829 284.441 232.775 263.145C251.838 241.718 263.578 212.191 263.578 179.659C263.578 146.996 251.722 117.469 232.775 96.1728Z"/>
<path fill-rule="evenodd" clip-rule="evenodd" d="M158.502 45.741C92.829 45.741 39.4766 105.579 39.4766 179.528C39.4766 253.346 92.7128 313.315 158.502 313.315C224.176 313.315 277.528 253.477 277.528 179.528C277.528 105.71 224.292 45.741 158.502 45.741ZM158.502 47.0475C191.049 47.0475 220.456 61.8111 241.844 85.8509C263.115 109.76 276.366 142.946 276.366 179.528C276.366 216.11 263.231 249.165 241.844 273.205C220.573 297.114 191.049 312.008 158.502 312.008C125.956 312.008 96.5485 297.245 75.1611 273.205C53.8899 249.296 40.6389 216.11 40.6389 179.528C40.6389 142.946 53.7736 109.891 75.1611 85.8509C96.4323 61.9417 125.956 47.0475 158.502 47.0475Z"/>
<path fill-rule="evenodd" clip-rule="evenodd" d="M26.6855 179.529C26.6855 97.741 85.7336 31.3701 158.497 31.3701C231.261 31.3701 290.309 97.741 290.309 179.529C290.309 261.316 231.261 327.687 158.497 327.687C85.7336 327.687 26.6855 261.316 26.6855 179.529ZM250.905 75.6609C227.193 49.1387 194.531 32.6766 158.497 32.6766C122.348 32.6766 89.6856 49.1387 66.0897 75.6609C42.4937 102.314 27.8479 139.027 27.8479 179.529C27.8479 220.161 42.4937 256.874 66.0897 283.396C89.8018 309.919 122.464 326.381 158.497 326.381C194.647 326.381 227.309 309.919 250.905 283.396C274.501 256.744 289.147 220.031 289.147 179.529C289.147 138.896 274.501 102.183 250.905 75.6609Z"/>
<path fill-rule="evenodd" clip-rule="evenodd" d="M158.499 16.8674V16.9981C238.3 17.0687 302.981 89.8144 302.981 179.528C302.981 269.286 238.237 342.059 158.383 342.059C78.5287 342.059 13.7852 269.286 13.7852 179.528C13.7852 89.6402 78.5287 16.8674 158.499 16.8674ZM158.499 18.1739C198.136 18.1739 234.053 36.2038 259.973 65.4697C285.894 94.605 302.051 134.976 302.051 179.528C302.051 224.08 286.01 264.452 259.973 293.587C234.053 322.722 198.136 340.883 158.499 340.883C118.863 340.883 82.9457 322.853 57.025 293.587C31.1044 264.452 14.9475 224.08 14.9475 179.528C14.9475 134.976 30.9881 94.605 57.025 65.4697C82.9457 36.3345 118.863 18.1739 158.499 18.1739Z"/>
<path fill-rule="evenodd" clip-rule="evenodd" d="M1 178.222C1 80.3642 71.4391 1.18945 158.5 1.18945C245.445 1.18945 316 80.4948 316 178.222C316 275.949 245.445 355.255 158.5 355.255C71.5553 355.255 1 275.949 1 178.222ZM269.041 53.9726C240.795 22.2243 201.624 2.49597 158.5 2.49597C115.376 2.49597 76.2048 22.2243 47.9594 53.9726C19.7141 85.7209 2.16236 129.75 2.16236 178.222C2.16236 226.694 19.7141 270.723 47.9594 302.471C76.2048 334.22 115.376 353.948 158.5 353.948C201.624 353.948 240.795 334.22 269.041 302.471C297.286 270.723 314.838 226.694 314.838 178.222C314.838 129.75 297.286 85.7209 269.041 53.9726Z"/>
</mask>
<path fill-rule="evenodd" clip-rule="evenodd" d="M116.535 179.53C116.535 153.53 135.365 132.365 158.496 132.365C181.627 132.365 200.458 153.53 200.458 179.53C200.458 205.529 181.627 226.695 158.496 226.695C135.249 226.695 116.535 205.529 116.535 179.53ZM187.323 147.128C180 138.767 169.771 133.671 158.496 133.671C147.221 133.671 136.993 138.897 129.67 147.128C122.231 155.359 117.698 166.857 117.698 179.53C117.698 192.203 122.347 203.7 129.67 211.931C136.993 220.293 147.221 225.388 158.496 225.388C169.771 225.388 180 220.162 187.323 211.931C194.762 203.7 199.295 192.203 199.295 179.53C199.295 166.857 194.646 155.359 187.323 147.128Z" fill="white"/>
<path fill-rule="evenodd" clip-rule="evenodd" d="M103.75 179.398C103.75 145.429 128.276 117.861 158.497 117.861C188.719 117.861 213.244 145.429 213.244 179.398C213.244 213.367 188.719 240.935 158.497 240.935C128.276 240.935 103.75 213.367 103.75 179.398ZM196.39 136.805C186.743 125.961 173.259 119.168 158.497 119.168C143.735 119.168 130.252 125.961 120.604 136.805C110.957 147.65 104.912 162.805 104.912 179.398C104.912 195.991 110.957 211.146 120.604 221.99C130.252 232.834 143.735 239.628 158.497 239.628C173.259 239.628 186.743 232.834 196.39 221.99C206.038 211.146 212.082 195.991 212.082 179.398C212.082 162.805 206.038 147.65 196.39 136.805Z" fill="white"/>
<path fill-rule="evenodd" clip-rule="evenodd" d="M158.503 103.49C121.191 103.49 90.8535 137.46 90.8535 179.529C90.8535 221.468 121.075 255.568 158.503 255.568C195.815 255.568 226.152 221.599 226.152 179.529C226.152 137.59 195.931 103.49 158.503 103.49ZM158.503 104.797C176.868 104.797 193.49 113.158 205.462 126.616C217.435 140.073 224.874 158.756 224.874 179.399C224.874 200.042 217.435 218.725 205.462 232.182C193.49 245.639 176.868 254.001 158.503 254.001C140.138 254.001 123.516 245.639 111.544 232.182C99.5712 218.725 92.1322 200.042 92.1322 179.399C92.1322 158.756 99.5712 140.073 111.544 126.616C123.516 113.158 140.138 104.797 158.503 104.797Z" fill="white"/>
<path fill-rule="evenodd" clip-rule="evenodd" d="M78.0625 179.528C78.0625 129.619 114.096 89.1172 158.498 89.1172C202.9 89.1172 238.933 129.619 238.933 179.528C238.933 229.437 202.9 269.939 158.498 269.939C114.096 269.939 78.0625 229.437 78.0625 179.528ZM214.524 116.554C200.227 100.353 180.35 90.4238 158.498 90.4238C136.646 90.4238 116.769 100.484 102.472 116.554C88.0588 132.624 79.2249 154.966 79.2249 179.528C79.2249 204.09 88.175 226.432 102.472 242.502C116.769 258.703 136.646 268.632 158.498 268.632C180.35 268.632 200.227 258.572 214.524 242.502C228.937 226.432 237.771 204.09 237.771 179.528C237.771 154.966 228.821 132.624 214.524 116.554Z" fill="white"/>
<path fill-rule="evenodd" clip-rule="evenodd" d="M158.496 74.6156C107.003 74.6156 65.1582 121.519 65.1582 179.529C65.1582 237.407 106.887 284.442 158.496 284.442C209.988 284.442 251.833 237.538 251.833 179.529C251.833 121.65 210.105 74.6156 158.496 74.6156ZM158.496 75.9221C183.952 75.9221 206.966 87.5501 223.588 106.233C240.21 124.916 250.555 150.916 250.555 179.398C250.555 208.011 240.21 233.88 223.588 252.563C206.966 271.246 183.835 282.874 158.496 282.874C133.04 282.874 110.025 271.246 93.4036 252.563C76.7818 233.88 66.4368 207.88 66.4368 179.398C66.4368 150.785 76.7818 124.916 93.4036 106.233C110.025 87.5501 133.156 75.9221 158.496 75.9221Z" fill="white"/>
<path fill-rule="evenodd" clip-rule="evenodd" d="M52.377 179.528C52.377 113.68 99.9175 60.2437 158.501 60.2437C217.084 60.2437 264.624 113.68 264.624 179.528C264.624 245.377 217.084 298.813 158.501 298.813C99.9175 298.813 52.377 245.377 52.377 179.528ZM232.775 96.1728C213.713 74.7459 187.443 61.5502 158.501 61.5502C129.442 61.5502 103.172 74.8766 84.2256 96.1728C65.1629 117.6 53.423 147.127 53.423 179.659C53.423 212.322 65.2791 241.849 84.2256 263.145C103.288 284.572 129.558 297.768 158.501 297.768C187.56 297.637 213.829 284.441 232.775 263.145C251.838 241.718 263.578 212.191 263.578 179.659C263.578 146.996 251.722 117.469 232.775 96.1728Z" fill="white"/>
<path fill-rule="evenodd" clip-rule="evenodd" d="M158.502 45.741C92.829 45.741 39.4766 105.579 39.4766 179.528C39.4766 253.346 92.7128 313.315 158.502 313.315C224.176 313.315 277.528 253.477 277.528 179.528C277.528 105.71 224.292 45.741 158.502 45.741ZM158.502 47.0475C191.049 47.0475 220.456 61.8111 241.844 85.8509C263.115 109.76 276.366 142.946 276.366 179.528C276.366 216.11 263.231 249.165 241.844 273.205C220.573 297.114 191.049 312.008 158.502 312.008C125.956 312.008 96.5485 297.245 75.1611 273.205C53.8899 249.296 40.6389 216.11 40.6389 179.528C40.6389 142.946 53.7736 109.891 75.1611 85.8509C96.4323 61.9417 125.956 47.0475 158.502 47.0475Z" fill="white"/>
<path fill-rule="evenodd" clip-rule="evenodd" d="M26.6855 179.529C26.6855 97.741 85.7336 31.3701 158.497 31.3701C231.261 31.3701 290.309 97.741 290.309 179.529C290.309 261.316 231.261 327.687 158.497 327.687C85.7336 327.687 26.6855 261.316 26.6855 179.529ZM250.905 75.6609C227.193 49.1387 194.531 32.6766 158.497 32.6766C122.348 32.6766 89.6856 49.1387 66.0897 75.6609C42.4937 102.314 27.8479 139.027 27.8479 179.529C27.8479 220.161 42.4937 256.874 66.0897 283.396C89.8018 309.919 122.464 326.381 158.497 326.381C194.647 326.381 227.309 309.919 250.905 283.396C274.501 256.744 289.147 220.031 289.147 179.529C289.147 138.896 274.501 102.183 250.905 75.6609Z" fill="white"/>
<path fill-rule="evenodd" clip-rule="evenodd" d="M158.499 16.8674V16.9981C238.3 17.0687 302.981 89.8144 302.981 179.528C302.981 269.286 238.237 342.059 158.383 342.059C78.5287 342.059 13.7852 269.286 13.7852 179.528C13.7852 89.6402 78.5287 16.8674 158.499 16.8674ZM158.499 18.1739C198.136 18.1739 234.053 36.2038 259.973 65.4697C285.894 94.605 302.051 134.976 302.051 179.528C302.051 224.08 286.01 264.452 259.973 293.587C234.053 322.722 198.136 340.883 158.499 340.883C118.863 340.883 82.9457 322.853 57.025 293.587C31.1044 264.452 14.9475 224.08 14.9475 179.528C14.9475 134.976 30.9881 94.605 57.025 65.4697C82.9457 36.3345 118.863 18.1739 158.499 18.1739Z" fill="white"/>
<path fill-rule="evenodd" clip-rule="evenodd" d="M1 178.222C1 80.3642 71.4391 1.18945 158.5 1.18945C245.445 1.18945 316 80.4948 316 178.222C316 275.949 245.445 355.255 158.5 355.255C71.5553 355.255 1 275.949 1 178.222ZM269.041 53.9726C240.795 22.2243 201.624 2.49597 158.5 2.49597C115.376 2.49597 76.2048 22.2243 47.9594 53.9726C19.7141 85.7209 2.16236 129.75 2.16236 178.222C2.16236 226.694 19.7141 270.723 47.9594 302.471C76.2048 334.22 115.376 353.948 158.5 353.948C201.624 353.948 240.795 334.22 269.041 302.471C297.286 270.723 314.838 226.694 314.838 178.222C314.838 129.75 297.286 85.7209 269.041 53.9726Z" fill="white"/>
<path fill-rule="evenodd" clip-rule="evenodd" d="M116.535 179.53C116.535 153.53 135.365 132.365 158.496 132.365C181.627 132.365 200.458 153.53 200.458 179.53C200.458 205.529 181.627 226.695 158.496 226.695C135.249 226.695 116.535 205.529 116.535 179.53ZM187.323 147.128C180 138.767 169.771 133.671 158.496 133.671C147.221 133.671 136.993 138.897 129.67 147.128C122.231 155.359 117.698 166.857 117.698 179.53C117.698 192.203 122.347 203.7 129.67 211.931C136.993 220.293 147.221 225.388 158.496 225.388C169.771 225.388 180 220.162 187.323 211.931C194.762 203.7 199.295 192.203 199.295 179.53C199.295 166.857 194.646 155.359 187.323 147.128Z" stroke="white" stroke-width="2" mask="url(#path-1-outside-1_1_13)"/>
<path fill-rule="evenodd" clip-rule="evenodd" d="M103.75 179.398C103.75 145.429 128.276 117.861 158.497 117.861C188.719 117.861 213.244 145.429 213.244 179.398C213.244 213.367 188.719 240.935 158.497 240.935C128.276 240.935 103.75 213.367 103.75 179.398ZM196.39 136.805C186.743 125.961 173.259 119.168 158.497 119.168C143.735 119.168 130.252 125.961 120.604 136.805C110.957 147.65 104.912 162.805 104.912 179.398C104.912 195.991 110.957 211.146 120.604 221.99C130.252 232.834 143.735 239.628 158.497 239.628C173.259 239.628 186.743 232.834 196.39 221.99C206.038 211.146 212.082 195.991 212.082 179.398C212.082 162.805 206.038 147.65 196.39 136.805Z" stroke="white" stroke-width="2" mask="url(#path-1-outside-1_1_13)"/>
<path fill-rule="evenodd" clip-rule="evenodd" d="M158.503 103.49C121.191 103.49 90.8535 137.46 90.8535 179.529C90.8535 221.468 121.075 255.568 158.503 255.568C195.815 255.568 226.152 221.599 226.152 179.529C226.152 137.59 195.931 103.49 158.503 103.49ZM158.503 104.797C176.868 104.797 193.49 113.158 205.462 126.616C217.435 140.073 224.874 158.756 224.874 179.399C224.874 200.042 217.435 218.725 205.462 232.182C193.49 245.639 176.868 254.001 158.503 254.001C140.138 254.001 123.516 245.639 111.544 232.182C99.5712 218.725 92.1322 200.042 92.1322 179.399C92.1322 158.756 99.5712 140.073 111.544 126.616C123.516 113.158 140.138 104.797 158.503 104.797Z" stroke="white" stroke-width="2" mask="url(#path-1-outside-1_1_13)"/>
<path fill-rule="evenodd" clip-rule="evenodd" d="M78.0625 179.528C78.0625 129.619 114.096 89.1172 158.498 89.1172C202.9 89.1172 238.933 129.619 238.933 179.528C238.933 229.437 202.9 269.939 158.498 269.939C114.096 269.939 78.0625 229.437 78.0625 179.528ZM214.524 116.554C200.227 100.353 180.35 90.4238 158.498 90.4238C136.646 90.4238 116.769 100.484 102.472 116.554C88.0588 132.624 79.2249 154.966 79.2249 179.528C79.2249 204.09 88.175 226.432 102.472 242.502C116.769 258.703 136.646 268.632 158.498 268.632C180.35 268.632 200.227 258.572 214.524 242.502C228.937 226.432 237.771 204.09 237.771 179.528C237.771 154.966 228.821 132.624 214.524 116.554Z" stroke="white" stroke-width="2" mask="url(#path-1-outside-1_1_13)"/>
<path fill-rule="evenodd" clip-rule="evenodd" d="M158.496 74.6156C107.003 74.6156 65.1582 121.519 65.1582 179.529C65.1582 237.407 106.887 284.442 158.496 284.442C209.988 284.442 251.833 237.538 251.833 179.529C251.833 121.65 210.105 74.6156 158.496 74.6156ZM158.496 75.9221C183.952 75.9221 206.966 87.5501 223.588 106.233C240.21 124.916 250.555 150.916 250.555 179.398C250.555 208.011 240.21 233.88 223.588 252.563C206.966 271.246 183.835 282.874 158.496 282.874C133.04 282.874 110.025 271.246 93.4036 252.563C76.7818 233.88 66.4368 207.88 66.4368 179.398C66.4368 150.785 76.7818 124.916 93.4036 106.233C110.025 87.5501 133.156 75.9221 158.496 75.9221Z" stroke="white" stroke-width="2" mask="url(#path-1-outside-1_1_13)"/>
<path fill-rule="evenodd" clip-rule="evenodd" d="M52.377 179.528C52.377 113.68 99.9175 60.2437 158.501 60.2437C217.084 60.2437 264.624 113.68 264.624 179.528C264.624 245.377 217.084 298.813 158.501 298.813C99.9175 298.813 52.377 245.377 52.377 179.528ZM232.775 96.1728C213.713 74.7459 187.443 61.5502 158.501 61.5502C129.442 61.5502 103.172 74.8766 84.2256 96.1728C65.1629 117.6 53.423 147.127 53.423 179.659C53.423 212.322 65.2791 241.849 84.2256 263.145C103.288 284.572 129.558 297.768 158.501 297.768C187.56 297.637 213.829 284.441 232.775 263.145C251.838 241.718 263.578 212.191 263.578 179.659C263.578 146.996 251.722 117.469 232.775 96.1728Z" stroke="white" stroke-width="2" mask="url(#path-1-outside-1_1_13)"/>
<path fill-rule="evenodd" clip-rule="evenodd" d="M158.502 45.741C92.829 45.741 39.4766 105.579 39.4766 179.528C39.4766 253.346 92.7128 313.315 158.502 313.315C224.176 313.315 277.528 253.477 277.528 179.528C277.528 105.71 224.292 45.741 158.502 45.741ZM158.502 47.0475C191.049 47.0475 220.456 61.8111 241.844 85.8509C263.115 109.76 276.366 142.946 276.366 179.528C276.366 216.11 263.231 249.165 241.844 273.205C220.573 297.114 191.049 312.008 158.502 312.008C125.956 312.008 96.5485 297.245 75.1611 273.205C53.8899 249.296 40.6389 216.11 40.6389 179.528C40.6389 142.946 53.7736 109.891 75.1611 85.8509C96.4323 61.9417 125.956 47.0475 158.502 47.0475Z" stroke="white" stroke-width="2" mask="url(#path-1-outside-1_1_13)"/>
<path fill-rule="evenodd" clip-rule="evenodd" d="M26.6855 179.529C26.6855 97.741 85.7336 31.3701 158.497 31.3701C231.261 31.3701 290.309 97.741 290.309 179.529C290.309 261.316 231.261 327.687 158.497 327.687C85.7336 327.687 26.6855 261.316 26.6855 179.529ZM250.905 75.6609C227.193 49.1387 194.531 32.6766 158.497 32.6766C122.348 32.6766 89.6856 49.1387 66.0897 75.6609C42.4937 102.314 27.8479 139.027 27.8479 179.529C27.8479 220.161 42.4937 256.874 66.0897 283.396C89.8018 309.919 122.464 326.381 158.497 326.381C194.647 326.381 227.309 309.919 250.905 283.396C274.501 256.744 289.147 220.031 289.147 179.529C289.147 138.896 274.501 102.183 250.905 75.6609Z" stroke="white" stroke-width="2" mask="url(#path-1-outside-1_1_13)"/>
<path fill-rule="evenodd" clip-rule="evenodd" d="M158.499 16.8674V16.9981C238.3 17.0687 302.981 89.8144 302.981 179.528C302.981 269.286 238.237 342.059 158.383 342.059C78.5287 342.059 13.7852 269.286 13.7852 179.528C13.7852 89.6402 78.5287 16.8674 158.499 16.8674ZM158.499 18.1739C198.136 18.1739 234.053 36.2038 259.973 65.4697C285.894 94.605 302.051 134.976 302.051 179.528C302.051 224.08 286.01 264.452 259.973 293.587C234.053 322.722 198.136 340.883 158.499 340.883C118.863 340.883 82.9457 322.853 57.025 293.587C31.1044 264.452 14.9475 224.08 14.9475 179.528C14.9475 134.976 30.9881 94.605 57.025 65.4697C82.9457 36.3345 118.863 18.1739 158.499 18.1739Z" stroke="white" stroke-width="2" mask="url(#path-1-outside-1_1_13)"/>
<path fill-rule="evenodd" clip-rule="evenodd" d="M1 178.222C1 80.3642 71.4391 1.18945 158.5 1.18945C245.445 1.18945 316 80.4948 316 178.222C316 275.949 245.445 355.255 158.5 355.255C71.5553 355.255 1 275.949 1 178.222ZM269.041 53.9726C240.795 22.2243 201.624 2.49597 158.5 2.49597C115.376 2.49597 76.2048 22.2243 47.9594 53.9726C19.7141 85.7209 2.16236 129.75 2.16236 178.222C2.16236 226.694 19.7141 270.723 47.9594 302.471C76.2048 334.22 115.376 353.948 158.5 353.948C201.624 353.948 240.795 334.22 269.041 302.471C297.286 270.723 314.838 226.694 314.838 178.222C314.838 129.75 297.286 85.7209 269.041 53.9726Z" stroke="white" stroke-width="2" mask="url(#path-1-outside-1_1_13)"/>
</svg>
