<svg width="24" height="24" viewBox="0 0 24 24" fill="none" xmlns="http://www.w3.org/2000/svg">
<rect width="24" height="24" fill="white"/>
<path d="M15.7204 14.434H15.0429L14.8027 14.2024C15.6432 13.2247 16.1492 11.9554 16.1492 10.5746C16.1492 7.49571 13.6535 5 10.5746 5C7.49571 5 5 7.49571 5 10.5746C5 13.6535 7.49571 16.1492 10.5746 16.1492C11.9554 16.1492 13.2247 15.6432 14.2024 14.8027L14.434 15.0429V15.7204L18.7221 20L20 18.7221L15.7204 14.434ZM10.5746 14.434C8.43911 14.434 6.71527 12.7101 6.71527 10.5746C6.71527 8.43911 8.43911 6.71527 10.5746 6.71527C12.7101 6.71527 14.434 8.43911 14.434 10.5746C14.434 12.7101 12.7101 14.434 10.5746 14.434Z" fill="#BDBDBD"/>
</svg>
