<svg width="32" height="33" viewBox="0 0 32 33" fill="none" xmlns="http://www.w3.org/2000/svg">
<path fill-rule="evenodd" clip-rule="evenodd" d="M11 5.74072H8C7.44772 5.74072 7 6.18844 7 6.74072V21.7407V23.9487V25.7407V26.7407C7 27.293 7.44772 27.7407 8 27.7407H24C24.5523 27.7407 25 27.293 25 26.7407C25 26.1884 24.5523 25.7407 24 25.7407H9.896C9.40115 25.7407 9 25.3396 9 24.8447C9 24.3499 9.40115 23.9487 9.896 23.9487H24C24.5523 23.9487 25 23.501 25 22.9487V6.74072C25 6.18844 24.5523 5.74072 24 5.74072H16V11.9624C16 12.3265 15.6233 12.5685 15.2921 12.4171L13.7079 11.6929C13.5759 11.6325 13.4241 11.6325 13.2921 11.6929L11.7079 12.4171C11.3767 12.5685 11 12.3265 11 11.9624V5.74072Z" fill="#70A4D2"/>
</svg>
