<svg width="32" height="32" viewBox="0 0 32 32" fill="none" xmlns="http://www.w3.org/2000/svg">
<path fill-rule="evenodd" clip-rule="evenodd" d="M17.5275 21.8697L21.9117 28.3599C22.1159 28.6622 22.5647 28.6511 22.7537 28.339L24.5117 25.437C24.5875 25.3119 24.7143 25.2262 24.8587 25.2026L28.2073 24.6551C28.5673 24.5962 28.7451 24.184 28.5409 23.8817L23.9876 17.1412C22.714 19.5941 20.3444 21.3865 17.5275 21.8697ZM16.2609 19.9947L15.1958 18.418C15.0413 18.1892 15.1014 17.8784 15.3303 17.7238L21.1308 13.8055C21.3597 13.6509 21.6705 13.7111 21.825 13.9399L22.6533 15.1661C21.7672 17.8914 19.2544 19.8829 16.2609 19.9947Z" fill="#70A4D2"/>
<path fill-rule="evenodd" clip-rule="evenodd" d="M8.01635 17.1359L3.44364 23.9051C3.24348 24.2014 3.41 24.6059 3.76074 24.6754L7.07279 25.3319C7.20481 25.3581 7.32071 25.4364 7.39427 25.5491L9.23981 28.3766C9.43525 28.676 9.87268 28.6795 10.0728 28.3832L14.5278 21.7884C11.6956 21.3516 9.30411 19.5797 8.01635 17.1359ZM9.3296 15.1918C10.2384 17.9064 12.7836 19.871 15.7937 19.9143L16.1573 19.376C16.3119 19.1472 16.2517 18.8364 16.0229 18.6818L10.2223 14.7635C9.9935 14.6089 9.6827 14.6691 9.52812 14.8979L9.3296 15.1918Z" fill="#70A4D2"/>
<path fill-rule="evenodd" clip-rule="evenodd" d="M15.9951 20C19.8611 20 22.9951 16.866 22.9951 13C22.9951 9.13401 19.8611 6 15.9951 6C12.1291 6 8.99512 9.13401 8.99512 13C8.99512 16.866 12.1291 20 15.9951 20ZM16.4614 10.1102C16.2906 9.69958 15.7089 9.69958 15.5381 10.1102L15.0591 11.2621C14.987 11.4352 14.8242 11.5535 14.6373 11.5684L13.3939 11.6681C12.9505 11.7037 12.7708 12.2569 13.1085 12.5463L14.0559 13.3578C14.1983 13.4798 14.2605 13.6712 14.217 13.8536L13.9276 15.067C13.8244 15.4996 14.295 15.8415 14.6746 15.6097L15.7392 14.9595C15.8992 14.8617 16.1004 14.8617 16.2604 14.9595L17.325 15.6097C17.7046 15.8415 18.1752 15.4996 18.072 15.067L17.7825 13.8536C17.739 13.6712 17.8012 13.4798 17.9436 13.3578L18.891 12.5463C19.2288 12.2569 19.049 11.7037 18.6057 11.6681L17.3622 11.5684C17.1753 11.5535 17.0125 11.4352 16.9405 11.2621L16.4614 10.1102Z" fill="#70A4D2"/>
</svg>
