<svg width="32" height="33" viewBox="0 0 32 33" fill="none" xmlns="http://www.w3.org/2000/svg">
<path fill-rule="evenodd" clip-rule="evenodd" d="M8.60667 17.502C5.83537 18.4818 3.72944 20.626 3.05688 23.2535C2.82033 24.1776 3.34893 25.0796 4.13619 25.3418C6.32272 26.07 9.04666 26.502 11.9998 26.502C14.9531 26.502 17.6772 26.0699 19.8639 25.3416C20.6511 25.0794 21.1797 24.1774 20.9431 23.2533C20.2706 20.6264 18.1653 18.4824 15.3947 17.5024C14.5151 18.3316 13.3189 18.8415 12.0009 18.8415C10.6827 18.8415 9.48632 18.3314 8.60667 17.502Z" fill="#70A4D2"/>
<path fill-rule="evenodd" clip-rule="evenodd" d="M16.9869 16.1309C17.5215 15.2638 17.8293 14.246 17.8293 13.1574C17.8293 12.2449 17.613 11.3821 17.2281 10.6161C17.9471 9.92491 18.9239 9.5 20 9.5C22.2091 9.5 24 11.2909 24 13.5C24 15.7091 22.2091 17.5 20 17.5C18.7982 17.5 17.7201 16.97 16.9869 16.1309ZM16.0036 13.6704C16.0255 13.5024 16.0369 13.3312 16.0369 13.1574C16.0369 13.099 16.0356 13.041 16.0331 12.9832C16.0113 13.1524 16 13.3249 16 13.5C16 13.5571 16.0012 13.6139 16.0036 13.6704Z" fill="#70A4D2"/>
<path fill-rule="evenodd" clip-rule="evenodd" d="M22.597 25.4001C24.7694 25.2307 26.7453 24.853 28.3774 24.3235C28.74 24.2058 29 23.8812 29 23.4999C29 20.8368 27.0879 18.521 24.2733 17.3378C23.6033 18.3276 22.5207 19.0664 21.2406 19.3605C21.9956 20.3663 22.5614 21.5104 22.8806 22.7572C23.117 23.6806 22.9916 24.6135 22.597 25.4001ZM16.0524 17.7622C16.659 18.4634 17.4912 18.9988 18.4509 19.28C19.6685 20.3491 20.5503 21.7188 20.9431 23.2533C21.1797 24.1774 20.6511 25.0794 19.8639 25.3416C19.7063 25.3941 19.5459 25.445 19.3829 25.4944C16.4321 25.4414 13.7385 25.01 11.6226 24.3235C11.2599 24.2058 11 23.8812 11 23.4999C11 21.5827 11.991 19.8454 13.5964 18.5812C14.2761 18.3519 14.8879 17.9801 15.3947 17.5024C15.6184 17.5815 15.8378 17.6682 16.0524 17.7622Z" fill="#70A4D2"/>
<path d="M16 12.9106C16 15.1198 14.2091 16.9106 12 16.9106C9.79086 16.9106 8 15.1198 8 12.9106C8 10.7015 9.79086 8.91064 12 8.91064C14.2091 8.91064 16 10.7015 16 12.9106Z" fill="#70A4D2"/>
</svg>
