<svg width="32" height="32" viewBox="0 0 32 32" fill="none" xmlns="http://www.w3.org/2000/svg">
<path fill-rule="evenodd" clip-rule="evenodd" d="M11 14C11.5523 14 12 14.4477 12 15V24C12 24.5523 11.5523 25 11 25H7C6.44772 25 6 24.5523 6 24V15C6 14.4477 6.44772 14 7 14H11Z" fill="#ffffff"/>
<path fill-rule="evenodd" clip-rule="evenodd" d="M24 9C24.5523 9 25 9.44772 25 10V24C25 24.5523 24.5523 25 24 25H20C19.4477 25 19 24.5523 19 24V10C19 9.44772 19.4477 9 20 9H24Z" fill="#ffffff"/>
<path d="M21.6038 2.51468C21.8039 2.25468 22.1961 2.25468 22.3962 2.51468L28.3085 10.195C28.5616 10.5238 28.3272 11 27.9123 11H16.0877C15.6728 11 15.4384 10.5238 15.6915 10.195L21.6038 2.51468Z" fill="#ffffff"/>
<path d="M8.6038 7.51468C8.80395 7.25468 9.19605 7.25468 9.3962 7.51468L15.3085 15.195C15.5616 15.5238 15.3272 16 14.9123 16H3.08769C2.67277 16 2.43839 15.5238 2.69148 15.195L8.6038 7.51468Z" fill="#ffffff"/>
</svg>
