<svg width="32" height="33" viewBox="0 0 32 33" fill="none" xmlns="http://www.w3.org/2000/svg">
<path fill-rule="evenodd" clip-rule="evenodd" d="M10.6681 16.2169C9.85766 14.8158 11.411 13.8818 12.0189 13.3481C12.9644 12.4808 13.3696 11.1464 12.0189 9.14493C10.533 6.94329 9.45243 6.34284 7.29122 8.6112C1.75312 16.2169 15.3282 30.6276 23.4328 25.7573C25.8641 23.7558 25.3238 22.6217 23.2301 21.0205C21.3391 19.5527 19.9883 19.8196 19.0428 20.7536C18.435 21.2873 17.3544 22.7551 16.0036 21.8878C14.045 20.6202 11.8163 18.2184 10.6681 16.2169ZM25.9992 17.1509C25.9317 18.0182 24.5809 18.0182 24.6484 17.0842C24.716 12.2139 21.0014 8.27762 16.0711 8.07747C15.1931 8.01076 15.2607 6.67643 16.1387 6.74314C21.8794 7.01001 26.0667 11.48 25.9992 17.1509ZM19.1103 16.884C19.1103 17.8181 17.8271 17.8181 17.7596 16.9508C17.692 15.6164 17.1517 15.016 15.7334 14.8158C14.8555 14.7491 14.9905 13.4148 15.8685 13.4815C17.9622 13.7484 19.0428 14.8825 19.1103 16.884ZM22.5548 16.9508C22.6223 17.8181 21.2715 17.8848 21.204 17.0175C21.0689 13.6149 19.313 11.8136 15.9361 11.4133C15.0581 11.3466 15.1931 10.0122 16.0711 10.079C20.1234 10.546 22.4197 12.9478 22.5548 16.9508Z" fill="#ffffff"/>
</svg>
