<svg width="32" height="33" viewBox="0 0 32 33" fill="none" xmlns="http://www.w3.org/2000/svg">
<path fill-rule="evenodd" clip-rule="evenodd" d="M26 27.5C26.5523 27.5 27 27.0523 27 26.5001L27 15.3001L5 15.3V26.5C5 27.0523 5.44771 27.5 6 27.5L26 27.5ZM9.88293 19.7341C9.3953 19.7341 9 20.1294 9 20.6171C9 21.1047 9.3953 21.5 9.88294 21.5H22.1171C22.6047 21.5 23 21.1047 23 20.6171C23 20.1294 22.6047 19.7341 22.1171 19.7341H9.88293Z" fill="#70A4D2"/>
<path d="M20 7C20 6.72386 20.2239 6.5 20.5 6.5H22.5C22.7761 6.5 23 6.72386 23 7V9C23 9.27614 22.7761 9.5 22.5 9.5H20.5C20.2239 9.5 20 9.27614 20 9V7Z" fill="#70A4D2"/>
<path d="M9 7C9 6.72386 9.22386 6.5 9.5 6.5H11.5C11.7761 6.5 12 6.72386 12 7V9C12 9.27614 11.7761 9.5 11.5 9.5H9.5C9.22386 9.5 9 9.27614 9 9V7Z" fill="#70A4D2"/>
<path fill-rule="evenodd" clip-rule="evenodd" d="M7.2002 8.5H6C5.44772 8.5 5 8.94772 5 9.5V13.5H27V9.5C27 8.94772 26.5523 8.5 26 8.5H24.8002V9C24.8002 10.2703 23.7705 11.3 22.5002 11.3H20.5002C19.2299 11.3 18.2002 10.2703 18.2002 9V8.5H13.8002V9C13.8002 10.2703 12.7705 11.3 11.5002 11.3H9.5002C8.22994 11.3 7.2002 10.2703 7.2002 9V8.5ZM9.0002 8.5H12.0002V9C12.0002 9.27614 11.7763 9.5 11.5002 9.5H9.5002C9.22405 9.5 9.0002 9.27614 9.0002 9V8.5ZM23.0002 8.5H20.0002V9C20.0002 9.27614 20.2241 9.5 20.5002 9.5H22.5002C22.7763 9.5 23.0002 9.27614 23.0002 9V8.5Z" fill="#70A4D2"/>
</svg>
