<svg width="32" height="33" viewBox="0 0 32 33" fill="none" xmlns="http://www.w3.org/2000/svg">
<rect x="11.0004" y="17.7407" width="4" height="12" rx="1" fill="#ffffff"/>
<path fill-rule="evenodd" clip-rule="evenodd" d="M6.29143 11.1944C5.9009 10.8039 5.9009 10.1707 6.29143 9.78017L7.70564 8.36595C8.09617 7.97543 8.72933 7.97543 9.11986 8.36595L12.9088 12.1549C13.2839 12.53 13.7926 12.7407 14.323 12.7407H18.1709C18.7013 12.7407 19.21 12.53 19.5851 12.1549L23.2924 8.44765C23.6829 8.05712 24.3161 8.05712 24.7066 8.44765L26.1208 9.86186C26.5114 10.2524 26.5114 10.8855 26.1208 11.2761L21.5858 15.8111C21.2107 16.1862 21 16.6949 21 17.2254V22.7407C21 23.293 20.5523 23.7407 20 23.7407H12C11.4477 23.7407 11 23.293 11 22.7407V16.7313C11 16.2009 10.7893 15.6922 10.4142 15.3171L6.29143 11.1944Z" fill="#ffffff"/>
<rect x="17.0004" y="17.7407" width="4" height="12" rx="1" fill="#ffffff"/>
<ellipse cx="16.0004" cy="6.74074" rx="4" ry="4" fill="#ffffff"/>
</svg>
