<svg width="32" height="33" viewBox="0 0 32 33" fill="none" xmlns="http://www.w3.org/2000/svg">
<path d="M16 5.50012C13.0825 5.50012 10.2848 6.6591 8.22183 8.72196C6.15898 10.7848 5 13.5829 5 16.5001C5 19.4173 6.15898 22.2153 8.22183 24.2783C10.2847 26.3411 13.0828 27.5001 16 27.5001C18.9172 27.5001 21.7152 26.3411 23.7782 24.2783C25.841 22.2154 27 19.4173 27 16.5001C27 14.5693 26.4917 12.6723 25.5263 11.0001C24.5608 9.32787 23.1722 7.93925 21.5 6.97382C19.8278 6.00839 17.9309 5.50012 16 5.50012ZM17.0243 22.6113H14.878V20.4968H17.0243V22.6113ZM19.9112 15.3168C19.6227 15.7731 19.0051 16.3947 18.0583 17.1819C17.6951 17.4468 17.3856 17.779 17.1465 18.1597C16.9994 18.5875 16.9419 18.7491 16.9777 19.2H14.878V18.9395C14.856 18.3594 14.9716 17.7822 15.2153 17.2554C15.5613 16.6755 16.0181 16.1697 16.5598 15.7666C16.9956 15.4399 17.4044 15.0786 17.782 14.6863C17.9808 14.4314 18.0884 14.1173 18.0876 13.794C18.0867 13.3462 17.8859 12.9222 17.5401 12.6378C17.1307 12.2949 16.6065 12.1201 16.0733 12.1489C15.5395 12.1333 15.0182 12.3121 14.6065 12.6525C14.1746 13.0624 13.8909 13.6039 13.8 14.1925H11.6708C11.7211 13.1394 12.1715 12.1454 12.9297 11.4132C13.7006 10.7302 14.7182 10.3889 15.9829 10.3889C17.3143 10.3889 18.3737 10.7367 19.1607 11.4326C19.898 12.0251 20.3311 12.9167 20.3414 13.8624C20.3414 14.3787 20.1919 14.8837 19.9112 15.3168Z" fill="#ffffff"/>
</svg>
