<svg width="32" height="33" viewBox="0 0 32 33" fill="none" xmlns="http://www.w3.org/2000/svg">
<circle cx="28.5" cy="20.2407" r="1.5" fill="#70A4D2"/>
<path fill-rule="evenodd" clip-rule="evenodd" d="M28 15.477V19.741H29V15.0017L28 15.477Z" fill="#70A4D2"/>
<path d="M15.8279 6.80384C15.939 6.76309 16.061 6.76309 16.1721 6.80384L29.7197 11.7713C30.1569 11.9316 30.1569 12.5499 29.7197 12.7102L16.1721 17.6776C16.061 17.7184 15.939 17.7184 15.8279 17.6776L2.28029 12.7102C1.84312 12.5499 1.84312 11.9316 2.28029 11.7713L15.8279 6.80384Z" fill="#70A4D2"/>
<path fill-rule="evenodd" clip-rule="evenodd" d="M7.00006 16.5709V21.7406C7.00006 23.3975 11.0295 24.7406 16.0001 24.7406C20.9706 24.7406 25.0001 23.3975 25.0001 21.7406V16.5709L16 19.8709L7.00006 16.5709ZM7.00006 14.4407V13.7406H25.0001V14.4407L16 17.7407L7.00006 14.4407Z" fill="#70A4D2"/>
</svg>
