<svg width="24" height="24" viewBox="0 0 24 24" fill="none" xmlns="http://www.w3.org/2000/svg">
<path d="M8.74994 11.25C8.33573 11.25 7.99994 11.5858 7.99994 12C7.99994 12.4142 8.33573 12.75 8.74994 12.75V11.25ZM23.0739 12.5303C23.3668 12.2374 23.3668 11.7626 23.0739 11.4697L18.301 6.6967C18.0081 6.40381 17.5332 6.40381 17.2403 6.6967C16.9474 6.98959 16.9474 7.46447 17.2403 7.75736L21.4829 12L17.2403 16.2426C16.9474 16.5355 16.9474 17.0104 17.2403 17.3033C17.5332 17.5962 18.0081 17.5962 18.301 17.3033L23.0739 12.5303ZM8.74994 12.75H22.5436V11.25H8.74994V12.75Z" fill="#B7B7B7"/>
<path d="M14.0084 7.25C14.0084 7.66421 14.3442 8 14.7584 8C15.1726 8 15.5084 7.66421 15.5084 7.25H14.0084ZM15.5084 16.7676C15.5084 16.3534 15.1726 16.0176 14.7584 16.0176C14.3442 16.0176 14.0084 16.3534 14.0084 16.7676H15.5084ZM3.82033 4.02148H13.1844V2.52148H3.82033V4.02148ZM13.9512 20.0028H3.82033V21.5028H13.9512V20.0028ZM2.99634 19.1789V4.84547H1.49634V19.1789H2.99634ZM14.0084 4.84548V7.25H15.5084V4.84548H14.0084ZM14.0084 16.7676V19.9457H15.5084V16.7676H14.0084ZM3.82033 20.0028C3.36525 20.0028 2.99634 19.6339 2.99634 19.1789H1.49634C1.49634 20.4624 2.53682 21.5028 3.82033 21.5028V20.0028ZM13.9512 21.5028C14.8112 21.5028 15.5084 20.8057 15.5084 19.9457H14.0084C14.0084 19.9772 13.9828 20.0028 13.9512 20.0028V21.5028ZM13.1844 4.02148C13.6395 4.02148 14.0084 4.3904 14.0084 4.84548H15.5084C15.5084 3.56197 14.4679 2.52148 13.1844 2.52148V4.02148ZM3.82033 2.52148C2.53682 2.52148 1.49634 3.56197 1.49634 4.84547H2.99634C2.99634 4.3904 3.36525 4.02148 3.82033 4.02148V2.52148Z" fill="#B7B7B7"/>
</svg>
