<svg width="32" height="32" viewBox="0 0 32 32" fill="none" xmlns="http://www.w3.org/2000/svg">
<path d="M15.9999 28.5881C17.4234 28.5881 18.588 27.4234 18.588 26H13.4119C13.4119 26.6864 13.6845 27.3447 14.1699 27.83C14.6553 28.3154 15.3135 28.5881 15.9999 28.5881Z" fill="white"/>
<path fill-rule="evenodd" clip-rule="evenodd" d="M17.9998 5C17.9998 3.89543 17.1043 3 15.9998 3C14.8952 3 13.9998 3.89543 13.9998 5H13.9372C9.99098 5.85853 7.74973 9.09064 7.74973 12.9793V19.839L4.99976 22.7375V24H26.9998V22.7375L24.2497 19.839V12.9793C24.2497 9.10327 21.9947 5.85853 18.0622 5H17.9998Z" fill="white"/>
</svg>
