<svg width="25" height="25" viewBox="0 0 25 25" fill="none" xmlns="http://www.w3.org/2000/svg">
<path fill-rule="evenodd" clip-rule="evenodd" d="M5.83514 11.8452C4.82207 10.0939 6.76378 8.92635 7.52358 8.25918C8.70549 7.17504 9.21203 5.50713 7.52358 3.00526C5.66629 0.253212 4.31554 -0.497348 1.61402 2.3381C-5.3086 11.8452 11.6603 29.8586 21.7909 23.7708C24.8301 21.2689 24.1548 19.8512 21.5377 17.8497C19.1739 16.015 17.4854 16.3486 16.3035 17.5161C15.5437 18.1833 14.1929 20.018 12.5045 18.9338C10.0563 17.3493 7.27032 14.3471 5.83514 11.8452ZM24.999 13.0127C24.9146 14.0969 23.2261 14.0969 23.3105 12.9293C23.395 6.84146 18.7517 1.92112 12.5889 1.67094C11.4914 1.58754 11.5759 -0.0803705 12.6733 0.00302504C19.8492 0.336607 25.0834 5.92411 24.999 13.0127ZM16.3879 12.6791C16.3879 13.8467 14.7839 13.8467 14.6995 12.7625C14.6151 11.0946 13.9397 10.3441 12.1668 10.0939C11.0693 10.0105 11.2382 8.34258 12.3357 8.42597C14.9527 8.75956 16.3035 10.1773 16.3879 12.6791ZM20.6935 12.7625C20.7779 13.8467 19.0894 13.9301 19.005 12.8459C18.8362 8.59277 16.6412 6.34109 12.4201 5.84071C11.3226 5.75732 11.4914 4.08941 12.5889 4.1728C17.6543 4.75657 20.5246 7.75881 20.6935 12.7625Z" fill="white"/>
</svg>
