<svg width="32" height="33" viewBox="0 0 32 33" fill="none" xmlns="http://www.w3.org/2000/svg">
<path fill-rule="evenodd" clip-rule="evenodd" d="M17 5.5C17 4.94772 16.5523 4.5 16 4.5C15.4477 4.5 15 4.94772 15 5.5H14C13.4477 5.5 13 5.94772 13 6.5V7.5C13 8.05228 13.4477 8.5 14 8.5H18C18.5523 8.5 19 8.05228 19 7.5V6.5C19 5.94772 18.5523 5.5 18 5.5H17Z" fill="#70A4D2"/>
<path fill-rule="evenodd" clip-rule="evenodd" d="M11.2002 6.5H8C7.44772 6.5 7 6.94772 7 7.5V26.5C7 27.0523 7.44772 27.5 8 27.5H24C24.5523 27.5 25 27.0523 25 26.5V7.5C25 6.94772 24.5523 6.5 24 6.5H20.8002C20.8002 6.50007 20.8002 6.50013 20.8002 6.5002V7.5002C20.8002 9.04659 19.5466 10.3002 18.0002 10.3002H14.0002C12.4538 10.3002 11.2002 9.04659 11.2002 7.5002V6.5002C11.2002 6.50013 11.2002 6.50007 11.2002 6.5ZM13.0002 6.5H19.0002C19.0002 6.50007 19.0002 6.50013 19.0002 6.5002V7.5002C19.0002 8.05248 18.5525 8.5002 18.0002 8.5002H14.0002C13.4479 8.5002 13.0002 8.05248 13.0002 7.5002V6.5002C13.0002 6.50013 13.0002 6.50007 13.0002 6.5ZM10 20.5C10 19.9477 10.4477 19.5 11 19.5H21C21.5523 19.5 22 19.9477 22 20.5C22 21.0523 21.5523 21.5 21 21.5H11C10.4477 21.5 10 21.0523 10 20.5ZM15 14.5C14.4477 14.5 14 14.9477 14 15.5C14 16.0523 14.4477 16.5 15 16.5H21C21.5523 16.5 22 16.0523 22 15.5C22 14.9477 21.5523 14.5 21 14.5H15ZM12 15.5C12 16.0523 11.5523 16.5 11 16.5C10.4477 16.5 10 16.0523 10 15.5C10 14.9477 10.4477 14.5 11 14.5C11.5523 14.5 12 14.9477 12 15.5Z" fill="#70A4D2"/>
</svg>
