<svg width="32" height="32" viewBox="0 0 32 32" fill="none" xmlns="http://www.w3.org/2000/svg">
<path d="M15.9999 28.5881C17.4234 28.5881 18.588 27.4234 18.588 26H13.4119C13.4119 26.6864 13.6845 27.3447 14.1699 27.83C14.6553 28.3154 15.3135 28.5881 15.9999 28.5881Z" fill="white"/>
<path d="M28 11.5C28 13.9853 25.9853 16 23.5 16C21.0147 16 19 13.9853 19 11.5C19 9.01472 21.0147 7 23.5 7C25.9853 7 28 9.01472 28 11.5Z" fill="#EB5757"/>
<path fill-rule="evenodd" clip-rule="evenodd" d="M16 3C17.1046 3 18 3.89543 18 5H18.0625C18.8859 5.17977 19.6358 5.46417 20.3069 5.83708C18.3327 6.95265 17 9.07069 17 11.5C17 15.0899 19.9101 18 23.5 18C23.7536 18 24.0039 17.9855 24.25 17.9572V19.839L27 22.7375V24H5V22.7375L7.74998 19.839V12.9793C7.74998 9.09064 9.99123 5.85853 13.9375 5H14C14 3.89543 14.8954 3 16 3Z" fill="white"/>
</svg>
