<svg width="32" height="33" viewBox="0 0 32 33" fill="none" xmlns="http://www.w3.org/2000/svg">
<path fill-rule="evenodd" clip-rule="evenodd" d="M5.00004 8.50012C5.00004 7.94784 5.44776 7.50012 6.00004 7.50012H27C27.5523 7.50012 28 7.94784 28 8.50012V21.5001C28 22.0524 27.5523 22.5001 27 22.5001H10.3847L5.84023 26.72C5.5203 27.0171 5 26.7902 5 26.3536V19.2097L5.00004 19.2032V8.50012ZM21.5 16.5C22.3285 16.5 23 15.8285 23 15C23 14.1716 22.3285 13.5 21.5 13.5C20.6716 13.5 20 14.1716 20 15C20 15.8285 20.6716 16.5 21.5 16.5ZM18 15C18 15.8285 17.3285 16.5 16.5 16.5C15.6716 16.5 15 15.8285 15 15C15 14.1716 15.6716 13.5 16.5 13.5C17.3285 13.5 18 14.1716 18 15ZM11.5 16.5C12.3285 16.5 13 15.8285 13 15C13 14.1716 12.3285 13.5 11.5 13.5C10.6716 13.5 10 14.1716 10 15C10 15.8285 10.6716 16.5 11.5 16.5Z" fill="#70A4D2"/>
</svg>
