<svg width="32" height="32" viewBox="0 0 32 32" fill="none" xmlns="http://www.w3.org/2000/svg">
<path fill-rule="evenodd" clip-rule="evenodd" d="M6.36776 13.7895C6.55573 12.9947 6.83855 12.2365 7.20361 11.5276L5.66096 9.77931C5.31157 9.38335 5.33028 8.78398 5.70368 8.41057L7.91063 6.20363C8.28403 5.83023 8.88339 5.81152 9.27935 6.16088L10.8767 7.57027C11.6288 7.10873 12.4467 6.74389 13.3129 6.49304L13.4414 4.43763C13.4743 3.91059 13.9113 3.5 14.4394 3.5H17.5605C18.0886 3.5 18.5256 3.91058 18.5586 4.43761L18.6835 6.43664C19.5792 6.67555 20.4255 7.03568 21.2036 7.4984L22.7195 6.16075C23.1155 5.81136 23.7149 5.83007 24.0883 6.20347L26.2952 8.41042C26.6686 8.78381 26.6873 9.38317 26.3379 9.77914L24.9208 11.3852C25.3242 12.1384 25.6339 12.9491 25.8344 13.802L28.0624 13.9412C28.5894 13.9742 29 14.4112 29 14.9393V18.0604C29 18.5884 28.5894 19.0255 28.0624 19.0584L25.6058 19.212C25.3646 19.949 25.0401 20.6483 24.6435 21.2988L26.3383 23.2195C26.6877 23.6155 26.669 24.2149 26.2956 24.5883L24.0886 26.7952C23.7152 27.1686 23.1159 27.1873 22.7199 26.8379L20.6465 25.0085C20.0422 25.3175 19.4023 25.5669 18.7346 25.7488L18.5588 28.5624C18.5258 29.0894 18.0888 29.5 17.5607 29.5H14.4396C13.9116 29.5 13.4745 29.0894 13.4416 28.5624L13.2621 25.6913C12.6212 25.502 12.0071 25.2502 11.4269 24.943L9.27931 26.8381C8.88335 27.1874 8.28398 27.1687 7.91057 26.7953L5.70363 24.5884C5.33023 24.215 5.31152 23.6156 5.66088 23.2197L7.47486 21.1638C7.11705 20.5557 6.82171 19.9065 6.59767 19.2249L3.93763 19.0586C3.41059 19.0257 3 18.5887 3 18.0606V14.9395C3 14.4114 3.41058 13.9744 3.93761 13.9414L6.36776 13.7895ZM12.4587 20.0297C12.4625 20.0336 12.4664 20.0375 12.4703 20.0413C13.3746 20.9427 14.6222 21.5 16 21.5C17.3509 21.5 18.5766 20.9643 19.4764 20.0937L19.5937 19.9764C20.4643 19.0766 21 17.8509 21 16.5C21 13.7386 18.7614 11.5 16 11.5C13.2386 11.5 11 13.7386 11 16.5C11 17.8778 11.5573 19.1254 12.4587 20.0297Z" fill="#ffffff"/>
</svg>
