<svg width="319" height="301" viewBox="0 0 319 301" fill="none" xmlns="http://www.w3.org/2000/svg">
<path d="M121.984 67.6462C123.69 66.5081 125.111 63.9473 124.543 61.9556C121.984 52.2814 117.436 43.4609 112.888 34.6404C108.624 26.3889 103.792 18.4219 98.3907 11.0241C95.5481 7.04059 91.8527 3.62619 87.5887 1.06539C85.5989 -0.0727458 82.7563 -0.357279 80.4822 0.496321C77.3553 1.91899 73.6599 3.91072 72.2386 7.04059C70.8173 10.1705 70.8173 14.4385 72.5229 17.5683C74.1921 20.9101 76.9506 23.525 79.6928 26.1245C81.1533 27.509 82.6091 28.8891 83.8933 30.3723C88.1573 35.494 92.1369 40.9001 95.8323 46.3062C97.2634 48.3355 98.4443 50.515 99.627 52.6977C101.263 55.7178 102.903 58.7439 105.213 61.3865C107.771 64.5164 110.898 67.6462 114.878 69.0689C117.152 70.4916 119.995 69.0689 121.984 67.6462Z" fill="white"/>
<path d="M214.938 82.4418C219.771 86.7098 224.887 91.2623 228.583 96.3839C232.278 101.79 235.121 107.765 237.679 113.74C239.669 118.578 240.806 123.984 241.659 129.39C242.512 135.365 243.08 141.34 242.512 147.315C241.659 156.42 240.237 165.526 237.679 174.062C236.529 177.974 234.45 181.329 232.342 184.727L232.34 184.73C231.843 185.532 231.345 186.336 230.857 187.15C227.73 191.703 224.319 195.686 220.623 199.67C217.212 203.369 213.801 206.783 209.537 209.628C203.852 213.327 197.882 216.457 191.629 219.018C186.228 221.01 180.542 222.148 174.857 223.001C170.309 223.57 165.477 223.57 160.928 223.57C159.893 223.523 158.857 223.484 157.822 223.445C152.611 223.247 147.432 223.05 142.451 221.863C137.169 220.662 132.09 218.445 127.043 216.242L127.04 216.241C126.112 215.836 125.185 215.432 124.259 215.034C119.71 213.043 115.162 211.051 111.182 208.206C105.782 204.507 100.949 199.954 96.6851 195.117C92.7055 190.849 88.7258 186.581 86.4517 181.459C82.7563 173.493 80.7664 164.672 79.0609 155.851C77.6396 149.307 76.7868 142.478 77.071 135.65C77.3553 130.243 78.4924 124.553 80.4822 119.431C82.472 113.74 85.0304 108.05 88.4415 102.928C91.8527 97.8066 96.1166 93.254 100.665 88.986C105.782 84.4335 111.182 80.1655 117.436 76.7511C124.827 72.7676 132.502 69.6378 140.461 67.3615C147.284 65.6543 154.39 64.5162 161.497 64.8007C168.888 65.0852 176.563 66.7924 183.385 69.6378C190.492 72.7676 196.745 77.6047 202.715 82.7263C206.695 86.1407 210.39 90.4087 213.233 94.9612C216.359 99.5138 218.918 104.351 220.908 109.757C222.613 114.594 223.466 120 224.035 125.122C224.603 131.097 224.603 136.788 224.035 142.763L223.976 143.151C223.142 148.724 222.271 154.545 219.771 159.55C216.359 166.948 212.096 174.062 206.41 179.752C200.725 185.443 193.334 189.711 185.943 192.841C179.974 195.402 173.436 196.255 167.182 196.824C160.076 197.109 152.685 197.109 145.862 194.833C139.654 192.761 134.388 188.569 129.42 184.615C128.929 184.224 128.44 183.835 127.954 183.451C123.974 180.321 120.279 176.622 117.721 172.354C114.878 167.233 112.888 161.542 111.751 155.851C110.614 150.445 110.614 144.755 111.467 139.348C112.32 133.089 113.741 126.544 117.152 121.138C120.563 115.448 125.964 110.895 131.365 107.196C135.913 104.066 141.314 101.79 146.715 100.652C152.685 99.2292 159.223 98.6602 165.477 99.5138C169.414 100.039 173.352 102.021 177.065 103.889L177.07 103.891L177.095 103.904L177.099 103.906L177.724 104.221C177.811 104.264 177.898 104.308 177.984 104.351C181.964 106.627 185.943 108.903 188.502 112.602C191.344 116.301 193.334 120.854 194.756 125.406C195.893 129.674 196.177 133.942 196.177 138.495C195.893 141.909 195.04 145.324 193.903 148.454C192.312 150.245 190.86 152.176 189.45 154.051L189.449 154.052C188.844 154.857 188.246 155.652 187.649 156.42C185.375 159.266 182.817 161.827 179.405 163.534C175.71 165.526 171.162 166.948 166.898 167.233C162.918 167.517 158.654 166.379 154.959 164.672C150.979 162.68 147.568 159.55 145.294 155.851C143.588 153.006 143.588 149.592 143.588 146.462C143.588 143.616 144.157 140.487 145.578 138.21C146.715 136.219 148.989 134.796 150.979 133.658C152.685 132.52 154.39 131.666 156.38 131.382C157.233 131.382 158.654 131.951 158.654 132.804C158.806 133.566 158.389 134.245 157.967 134.931C157.602 135.526 157.233 136.126 157.233 136.788C157.233 138.495 157.233 140.771 158.37 141.909C160.076 143.616 162.634 144.186 164.908 144.47C166.898 144.755 169.172 144.755 170.878 143.616C172.867 142.478 174.857 140.487 175.426 138.21C176.279 135.934 175.71 133.089 174.857 130.812C174.004 128.536 172.015 126.544 170.309 124.837C168.319 123.13 166.045 121.707 163.771 121.138C161.213 120.569 158.654 120.854 156.38 121.423C153.253 121.992 150.411 123.13 147.568 124.268C145.01 125.406 142.451 127.114 140.746 129.105C138.472 131.666 136.482 134.511 135.345 137.641C134.208 140.771 134.208 144.186 134.492 147.6C134.776 150.73 135.345 154.144 136.482 157.274C137.619 160.119 139.609 162.965 141.883 165.241C144.441 167.802 147.852 169.794 151.263 170.932C154.106 172.07 157.517 172.639 160.644 172.923C164.624 173.208 168.603 173.492 172.583 172.923C177.131 172.07 181.395 170.647 185.375 168.655C188.502 166.948 191.344 164.956 193.618 162.396C195.893 159.835 197.882 156.705 199.588 153.291C201.294 149.876 202.715 146.462 203.283 142.763C203.852 137.072 203.852 131.382 202.431 125.975C201.009 119.716 199.019 113.456 195.324 108.334C192.416 104.1 188.032 101.096 183.774 98.1789C183.454 97.9596 183.134 97.7408 182.817 97.522C178.837 94.6767 174.857 92.4004 170.309 90.9778C166.329 89.5551 162.065 88.986 158.086 88.7015C154.39 88.417 150.411 88.7015 146.715 89.2706C142.736 89.8396 139.04 91.2623 135.345 92.685C131.649 94.3922 127.954 96.3839 124.543 98.6602C121.132 101.221 117.721 104.066 114.878 107.196C112.32 110.042 110.045 112.887 108.056 116.301C106.066 119.716 104.36 123.415 103.507 127.398C102.655 130.812 102.086 134.511 102.086 138.21C102.023 139.548 101.93 140.885 101.838 142.219L101.838 142.221C101.52 146.847 101.204 151.435 102.086 155.851C103.223 161.258 105.497 166.379 108.34 171.216C111.467 176.622 115.162 181.459 119.426 185.727C123.974 190.28 129.091 194.263 134.492 197.393C138.472 199.67 142.736 201.377 147.284 202.515C152.969 203.938 158.654 205.076 164.624 205.076C169.172 205.076 173.72 204.791 177.984 203.369C181.686 202.257 185.026 200.422 188.397 198.57L188.398 198.569C190.204 197.576 192.019 196.579 193.903 195.686C194.876 195.199 195.861 194.725 196.849 194.251C200.479 192.506 204.135 190.749 207.263 188.288C210.674 185.727 213.801 182.028 216.075 178.614C218.634 175.2 220.339 171.216 222.045 167.233C223.302 164.297 224.096 161.051 224.881 157.839C225.162 156.693 225.441 155.551 225.74 154.429C226.877 149.876 227.446 145.324 227.73 140.487L227.773 140.081C228.326 134.824 228.853 129.823 228.298 124.553C227.73 119.147 226.593 113.74 225.456 108.619C224.319 104.636 222.613 100.652 220.908 96.6691C219.885 94.2108 218.566 91.8994 217.272 89.6299C216.768 88.7472 216.269 87.8707 215.791 86.9943C215.62 86.6521 215.398 86.3099 215.17 85.96C214.642 85.1461 214.085 84.2902 214.085 83.2954C213.517 82.7263 214.654 82.1572 214.938 82.4418Z" fill="white"/>
<path d="M14.5337 83.2959C11.9754 83.2959 9.41703 84.7185 7.71146 86.9948C6.29015 88.702 5.43736 91.2628 5.72162 93.5391C6.29015 96.0999 7.99572 98.3762 9.70129 99.5143C11.9372 101.193 14.5396 102.138 17.108 103.071C18.458 103.561 19.7986 104.048 21.0718 104.636C22.7773 105.3 24.4513 106.027 26.1253 106.754C29.4733 108.208 32.8213 109.663 36.4219 110.611C39.2129 111.387 42.0038 111.655 44.7947 111.923C47.1205 112.147 49.4463 112.37 51.7721 112.887C53.9163 113.392 55.9485 114.289 57.9682 115.181C60.5003 116.299 63.0127 117.408 65.7009 117.724C67.975 118.009 70.5334 117.155 72.5232 115.164C74.513 113.456 75.6501 110.327 75.6501 107.481C75.6501 104.92 74.513 102.075 72.8075 100.937C70.1903 99.1905 67.2519 98.3017 64.3209 97.415C62.4766 96.8571 60.6352 96.3001 58.8786 95.5308C57.5272 94.939 56.2009 94.3221 54.8847 93.7099C51.7714 92.2617 48.7151 90.8401 45.5183 89.8401C42.0116 88.6013 38.3551 87.8119 34.7663 87.0372C33.4095 86.7443 32.0624 86.4534 30.7367 86.1412C29.2637 85.8308 27.7907 85.4569 26.3177 85.083C22.3897 84.086 18.4617 83.0889 14.5337 83.2959Z" fill="white"/>
<path d="M188.217 232.391C188.707 232.356 189.21 232.312 189.721 232.268C193.357 231.953 197.379 231.603 199.872 234.098C203.191 237.199 204.615 241.85 206.022 246.443C206.422 247.751 206.822 249.055 207.263 250.317C209.821 257.146 210.105 257.999 211.811 264.828L212.012 265.698C212.077 265.981 212.143 266.263 212.208 266.546C212.346 267.141 212.484 267.735 212.621 268.327C214.05 274.488 215.447 280.512 216.643 286.737C216.783 287.504 216.99 288.321 217.203 289.161C217.86 291.75 218.569 294.547 217.496 296.696C215.791 299.541 211.811 300.964 208.684 300.964C205.842 301.248 202.43 299.826 200.441 297.834C198.668 296.06 197.798 293.383 197.026 291.01L196.954 290.789C196.932 290.721 196.911 290.654 196.889 290.587C196.841 290.44 196.793 290.295 196.745 290.151C195.97 287.358 195.702 284.564 195.434 281.771C195.211 279.443 194.988 277.115 194.471 274.787C193.821 272.023 192.8 269.259 191.779 266.495C191.013 264.422 190.248 262.348 189.639 260.275C188.965 257.984 188.93 256.97 188.898 256.053C188.862 255.034 188.831 254.136 187.933 251.739C187.253 249.969 186.052 248.459 184.859 246.961C183.56 245.329 182.272 243.709 181.679 241.781C181.111 239.505 181.679 236.659 183.101 234.952C183.953 232.96 186.227 232.391 188.217 232.391Z" fill="white"/>
<path d="M251.039 180.606C248.481 180.606 245.923 182.029 243.649 183.451C241.943 184.305 240.522 186.297 240.237 187.719C240.237 190.565 240.237 194.264 242.512 195.971C245.047 198.146 248.389 199.166 251.804 200.209C253.75 200.803 255.72 201.404 257.577 202.23C260.187 203.35 262.797 204.592 265.327 205.796L265.328 205.797L265.329 205.797C266.656 206.428 267.961 207.049 269.232 207.637C270.928 208.485 272.663 209.294 274.408 210.108C277.344 211.477 280.308 212.859 283.161 214.465C285.192 215.661 287.073 217.109 288.951 218.554C291.54 220.547 294.124 222.536 297.09 223.855C299.364 224.709 302.207 224.993 304.481 224.14C304.62 224.089 304.761 224.038 304.904 223.986C307.981 222.872 311.935 221.44 313.293 218.449C314.714 215.319 313.577 210.767 311.303 207.921C307.039 202.515 301.07 198.816 295.1 195.402C286.856 190.565 278.329 186.297 269.516 183.167C263.547 181.175 257.293 180.606 251.039 180.606Z" fill="white"/>
<path d="M68.5434 168.087C68.5784 168.577 68.622 169.08 68.6662 169.591C68.9816 173.231 69.3305 177.257 66.8378 179.752C63.7405 183.074 59.0935 184.5 54.505 185.908C53.1978 186.309 51.8954 186.709 50.6349 187.15C43.8126 189.711 42.9598 189.996 36.1375 191.703C29.0309 193.695 21.6401 195.402 14.2493 196.54C13.4837 196.679 12.667 196.887 11.8284 197.1C9.24203 197.757 6.44661 198.468 4.30015 197.394C1.45753 195.686 0.0362198 191.703 0.0362198 188.573C-0.248042 185.728 1.17327 182.313 3.1631 180.321C4.93536 178.548 7.60959 177.676 9.98078 176.904L9.984 176.903L9.99049 176.901C10.2783 176.807 10.5615 176.715 10.8382 176.623C13.629 175.847 16.4199 175.578 19.2108 175.31C21.5365 175.087 23.8625 174.864 26.1883 174.346C28.9497 173.696 31.7111 172.674 34.4725 171.652C36.5436 170.885 38.6146 170.119 40.6857 169.509C42.9745 168.835 43.988 168.8 44.904 168.768C45.9219 168.732 46.8196 168.701 49.2135 167.802C50.9822 167.121 52.4904 165.919 53.9874 164.725C55.6183 163.425 57.236 162.136 59.1627 161.542C61.4368 160.973 64.2794 161.542 65.985 162.965C67.9748 163.819 68.5434 166.095 68.5434 168.087Z" fill="white"/>
<path d="M120.279 230.969C120.279 228.408 118.857 225.847 117.436 223.571C116.299 221.863 114.593 220.441 112.888 219.872C110.045 219.872 106.35 219.872 104.644 222.148C102.471 224.685 101.452 228.031 100.41 231.45C99.8168 233.398 99.216 235.369 98.3905 237.228C97.2718 239.841 96.0308 242.454 94.8279 244.987C94.197 246.315 93.5763 247.622 92.9896 248.894C92.1418 250.591 91.3336 252.328 90.5207 254.074C89.153 257.013 87.7718 259.981 86.1673 262.836C84.9724 264.869 83.5264 266.752 82.0827 268.631C80.0917 271.223 78.1048 273.81 76.7866 276.778C75.9338 279.055 75.6496 281.9 76.7866 284.461C76.8372 284.6 76.8883 284.741 76.94 284.884C78.0534 287.964 79.4839 291.922 82.4719 293.281C85.5988 294.704 90.1469 293.566 92.9896 291.29C98.3905 287.022 102.086 281.046 105.497 275.071C110.33 266.82 114.593 258.284 117.72 249.463C119.71 243.488 120.279 237.228 120.279 230.969Z" fill="white"/>
<path d="M243.933 113.456C244.502 110.895 245.639 108.05 247.628 106.343C252.177 102.075 257.293 98.3759 262.979 95.8151C271.506 92.1161 280.887 89.5553 289.983 87.5636C296.522 86.1409 303.628 84.7183 310.166 85.8564C313.577 86.4255 317.557 88.9863 318.694 92.4007C319.748 95.5669 317.869 98.9779 316.231 101.953C316.102 102.186 315.975 102.416 315.851 102.644C314.714 104.92 312.44 106.627 310.166 107.481C307.023 108.475 303.783 108.793 300.559 109.111C298.244 109.339 295.937 109.566 293.679 110.042C290.107 110.836 286.674 111.908 283.282 112.967C281.815 113.425 280.356 113.88 278.897 114.31C278.182 114.514 277.457 114.719 276.726 114.925L276.72 114.927C273.389 115.868 269.936 116.843 266.674 118.009C264.802 118.633 262.968 119.525 261.13 120.418C257.945 121.966 254.748 123.519 251.324 123.699C248.481 123.699 245.923 121.423 244.217 119.147C243.649 117.724 243.649 115.163 243.933 113.456Z" fill="white"/>
<path d="M201.33 67.0453C201.222 67.056 201.115 67.0665 201.009 67.0771C199.304 67.3616 197.314 67.0771 195.608 66.2235C195.49 66.1641 195.367 66.1033 195.241 66.041C193.556 65.2074 191.305 64.0932 190.776 62.24C190.105 60.2238 190.667 57.8549 191.214 55.5498C191.361 54.9271 191.508 54.3091 191.629 53.704C191.742 53.3076 191.855 52.9083 191.969 52.5071C192.998 48.8767 194.073 45.0844 195.608 41.7536C198.167 35.7784 201.578 30.0877 205.273 24.6816C210.39 17.2837 215.791 10.4549 221.761 3.91065C223.466 2.20345 225.74 0.211714 228.014 0.496247C231.994 1.06531 235.974 3.34158 238.816 6.18692C240.238 7.60959 240.806 10.1704 240.238 12.1621C239.839 14.1556 238.604 15.7301 237.313 17.3748C236.762 18.0777 236.2 18.7933 235.689 19.56C233.866 22.4119 231.951 25.3096 230.018 28.2347C227.13 32.6053 224.201 37.0372 221.476 41.4691C219.853 44.2847 218.478 47.2652 217.098 50.2537C214.853 55.1173 212.598 60.002 209.253 64.2318C207.611 66.4235 204.124 66.7687 201.33 67.0453Z" fill="white"/>
</svg>
