<svg width="32" height="33" viewBox="0 0 32 33" fill="none" xmlns="http://www.w3.org/2000/svg">
<path fill-rule="evenodd" clip-rule="evenodd" d="M15 15.7407H6V23.7407C6 24.293 6.44772 24.7407 7 24.7407H15V15.7407ZM17 15.7407V24.7407H25C25.5523 24.7407 26 24.293 26 23.7407V15.7407H17Z" fill="#ffffff"/>
<path d="M5 10.7407C5 10.1884 5.44772 9.74072 6 9.74072H26C26.5523 9.74072 27 10.1884 27 10.7407V12.7407C27 13.293 26.5523 13.7407 26 13.7407H6C5.44772 13.7407 5 13.293 5 12.7407V10.7407Z" fill="#ffffff"/>
<path d="M17 10.7407H15.9482L16.0013 9.69026L17 9.74072C16.0013 9.69026 16.0013 9.68989 16.0013 9.6895L16.0014 9.68866L16.0015 9.68678L16.0017 9.68217L16.0025 9.66963L16.0051 9.63174C16.0074 9.60099 16.011 9.55934 16.0163 9.50832C16.0269 9.40655 16.0446 9.26597 16.0739 9.09917C16.1316 8.77031 16.2381 8.31622 16.4366 7.84938C16.8302 6.92392 17.6996 5.74072 19.4 5.74072C20.5424 5.74072 22 6.54122 22 8.24072C22 9.05619 21.6394 9.75953 20.9334 10.2048C20.3003 10.604 19.4775 10.7407 18.6 10.7407H18.5938H18.5876H18.5814H18.5752H18.569H18.5628H18.5567H18.5505H18.5444H18.5383H18.5322H18.5261H18.52H18.5139H18.5079H18.5018H18.4958H18.4898H18.4838H18.4778H18.4718H18.4658H18.4599H18.4539H18.448H18.4421H18.4361H18.4302H18.4244H18.4185H18.4126H18.4068H18.4009H18.3951H18.3893H18.3835H18.3777H18.3719H18.3661H18.3604H18.3546H18.3489H18.3432H18.3375H18.3318H18.3261H18.3204H18.3148H18.3091H18.3035H18.2979H18.2923H18.2867H18.2811H18.2755H18.27H18.2644H18.2589H18.2533H18.2478H18.2423H18.2368H18.2314H18.2259H18.2204H18.215H18.2096H18.2042H18.1988H18.1934H18.188H18.1826H18.1773H18.1719H18.1666H18.1613H18.156H18.1507H18.1454H18.1401H18.1348H18.1296H18.1244H18.1191H18.1139H18.1087H18.1035H18.0984H18.0932H18.0881H18.0829H18.0778H18.0727H18.0676H18.0625H18.0574H18.0523H18.0473H18.0423H18.0372H18.0322H18.0272H18.0222H18.0172H18.0123H18.0073H18.0024H17.9974H17.9925H17.9876H17.9827H17.9778H17.9729H17.9681H17.9632H17.9584H17.9536H17.9488H17.944H17.9392H17.9344H17.9296H17.9249H17.9202H17.9154H17.9107H17.906H17.9013H17.8966H17.892H17.8873H17.8827H17.8781H17.8734H17.8688H17.8642H17.8597H17.8551H17.8505H17.846H17.8415H17.8369H17.8324H17.8279H17.8234H17.819H17.8145H17.8101H17.8056H17.8012H17.7968H17.7924H17.788H17.7836H17.7793H17.7749H17.7706H17.7663H17.7619H17.7576H17.7533H17.7491H17.7448H17.7406H17.7363H17.7321H17.7279H17.7237H17.7195H17.7153H17.7111H17.707H17.7028H17.6987H17.6946H17.6905H17.6864H17.6823H17.6782H17.6741H17.6701H17.6661H17.662H17.658H17.654H17.65H17.6461H17.6421H17.6382H17.6342H17.6303H17.6264H17.6225H17.6186H17.6147H17.6108H17.607H17.6031H17.5993H17.5955H17.5917H17.5879H17.5841H17.5804H17.5766H17.5729H17.5691H17.5654H17.5617H17.558H17.5543H17.5507H17.547H17.5433H17.5397H17.5361H17.5325H17.5289H17.5253H17.5217H17.5182H17.5146H17.5111H17.5076H17.504H17.5005H17.497H17.4936H17.4901H17.4867H17.4832H17.4798H17.4764H17.473H17.4696H17.4662H17.4628H17.4595H17.4561H17.4528H17.4495H17.4462H17.4429H17.4396H17.4363H17.4331H17.4298H17.4266H17.4234H17.4202H17.417H17.4138H17.4106H17.4075H17.4043H17.4012H17.3981H17.3949H17.3918H17.3888H17.3857H17.3826H17.3796H17.3765H17.3735H17.3705H17.3675H17.3645H17.3615H17.3586H17.3556H17.3527H17.3497H17.3468H17.3439H17.341H17.3381H17.3353H17.3324H17.3296H17.3267H17.3239H17.3211H17.3183H17.3155H17.3128H17.31H17.3073H17.3045H17.3018H17.2991H17.2964H17.2937H17.291H17.2884H17.2857H17.2831H17.2805H17.2779H17.2753H17.2727H17.2701H17.2675H17.265H17.2624H17.2599H17.2574H17.2549H17.2524H17.2499H17.2475H17.245H17.2426H17.2401H17.2377H17.2353H17.2329H17.2306H17.2282H17.2258H17.2235H17.2212H17.2188H17.2165H17.2142H17.2119H17.2097H17.2074H17.2052H17.2029H17.2007H17.1985H17.1963H17.1941H17.192H17.1898H17.1876H17.1855H17.1834H17.1813H17.1792H17.1771H17.175H17.1729H17.1709H17.1689H17.1668H17.1648H17.1628H17.1608H17.1588H17.1569H17.1549H17.153H17.1511H17.1491H17.1472H17.1453H17.1435H17.1416H17.1397H17.1379H17.1361H17.1342H17.1324H17.1306H17.1289H17.1271H17.1253H17.1236H17.1219H17.1201H17.1184H17.1167H17.115H17.1134H17.1117H17.1101H17.1084H17.1068H17.1052H17.1036H17.102H17.1004H17.0989H17.0973H17.0958H17.0943H17.0928H17.0913H17.0898H17.0883H17.0868H17.0854H17.0839H17.0825H17.0811H17.0797H17.0783H17.0769H17.0755H17.0742H17.0729H17.0715H17.0702H17.0689H17.0676H17.0663H17.0651H17.0638H17.0626H17.0613H17.0601H17.0589H17.0577H17.0565H17.0553H17.0542H17.053H17.0519H17.0508H17.0497H17.0486H17.0475H17.0464H17.0454H17.0443H17.0433H17.0423H17.0412H17.0402H17.0393H17.0383H17.0373H17.0364H17.0354H17.0345H17.0336H17.0327H17.0318H17.0309H17.0301H17.0292H17.0284H17.0275H17.0267H17.0259H17.0251H17.0243H17.0236H17.0228H17.0221H17.0214H17.0206H17.0199H17.0192H17.0186H17.0179H17.0172H17.0166H17.016H17.0153H17.0147H17.0141H17.0136H17.013H17.0124H17.0119H17.0113H17.0108H17.0103H17.0098H17.0093H17.0089H17.0084H17.008H17.0075H17.0071H17.0067H17.0063H17.0059H17.0055H17.0052H17.0048H17.0045H17.0041H17.0038H17.0035H17.0032H17.003H17.0027H17.0025H17.0022H17.002H17.0018H17.0016H17.0014H17.0012H17.001H17.0009H17.0007H17.0006H17.0005H17.0004H17.0003H17.0002H17.0002H17.0001H17.0001H17H17Z" stroke="#ffffff" stroke-width="2"/>
<path d="M15 10.7407H16.0518L15.9987 9.69026L15 9.74072C15.9987 9.69026 15.9987 9.68989 15.9987 9.6895L15.9986 9.68866L15.9985 9.68678L15.9983 9.68217L15.9975 9.66963L15.9949 9.63174C15.9926 9.60099 15.989 9.55934 15.9837 9.50832C15.9731 9.40655 15.9554 9.26597 15.9261 9.09917C15.8684 8.77031 15.7619 8.31622 15.5634 7.84938C15.1698 6.92392 14.3004 5.74072 12.6 5.74072C11.4576 5.74072 10 6.54122 10 8.24072C10 9.05619 10.3606 9.75953 11.0666 10.2048C11.6997 10.604 12.5225 10.7407 13.4 10.7407H13.4062H13.4124H13.4186H13.4248H13.431H13.4372H13.4433H13.4495H13.4556H13.4617H13.4678H13.4739H13.48H13.4861H13.4921H13.4982H13.5042H13.5102H13.5162H13.5222H13.5282H13.5342H13.5401H13.5461H13.552H13.5579H13.5639H13.5698H13.5756H13.5815H13.5874H13.5932H13.5991H13.6049H13.6107H13.6165H13.6223H13.6281H13.6339H13.6396H13.6454H13.6511H13.6568H13.6625H13.6682H13.6739H13.6796H13.6852H13.6909H13.6965H13.7021H13.7077H13.7133H13.7189H13.7245H13.73H13.7356H13.7411H13.7467H13.7522H13.7577H13.7632H13.7686H13.7741H13.7796H13.785H13.7904H13.7958H13.8012H13.8066H13.812H13.8174H13.8227H13.8281H13.8334H13.8387H13.844H13.8493H13.8546H13.8599H13.8652H13.8704H13.8756H13.8809H13.8861H13.8913H13.8965H13.9016H13.9068H13.9119H13.9171H13.9222H13.9273H13.9324H13.9375H13.9426H13.9477H13.9527H13.9577H13.9628H13.9678H13.9728H13.9778H13.9828H13.9877H13.9927H13.9976H14.0026H14.0075H14.0124H14.0173H14.0222H14.0271H14.0319H14.0368H14.0416H14.0464H14.0512H14.056H14.0608H14.0656H14.0704H14.0751H14.0798H14.0846H14.0893H14.094H14.0987H14.1034H14.108H14.1127H14.1173H14.1219H14.1266H14.1312H14.1358H14.1403H14.1449H14.1495H14.154H14.1585H14.1631H14.1676H14.1721H14.1766H14.181H14.1855H14.1899H14.1944H14.1988H14.2032H14.2076H14.212H14.2164H14.2207H14.2251H14.2294H14.2337H14.2381H14.2424H14.2467H14.2509H14.2552H14.2594H14.2637H14.2679H14.2721H14.2763H14.2805H14.2847H14.2889H14.293H14.2972H14.3013H14.3054H14.3095H14.3136H14.3177H14.3218H14.3259H14.3299H14.3339H14.338H14.342H14.346H14.35H14.3539H14.3579H14.3618H14.3658H14.3697H14.3736H14.3775H14.3814H14.3853H14.3892H14.393H14.3969H14.4007H14.4045H14.4083H14.4121H14.4159H14.4196H14.4234H14.4271H14.4309H14.4346H14.4383H14.442H14.4457H14.4493H14.453H14.4567H14.4603H14.4639H14.4675H14.4711H14.4747H14.4783H14.4818H14.4854H14.4889H14.4924H14.496H14.4995H14.503H14.5064H14.5099H14.5133H14.5168H14.5202H14.5236H14.527H14.5304H14.5338H14.5372H14.5405H14.5439H14.5472H14.5505H14.5538H14.5571H14.5604H14.5637H14.5669H14.5702H14.5734H14.5766H14.5798H14.583H14.5862H14.5894H14.5925H14.5957H14.5988H14.6019H14.6051H14.6082H14.6112H14.6143H14.6174H14.6204H14.6235H14.6265H14.6295H14.6325H14.6355H14.6385H14.6414H14.6444H14.6473H14.6503H14.6532H14.6561H14.659H14.6619H14.6647H14.6676H14.6704H14.6733H14.6761H14.6789H14.6817H14.6845H14.6872H14.69H14.6927H14.6955H14.6982H14.7009H14.7036H14.7063H14.709H14.7116H14.7143H14.7169H14.7195H14.7221H14.7247H14.7273H14.7299H14.7325H14.735H14.7376H14.7401H14.7426H14.7451H14.7476H14.7501H14.7525H14.755H14.7574H14.7599H14.7623H14.7647H14.7671H14.7694H14.7718H14.7742H14.7765H14.7788H14.7812H14.7835H14.7858H14.7881H14.7903H14.7926H14.7948H14.7971H14.7993H14.8015H14.8037H14.8059H14.808H14.8102H14.8124H14.8145H14.8166H14.8187H14.8208H14.8229H14.825H14.8271H14.8291H14.8311H14.8332H14.8352H14.8372H14.8392H14.8412H14.8431H14.8451H14.847H14.8489H14.8509H14.8528H14.8547H14.8565H14.8584H14.8603H14.8621H14.8639H14.8658H14.8676H14.8694H14.8711H14.8729H14.8747H14.8764H14.8781H14.8799H14.8816H14.8833H14.885H14.8866H14.8883H14.8899H14.8916H14.8932H14.8948H14.8964H14.898H14.8996H14.9011H14.9027H14.9042H14.9057H14.9072H14.9087H14.9102H14.9117H14.9132H14.9146H14.9161H14.9175H14.9189H14.9203H14.9217H14.9231H14.9245H14.9258H14.9271H14.9285H14.9298H14.9311H14.9324H14.9337H14.9349H14.9362H14.9374H14.9387H14.9399H14.9411H14.9423H14.9435H14.9447H14.9458H14.947H14.9481H14.9492H14.9503H14.9514H14.9525H14.9536H14.9546H14.9557H14.9567H14.9577H14.9588H14.9598H14.9607H14.9617H14.9627H14.9636H14.9646H14.9655H14.9664H14.9673H14.9682H14.9691H14.9699H14.9708H14.9716H14.9725H14.9733H14.9741H14.9749H14.9757H14.9764H14.9772H14.9779H14.9786H14.9794H14.9801H14.9808H14.9814H14.9821H14.9828H14.9834H14.984H14.9847H14.9853H14.9859H14.9864H14.987H14.9876H14.9881H14.9887H14.9892H14.9897H14.9902H14.9907H14.9911H14.9916H14.992H14.9925H14.9929H14.9933H14.9937H14.9941H14.9945H14.9948H14.9952H14.9955H14.9959H14.9962H14.9965H14.9968H14.997H14.9973H14.9975H14.9978H14.998H14.9982H14.9984H14.9986H14.9988H14.999H14.9991H14.9993H14.9994H14.9995H14.9996H14.9997H14.9998H14.9998H14.9999H14.9999H15H15Z" stroke="#ffffff" stroke-width="2"/>
</svg>
