<svg width="18" height="13" viewBox="0 0 18 13" fill="none" xmlns="http://www.w3.org/2000/svg">
<path d="M0.5 3C0.5 2.72386 0.723857 2.5 1 2.5H4.06678C4.4655 2.5 4.84782 2.34125 5.12927 2.05883L6.53617 0.647058C6.62999 0.552916 6.75743 0.5 6.89033 0.5H11.1713C11.3074 0.5 11.4376 0.555487 11.5319 0.653654L12.8625 2.03904L13.2231 1.69269L12.8625 2.03904C13.1453 2.33354 13.536 2.5 13.9443 2.5H17.0003C17.2764 2.5 17.5003 2.72386 17.5003 3V12C17.5003 12.2761 17.2764 12.5 17.0003 12.5H1C0.723858 12.5 0.5 12.2761 0.5 12V3Z" stroke="white" stroke-linecap="round" stroke-linejoin="round"/>
<path d="M9 9.5C10.3807 9.5 11.5 8.38071 11.5 7C11.5 5.61929 10.3807 4.5 9 4.5C7.61929 4.5 6.5 5.61929 6.5 7C6.5 8.38071 7.61929 9.5 9 9.5Z" stroke="white" stroke-linecap="round" stroke-linejoin="round"/>
</svg>
