<svg width="32" height="32" viewBox="0 0 32 32" fill="none" xmlns="http://www.w3.org/2000/svg">
<path d="M14 18H18V20.5C18 20.7761 17.7761 21 17.5 21H14.5C14.2239 21 14 20.7761 14 20.5V18Z" fill="#70A4D2"/>
<path d="M9 7.2002C9 6.64791 9.44772 6.2002 10 6.2002H22C22.5523 6.2002 23 6.64791 23 7.2002V8.2002H9V7.2002Z" fill="#70A4D2"/>
<path d="M5 10H27V14C27 15.1046 26.1046 16 25 16H7C5.89543 16 5 15.1046 5 14V10Z" fill="#70A4D2"/>
<path fill-rule="evenodd" clip-rule="evenodd" d="M5 26V17.2319C5.58092 17.5922 6.26617 17.8002 7 17.8002H12.2V20.5002C12.2 21.7705 13.2297 22.8002 14.5 22.8002H17.5C18.7703 22.8002 19.8 21.7705 19.8 20.5002V17.8002H25C25.7338 17.8002 26.4191 17.5922 27 17.2319V26C27 26.5523 26.5523 27 26 27H6C5.44772 27 5 26.5523 5 26ZM26.7325 15H5.26745C5.61323 15.5979 6.25964 16.0002 7 16.0002H25C25.7404 16.0002 26.3868 15.5979 26.7325 15ZM14 20.5002V18.0002H18V20.5002C18 20.7763 17.7761 21.0002 17.5 21.0002H14.5C14.2239 21.0002 14 20.7763 14 20.5002Z" fill="#70A4D2"/>
</svg>
