<svg width="32" height="33" viewBox="0 0 32 33" fill="none" xmlns="http://www.w3.org/2000/svg">
<g clip-path="url(#clip0_1_2073)">
<path fill-rule="evenodd" clip-rule="evenodd" d="M16.3146 4.60834L29.0417 14.3667C29.2628 14.5395 29.3013 14.858 29.1275 15.0779L27.3539 17.3233C27.2706 17.429 27.1484 17.4974 27.0142 17.5135C26.8799 17.5293 26.745 17.4918 26.6388 17.4089L25 16.1287V25.9933C25 26.2732 24.772 26.5 24.4907 26.5H19V20.5C19 19.9477 18.5523 19.5 18 19.5H14C13.4477 19.5 13 19.9477 13 20.5V26.5H7.74558C7.46416 26.5 7.23612 26.2732 7.23612 25.9933V16.1287L5.59756 17.4089C5.49135 17.4918 5.35627 17.5295 5.22228 17.5135C5.08811 17.4974 4.96592 17.4291 4.8824 17.3233L3.10877 15.0779C3.02544 14.9723 2.98749 14.838 3.00365 14.7045C3.01981 14.5712 3.08844 14.4495 3.19465 14.3667L15.6854 4.60834C15.87 4.46389 16.1298 4.46389 16.3146 4.60834Z" fill="#ffffff"/>
</g>
<defs>
<clipPath id="clip0_1_2073">
<rect width="32" height="32" fill="white" transform="translate(0 0.5)"/>
</clipPath>
</defs>
</svg>
