<svg width="124" height="54" viewBox="0 0 124 54" fill="none" xmlns="http://www.w3.org/2000/svg">
<circle r="7" transform="matrix(1.20218e-08 1 1 -1.18287e-08 21.1348 7)" fill="#F59655"/>
<path fill-rule="evenodd" clip-rule="evenodd" d="M66 31C66 18.8497 56.1503 9 44 9C31.8497 9 22 18.8497 22 31C22 43.1503 31.8497 53 44 53C56.1503 53 66 43.1503 66 31ZM57 31.5C57 25.1487 51.6274 20 45 20C38.3726 20 33 25.1487 33 31.5C33 37.8513 38.3726 43 45 43C51.6274 43 57 37.8513 57 31.5Z" fill="#F59655"/>
<path fill-rule="evenodd" clip-rule="evenodd" d="M60 31C60 22.1634 52.8366 15 44 15C35.1634 15 28 22.1634 28 31C28 39.8366 35.1634 47 44 47C52.8366 47 60 39.8366 60 31ZM53.5994 30.5293C53.5994 25.0715 49.3013 20.647 43.9994 20.647C38.6975 20.647 34.3994 25.0715 34.3994 30.5293C34.3994 35.9872 38.6975 40.4117 43.9994 40.4117C49.3013 40.4117 53.5994 35.9872 53.5994 30.5293Z" fill="#FAC08C"/>
<path d="M86.7194 31.9924L66 10V53H106L86.7194 31.9924Z" fill="#2976BC"/>
<circle cx="94" cy="21" r="12" transform="rotate(90 94 21)" fill="#F59655"/>
<path fill-rule="evenodd" clip-rule="evenodd" d="M6.62335 53C8.21985 52.5076 9.76106 51.8346 11.2149 50.9898C14.5504 49.0517 17.3062 46.2787 19.2006 42.9542C21.0949 39.6298 22.06 35.8731 21.9971 32.0682C21.9342 28.2633 20.8456 24.5466 18.8426 21.2979C16.8395 18.0493 13.9939 15.3852 10.5964 13.578C7.34393 11.8479 3.69737 10.9625 0 11.0012V47C0 50.3137 2.68629 53 6 53H6.62335Z" fill="#B9DCF5"/>
<path fill-rule="evenodd" clip-rule="evenodd" d="M124 44.8821V53.0045C123.904 52.9966 123.807 52.9844 123.709 52.9677C119.167 52.193 114.943 50.0938 111.637 46.9084C107.387 42.8148 105 37.2626 105 31.4734C105 25.6841 107.387 20.132 111.637 16.0384C114.825 12.9674 118.865 10.906 123.221 10.0677C123.486 10.0167 123.747 9.99571 124 10.0021V19.0018C123.762 19.1095 123.518 19.2052 123.271 19.2881C117.916 21.0865 114.064 26.0849 114.064 31.9696C114.064 38.0263 118.144 43.1441 123.744 44.8005C123.83 44.8259 123.915 44.8531 124 44.8821Z" fill="#2976BC"/>
</svg>
