<svg width="59" height="153" viewBox="0 0 59 153" fill="none" xmlns="http://www.w3.org/2000/svg">
<path d="M19 -0.805431C13.7471 -0.805431 8.39429 -1.72324 3.54127 0.427933C-1.31176 2.57911 -5.56993 7.75714 -9.28427 11.732C-12.9986 15.7068 -15.945 20.4257 -17.9552 25.6191C-19.9654 30.8125 -21 36.3787 -21 42L19 42L19 -0.805431Z" fill="#F59655"/>
<path d="M18.5 42C23.6872 42 28.8236 40.9007 33.616 38.7649C38.4084 36.6291 42.7628 33.4985 46.4307 29.552C50.0986 25.6055 53.0082 20.9204 54.9932 15.764C56.9783 10.6077 58 5.08118 58 -0.5L18.5 -0.5V42Z" fill="#2976BC"/>
<circle r="25" transform="matrix(-1 0 0 1 19 72)" fill="#2976BC"/>
<path fill-rule="evenodd" clip-rule="evenodd" d="M14 192C38.8528 192 59 171.853 59 147C59 122.147 38.8528 102 14 102C-10.8528 102 -31 122.147 -31 147C-31 171.853 -10.8528 192 14 192ZM13.5 170C25.3741 170 35 159.926 35 147.5C35 135.074 25.3741 125 13.5 125C1.62588 125 -8 135.074 -8 147.5C-8 159.926 1.62588 170 13.5 170Z" fill="#F59655"/>
<path fill-rule="evenodd" clip-rule="evenodd" d="M14.5 183C34.1061 183 50 167.106 50 147.5C50 127.894 34.1061 112 14.5 112C-5.10611 112 -21 127.894 -21 147.5C-21 167.106 -5.10611 183 14.5 183ZM14.5 169C26.3741 169 36 159.374 36 147.5C36 135.626 26.3741 126 14.5 126C2.62588 126 -7 135.626 -7 147.5C-7 159.374 2.62588 169 14.5 169Z" fill="#FAC08C"/>
</svg>
