<svg width="528" height="80" viewBox="0 0 528 80" fill="none" xmlns="http://www.w3.org/2000/svg">
<rect width="528" height="80" fill="#B9DCF5"/>
<mask id="mask0_6619_40097" style="mask-type:alpha" maskUnits="userSpaceOnUse" x="0" y="0" width="528" height="80">
<path d="M1.80566 80C0.80842 80 -3.53374e-08 79.1916 -7.89283e-08 78.1943L-3.49691e-06 2.28882e-05L528 -1.91429e-07L528 78.1943C528 79.1915 527.192 80 526.194 80L1.80566 80Z" fill="#B9DCF5"/>
</mask>
<g mask="url(#mask0_6619_40097)">
<path d="M36 -143L36 -78.2847C36 9.13353 106.866 80 194.285 80L257 80L257 -143L36 -143Z" fill="#E9E9E9"/>
<path d="M94.3037 -5.6997C92.5048 -1.71575 91.7394 2.65744 92.0782 7.01554C92.4171 11.3736 93.8493 15.576 96.2424 19.234C98.6355 22.892 101.912 25.8876 105.77 27.9438C109.627 30 113.941 31.0505 118.312 30.9981C122.683 30.9457 126.97 29.7922 130.777 27.6441C134.584 25.496 137.788 22.4227 140.093 18.7084C142.397 14.9941 143.728 10.7587 143.963 6.39371C144.197 2.02875 143.327 -2.32485 141.433 -6.26454L132.576 -2.00683C133.754 0.443759 134.295 3.1518 134.149 5.86693C134.004 8.58205 133.176 11.2166 131.742 13.527C130.309 15.8374 128.316 17.749 125.947 19.0852C123.579 20.4214 120.913 21.1389 118.194 21.1715C115.475 21.2041 112.792 20.5507 110.392 19.2716C107.993 17.9926 105.955 16.1293 104.466 13.8539C102.978 11.5785 102.087 8.96457 101.876 6.25372C101.665 3.54287 102.141 0.822634 103.26 -1.65548L94.3037 -5.6997Z" fill="#2976BC"/>
<path d="M349 33.5L257 -13L257 80L349 33.5Z" fill="#21396E"/>
<path fill-rule="evenodd" clip-rule="evenodd" d="M201 50C177.804 50 159 31.196 159 8C159 -15.196 177.804 -34 201 -34C224.196 -34 243 -15.196 243 8C243 31.196 224.196 50 201 50ZM201 29C189.954 29 181 19.598 181 8C181 -3.59798 189.954 -13 201 -13C212.046 -13 221 -3.59798 221 8C221 19.598 212.046 29 201 29Z" fill="#F59655"/>
<path fill-rule="evenodd" clip-rule="evenodd" d="M201 41C182.775 41 168 26.2254 168 8C168 -10.2254 182.775 -25 201 -25C219.225 -25 234 -10.2254 234 8C234 26.2254 219.225 41 201 41ZM201 28C189.954 28 181 19.0457 181 8C181 -3.04569 189.954 -12 201 -12C212.046 -12 221 -3.04569 221 8C221 19.0457 212.046 28 201 28Z" fill="#FAC08C"/>
<path d="M555 -113C527.152 -113 500.445 -102.833 480.754 -84.7358C461.062 -66.6385 450 -42.0934 450 -16.5C450 9.09338 461.062 33.6385 480.754 51.7358C500.445 69.8331 527.152 80 555 80L555 -16.5V-113Z" fill="#F0F0F1"/>
<path d="M450.225 79.9995L450.225 -21.2715L349.777 -21.2715L349.777 79.9995L450.225 79.9995Z" fill="#F59655"/>
<path d="M425.225 63.7741C425.225 65.4313 426.558 66.7747 428.202 66.7747C429.845 66.7747 431.178 65.4313 431.178 63.7741C431.178 62.1169 429.845 60.7734 428.202 60.7734C426.558 60.7734 425.225 62.1169 425.225 63.7741Z" fill="#F0F0F1"/>
<path d="M428.202 49.0742C426.565 49.0742 425.225 50.4245 425.225 52.0748C425.225 53.7252 426.565 55.0755 428.202 55.0755C429.838 55.0755 431.178 53.7252 431.178 52.0748C431.178 50.4245 429.838 49.0742 428.202 49.0742Z" fill="#F0F0F1"/>
<path d="M428.202 37.2891C426.565 37.2891 425.225 38.6393 425.225 40.2897C425.225 41.94 426.565 43.2903 428.202 43.2903C429.838 43.2903 431.178 41.94 431.178 40.2897C431.178 38.5643 429.838 37.2891 428.202 37.2891Z" fill="#F0F0F1"/>
<path d="M425.225 28.4401C425.225 30.0973 426.558 31.4407 428.202 31.4407C429.845 31.4407 431.178 30.0973 431.178 28.4401C431.178 26.7829 429.845 25.4395 428.202 25.4395C426.558 25.4395 425.225 26.7829 425.225 28.4401Z" fill="#F0F0F1"/>
<path d="M428.202 13.7363C426.565 13.7363 425.225 15.0866 425.225 16.737C425.225 18.3873 426.565 19.7376 428.202 19.7376C429.838 19.7376 431.178 18.3873 431.178 16.737C431.178 15.0116 429.838 13.7363 428.202 13.7363Z" fill="#F0F0F1"/>
<path d="M411.16 63.7741C411.16 65.4313 412.492 66.7747 414.136 66.7747C415.78 66.7747 417.112 65.4313 417.112 63.7741C417.112 62.1169 415.78 60.7734 414.136 60.7734C412.492 60.7734 411.16 62.1169 411.16 63.7741Z" fill="#F0F0F1"/>
<path d="M414.136 49.0742C412.499 49.0742 411.16 50.4245 411.16 52.0748C411.16 53.7252 412.499 55.0755 414.136 55.0755C415.773 55.0755 417.112 53.7252 417.112 52.0748C417.038 50.4245 415.773 49.0742 414.136 49.0742Z" fill="#F0F0F1"/>
<path d="M414.136 37.2891C412.499 37.2891 411.16 38.6393 411.16 40.2897C411.16 41.94 412.499 43.2903 414.136 43.2903C415.773 43.2903 417.112 41.94 417.112 40.2897C417.038 38.5643 415.773 37.2891 414.136 37.2891Z" fill="#F0F0F1"/>
<path d="M411.16 28.4401C411.16 30.0973 412.492 31.4407 414.136 31.4407C415.78 31.4407 417.112 30.0973 417.112 28.4401C417.112 26.7829 415.78 25.4395 414.136 25.4395C412.492 25.4395 411.16 26.7829 411.16 28.4401Z" fill="#F0F0F1"/>
<path d="M414.136 13.7363C412.499 13.7363 411.16 15.0866 411.16 16.737C411.16 18.3873 412.499 19.7376 414.136 19.7376C415.773 19.7376 417.112 18.3873 417.112 16.737C417.038 15.0116 415.773 13.7363 414.136 13.7363Z" fill="#F0F0F1"/>
<path d="M397.027 63.7741C397.027 65.4313 398.36 66.7747 400.003 66.7747C401.647 66.7747 402.979 65.4313 402.979 63.7741C402.979 62.1169 401.647 60.7734 400.003 60.7734C398.36 60.7734 397.027 62.1169 397.027 63.7741Z" fill="#F0F0F1"/>
<path d="M400.003 49.0742C398.366 49.0742 397.027 50.4245 397.027 52.0748C397.027 53.7252 398.366 55.0755 400.003 55.0755C401.64 55.0755 402.979 53.7252 402.979 52.0748C402.979 50.4245 401.64 49.0742 400.003 49.0742Z" fill="#F0F0F1"/>
<path d="M400.003 37.2891C398.366 37.2891 397.027 38.6393 397.027 40.2897C397.027 41.94 398.366 43.2903 400.003 43.2903C401.64 43.2903 402.979 41.94 402.979 40.2897C402.979 38.5643 401.64 37.2891 400.003 37.2891Z" fill="#F0F0F1"/>
<path d="M397.027 28.4401C397.027 30.0973 398.36 31.4407 400.003 31.4407C401.647 31.4407 402.979 30.0973 402.979 28.4401C402.979 26.7829 401.647 25.4395 400.003 25.4395C398.36 25.4395 397.027 26.7829 397.027 28.4401Z" fill="#F0F0F1"/>
<path d="M400.003 13.7363C398.366 13.7363 397.027 15.0866 397.027 16.737C397.027 18.3873 398.366 19.7376 400.003 19.7376C401.64 19.7376 402.979 18.3873 402.979 16.737C402.979 15.0116 401.64 13.7363 400.003 13.7363Z" fill="#F0F0F1"/>
<path d="M382.963 63.7741C382.963 65.4313 384.295 66.7747 385.939 66.7747C387.583 66.7747 388.915 65.4313 388.915 63.7741C388.915 62.1169 387.583 60.7734 385.939 60.7734C384.295 60.7734 382.963 62.1169 382.963 63.7741Z" fill="#F0F0F1"/>
<path d="M385.939 49.0742C384.302 49.0742 382.963 50.4245 382.963 52.0748C382.963 53.7252 384.302 55.0755 385.939 55.0755C387.576 55.0755 388.915 53.7252 388.915 52.0748C388.841 50.4245 387.576 49.0742 385.939 49.0742Z" fill="#F0F0F1"/>
<path d="M385.939 37.291C384.302 37.291 382.963 38.6413 382.963 40.2916C382.963 41.942 384.302 43.2923 385.939 43.2923C387.576 43.2923 388.915 41.942 388.915 40.2916C388.841 38.5663 387.576 37.291 385.939 37.291Z" fill="#F0F0F1"/>
<path d="M382.963 28.4401C382.963 30.0973 384.295 31.4407 385.939 31.4407C387.583 31.4407 388.915 30.0973 388.915 28.4401C388.915 26.7829 387.583 25.4395 385.939 25.4395C384.295 25.4395 382.963 26.7829 382.963 28.4401Z" fill="#F0F0F1"/>
<path d="M385.939 13.7363C384.302 13.7363 382.963 15.0866 382.963 16.737C382.963 18.3873 384.302 19.7376 385.939 19.7376C387.576 19.7376 388.915 18.3873 388.915 16.737C388.841 15.0116 387.576 13.7363 385.939 13.7363Z" fill="#F0F0F1"/>
<path d="M368.827 63.7741C368.827 65.4313 370.159 66.7747 371.803 66.7747C373.447 66.7747 374.779 65.4313 374.779 63.7741C374.779 62.1169 373.447 60.7734 371.803 60.7734C370.159 60.7734 368.827 62.1169 368.827 63.7741Z" fill="#F0F0F1"/>
<path d="M371.803 49.0742C370.166 49.0742 368.827 50.4245 368.827 52.0748C368.827 53.7252 370.166 55.0755 371.803 55.0755C373.44 55.0755 374.779 53.7252 374.779 52.0748C374.779 50.4245 373.44 49.0742 371.803 49.0742Z" fill="#F0F0F1"/>
<path d="M371.803 37.2891C370.166 37.2891 368.827 38.6393 368.827 40.2897C368.827 41.94 370.166 43.2903 371.803 43.2903C373.44 43.2903 374.779 41.94 374.779 40.2897C374.779 38.5643 373.44 37.2891 371.803 37.2891Z" fill="#F0F0F1"/>
<path d="M368.827 28.4401C368.827 30.0973 370.159 31.4407 371.803 31.4407C373.447 31.4407 374.779 30.0973 374.779 28.4401C374.779 26.7829 373.447 25.4395 371.803 25.4395C370.159 25.4395 368.827 26.7829 368.827 28.4401Z" fill="#F0F0F1"/>
<path d="M371.803 13.7363C370.166 13.7363 368.827 15.0866 368.827 16.737C368.827 18.3873 370.166 19.7376 371.803 19.7376C373.44 19.7376 374.779 18.3873 374.779 16.737C374.779 15.0116 373.44 13.7363 371.803 13.7363Z" fill="#F0F0F1"/>
<circle r="43.5" transform="matrix(-4.37114e-08 1 1 4.37114e-08 22.5 57.5)" fill="#F59655"/>
</g>
</svg>
