<svg width="712" height="135" viewBox="0 0 712 135" fill="none" xmlns="http://www.w3.org/2000/svg">
<path d="M0 2C0 0.895429 0.895431 0 2 0H710C711.105 0 712 0.89543 712 2V134H0V2Z" fill="#DAEDFB"/>
<path d="M9.05991e-06 11C67.931 11 123 66.069 123 134V134L3.68341e-06 134L9.05991e-06 11V11Z" fill="#F59655"/>
<path fill-rule="evenodd" clip-rule="evenodd" d="M712 134.001V2C712 0.89543 711.105 0 710 0H546L546 1.84917C553.56 35.4162 573.353 66.5949 603.201 91.0704C628.024 111.426 666.398 126.079 712 134.001Z" fill="#B9DCF5"/>
<path fill-rule="evenodd" clip-rule="evenodd" d="M712 79.791C702.123 70.6109 688.906 65 674.383 65C643.796 65 619 89.8905 619 120.595C619 125.216 619.562 129.706 620.621 133.999H650.823C648.741 130.024 647.557 125.455 647.557 120.595C647.557 105.243 659.374 92.7973 673.95 92.7973C688.527 92.7973 700.344 105.243 700.344 120.595C700.344 125.455 699.16 130.024 697.078 133.999H712V79.791Z" fill="#F59655"/>
<path fill-rule="evenodd" clip-rule="evenodd" d="M712 99.1082C704.554 85.8432 690.496 76.8993 674.381 76.8993C650.484 76.8993 631.113 96.565 631.113 120.824C631.113 125.414 631.806 129.84 633.093 134H651.517C649.339 130.113 648.095 125.617 648.095 120.827C648.095 106.09 659.863 94.1433 674.38 94.1434C688.896 94.1434 700.664 106.09 700.664 120.827C700.664 125.617 699.42 130.113 697.243 134H712V99.1082Z" fill="#FAC08C"/>
<path fill-rule="evenodd" clip-rule="evenodd" d="M0 68.6597C1.11213 69.0856 2.24223 69.4747 3.38868 69.8258C15.9316 73.6672 29.5171 72.6756 41.4519 67.0478C53.3867 61.4199 62.7996 51.5666 67.8247 39.4411C72.8497 27.3155 73.12 13.803 68.582 1.58216C68.3847 1.05059 68.1788 0.523145 67.9646 0H45.1802C47.1874 2.5679 48.8056 5.44698 49.9589 8.55281C52.7817 16.1545 52.6135 24.5596 49.4878 32.102C46.3621 39.6444 40.507 45.7734 33.0833 49.2741C25.6595 52.7748 17.209 53.3915 9.40698 51.0021C6.0034 49.9597 2.83162 48.3785 0 46.3442V68.6597Z" fill="#2976BC"/>
</svg>
