<svg width="130" height="43" viewBox="0 0 130 43" fill="none" xmlns="http://www.w3.org/2000/svg">
<path d="M127.063 36.3317V31.7873H122.912V36.3317H120.372V25.5234H122.912V29.6175H127.063V25.5234H129.643V36.3317H127.063Z" fill="white"/>
<path d="M42.3335 11.4799L44.5909 8H45.5583V12.6672H44.7521V9.14633H44.7118L42.4545 12.6672H41.5273V8H42.3335V11.4799Z" fill="white"/>
<path d="M47.3284 12.6674H46.5625V9.47412H47.3284V10.7023H48.7392V9.47412H49.5051V12.6674H48.7392V11.3164H47.3284V12.6674Z" fill="white"/>
<path d="M52.692 10.3751C52.6114 10.2932 52.5308 10.2113 52.4098 10.1294C52.2889 10.0885 52.168 10.0475 52.0067 10.0475C51.8455 10.0475 51.7246 10.0885 51.6036 10.1294C51.4827 10.1704 51.4021 10.2522 51.3215 10.3341C51.2409 10.416 51.1602 10.5388 51.1199 10.6616C51.0796 10.7845 51.0393 10.9073 51.0393 11.071C51.0393 11.1939 51.0796 11.3576 51.1199 11.4804C51.1602 11.6033 51.2409 11.7261 51.3215 11.808C51.4021 11.8899 51.523 11.9717 51.6036 12.0127C51.7246 12.0536 51.8455 12.0946 52.0067 12.0946C52.168 12.0946 52.2889 12.0536 52.4098 12.0127C52.5308 11.9717 52.6114 11.8898 52.692 11.767L53.1757 12.2583C53.0548 12.4221 52.8935 12.504 52.692 12.5858C52.4905 12.6677 52.2486 12.7087 52.0067 12.7087C51.7649 12.7087 51.523 12.6677 51.3215 12.5858C51.1199 12.504 50.9184 12.3811 50.7571 12.2583C50.5959 12.0945 50.475 11.9308 50.3944 11.7261C50.3137 11.5214 50.2734 11.2757 50.2734 11.0301C50.2734 10.7845 50.3137 10.5388 50.3944 10.3341C50.475 10.1294 50.5959 9.96566 50.7571 9.8019C50.9184 9.63814 51.0796 9.55626 51.3215 9.47438C51.5633 9.3925 51.7649 9.35156 52.0067 9.35156C52.2083 9.35156 52.4501 9.3925 52.6517 9.47438C52.8532 9.55626 53.0548 9.67908 53.1757 9.84284L52.692 10.3751Z" fill="white"/>
<path d="M53.3379 9.47412H56.1192V10.0882H55.1115V12.6674H54.3053V10.0882H53.3379V9.47412Z" fill="white"/>
<path d="M59.1022 10.4567L57.4898 12.6674H56.6836V9.47412H57.4898V11.603L59.1022 9.47412H59.868V12.6674H59.1022V10.4567Z" fill="white"/>
<path d="M60.4707 9.47412H63.252V10.0882H62.204V12.6674H61.4381V10.0882H60.4707V9.47412Z" fill="white"/>
<path d="M65.1071 11.8077L65.9133 9.47412H66.7598L65.3892 13.0769C65.3086 13.2406 65.2683 13.4044 65.1877 13.5681C65.1071 13.7319 65.0264 13.8547 64.9458 13.9366C64.8652 14.0185 64.7443 14.1004 64.583 14.1822C64.4621 14.2232 64.3009 14.2641 64.0993 14.2641C64.0187 14.2641 63.9381 14.2641 63.8575 14.2641C63.7768 14.2641 63.6962 14.2232 63.6156 14.2232L63.6962 13.5272C63.7365 13.5272 63.8172 13.5681 63.8575 13.5681C63.8978 13.5681 63.9784 13.5681 64.0187 13.5681C64.1799 13.5681 64.3009 13.5272 64.3815 13.4453C64.4621 13.3634 64.5427 13.2406 64.583 13.0769L64.7443 12.6265L63.4141 9.47412H64.2606L65.1071 11.8077Z" fill="white"/>
<path d="M66.8809 9.47412H69.6622V10.0882H68.6545V12.6674H67.8483V10.0882H66.8809V9.47412Z" fill="white"/>
<path d="M74.0953 10.3751C74.0147 10.2932 73.9341 10.2113 73.8132 10.1294C73.6922 10.0885 73.5713 10.0475 73.4101 10.0475C73.2488 10.0475 73.1279 10.0885 73.007 10.1294C72.886 10.1704 72.8054 10.2522 72.7248 10.3341C72.6442 10.416 72.5636 10.5388 72.5233 10.6616C72.4829 10.7845 72.4426 10.9073 72.4426 11.071C72.4426 11.1939 72.4829 11.3576 72.5233 11.4804C72.5636 11.6033 72.6442 11.7261 72.7248 11.808C72.8054 11.8899 72.9264 11.9717 73.007 12.0127C73.1279 12.0536 73.2488 12.0946 73.4101 12.0946C73.5713 12.0946 73.6922 12.0536 73.8132 12.0127C73.9341 11.9717 74.0147 11.8898 74.0953 11.767L74.579 12.2583C74.4581 12.4221 74.2969 12.504 74.0953 12.5858C73.8938 12.6677 73.6519 12.7087 73.4101 12.7087C73.1682 12.7087 72.9264 12.6677 72.7248 12.5858C72.5233 12.504 72.3217 12.3811 72.1605 12.2583C71.9992 12.0945 71.8783 11.9308 71.7977 11.7261C71.7171 11.5214 71.6768 11.2757 71.6768 11.0301C71.6768 10.7845 71.7171 10.5388 71.7977 10.3341C71.8783 10.1294 71.9992 9.96566 72.1605 9.8019C72.3217 9.63814 72.4829 9.55626 72.7248 9.47438C72.9667 9.3925 73.1682 9.35156 73.4101 9.35156C73.6116 9.35156 73.8535 9.3925 74.055 9.47438C74.2566 9.55626 74.4581 9.67908 74.579 9.84284L74.0953 10.3751Z" fill="white"/>
<path d="M77.5211 10.4567L75.9087 12.6674H75.1025V9.47412H75.9087V11.603L77.5211 9.47412H78.287V12.6674H77.5211V10.4567Z" fill="white"/>
<path d="M81.4713 10.3751C81.3907 10.2932 81.3101 10.2113 81.1891 10.1294C81.0682 10.0885 80.9473 10.0475 80.786 10.0475C80.6248 10.0475 80.5039 10.0885 80.3829 10.1294C80.262 10.1704 80.1814 10.2522 80.1008 10.3341C80.0202 10.416 79.9395 10.5388 79.8992 10.6616C79.8589 10.7845 79.8186 10.9073 79.8186 11.071C79.8186 11.1939 79.8589 11.3576 79.8992 11.4804C79.9395 11.6033 80.0202 11.7261 80.1008 11.808C80.1814 11.8899 80.3023 11.9717 80.3829 12.0127C80.5039 12.0536 80.6248 12.0946 80.786 12.0946C80.9473 12.0946 81.0682 12.0536 81.1891 12.0127C81.3101 11.9717 81.3907 11.8898 81.4713 11.767L81.955 12.2583C81.8341 12.4221 81.6728 12.504 81.4713 12.5858C81.2697 12.6677 81.0279 12.7087 80.786 12.7087C80.5442 12.7087 80.3023 12.6677 80.1008 12.5858C79.8992 12.504 79.6977 12.3811 79.5364 12.2583C79.3752 12.0945 79.2543 11.9308 79.1737 11.7261C79.093 11.5214 79.0527 11.2757 79.0527 11.0301C79.0527 10.7845 79.093 10.5388 79.1737 10.3341C79.2543 10.1294 79.3752 9.96566 79.5364 9.8019C79.6977 9.63814 79.8589 9.55626 80.1008 9.47438C80.3426 9.3925 80.5442 9.35156 80.786 9.35156C80.9876 9.35156 81.2294 9.3925 81.431 9.47438C81.6325 9.55626 81.8341 9.67908 81.955 9.84284L81.4713 10.3751Z" fill="white"/>
<path d="M82.1562 9.47412H84.8973V10.0882H83.8896V12.6674H83.1237V10.0882H82.1562V9.47412Z" fill="white"/>
<path d="M87.7611 10.7426C87.7611 10.497 87.6805 10.3332 87.5595 10.1695C87.4386 10.0057 87.237 9.92383 86.9549 9.92383C86.834 9.92383 86.713 9.96477 86.5921 10.0057C86.4712 10.0466 86.3905 10.1285 86.3099 10.1695C86.2293 10.2514 86.189 10.3332 86.1084 10.4151C86.0681 10.497 86.0278 10.6198 86.0278 10.7426H87.7611ZM88.527 11.0292V11.152C88.527 11.193 88.527 11.2339 88.527 11.2749H86.1084C86.1084 11.3977 86.1487 11.5205 86.189 11.6024C86.2293 11.7252 86.3099 11.8071 86.3905 11.889C86.4712 11.9709 86.5518 12.0118 86.6727 12.0527C86.7936 12.0937 86.9146 12.1346 87.0355 12.1346C87.237 12.1346 87.3983 12.0937 87.5595 12.0118C87.7208 11.9299 87.8014 11.8071 87.882 11.7252L88.4463 12.0937C88.2851 12.3393 88.0835 12.5031 87.8417 12.585C87.5998 12.7078 87.358 12.7487 87.0355 12.7487C86.7936 12.7487 86.5921 12.7078 86.3905 12.6259C86.189 12.544 85.9875 12.4212 85.8665 12.2984C85.7053 12.1346 85.5844 11.9708 85.5037 11.7661C85.4231 11.5614 85.3828 11.3158 85.3828 11.0702C85.3828 10.8245 85.4231 10.5789 85.5037 10.3742C85.5844 10.1695 85.7053 10.0057 85.8665 9.84195C86.0278 9.67819 86.189 9.5963 86.3905 9.51442C86.5921 9.43254 86.7936 9.3916 87.0355 9.3916C87.2774 9.3916 87.4789 9.43254 87.6805 9.51442C87.882 9.5963 88.0432 9.71913 88.1642 9.84195C88.2851 9.96477 88.406 10.1695 88.4866 10.3742C88.4866 10.5789 88.527 10.7836 88.527 11.0292Z" fill="white"/>
<path d="M89.9772 9.47412L91.1462 10.907L92.3152 9.47412H93.0004V12.6674H92.2346V10.5795L91.2268 11.8896H91.0656L90.0579 10.5795V12.6674H89.292V9.47412H89.9772Z" fill="white"/>
<path d="M94.7346 12.6674H93.9688V9.47412H94.7346V10.7023H96.1455V9.47412H96.9113V12.6674H96.1455V11.3164H94.7346V12.6674Z" fill="white"/>
<path d="M100.338 11.071C100.338 10.9482 100.298 10.7845 100.257 10.6616C100.217 10.5388 100.136 10.416 100.056 10.3341C99.9751 10.2522 99.8945 10.1704 99.7736 10.1294C99.6526 10.0885 99.5317 10.0475 99.3705 10.0475C99.2092 10.0475 99.0883 10.0885 98.9674 10.1294C98.8464 10.1704 98.7658 10.2522 98.6852 10.3341C98.6046 10.416 98.524 10.5388 98.4837 10.6616C98.4433 10.7845 98.403 10.9073 98.403 11.071C98.403 11.1939 98.4433 11.3576 98.4837 11.4804C98.524 11.6033 98.6046 11.7261 98.6852 11.808C98.7658 11.8899 98.8464 11.9717 98.9674 12.0127C99.0883 12.0536 99.2092 12.0946 99.3705 12.0946C99.5317 12.0946 99.6526 12.0536 99.7736 12.0127C99.8945 11.9717 99.9751 11.8899 100.056 11.808C100.136 11.7261 100.217 11.6033 100.257 11.4804C100.338 11.3167 100.338 11.1939 100.338 11.071ZM101.144 11.0301C101.144 11.2757 101.104 11.5214 101.023 11.7261C100.943 11.9308 100.822 12.0945 100.66 12.2583C100.499 12.4221 100.338 12.504 100.096 12.5858C99.8945 12.6677 99.6526 12.7087 99.4108 12.7087C99.1689 12.7087 98.9271 12.6677 98.7255 12.5858C98.524 12.504 98.3224 12.3811 98.2015 12.2583C98.0402 12.0945 97.9193 11.9308 97.8387 11.7261C97.7581 11.5214 97.7178 11.2757 97.7178 11.0301C97.7178 10.7845 97.7581 10.5388 97.8387 10.3341C97.9193 10.1294 98.0402 9.96566 98.2015 9.8019C98.3627 9.63814 98.524 9.55626 98.7255 9.47438C98.9271 9.3925 99.1689 9.35156 99.4108 9.35156C99.6526 9.35156 99.8945 9.3925 100.096 9.47438C100.298 9.55626 100.499 9.67908 100.66 9.8019C100.822 9.96566 100.943 10.1294 101.023 10.3341C101.104 10.5798 101.144 10.7845 101.144 11.0301Z" fill="white"/>
<path d="M103.278 10.7026H101.707V11.3577H103.278V10.7026Z" fill="white"/>
<path d="M42.8139 18.6029L42.2899 19.9948H43.5395L42.9752 18.3163L42.8139 18.6029ZM41.6853 21.5506H41V19.9948H41.524L42.5318 17.4565H43.4186L44.3457 19.9948H44.8697V21.5506H44.1844V20.6499H41.6853V21.5506Z" fill="white"/>
<path d="M47.651 18.7265C47.651 18.4809 47.5704 18.3171 47.4494 18.1534C47.3285 17.9896 47.127 17.9077 46.8448 17.9077C46.7239 17.9077 46.6029 17.9487 46.482 17.9896C46.3611 18.0305 46.2805 18.1124 46.1998 18.1534C46.1192 18.2352 46.0789 18.3171 45.9983 18.399C45.958 18.4809 45.9177 18.6037 45.9177 18.7265H47.651ZM48.3766 19.0131V19.1359C48.3766 19.1769 48.3766 19.2178 48.3766 19.2587H45.958C45.958 19.3816 45.9983 19.5044 46.0386 19.5863C46.0789 19.7091 46.1595 19.791 46.2402 19.8728C46.3208 19.9547 46.4014 19.9957 46.5223 20.0366C46.6433 20.0775 46.7642 20.1185 46.8851 20.1185C47.0867 20.1185 47.2479 20.0776 47.4091 19.9957C47.5704 19.9138 47.651 19.791 47.7316 19.7091L48.2959 20.0775C48.1347 20.3232 47.9332 20.487 47.6913 20.5688C47.4494 20.6917 47.2076 20.7326 46.8851 20.7326C46.6433 20.7326 46.4417 20.6917 46.2402 20.6098C46.0386 20.5279 45.8371 20.4051 45.7161 20.2823C45.5549 20.1185 45.434 19.9547 45.3533 19.75C45.2727 19.5453 45.2324 19.2997 45.2324 19.054C45.2324 18.8084 45.2727 18.5628 45.3533 18.3581C45.434 18.1534 45.5549 17.9896 45.7161 17.8258C45.8774 17.6621 46.0386 17.5802 46.2402 17.4983C46.4417 17.4164 46.6433 17.3755 46.8851 17.3755C47.127 17.3755 47.3285 17.4164 47.5301 17.4983C47.7316 17.5802 47.8928 17.703 48.0138 17.8258C48.1347 17.9896 48.2556 18.1534 48.3362 18.3581C48.3362 18.5218 48.3766 18.7675 48.3766 19.0131Z" fill="white"/>
<path d="M49.7894 18.4806C49.7894 18.6444 49.8297 18.7263 49.991 18.7672C50.1119 18.8081 50.2731 18.8491 50.515 18.8491H50.9987V18.1122H50.515C50.2731 18.1122 50.1119 18.1531 49.991 18.194C49.87 18.235 49.7894 18.3169 49.7894 18.4806ZM50.6359 19.5041C50.515 19.5041 50.3941 19.5041 50.3134 19.5451C50.1925 19.586 50.1119 19.6269 50.0313 19.7498C49.9507 19.8316 49.9103 19.9545 49.8297 20.1182C49.7894 20.282 49.7491 20.4457 49.7088 20.6505H48.8623C48.9026 20.241 49.0235 19.9135 49.2251 19.6679C49.3863 19.4222 49.5879 19.2994 49.8297 19.2175C49.6282 19.1766 49.4266 19.1357 49.3057 19.0128C49.1445 18.89 49.1042 18.6853 49.1042 18.3987C49.1042 18.235 49.1445 18.1122 49.2251 17.9893C49.3057 17.8665 49.3863 17.7846 49.5073 17.7027C49.6282 17.6209 49.7491 17.5799 49.9104 17.539C50.0716 17.498 50.2328 17.498 50.3941 17.498H51.8452V20.6914H51.0793V19.5451H50.6359V19.5041Z" fill="white"/>
<path d="M52.25 17.4565H55.0314V18.0706H53.9833V20.6499H53.2174V18.0706H52.25V17.4565Z" fill="white"/>
<path d="M57.8529 18.7265C57.8529 18.4809 57.7722 18.3171 57.6513 18.1534C57.5304 17.9896 57.3288 17.9077 57.0467 17.9077C56.9257 17.9077 56.8048 17.9487 56.6839 17.9896C56.563 18.0305 56.4823 18.1124 56.4017 18.1534C56.3211 18.2352 56.2808 18.3171 56.2002 18.399C56.1599 18.4809 56.1196 18.6037 56.1196 18.7265H57.8529ZM58.6187 19.0131V19.1359C58.6187 19.1769 58.6187 19.2178 58.6187 19.2587H56.2002C56.2002 19.3816 56.2405 19.5044 56.2808 19.5863C56.3211 19.7091 56.4017 19.791 56.4823 19.8728C56.563 19.9547 56.6436 19.9957 56.7645 20.0366C56.8854 20.0775 57.0064 20.1185 57.1273 20.1185C57.3288 20.1185 57.4901 20.0776 57.6513 19.9957C57.8126 19.9138 57.8932 19.791 57.9738 19.7091L58.5381 20.0775C58.3769 20.3232 58.1753 20.487 57.9335 20.5688C57.6916 20.6917 57.4498 20.7326 57.1273 20.7326C56.8854 20.7326 56.6839 20.6917 56.4823 20.6098C56.2808 20.5279 56.0793 20.4051 55.9583 20.2823C55.7971 20.1185 55.6762 19.9547 55.5955 19.75C55.5149 19.5453 55.4746 19.2997 55.4746 19.054C55.4746 18.8084 55.5149 18.5628 55.5955 18.3581C55.6762 18.1534 55.7971 17.9896 55.9583 17.8258C56.1196 17.6621 56.2808 17.5802 56.4823 17.4983C56.6839 17.4164 56.8854 17.3755 57.1273 17.3755C57.3692 17.3755 57.5707 17.4164 57.7722 17.4983C57.9738 17.5802 58.135 17.703 58.256 17.8258C58.3769 17.9896 58.4978 18.1534 58.5784 18.3581C58.5784 18.5218 58.6187 18.7675 58.6187 19.0131Z" fill="white"/>
<path d="M61.561 20.6499L60.7145 18.3982L59.8277 20.6499H59.0215L60.2711 17.4565H61.1579L62.3672 20.6499H61.561Z" fill="white"/>
<path d="M63.7369 20.0776H64.3415C64.543 20.0776 64.7043 20.0367 64.8252 19.9548C64.9461 19.8729 65.0267 19.7501 65.0267 19.5454C65.0267 19.4635 65.0267 19.3816 64.9864 19.2997C64.9461 19.2179 64.9058 19.1769 64.8252 19.136C64.7446 19.095 64.7043 19.0541 64.6237 19.0541C64.543 19.0541 64.4624 19.0132 64.3415 19.0132H63.7369V20.0776ZM63.7369 17.4574V18.4809H64.4624C64.7043 18.4809 64.9058 18.5219 65.0671 18.5628C65.2283 18.6038 65.3492 18.6856 65.4702 18.8085C65.5911 18.8903 65.6314 19.0132 65.6717 19.136C65.712 19.2588 65.7523 19.4226 65.7523 19.5454C65.7523 19.7091 65.712 19.832 65.6717 19.9548C65.6314 20.0776 65.5508 20.2004 65.4298 20.2823C65.3089 20.3642 65.188 20.4461 65.0267 20.5279C64.8655 20.5689 64.7043 20.6098 64.4624 20.6098H62.9307V17.4165H63.7369V17.4574Z" fill="white"/>
<path d="M67.2427 20.6499H66.4365V17.4565H67.2427V18.6847H68.6132V17.4565H69.3791V20.6499H68.6132V19.2988H67.2427V20.6499Z" fill="white"/>
<path d="M72.846 19.0535C72.846 18.9306 72.8057 18.7669 72.7653 18.6441C72.725 18.5212 72.6444 18.3984 72.5638 18.3165C72.4832 18.2347 72.4026 18.1528 72.2816 18.1118C72.1607 18.0709 72.0398 18.03 71.8785 18.03C71.7173 18.03 71.5964 18.0709 71.4754 18.1118C71.3545 18.1528 71.2739 18.2347 71.1933 18.3165C71.1127 18.3984 71.032 18.5212 70.9917 18.6441C70.9514 18.7669 70.9111 18.8897 70.9111 19.0535C70.9111 19.1763 70.9514 19.3401 70.9917 19.4629C71.032 19.5857 71.1127 19.7085 71.1933 19.7904C71.2739 19.8723 71.3545 19.9542 71.4754 19.9951C71.5964 20.036 71.7173 20.077 71.8785 20.077C72.0398 20.077 72.1607 20.036 72.2816 19.9951C72.4026 19.9542 72.4832 19.8723 72.5638 19.7904C72.6444 19.7085 72.725 19.5857 72.7653 19.4629C72.8057 19.2991 72.846 19.1763 72.846 19.0535ZM73.6118 19.0125C73.6118 19.2582 73.5715 19.5038 73.4909 19.7085C73.4103 19.9132 73.2894 20.077 73.1281 20.2407C72.9669 20.4045 72.8057 20.4864 72.5638 20.5683C72.3623 20.6501 72.1204 20.6911 71.8785 20.6911C71.6367 20.6911 71.3948 20.6501 71.1933 20.5683C70.9917 20.4864 70.7902 20.3636 70.6693 20.2407C70.508 20.077 70.3871 19.9132 70.3065 19.7085C70.2259 19.5038 70.1855 19.2582 70.1855 19.0125C70.1855 18.7669 70.2259 18.5212 70.3065 18.3165C70.3871 18.1118 70.508 17.9481 70.6693 17.7843C70.8305 17.6206 70.9917 17.5387 71.1933 17.4568C71.3948 17.3749 71.6367 17.334 71.8785 17.334C72.1204 17.334 72.3623 17.3749 72.5638 17.4568C72.7653 17.5387 72.9669 17.6615 73.1281 17.7843C73.2894 17.9481 73.4103 18.1118 73.4909 18.3165C73.5715 18.5622 73.6118 18.7669 73.6118 19.0125Z" fill="white"/>
<path d="M76.5963 18.3575C76.5157 18.2756 76.4351 18.1937 76.3141 18.1118C76.1932 18.0709 76.0723 18.03 75.911 18.03C75.7498 18.03 75.6289 18.0709 75.5079 18.1118C75.387 18.1528 75.3064 18.2347 75.2258 18.3165C75.1452 18.3984 75.0645 18.5212 75.0242 18.6441C74.9839 18.7669 74.9436 18.8897 74.9436 19.0535C74.9436 19.1763 74.9839 19.3401 75.0242 19.4629C75.0645 19.5857 75.1452 19.7085 75.2258 19.7904C75.3064 19.8723 75.4273 19.9542 75.5079 19.9951C75.6289 20.036 75.7498 20.077 75.911 20.077C76.0723 20.077 76.1932 20.036 76.3141 19.9951C76.4351 19.9542 76.5157 19.8723 76.5963 19.7495L77.08 20.2407C76.9591 20.4045 76.7979 20.4864 76.5963 20.5683C76.3948 20.6501 76.1529 20.6911 75.911 20.6911C75.6692 20.6911 75.4273 20.6501 75.2258 20.5683C75.0242 20.4864 74.8227 20.3636 74.6614 20.2407C74.5002 20.077 74.3793 19.9132 74.2987 19.7085C74.218 19.5038 74.1777 19.2582 74.1777 19.0125C74.1777 18.7669 74.218 18.5212 74.2987 18.3165C74.3793 18.1118 74.5002 17.9481 74.6614 17.7843C74.8227 17.6206 74.9839 17.5387 75.2258 17.4568C75.4676 17.3749 75.6692 17.334 75.911 17.334C76.1126 17.334 76.3544 17.3749 76.556 17.4568C76.7575 17.5387 76.9591 17.6615 77.08 17.8253L76.5963 18.3575Z" fill="white"/>
<path d="M77.2803 17.4565H80.0616V18.0706H79.0136V20.6499H78.2477V18.0706H77.2803V17.4565Z" fill="white"/>
<path d="M81.3928 20.6499H80.627V17.4565H81.3928V18.6847H82.8037V17.4565H83.5695V20.6499H82.8037V19.2988H81.3928V20.6499Z" fill="white"/>
<path d="M86.9961 19.0535C86.9961 18.9306 86.9558 18.7669 86.9155 18.6441C86.8751 18.5212 86.7945 18.3984 86.7139 18.3165C86.6333 18.2347 86.5527 18.1528 86.4317 18.1118C86.3108 18.0709 86.1899 18.03 86.0287 18.03C85.8674 18.03 85.7465 18.0709 85.6256 18.1118C85.5046 18.1528 85.424 18.2347 85.3434 18.3165C85.2628 18.3984 85.1822 18.5212 85.1419 18.6441C85.1015 18.7669 85.0612 18.8897 85.0612 19.0535C85.0612 19.1763 85.1015 19.3401 85.1419 19.4629C85.1822 19.5857 85.2628 19.7085 85.3434 19.7904C85.424 19.8723 85.5046 19.9542 85.6256 19.9951C85.7465 20.036 85.8674 20.077 86.0287 20.077C86.1899 20.077 86.3108 20.036 86.4317 19.9951C86.5527 19.9542 86.6333 19.8723 86.7139 19.7904C86.7945 19.7085 86.8751 19.5857 86.9155 19.4629C86.9961 19.2991 86.9961 19.1763 86.9961 19.0535ZM87.8023 19.0125C87.8023 19.2582 87.7619 19.5038 87.6813 19.7085C87.6007 19.9132 87.4798 20.077 87.3185 20.2407C87.1573 20.4045 86.9961 20.4864 86.7542 20.5683C86.5527 20.6501 86.3108 20.6911 86.069 20.6911C85.8271 20.6911 85.5853 20.6501 85.3837 20.5683C85.1822 20.4864 84.9806 20.3636 84.8597 20.2407C84.6985 20.077 84.5775 19.9132 84.4969 19.7085C84.4163 19.5038 84.376 19.2582 84.376 19.0125C84.376 18.7669 84.4163 18.5212 84.4969 18.3165C84.5775 18.1118 84.6985 17.9481 84.8597 17.7843C85.0209 17.6206 85.1822 17.5387 85.3837 17.4568C85.5853 17.3749 85.8271 17.334 86.069 17.334C86.3108 17.334 86.5527 17.3749 86.7542 17.4568C86.9558 17.5387 87.1573 17.6615 87.3185 17.7843C87.4798 17.9481 87.6007 18.1118 87.6813 18.3165C87.7216 18.5622 87.8023 18.7669 87.8023 19.0125Z" fill="white"/>
<path d="M89.0911 16.1471C89.1314 16.229 89.1718 16.3108 89.2524 16.3927C89.333 16.4746 89.4136 16.5565 89.4942 16.5974C89.5748 16.6793 89.6958 16.7203 89.8167 16.7612C89.9376 16.8021 90.0586 16.8021 90.2198 16.8021C90.3407 16.8021 90.4616 16.8021 90.5826 16.7612C90.7035 16.7203 90.8244 16.6793 90.905 16.5974C90.9857 16.5156 91.0663 16.4746 91.1469 16.3927C91.2275 16.3108 91.2678 16.229 91.3081 16.1471L90.905 15.9424C90.8647 16.0652 90.7841 16.188 90.6229 16.2699C90.502 16.3518 90.3407 16.3927 90.2198 16.3927C90.0586 16.3927 89.9376 16.3518 89.8167 16.2699C89.6958 16.188 89.6152 16.0652 89.5345 15.9424L89.0911 16.1471ZM90.9857 18.4398L89.3733 20.6096H88.6074V17.4162H89.3733V19.5451L90.9857 17.4162H91.7515V20.6096H90.9857V18.4398Z" fill="white"/>
<path d="M95.096 20.6499H94.3301V17.4565H97.2324V20.6499H96.4262V18.0706H95.096V20.6499Z" fill="white"/>
<path d="M100.46 18.7265C100.46 18.4809 100.379 18.3171 100.258 18.1534C100.137 17.9896 99.9356 17.9077 99.6534 17.9077C99.5325 17.9077 99.4115 17.9487 99.2906 17.9896C99.1697 18.0305 99.0891 18.1124 99.0084 18.1534C98.9278 18.2352 98.8875 18.3171 98.8069 18.399C98.7666 18.4809 98.7263 18.6037 98.7263 18.7265H100.46ZM101.185 19.0131V19.1359C101.185 19.1769 101.185 19.2178 101.185 19.2587H98.7666C98.7666 19.3816 98.8069 19.5044 98.8472 19.5863C98.8875 19.7091 98.9681 19.791 99.0488 19.8728C99.1294 19.9547 99.21 19.9957 99.3309 20.0366C99.4518 20.0775 99.5728 20.1185 99.6937 20.1185C99.8952 20.1185 100.056 20.0776 100.218 19.9957C100.379 19.9138 100.46 19.791 100.54 19.7091L101.105 20.0775C100.943 20.3232 100.742 20.487 100.5 20.5688C100.258 20.6917 100.016 20.7326 99.6937 20.7326C99.4518 20.7326 99.2503 20.6917 99.0488 20.6098C98.8472 20.5279 98.6457 20.4051 98.5247 20.2823C98.3635 20.1185 98.2426 19.9547 98.1619 19.75C98.0813 19.5453 98.041 19.2997 98.041 19.054C98.041 18.8084 98.0813 18.5628 98.1619 18.3581C98.2426 18.1534 98.3635 17.9896 98.5247 17.8258C98.686 17.6621 98.8472 17.5802 99.0488 17.4983C99.2503 17.4164 99.4518 17.3755 99.6937 17.3755C99.9356 17.3755 100.137 17.4164 100.339 17.4983C100.54 17.5802 100.701 17.703 100.822 17.8258C100.943 17.9896 101.064 18.1534 101.145 18.3581C101.185 18.5218 101.185 18.7675 101.185 19.0131Z" fill="white"/>
<path d="M103.32 18.6029L102.796 19.9948H104.045L103.481 18.3163L103.32 18.6029ZM102.191 21.5506H101.506V19.9948H102.03L103.038 17.4565H103.924L104.852 19.9948H105.376V21.5506H104.69V20.6499H102.151V21.5506H102.191Z" fill="white"/>
<path d="M107.674 19.1354C107.513 19.1354 107.392 19.1354 107.231 19.1354C107.07 19.1354 106.949 19.1763 106.828 19.2172C106.707 19.2582 106.626 19.2991 106.546 19.381C106.465 19.4629 106.425 19.5448 106.425 19.6676C106.425 19.7495 106.425 19.8313 106.465 19.8723C106.505 19.9132 106.546 19.9951 106.586 19.9951C106.626 20.036 106.707 20.036 106.788 20.077C106.868 20.077 106.908 20.1179 106.989 20.1179C107.231 20.1179 107.433 20.036 107.594 19.8723C107.715 19.7085 107.795 19.5038 107.795 19.2582V19.0944H107.674V19.1354ZM107.795 18.5622C107.795 18.3575 107.715 18.1937 107.594 18.1118C107.473 18.03 107.312 17.9481 107.11 17.9481C106.949 17.9481 106.788 17.989 106.626 18.03C106.465 18.1118 106.344 18.1937 106.264 18.2756L105.86 17.8253C106.022 17.6615 106.223 17.5387 106.465 17.4568C106.707 17.3749 106.949 17.334 107.191 17.334C107.594 17.334 107.916 17.4159 108.158 17.6206C108.4 17.8253 108.521 18.1118 108.521 18.5622C108.521 18.6441 108.521 18.685 108.521 18.7669C108.521 18.8078 108.521 18.8897 108.521 18.9716V19.9951C108.521 20.1179 108.521 20.2407 108.521 20.3226C108.521 20.4454 108.521 20.5683 108.521 20.6501H107.795C107.795 20.5683 107.795 20.5273 107.795 20.4454C107.795 20.3636 107.795 20.3226 107.795 20.2407C107.674 20.4045 107.553 20.5273 107.392 20.6092C107.231 20.6911 107.029 20.732 106.828 20.732C106.707 20.732 106.586 20.732 106.465 20.6911C106.344 20.6501 106.223 20.6092 106.102 20.5273C105.981 20.4454 105.901 20.3636 105.82 20.2407C105.74 20.1179 105.699 19.9542 105.699 19.7904C105.699 19.5448 105.78 19.381 105.901 19.2172C106.022 19.0944 106.183 18.9716 106.384 18.8897C106.586 18.8078 106.828 18.7669 107.07 18.7259C107.312 18.685 107.594 18.685 107.836 18.685V18.5622H107.795Z" fill="white"/>
<path d="M110.214 20.6499H109.448V17.4565H111.544V18.0706H110.214V20.6499Z" fill="white"/>
<path d="M114.605 19.0535C114.605 18.9306 114.565 18.7669 114.525 18.6441C114.485 18.5212 114.404 18.3984 114.323 18.3165C114.243 18.2347 114.162 18.1528 114.041 18.1118C113.92 18.0709 113.799 18.03 113.638 18.03C113.477 18.03 113.356 18.0709 113.235 18.1118C113.114 18.1528 113.033 18.2347 112.953 18.3165C112.872 18.3984 112.792 18.5212 112.751 18.6441C112.711 18.7669 112.671 18.8897 112.671 19.0535C112.671 19.1763 112.711 19.3401 112.751 19.4629C112.792 19.5857 112.872 19.7085 112.953 19.7904C113.033 19.8723 113.114 19.9542 113.235 19.9951C113.356 20.036 113.477 20.077 113.638 20.077C113.799 20.077 113.92 20.036 114.041 19.9951C114.162 19.9542 114.243 19.8723 114.323 19.7904C114.404 19.7085 114.485 19.5857 114.525 19.4629C114.605 19.2991 114.605 19.1763 114.605 19.0535ZM115.412 19.0125C115.412 19.2582 115.371 19.5038 115.291 19.7085C115.21 19.9132 115.089 20.077 114.928 20.2407C114.767 20.4045 114.605 20.4864 114.364 20.5683C114.162 20.6501 113.92 20.6911 113.678 20.6911C113.436 20.6911 113.195 20.6501 112.993 20.5683C112.792 20.4864 112.59 20.3636 112.469 20.2407C112.308 20.077 112.187 19.9132 112.106 19.7085C112.026 19.5038 111.985 19.2582 111.985 19.0125C111.985 18.7669 112.026 18.5212 112.106 18.3165C112.187 18.1118 112.308 17.9481 112.469 17.7843C112.63 17.6206 112.792 17.5387 112.993 17.4568C113.195 17.3749 113.436 17.334 113.678 17.334C113.92 17.334 114.162 17.3749 114.364 17.4568C114.565 17.5387 114.767 17.6615 114.928 17.7843C115.089 17.9481 115.21 18.1118 115.291 18.3165C115.331 18.5622 115.412 18.7669 115.412 19.0125Z" fill="white"/>
<path d="M116.945 20.6499H116.179V17.4565H118.275V18.0706H116.945V20.6499Z" fill="white"/>
<path d="M121.258 18.4391L119.646 20.6499H118.84V17.4565H119.646V19.5854L121.258 17.4565H122.024V20.6499H121.258V18.4391Z" fill="white"/>
<path d="M123.795 18.6847C123.916 18.6847 124.037 18.6848 124.158 18.7257L125.045 17.4565H125.892L124.803 18.9713C125.126 19.1351 125.368 19.3398 125.529 19.6264C125.69 19.913 125.851 20.2405 125.932 20.6499H125.085C125.045 20.4042 124.964 20.1995 124.884 20.0358C124.803 19.872 124.723 19.7492 124.602 19.6264C124.481 19.5445 124.36 19.4626 124.239 19.4217C124.118 19.3807 123.957 19.3398 123.755 19.3398V20.6908H122.989V17.4975H123.755V18.6847H123.795Z" fill="white"/>
<path d="M129.118 18.4391L127.465 20.6499H126.699V17.4565H127.465V19.5854L129.118 17.4565H129.884V20.6499H129.118V18.4391Z" fill="white"/>
<path d="M50.4363 25.5234V36.3317H47.8968V27.6933H43.9868V36.3317H41.4473V25.5234H50.4363Z" fill="white"/>
<path d="M53.7822 36.3317V25.5234H60.917V27.6933H56.2411V29.7403H60.6751V31.8282H56.2411V34.08H61.1992V36.3317H53.7822Z" fill="white"/>
<path d="M68.8547 27.7342V36.3317H66.3152V27.7342H63.292V25.5234H71.8779V27.7342H68.8547Z" fill="white"/>
<path d="M74.459 36.3317V25.5234H81.634V27.6933H76.9582V29.7403H81.3519V31.8282H76.9582V34.08H81.8759V36.3317H74.459Z" fill="white"/>
<path d="M90.5012 28.8396C90.5012 28.594 90.4609 28.3893 90.3399 28.2255C90.2593 28.0617 90.0981 27.9389 89.9369 27.857C89.7756 27.7752 89.5741 27.6933 89.3725 27.6933C89.171 27.6523 88.9291 27.6523 88.6873 27.6523H87.5586V30.1906H88.6469C88.8888 30.1906 89.1307 30.1497 89.3322 30.1497C89.5338 30.1087 89.7353 30.0269 89.9369 29.945C90.0981 29.8631 90.2593 29.6993 90.3399 29.5356C90.4609 29.3309 90.5012 29.0852 90.5012 28.8396ZM93.081 28.8396C93.081 29.4537 92.9601 29.9859 92.7182 30.4363C92.4763 30.8866 92.1942 31.2141 91.7911 31.5007C91.388 31.7464 90.9446 31.9511 90.4206 32.0739C89.8965 32.1967 89.3725 32.2376 88.8082 32.2376H87.5183V36.3317H84.9385V25.5234H88.8485C89.4128 25.5234 89.9772 25.5644 90.4609 25.6872C90.9849 25.81 91.388 25.9738 91.7911 26.2604C92.1539 26.506 92.4763 26.8745 92.6779 27.2839C92.9601 27.6933 93.081 28.2255 93.081 28.8396Z" fill="white"/>
<path d="M103.363 36.1259C102.678 36.4534 101.871 36.6172 100.985 36.6172C100.178 36.6172 99.4126 36.4943 98.7274 36.2078C98.0421 35.9212 97.4375 35.5527 96.9134 35.0205C96.3894 34.5292 95.9863 33.9151 95.7041 33.2191C95.422 32.5231 95.2607 31.7453 95.2607 30.8855C95.2607 30.0258 95.422 29.2479 95.7041 28.5519C95.9863 27.8559 96.3894 27.2418 96.9134 26.7506C97.4375 26.2593 98.0421 25.8908 98.7274 25.6042C99.4126 25.3586 100.178 25.1948 100.985 25.1948C101.751 25.1948 102.476 25.3176 103.202 25.6042C103.927 25.8908 104.532 26.2593 104.975 26.7915L103.242 28.5519C103 28.2244 102.678 27.9788 102.315 27.815C101.912 27.6512 101.509 27.5694 101.106 27.5694C100.662 27.5694 100.259 27.6512 99.856 27.815C99.4932 27.9788 99.1708 28.2244 98.8886 28.511C98.6064 28.7976 98.4049 29.166 98.2436 29.5754C98.0824 29.9848 98.0018 30.4352 98.0018 30.8855C98.0018 31.3768 98.0824 31.8271 98.2436 32.2365C98.4049 32.646 98.6064 32.9735 98.8483 33.301C99.1304 33.5876 99.4126 33.8332 99.8157 33.997C100.178 34.1607 100.582 34.2426 101.025 34.2426C101.549 34.2426 101.992 34.1607 102.355 33.956C102.718 33.7513 103.04 33.5057 103.282 33.1782L105.056 34.8977C104.653 35.348 104.088 35.7984 103.363 36.1259Z" fill="white"/>
<path d="M115.375 30.8446C115.375 30.3942 115.294 29.9439 115.133 29.5345C114.972 29.1251 114.77 28.7976 114.528 28.47C114.246 28.1835 113.924 27.9378 113.561 27.7741C113.198 27.6103 112.755 27.5284 112.311 27.5284C111.868 27.5284 111.465 27.6103 111.062 27.7741C110.699 27.9378 110.376 28.1835 110.094 28.47C109.812 28.7566 109.61 29.1251 109.489 29.5345C109.328 29.9439 109.288 30.3942 109.288 30.8446C109.288 31.3359 109.369 31.7862 109.53 32.1956C109.691 32.605 109.893 32.9735 110.134 33.2601C110.417 33.5466 110.699 33.7923 111.102 33.956C111.465 34.1198 111.868 34.2017 112.351 34.2017C112.795 34.2017 113.198 34.1198 113.601 33.956C113.964 33.7923 114.286 33.5466 114.568 33.2601C114.851 32.9735 115.052 32.605 115.213 32.1956C115.294 31.7862 115.375 31.3359 115.375 30.8446ZM118.116 30.8446C118.116 31.7043 117.954 32.4822 117.672 33.1782C117.39 33.8742 116.987 34.4883 116.463 34.9795C115.939 35.4708 115.334 35.8802 114.609 36.1668C113.883 36.4534 113.117 36.5762 112.311 36.5762C111.465 36.5762 110.699 36.4534 110.013 36.1668C109.288 35.8802 108.683 35.5118 108.2 34.9795C107.676 34.4883 107.272 33.8742 106.99 33.1782C106.708 32.4822 106.547 31.7043 106.547 30.8446C106.547 29.9848 106.708 29.207 106.99 28.511C107.272 27.815 107.676 27.2418 108.2 26.7506C108.724 26.2593 109.328 25.8908 110.013 25.6042C110.739 25.3586 111.505 25.1948 112.311 25.1948C113.158 25.1948 113.923 25.3176 114.609 25.6042C115.334 25.8499 115.939 26.2593 116.463 26.7506C116.987 27.2418 117.39 27.815 117.672 28.511C117.995 29.207 118.116 29.9848 118.116 30.8446Z" fill="white"/>
<path d="M12.2444 13.1536C12.0162 12.9219 11.7595 12.7191 11.5029 12.5454C11.2462 12.3716 10.9325 12.2557 10.6473 12.1399C10.2196 11.9661 9.82031 11.7343 9.36402 11.6475C8.85069 11.5606 8.33736 11.6185 7.82403 11.6475C7.39626 11.6764 6.93997 11.7054 6.51219 11.7923C6.0559 11.8792 5.62813 12.024 5.20035 12.2267C4.77258 12.4005 4.31629 12.6323 3.94555 12.9219C3.48926 13.2405 3.09001 13.646 2.71927 14.0515C2.4626 14.3412 2.26298 14.6598 2.06335 15.0073C1.89224 15.297 1.77817 15.6156 1.66409 15.9632C1.55002 16.2818 1.49298 16.6873 1.40743 17.0349C1.5215 17.0349 1.66409 17.0638 1.77817 17.0928C1.80669 16.948 1.86372 16.8321 1.89224 16.6873C1.94928 16.5135 2.03483 16.4266 2.12039 16.2818C2.03483 16.8611 1.92076 17.2666 1.86372 17.8169C1.80669 18.2514 1.80669 18.6859 1.77817 19.1203C1.89224 19.1203 2.03483 19.2072 2.12039 19.2651C2.1489 19.0624 2.12039 18.7727 2.17742 18.57C2.20594 18.4252 2.26298 18.1935 2.32001 18.0486C2.2915 18.57 2.20594 19.1493 2.23446 19.6706C2.23446 20.1341 2.2915 20.6265 2.32001 21.0899C2.43409 21.2058 2.6052 21.2927 2.71927 21.4085C2.69075 21.1768 2.63371 20.9741 2.63371 20.7423C2.63371 20.5396 2.66223 20.3079 2.69075 20.1051C2.86186 20.5106 2.94741 20.9741 3.14704 21.3796C3.31815 21.7271 3.5463 22.0747 3.74592 22.4223C3.91703 22.4802 4.08814 22.5381 4.25925 22.5671C4.1737 22.3644 4.08814 22.1616 4.08814 21.9009C4.23073 22.0747 4.31629 22.3064 4.4874 22.4512C4.65851 22.625 4.94369 22.8568 5.1148 23.0305C5.20035 23.0016 5.25739 23.0016 5.34295 23.0016C5.22887 22.7699 5.05776 22.4802 4.91517 22.2485C4.82962 22.0457 4.82962 21.7851 4.77258 21.5823C4.94369 21.843 5.05776 22.1616 5.25739 22.3933C5.45702 22.625 5.59961 23.0016 5.71368 23.3491C5.82775 23.3491 5.97035 23.3781 6.08442 23.3781C6.16997 23.1464 6.11294 22.9147 6.11294 22.654C6.22701 22.9436 6.3696 23.2333 6.34108 23.5809C6.42664 23.5809 6.51219 23.5809 6.62627 23.5809C6.76886 23.4071 6.82589 23.0885 6.82589 22.8857C6.85441 23.1174 6.88293 23.3781 6.82589 23.6967C6.91145 23.7257 6.997 23.7257 7.08256 23.7547C7.22515 23.6098 7.33922 23.465 7.39626 23.3202C7.45329 23.465 7.45329 23.6388 7.42478 23.7836C7.51033 23.8126 7.56737 23.8705 7.65292 23.8995C7.96662 23.7547 8.10921 23.5809 8.30884 23.3202C8.45143 23.1464 8.53699 22.8568 8.7081 22.683C8.96476 22.7699 9.24994 22.8278 9.47809 22.9726C9.70623 23.0885 9.90586 23.2623 10.0199 23.494C10.077 23.5809 9.9629 23.6967 9.87734 23.7547C9.59216 23.8705 9.27846 23.8705 8.99328 23.9864C8.87921 24.0443 8.79365 24.1891 8.65106 24.2181C8.2518 24.3339 7.85255 24.3339 7.42478 24.3629C7.02552 24.4208 6.62627 24.4788 6.22701 24.5077C6.02738 24.5657 5.82776 24.5946 5.62813 24.6526C5.1148 24.5077 4.62999 24.3629 4.11666 24.2471C3.66037 24.1602 3.17556 24.1312 2.69075 24.1022C2.49112 24.0733 2.2915 24.0153 2.12039 23.9864C1.8352 23.8995 1.5215 23.8705 1.2078 23.8705C1.09373 23.8705 0.979657 23.9574 1.06521 24.0443C1.15077 24.1891 1.35039 24.2181 1.49298 24.3339C1.40743 24.3919 1.32188 24.4498 1.23632 24.4788C1.00817 24.5946 0.780029 24.6815 0.551883 24.7684C0.380774 24.8263 0.12411 24.7684 0.0100371 24.9132C-0.0469994 25.0291 0.152628 25.145 0.266701 25.2029C0.43781 25.2898 0.637438 25.3187 0.837066 25.3477C1.12225 25.3767 1.40743 25.4056 1.69261 25.4056C1.89224 25.4056 2.09187 25.3767 2.2915 25.4056C2.49112 25.4346 2.69075 25.5794 2.89038 25.6374C3.2326 25.7532 3.57482 25.8691 3.94555 25.927C4.40184 26.0139 4.88665 26.0429 5.34295 26.1297C5.4285 26.1587 5.48554 26.2456 5.59961 26.2456C5.68516 26.2456 5.77072 26.1587 5.85627 26.1877C6.25553 26.2746 6.65478 26.4484 7.05404 26.5063C7.51033 26.5932 7.96662 26.6221 8.45143 26.6511C8.79365 26.6511 9.10735 26.6221 9.44957 26.6221C9.6492 26.9408 9.82031 27.2304 10.0199 27.549C10.2196 27.8676 10.4762 28.1573 10.6473 28.4759C10.7899 28.7655 10.8755 29.0841 10.961 29.4027C11.0181 29.6634 11.0466 29.9531 11.0181 30.2138C10.9896 30.3875 10.847 30.5034 10.7899 30.6482C10.7044 30.9089 10.6188 31.1696 10.5903 31.4303C10.5618 31.662 10.5333 31.8937 10.5618 32.1254C10.5903 32.2992 10.6759 32.502 10.7614 32.6468C10.847 32.8206 10.9896 32.9944 11.1036 33.1681C10.847 33.4288 10.5333 33.6605 10.3051 33.9502C10.0199 34.2978 9.76327 34.6743 9.56364 35.0508C9.47809 35.2246 9.44957 35.4274 9.39253 35.6012C9.24994 35.5432 9.10735 35.4853 8.93624 35.4563C8.62254 35.3984 8.30884 35.3984 7.96662 35.3984C7.76699 35.3984 7.59588 35.4563 7.39626 35.4563C7.08256 35.4274 6.76886 35.3984 6.48367 35.2826C6.31257 35.2246 6.19849 35.0219 6.02738 34.935C5.88479 34.8481 5.71368 34.8191 5.54257 34.8191C5.39998 34.8191 5.28591 34.906 5.20035 35.0219C5.02924 35.1957 4.94369 35.4563 4.8011 35.6591C4.68703 35.8039 4.57295 35.9777 4.43036 36.0936C4.1737 36.2674 3.86 36.3253 3.63185 36.528C3.43222 36.7018 3.34667 36.9335 3.2326 37.1653C3.17556 37.3101 3.17556 37.4839 3.14704 37.6577C3.11852 37.7735 3.00445 37.8604 3.03297 37.9763C3.06149 38.0921 3.14704 38.179 3.26111 38.179C3.46074 38.179 3.66037 38.0052 3.86 37.9183C4.11666 37.8314 4.37333 37.8025 4.60147 37.7156C4.85814 37.6287 5.1148 37.4839 5.37146 37.368C5.57109 37.2811 5.77072 37.0494 5.97035 37.1073C6.56923 37.2232 7.08256 37.5997 7.6244 37.7735C8.16625 37.9473 8.73662 38.0342 9.30698 38.179C9.44957 38.208 9.59216 38.2949 9.73475 38.2949C9.9629 38.2949 10.191 38.208 10.3907 38.1211C10.5333 38.0632 10.6188 37.9183 10.7614 37.8314C11.1321 37.5997 11.5314 37.4549 11.9021 37.1942C12.3014 36.9335 12.6721 36.586 13.0429 36.2963C13.2425 36.1225 13.4421 35.9198 13.6418 35.746C13.8699 35.9777 14.0695 36.2094 14.2977 36.4122C14.4973 36.586 14.6969 36.7598 14.9251 36.9046C15.1532 37.0494 15.3814 37.1073 15.6095 37.2232C15.6665 37.2522 15.7236 37.339 15.7521 37.397C15.7806 37.4839 15.7806 37.5997 15.7806 37.6866C15.7806 37.9183 15.7521 38.1501 15.8091 38.3818C15.8662 38.6714 15.9802 38.9611 16.1228 39.2507C16.2369 39.4535 16.408 39.5693 16.5221 39.7721C16.7217 40.1486 16.8928 40.5251 17.0639 40.9017C17.0925 40.9886 17.1495 41.0465 17.1495 41.1334C17.1495 41.2782 17.0639 41.4231 17.0639 41.5679C17.0639 41.7127 17.0925 41.8865 17.1495 42.0313C17.2065 42.1761 17.3491 42.263 17.4632 42.3499C17.5773 42.4078 17.7484 42.4368 17.891 42.4658C18.0621 42.4947 18.2332 42.5237 18.3758 42.5816C18.5754 42.6396 18.7465 42.7554 18.9461 42.8423C19.0887 42.9002 19.2313 42.9582 19.4024 42.9871C19.5735 43.0161 19.7446 42.9871 19.9158 42.9871C20.1154 42.9871 20.315 42.9582 20.5146 42.9002C20.6858 42.8713 20.8569 42.8423 21.028 42.7844C21.1991 42.7265 21.3987 42.6396 21.5128 42.4947C21.5983 42.4078 21.5983 42.2341 21.5698 42.1182C21.5413 42.0313 21.3987 42.0023 21.3132 41.9444C21.142 41.8286 20.9709 41.6837 20.7998 41.5389C20.4576 41.2782 20.1439 40.9596 19.8302 40.67C19.545 40.4383 19.2598 40.2645 19.0032 40.0038C18.8606 39.3666 18.775 38.7293 18.6324 38.0921C18.5469 37.7735 18.3473 37.4839 18.2902 37.1653C18.2617 37.0784 18.3187 36.9625 18.2902 36.8756C18.2332 36.6149 18.1476 36.3542 18.0336 36.0936C17.9765 36.0067 17.8624 35.9487 17.8339 35.8619C17.6343 35.4853 17.5202 35.0508 17.3206 34.6453C16.9499 33.9212 16.5506 33.255 16.1514 32.5309C16.2084 32.2702 16.2939 32.0385 16.3225 31.7778C16.3795 31.3434 16.408 30.9089 16.3795 30.4744C16.351 30.0979 16.1799 29.7503 16.1514 29.3738C16.1228 29.0262 16.2084 28.6497 16.2084 28.3021C16.2084 27.6359 16.2084 26.9408 16.1228 26.2746C16.0943 25.8691 15.9232 25.4925 15.8947 25.087C15.8947 24.9712 15.9802 24.8843 16.0658 24.8263C16.8643 24.3339 17.7199 23.8705 18.5184 23.2043C19.3454 22.7699 20.0583 22.0747 20.7713 21.4085C21.3702 21.2347 21.912 20.9161 22.4539 20.5396C22.5109 20.4817 22.5394 20.3368 22.4539 20.3368C21.7694 20.3079 21.0565 20.3658 20.3721 20.3948C20.1439 20.3948 19.9443 20.5106 19.7161 20.6844C19.0032 21.003 18.3187 21.4085 17.6343 21.814C16.4651 22.1037 15.2958 22.4223 14.098 22.7699C13.8414 22.8278 13.5847 22.7988 13.328 22.8278C13.2425 22.8278 13.1569 22.8278 13.0714 22.8278C13.0143 22.8278 12.9573 22.8568 12.8718 22.8568C12.8432 22.8568 12.7862 22.8278 12.7862 22.7699C12.7006 22.654 12.6151 22.5671 12.5581 22.4223C12.5295 22.3933 12.5581 22.3064 12.5866 22.3064C12.9288 22.1906 13.328 22.1906 13.6418 22.0747C13.7273 22.0457 13.7843 21.9299 13.8129 21.843C13.8699 21.6402 13.8699 21.4085 13.9269 21.2058C13.9555 21.0899 14.0695 20.9741 14.0125 20.8582C13.9555 20.7134 13.7273 20.6844 13.6418 20.5685C13.5562 20.4817 13.5277 20.3368 13.4421 20.221C13.5562 20.163 13.6988 20.192 13.7843 20.1051C13.8984 20.0182 14.0695 20.0762 14.1836 19.9893C14.2692 19.9313 14.2692 19.8444 14.2692 19.7575C14.2406 19.4969 14.1836 19.2941 14.1266 19.0624C14.2692 18.8886 14.4117 18.6859 14.5258 18.4831C14.5543 18.4252 14.5258 18.3383 14.4688 18.3093C14.1266 18.1066 13.6988 18.0486 13.4421 17.759C13.214 17.4983 13.214 17.0928 13.0714 16.7742C12.9288 16.3687 12.7577 15.9632 12.5866 15.5287C12.7006 15.4418 12.8147 15.2101 12.8718 15.0073C12.9858 15.1811 12.9288 15.4129 12.9003 15.5866C13.0143 15.5866 13.1284 15.6156 13.214 15.6156C13.271 15.3549 13.4136 15.0363 13.0143 14.1674C12.8432 13.7619 12.5295 13.4722 12.2444 13.1536Z" fill="white"/>
<path d="M26.6458 7.21657C27.0736 7.59311 27.5014 7.96965 27.8436 8.43308C28.1858 8.89652 28.4139 9.41788 28.6136 9.96821C28.7847 10.4027 28.8702 10.8661 28.9558 11.3295C29.0413 11.8509 29.0699 12.3723 29.0413 12.9226C28.9843 13.7046 28.8417 14.5156 28.6421 15.2687C28.528 15.6742 28.2713 16.0508 28.0432 16.3983C27.7865 16.7749 27.4728 17.1514 27.1591 17.499C26.874 17.8176 26.5603 18.1362 26.218 18.3679C25.7332 18.6865 25.2199 18.9762 24.6495 19.1789C24.1932 19.3527 23.6799 19.4686 23.1951 19.5265C22.7958 19.5845 22.3966 19.5845 21.9973 19.5555C21.4555 19.5265 20.9136 19.5265 20.4003 19.4107C19.8585 19.2948 19.3451 19.0341 18.8318 18.8024C18.4326 18.6286 18.0618 18.4548 17.7196 18.2231C17.2633 17.8755 16.8355 17.499 16.4648 17.0645C16.1226 16.688 15.7804 16.3115 15.5807 15.848C15.267 15.1529 15.0959 14.3708 14.9533 13.6177C14.8393 13.0385 14.7822 12.4592 14.7822 11.8509C14.8107 11.3585 14.9248 10.8951 15.0674 10.4316C15.2385 9.93924 15.4667 9.44684 15.7518 9.01237C16.037 8.54894 16.4078 8.14344 16.807 7.79586C17.2348 7.39036 17.7196 7.01382 18.2329 6.72417C18.8603 6.3766 19.5448 6.08695 20.2292 5.8842C20.8281 5.71041 21.427 5.62352 22.0544 5.68145C22.7103 5.71041 23.3377 5.85523 23.9366 6.11592C24.5355 6.3766 25.0773 6.81107 25.5906 7.24553C25.9329 7.53518 26.2466 7.91172 26.5032 8.31722C26.7599 8.72273 27.0165 9.1572 27.1591 9.62063C27.3017 10.0551 27.3873 10.5185 27.4158 10.953C27.4728 11.4744 27.4728 11.9957 27.4158 12.4881C27.3588 12.9805 27.2732 13.5019 27.0451 13.9653C26.7599 14.6025 26.3891 15.2398 25.9043 15.7322C25.391 16.2246 24.7636 16.6011 24.1362 16.8907C23.6229 17.1225 23.081 17.2094 22.5107 17.2383C21.8833 17.2673 21.2559 17.2673 20.657 17.0645C20.0866 16.8618 19.5733 16.4563 19.117 16.0508C18.7748 15.7611 18.4611 15.4425 18.2329 15.066C17.9763 14.6315 17.8052 14.1391 17.7196 13.6177C17.634 13.1543 17.6055 12.6619 17.6911 12.1695C17.7766 11.6192 17.8907 11.0399 18.1759 10.5765C18.4896 10.0841 18.9174 9.67856 19.4022 9.35995C19.8014 9.0703 20.2577 8.89652 20.714 8.78066C21.2273 8.6648 21.7977 8.60687 22.3396 8.69376C22.7103 8.75169 23.081 8.92548 23.3947 9.12823C23.7369 9.33099 24.0792 9.53374 24.3073 9.85235C24.564 10.171 24.7351 10.5765 24.8492 10.953C24.9632 11.3295 24.9918 11.7061 24.9632 12.0826C24.9632 12.3723 24.8777 12.6909 24.7636 12.9516C24.6495 13.2122 24.5069 13.4729 24.3073 13.6757C24.1077 13.9074 23.8795 14.1681 23.5944 14.3129C23.2521 14.4867 22.8814 14.6315 22.5107 14.6315C22.1684 14.6315 21.7977 14.5736 21.484 14.3998C21.1418 14.226 20.8566 13.9364 20.657 13.6177C20.5144 13.386 20.5144 13.0674 20.5144 12.7778C20.5144 12.5171 20.5714 12.2564 20.6855 12.0537C20.7996 11.8799 20.9707 11.764 21.1418 11.6482C21.2844 11.5613 21.4555 11.4744 21.5981 11.4454C21.6836 11.4454 21.7692 11.5033 21.7977 11.5902C21.8262 11.7061 21.6836 11.8219 21.6551 11.9378C21.6551 12.0826 21.6551 12.2854 21.7692 12.4012C21.9118 12.5461 22.1399 12.604 22.3396 12.6329C22.5107 12.6619 22.7103 12.6619 22.8529 12.575C23.024 12.4592 23.1951 12.2854 23.2521 12.0826C23.3092 11.8799 23.2807 11.6192 23.1951 11.4164C23.1095 11.2137 22.967 11.0399 22.7958 10.8951C22.6247 10.7502 22.4251 10.6344 22.2255 10.5765C22.0259 10.5185 21.7977 10.5475 21.5696 10.6054C21.3129 10.6634 21.0562 10.7502 20.8281 10.8661C20.5999 10.982 20.4003 11.1268 20.2292 11.3006C20.0296 11.5033 19.8585 11.764 19.7444 12.0537C19.6588 12.3143 19.6588 12.6329 19.6588 12.9226C19.6874 13.2122 19.7159 13.5019 19.83 13.7626C19.944 14.0232 20.1151 14.255 20.3148 14.4577C20.5429 14.6605 20.8281 14.8343 21.1133 14.9791C21.3699 15.0949 21.6551 15.1239 21.9403 15.1529C22.2825 15.1818 22.6247 15.2108 22.967 15.1529C23.3662 15.0949 23.737 14.9501 24.0792 14.7763C24.3358 14.6315 24.5925 14.4288 24.7921 14.226C24.9918 13.9943 25.1629 13.7336 25.3055 13.444C25.448 13.1543 25.5906 12.8647 25.6192 12.5171C25.6762 12.0247 25.6762 11.5323 25.5621 11.0399C25.448 10.4896 25.2769 9.93924 24.9632 9.50477C24.6781 9.09927 24.2788 8.83859 23.8795 8.57791C23.5373 8.34619 23.1666 8.14344 22.7958 7.99861C22.4536 7.88276 22.0829 7.82483 21.7407 7.79586C21.427 7.7669 21.0848 7.79586 20.7425 7.85379C20.4003 7.91172 20.0866 8.02758 19.7444 8.14344C19.4307 8.28826 19.0885 8.46205 18.8033 8.6648C18.4896 8.89652 18.2329 9.1572 17.9763 9.41788C17.7481 9.6496 17.5485 9.91028 17.4059 10.1999C17.2348 10.5185 17.0922 10.8371 17.0066 11.1558C16.9211 11.4744 16.8926 11.793 16.8641 12.1116C16.8355 12.6329 16.75 13.1543 16.8641 13.6757C16.9496 14.1391 17.1778 14.6025 17.4059 15.037C17.6626 15.5004 18.0048 15.9349 18.3755 16.3115C18.7748 16.717 19.2026 17.0356 19.6588 17.3252C20.0011 17.528 20.3718 17.6728 20.7425 17.7597C21.2273 17.8755 21.7407 17.9914 22.2255 17.9914C22.5962 17.9914 22.9955 17.9624 23.3662 17.8466C23.851 17.7018 24.2788 17.4121 24.7351 17.1804C25.1343 16.9776 25.5336 16.8038 25.8758 16.5142C26.1895 16.2825 26.4177 15.9639 26.6458 15.6453C26.874 15.3267 27.0165 14.9791 27.1591 14.6315C27.3017 14.2839 27.3873 13.9074 27.4728 13.5309C27.5869 13.1253 27.6154 12.7198 27.6439 12.3143C27.6725 11.8509 27.7295 11.3875 27.701 10.924C27.6439 10.4606 27.5584 9.99717 27.4443 9.53374C27.3588 9.18616 27.2162 8.83859 27.0736 8.49101C26.9595 8.20137 26.7884 7.91172 26.6458 7.62207C26.5888 7.50622 26.5032 7.41932 26.5032 7.30346C26.5032 7.24553 26.6173 7.15864 26.6458 7.21657Z" fill="#F4964E"/>
<path d="M18.6027 5.91279C18.7453 5.79693 18.8879 5.59418 18.8309 5.42039C18.6027 4.58042 18.232 3.79837 17.8327 3.01633C17.462 2.29221 17.0627 1.59706 16.5779 0.959841C16.3213 0.612266 16.0076 0.32262 15.6654 0.0909036C15.4942 -0.0249548 15.2376 -0.0249548 15.0665 0.061939C14.7813 0.177797 14.4961 0.351585 14.3535 0.641231C14.2109 0.930877 14.2394 1.30742 14.382 1.5681C14.5817 2.03153 15.0094 2.32118 15.3231 2.69772C15.6939 3.16115 16.0361 3.62458 16.3498 4.08802C16.635 4.52249 16.8346 5.01488 17.1483 5.42039C17.3764 5.68107 17.6331 5.97072 17.9753 6.08657C18.2035 6.1445 18.4316 6.02864 18.6027 5.91279Z" fill="#F4964E"/>
<path d="M8.73606 7.62163C8.87865 7.44785 9.10679 7.30302 9.33494 7.30302C9.81975 7.27406 10.276 7.44785 10.7323 7.53474C11.1601 7.62163 11.5879 7.70853 12.0157 7.85335C12.4149 7.96921 12.7856 8.17196 13.1849 8.34575C13.5842 8.51953 14.0119 8.5485 14.3827 8.83815C14.5253 8.954 14.6393 9.18572 14.6393 9.41744C14.6393 9.67812 14.5253 9.9388 14.3827 10.0836C14.2116 10.2574 13.9834 10.3153 13.7838 10.3153C13.3845 10.2574 12.9853 9.99673 12.586 9.88087C12.1582 9.76501 11.702 9.79398 11.2742 9.67812C10.8179 9.56226 10.3901 9.33054 9.93382 9.15676C9.59161 9.01193 9.24939 8.92504 8.9642 8.72229C8.82161 8.60643 8.67902 8.43264 8.62199 8.20092C8.56495 7.96921 8.62198 7.73749 8.73606 7.62163Z" fill="#F4964E"/>
<path d="M24.3353 20.3372C24.6775 20.3372 25.0768 20.2504 25.3335 20.4821C25.7042 20.8296 25.7898 21.4089 25.9609 21.9013C26.1605 22.4806 26.2175 22.5675 26.3601 23.1758C26.5027 23.813 26.6738 24.4502 26.7594 25.0874C26.8164 25.3771 26.959 25.6957 26.8164 25.9564C26.6738 26.2171 26.3316 26.3329 26.0464 26.3329C25.7898 26.3619 25.5046 26.246 25.3335 26.0722C25.1623 25.8984 25.0768 25.6378 25.0198 25.3771C24.9057 24.9426 24.9057 24.4792 24.8201 24.0447C24.7061 23.6102 24.5064 23.2047 24.3924 22.7703C24.2783 22.3358 24.3924 22.4227 24.2498 22.0172C24.1357 21.6986 23.7935 21.4669 23.7079 21.1483C23.6509 20.9455 23.7079 20.7138 23.822 20.54C23.9646 20.3952 24.1642 20.3372 24.3353 20.3372Z" fill="#F4964E"/>
<path d="M29.0973 16.0511C29.2969 15.9062 29.5251 15.8193 29.7532 15.8193C30.2951 15.8193 30.8369 15.8773 31.3503 16.0511C32.1202 16.3117 32.8617 16.7172 33.5462 17.1227C34.0595 17.4124 34.5728 17.731 34.9435 18.2234C35.1432 18.4841 35.2287 18.8606 35.1147 19.1503C35.0006 19.4399 34.6298 19.5558 34.3447 19.6716C34.145 19.7296 33.8884 19.7296 33.7173 19.6427C33.2895 19.4399 32.9473 19.0634 32.5195 18.8317C32.1202 18.5999 31.721 18.4261 31.3217 18.2234C30.9795 18.0496 30.6658 17.9048 30.3236 17.76C29.8958 17.5572 29.3825 17.5282 29.0118 17.2096C28.8121 17.0648 28.8121 16.7462 28.8406 16.4855C28.8406 16.2828 28.9832 16.1379 29.0973 16.0511Z" fill="#F4964E"/>
<path d="M29.1557 9.91019C29.2128 9.67847 29.2983 9.44676 29.4694 9.27297C29.8687 8.89643 30.2965 8.57782 30.8098 8.3461C31.5513 8.02749 32.3498 7.79577 33.1483 7.62199C33.7186 7.50613 34.3175 7.36131 34.8879 7.47716C35.2016 7.53509 35.5153 7.73785 35.6294 8.05646C35.7434 8.3461 35.5438 8.69368 35.4012 8.95436C35.2871 9.15711 35.116 9.30193 34.9164 9.35986C34.4601 9.50468 33.9753 9.47572 33.4905 9.59158C33.0627 9.67847 32.635 9.85226 32.2072 9.96812C31.865 10.084 31.4942 10.1709 31.152 10.2867C30.6957 10.4316 30.2965 10.7502 29.8116 10.7791C29.5835 10.7791 29.3554 10.5764 29.2128 10.3736C29.1272 10.2867 29.1272 10.084 29.1557 9.91019Z" fill="#F4964E"/>
<path d="M25.4472 5.85453C25.7039 5.82556 25.9891 5.82556 26.1602 5.62281C26.6165 5.04352 26.8446 4.26148 27.2154 3.62426C27.6146 2.95807 28.0424 2.34981 28.4416 1.68363C28.5842 1.48088 28.7839 1.27812 28.8409 1.01744C28.8694 0.843655 28.8409 0.611938 28.6983 0.49608C28.4416 0.264363 28.0994 0.0616109 27.7572 0.00368171C27.5576 -0.0252829 27.3579 0.148505 27.2154 0.293328C26.702 0.843655 26.2172 1.48088 25.7894 2.1181C25.4757 2.58153 25.1906 3.10289 24.9339 3.62426C24.7913 3.97183 24.6772 4.31941 24.5917 4.66698C24.5346 4.92766 24.4491 5.18834 24.5061 5.42006C24.5632 5.59385 24.7628 5.68074 24.9339 5.76763C25.105 5.85453 25.2761 5.88349 25.4472 5.85453Z" fill="#F4964E"/>
</svg>
