<svg width="56" height="57" viewBox="0 0 56 57" fill="none" xmlns="http://www.w3.org/2000/svg">
<g clip-path="url(#clip0_7123_48908)">
<path d="M54.1651 56.5722V53.812H51.5953V56.5722H50.0234V50.0073H51.5953V52.494H54.1651V50.0073H55.7618V56.5722H54.1651Z" fill="white"/>
<path d="M1.72262 41.477L3.11979 39.3633H3.71858V42.1981H3.21959V40.0596H3.19464L1.79747 42.1981H1.22363V39.3633H1.72262V41.477Z" fill="white"/>
<path d="M4.81584 42.1994H4.3418V40.2598H4.81584V41.0058H5.68907V40.2598H6.16311V42.1994H5.68907V41.3788H4.81584V42.1994Z" fill="white"/>
<path d="M8.13466 40.8072C8.08476 40.7575 8.03487 40.7078 7.96002 40.658C7.88517 40.6332 7.81032 40.6083 7.71052 40.6083C7.61072 40.6083 7.53588 40.6332 7.46103 40.658C7.38618 40.6829 7.33628 40.7326 7.28638 40.7824C7.23648 40.8321 7.18658 40.9067 7.16163 40.9813C7.13668 41.0559 7.11174 41.1305 7.11174 41.23C7.11174 41.3046 7.13668 41.404 7.16163 41.4786C7.18658 41.5532 7.23648 41.6278 7.28638 41.6776C7.33628 41.7273 7.41113 41.777 7.46103 41.8019C7.53588 41.8268 7.61072 41.8516 7.71052 41.8516C7.81032 41.8516 7.88517 41.8268 7.96002 41.8019C8.03487 41.777 8.08476 41.7273 8.13466 41.6527L8.43406 41.9511C8.35921 42.0506 8.25941 42.1003 8.13466 42.15C8.00992 42.1998 7.86022 42.2246 7.71052 42.2246C7.56083 42.2246 7.41113 42.1998 7.28638 42.15C7.16163 42.1003 7.03689 42.0257 6.93709 41.9511C6.83729 41.8516 6.76244 41.7522 6.71254 41.6278C6.66264 41.5035 6.6377 41.3543 6.6377 41.2051C6.6377 41.0559 6.66264 40.9067 6.71254 40.7824C6.76244 40.658 6.83729 40.5585 6.93709 40.4591C7.03689 40.3596 7.13668 40.3099 7.28638 40.2601C7.43608 40.2104 7.56083 40.1855 7.71052 40.1855C7.83527 40.1855 7.98497 40.2104 8.10971 40.2601C8.23446 40.3099 8.35921 40.3845 8.43406 40.4839L8.13466 40.8072Z" fill="white"/>
<path d="M8.5332 40.2598H10.2547V40.6328H9.63098V42.1994H9.13199V40.6328H8.5332V40.2598Z" fill="white"/>
<path d="M12.1005 40.8566L11.1025 42.1994H10.6035V40.2598H11.1025V41.5528L12.1005 40.2598H12.5745V42.1994H12.1005V40.8566Z" fill="white"/>
<path d="M12.9492 40.2598H14.6707V40.6328H14.022V42.1994H13.548V40.6328H12.9492V40.2598Z" fill="white"/>
<path d="M15.8194 41.6772L16.3184 40.2598H16.8423L15.994 42.4481C15.9441 42.5475 15.9192 42.647 15.8693 42.7465C15.8194 42.8459 15.7695 42.9205 15.7196 42.9703C15.6697 43.02 15.5948 43.0697 15.495 43.1195C15.4202 43.1443 15.3204 43.1692 15.1956 43.1692C15.1457 43.1692 15.0958 43.1692 15.0459 43.1692C14.996 43.1692 14.9461 43.1443 14.8962 43.1443L14.9461 42.7216C14.9711 42.7216 15.021 42.7465 15.0459 42.7465C15.0709 42.7465 15.1208 42.7465 15.1457 42.7465C15.2455 42.7465 15.3204 42.7216 15.3703 42.6719C15.4202 42.6221 15.4701 42.5475 15.495 42.4481L15.5948 42.1745L14.7715 40.2598H15.2954L15.8194 41.6772Z" fill="white"/>
<path d="M16.916 40.2598H18.6375V40.6328H18.0138V42.1994H17.5148V40.6328H16.916V40.2598Z" fill="white"/>
<path d="M21.3808 40.8072C21.3309 40.7575 21.281 40.7078 21.2061 40.658C21.1313 40.6332 21.0564 40.6083 20.9566 40.6083C20.8568 40.6083 20.782 40.6332 20.7071 40.658C20.6323 40.6829 20.5824 40.7326 20.5325 40.7824C20.4826 40.8321 20.4327 40.9067 20.4077 40.9813C20.3828 41.0559 20.3578 41.1305 20.3578 41.23C20.3578 41.3046 20.3828 41.404 20.4077 41.4786C20.4327 41.5532 20.4826 41.6278 20.5325 41.6776C20.5824 41.7273 20.6572 41.777 20.7071 41.8019C20.782 41.8268 20.8568 41.8516 20.9566 41.8516C21.0564 41.8516 21.1313 41.8268 21.2061 41.8019C21.281 41.777 21.3309 41.7273 21.3808 41.6527L21.6802 41.9511C21.6053 42.0506 21.5055 42.1003 21.3808 42.15C21.256 42.1998 21.1063 42.2246 20.9566 42.2246C20.8069 42.2246 20.6572 42.1998 20.5325 42.15C20.4077 42.1003 20.283 42.0257 20.1832 41.9511C20.0834 41.8516 20.0085 41.7522 19.9586 41.6278C19.9087 41.5035 19.8838 41.3543 19.8838 41.2051C19.8838 41.0559 19.9087 40.9067 19.9586 40.7824C20.0085 40.658 20.0834 40.5585 20.1832 40.4591C20.283 40.3596 20.3828 40.3099 20.5325 40.2601C20.6822 40.2104 20.8069 40.1855 20.9566 40.1855C21.0814 40.1855 21.2311 40.2104 21.3558 40.2601C21.4806 40.3099 21.6053 40.3845 21.6802 40.4839L21.3808 40.8072Z" fill="white"/>
<path d="M23.5019 40.8566L22.5039 42.1994H22.0049V40.2598H22.5039V41.5528L23.5019 40.2598H23.9759V42.1994H23.5019V40.8566Z" fill="white"/>
<path d="M25.9481 40.8072C25.8982 40.7575 25.8483 40.7078 25.7735 40.658C25.6986 40.6332 25.6238 40.6083 25.524 40.6083C25.4242 40.6083 25.3494 40.6332 25.2745 40.658C25.1997 40.6829 25.1498 40.7326 25.0999 40.7824C25.05 40.8321 25.0001 40.9067 24.9751 40.9813C24.9502 41.0559 24.9252 41.1305 24.9252 41.23C24.9252 41.3046 24.9502 41.404 24.9751 41.4786C25.0001 41.5532 25.05 41.6278 25.0999 41.6776C25.1498 41.7273 25.2246 41.777 25.2745 41.8019C25.3494 41.8268 25.4242 41.8516 25.524 41.8516C25.6238 41.8516 25.6986 41.8268 25.7735 41.8019C25.8483 41.777 25.8982 41.7273 25.9481 41.6527L26.2475 41.9511C26.1727 42.0506 26.0729 42.1003 25.9481 42.15C25.8234 42.1998 25.6737 42.2246 25.524 42.2246C25.3743 42.2246 25.2246 42.1998 25.0999 42.15C24.9751 42.1003 24.8504 42.0257 24.7506 41.9511C24.6508 41.8516 24.5759 41.7522 24.526 41.6278C24.4761 41.5035 24.4512 41.3543 24.4512 41.2051C24.4512 41.0559 24.4761 40.9067 24.526 40.7824C24.5759 40.658 24.6508 40.5585 24.7506 40.4591C24.8504 40.3596 24.9502 40.3099 25.0999 40.2601C25.2496 40.2104 25.3743 40.1855 25.524 40.1855C25.6487 40.1855 25.7984 40.2104 25.9232 40.2601C26.0479 40.3099 26.1727 40.3845 26.2475 40.4839L25.9481 40.8072Z" fill="white"/>
<path d="M26.373 40.2598H28.0696V40.6328H27.4459V42.1994H26.9718V40.6328H26.373V40.2598Z" fill="white"/>
<path d="M29.8412 41.0301C29.8412 40.8809 29.7913 40.7814 29.7164 40.6819C29.6416 40.5825 29.5168 40.5327 29.3422 40.5327C29.2673 40.5327 29.1925 40.5576 29.1176 40.5825C29.0428 40.6073 28.9929 40.6571 28.943 40.6819C28.8931 40.7317 28.8681 40.7814 28.8182 40.8311C28.7933 40.8809 28.7683 40.9555 28.7683 41.0301H29.8412ZM30.3152 41.2041V41.2787C30.3152 41.3036 30.3152 41.3285 30.3152 41.3533H28.8182C28.8182 41.428 28.8432 41.5026 28.8681 41.5523C28.8931 41.6269 28.943 41.6766 28.9929 41.7264C29.0428 41.7761 29.0927 41.801 29.1675 41.8258C29.2424 41.8507 29.3172 41.8756 29.3921 41.8756C29.5168 41.8756 29.6166 41.8507 29.7164 41.801C29.8162 41.7512 29.8661 41.6766 29.916 41.6269L30.2653 41.8507C30.1655 41.9999 30.0408 42.0994 29.8911 42.1491C29.7414 42.2237 29.5917 42.2486 29.3921 42.2486C29.2424 42.2486 29.1176 42.2237 28.9929 42.174C28.8681 42.1242 28.7434 42.0496 28.6685 41.975C28.5687 41.8756 28.4939 41.7761 28.444 41.6518C28.3941 41.5274 28.3691 41.3782 28.3691 41.229C28.3691 41.0798 28.3941 40.9306 28.444 40.8063C28.4939 40.6819 28.5687 40.5825 28.6685 40.483C28.7683 40.3835 28.8681 40.3338 28.9929 40.2841C29.1176 40.2343 29.2424 40.2095 29.3921 40.2095C29.5418 40.2095 29.6665 40.2343 29.7913 40.2841C29.916 40.3338 30.0158 40.4084 30.0907 40.483C30.1655 40.5825 30.2404 40.6819 30.2902 40.8063C30.2902 40.9306 30.3152 41.0549 30.3152 41.2041Z" fill="white"/>
<path d="M31.2112 40.2598L31.9348 41.1301L32.6583 40.2598H33.0825V42.1994H32.6084V40.9312L31.9847 41.7269H31.8849L31.2611 40.9312V42.1994H30.7871V40.2598H31.2112Z" fill="white"/>
<path d="M34.1567 42.1994H33.6826V40.2598H34.1567V41.0058H35.0299V40.2598H35.5039V42.1994H35.0299V41.3788H34.1567V42.1994Z" fill="white"/>
<path d="M37.6237 41.23C37.6237 41.1554 37.5987 41.0559 37.5738 40.9813C37.5488 40.9067 37.4989 40.8321 37.449 40.7824C37.3991 40.7326 37.3492 40.6829 37.2744 40.658C37.1995 40.6332 37.1247 40.6083 37.0249 40.6083C36.9251 40.6083 36.8502 40.6332 36.7754 40.658C36.7005 40.6829 36.6506 40.7326 36.6007 40.7824C36.5508 40.8321 36.5009 40.9067 36.476 40.9813C36.451 41.0559 36.4261 41.1305 36.4261 41.23C36.4261 41.3046 36.451 41.404 36.476 41.4786C36.5009 41.5532 36.5508 41.6278 36.6007 41.6776C36.6506 41.7273 36.7005 41.777 36.7754 41.8019C36.8502 41.8268 36.9251 41.8516 37.0249 41.8516C37.1247 41.8516 37.1995 41.8268 37.2744 41.8019C37.3492 41.777 37.3991 41.7273 37.449 41.6776C37.4989 41.6278 37.5239 41.5532 37.5738 41.4786C37.6237 41.3792 37.6237 41.3046 37.6237 41.23ZM38.1227 41.2051C38.1227 41.3543 38.0977 41.5035 38.0478 41.6278C37.9979 41.7522 37.9231 41.8516 37.8233 41.9511C37.7235 42.0506 37.6237 42.1003 37.474 42.15C37.3492 42.1998 37.1995 42.2246 37.0498 42.2246C36.9001 42.2246 36.7504 42.1998 36.6257 42.15C36.5009 42.1003 36.3762 42.0257 36.3013 41.9511C36.2015 41.8516 36.1267 41.7522 36.0768 41.6278C36.0269 41.5035 36.002 41.3543 36.002 41.2051C36.002 41.0559 36.0269 40.9067 36.0768 40.7824C36.1267 40.658 36.2015 40.5585 36.3013 40.4591C36.4011 40.3596 36.5009 40.3099 36.6257 40.2601C36.7504 40.2104 36.9001 40.1855 37.0498 40.1855C37.1995 40.1855 37.3492 40.2104 37.474 40.2601C37.5987 40.3099 37.7235 40.3845 37.8233 40.4591C37.9231 40.5585 37.9979 40.658 38.0478 40.7824C38.0977 40.9316 38.1227 41.0559 38.1227 41.2051Z" fill="white"/>
<path d="M39.4457 41.0054H38.4727V41.4032H39.4457V41.0054Z" fill="white"/>
<path d="M2.02116 45.8047L1.69682 46.6502H2.47025L2.12096 45.6306L2.02116 45.8047ZM1.32258 47.5951H0.898438V46.6502H1.22278L1.84652 45.1084H2.39541L2.96924 46.6502H3.29359V47.5951H2.86945V47.048H1.32258V47.5951Z" fill="white"/>
<path d="M5.01552 45.8787C5.01552 45.7295 4.96562 45.63 4.89078 45.5306C4.81593 45.4311 4.69118 45.3814 4.51653 45.3814C4.44168 45.3814 4.36684 45.4062 4.29199 45.4311C4.21714 45.456 4.16724 45.5057 4.11734 45.5306C4.06744 45.5803 4.04249 45.63 3.99259 45.6798C3.96764 45.7295 3.9427 45.8041 3.9427 45.8787H5.01552ZM5.46461 46.0528V46.1274C5.46461 46.1522 5.46461 46.1771 5.46461 46.202H3.96764C3.96764 46.2766 3.99259 46.3512 4.01754 46.4009C4.04249 46.4755 4.09239 46.5253 4.14229 46.575C4.19219 46.6247 4.24209 46.6496 4.31694 46.6745C4.39179 46.6993 4.46663 46.7242 4.54148 46.7242C4.66623 46.7242 4.76603 46.6993 4.86583 46.6496C4.96562 46.5999 5.01552 46.5252 5.06542 46.4755L5.41471 46.6993C5.31492 46.8485 5.19017 46.948 5.04047 46.9977C4.89078 47.0723 4.74108 47.0972 4.54148 47.0972C4.39179 47.0972 4.26704 47.0723 4.14229 47.0226C4.01754 46.9729 3.8928 46.8983 3.81795 46.8237C3.71815 46.7242 3.6433 46.6247 3.5934 46.5004C3.5435 46.376 3.51855 46.2268 3.51855 46.0776C3.51855 45.9284 3.5435 45.7792 3.5934 45.6549C3.6433 45.5306 3.71815 45.4311 3.81795 45.3316C3.91775 45.2322 4.01754 45.1824 4.14229 45.1327C4.26704 45.083 4.39179 45.0581 4.54148 45.0581C4.69118 45.0581 4.81593 45.083 4.94067 45.1327C5.06542 45.1824 5.16522 45.257 5.24007 45.3316C5.31492 45.4311 5.38976 45.5306 5.43966 45.6549C5.43966 45.7544 5.46461 45.9036 5.46461 46.0528Z" fill="white"/>
<path d="M6.33751 45.7301C6.33751 45.8296 6.36246 45.8793 6.46226 45.9042C6.53711 45.929 6.6369 45.9539 6.7866 45.9539H7.08599V45.5063H6.7866C6.6369 45.5063 6.53711 45.5312 6.46226 45.556C6.38741 45.5809 6.33751 45.6306 6.33751 45.7301ZM6.86145 46.3518C6.7866 46.3518 6.71175 46.3518 6.66185 46.3766C6.587 46.4015 6.53711 46.4264 6.48721 46.501C6.43731 46.5507 6.41236 46.6253 6.36246 46.7248C6.33751 46.8242 6.31256 46.9237 6.28761 47.0481H5.76367C5.78862 46.7994 5.86347 46.6004 5.98822 46.4512C6.08801 46.302 6.21276 46.2274 6.36246 46.1777C6.23771 46.1528 6.11296 46.128 6.03812 46.0534C5.93832 45.9788 5.91337 45.8544 5.91337 45.6804C5.91337 45.5809 5.93832 45.5063 5.98822 45.4317C6.03812 45.3571 6.08802 45.3074 6.16286 45.2576C6.23771 45.2079 6.31256 45.183 6.41236 45.1582C6.51216 45.1333 6.61195 45.1333 6.71175 45.1333H7.60993V47.0729H7.13589V46.3766H6.86145V46.3518Z" fill="white"/>
<path d="M7.86035 45.1084H9.58186V45.4814H8.93318V47.048H8.45914V45.4814H7.86035V45.1084Z" fill="white"/>
<path d="M11.3265 45.8787C11.3265 45.7295 11.2766 45.63 11.2018 45.5306C11.1269 45.4311 11.0022 45.3814 10.8275 45.3814C10.7527 45.3814 10.6778 45.4062 10.603 45.4311C10.5281 45.456 10.4782 45.5057 10.4283 45.5306C10.3784 45.5803 10.3535 45.63 10.3036 45.6798C10.2786 45.7295 10.2537 45.8041 10.2537 45.8787H11.3265ZM11.8006 46.0528V46.1274C11.8006 46.1522 11.8006 46.1771 11.8006 46.202H10.3036C10.3036 46.2766 10.3285 46.3512 10.3535 46.4009C10.3784 46.4755 10.4283 46.5253 10.4782 46.575C10.5281 46.6247 10.578 46.6496 10.6529 46.6745C10.7277 46.6993 10.8026 46.7242 10.8774 46.7242C11.0022 46.7242 11.102 46.6993 11.2018 46.6496C11.3016 46.5999 11.3515 46.5252 11.4014 46.4755L11.7507 46.6993C11.6509 46.8485 11.5261 46.948 11.3764 46.9977C11.2267 47.0723 11.077 47.0972 10.8774 47.0972C10.7277 47.0972 10.603 47.0723 10.4782 47.0226C10.3535 46.9729 10.2287 46.8983 10.1539 46.8237C10.0541 46.7242 9.97924 46.6247 9.92934 46.5004C9.87944 46.376 9.85449 46.2268 9.85449 46.0776C9.85449 45.9284 9.87944 45.7792 9.92934 45.6549C9.97924 45.5306 10.0541 45.4311 10.1539 45.3316C10.2537 45.2322 10.3535 45.1824 10.4782 45.1327C10.603 45.083 10.7277 45.0581 10.8774 45.0581C11.0271 45.0581 11.1519 45.083 11.2766 45.1327C11.4014 45.1824 11.5012 45.257 11.576 45.3316C11.6509 45.4311 11.7257 45.5306 11.7756 45.6549C11.7756 45.7544 11.8006 45.9036 11.8006 46.0528Z" fill="white"/>
<path d="M13.6236 47.048L13.0996 45.6803L12.5507 47.048H12.0518L12.8252 45.1084H13.3741L14.1226 47.048H13.6236Z" fill="white"/>
<path d="M14.9687 46.7008H15.343C15.4677 46.7008 15.5675 46.676 15.6424 46.6262C15.7172 46.5765 15.7671 46.5019 15.7671 46.3776C15.7671 46.3278 15.7671 46.2781 15.7421 46.2283C15.7172 46.1786 15.6923 46.1537 15.6424 46.1289C15.5925 46.104 15.5675 46.0791 15.5176 46.0791C15.4677 46.0791 15.4178 46.0543 15.343 46.0543H14.9687V46.7008ZM14.9687 45.1093V45.731H15.4178C15.5675 45.731 15.6923 45.7559 15.792 45.7807C15.8918 45.8056 15.9667 45.8553 16.0415 45.9299C16.1164 45.9797 16.1413 46.0543 16.1663 46.1289C16.1912 46.2035 16.2162 46.303 16.2162 46.3776C16.2162 46.477 16.1912 46.5516 16.1663 46.6262C16.1413 46.7008 16.0914 46.7754 16.0166 46.8252C15.9417 46.8749 15.8669 46.9246 15.7671 46.9744C15.6673 46.9992 15.5675 47.0241 15.4178 47.0241H14.4697V45.0845H14.9687V45.1093Z" fill="white"/>
<path d="M17.1416 47.048H16.6426V45.1084H17.1416V45.8544H17.9899V45.1084H18.4639V47.048H17.9899V46.2274H17.1416V47.048Z" fill="white"/>
<path d="M20.6086 46.0786C20.6086 46.004 20.5836 45.9045 20.5587 45.8299C20.5337 45.7553 20.4838 45.6807 20.4339 45.631C20.384 45.5813 20.3341 45.5315 20.2593 45.5067C20.1844 45.4818 20.1096 45.4569 20.0098 45.4569C19.91 45.4569 19.8351 45.4818 19.7603 45.5067C19.6854 45.5315 19.6355 45.5813 19.5857 45.631C19.5358 45.6807 19.4859 45.7553 19.4609 45.8299C19.436 45.9045 19.411 45.9791 19.411 46.0786C19.411 46.1532 19.436 46.2527 19.4609 46.3273C19.4859 46.4019 19.5358 46.4765 19.5857 46.5262C19.6355 46.5759 19.6854 46.6257 19.7603 46.6505C19.8351 46.6754 19.91 46.7003 20.0098 46.7003C20.1096 46.7003 20.1844 46.6754 20.2593 46.6505C20.3341 46.6257 20.384 46.5759 20.4339 46.5262C20.4838 46.4765 20.5088 46.4019 20.5587 46.3273C20.5836 46.2278 20.6086 46.1532 20.6086 46.0786ZM21.0826 46.0537C21.0826 46.2029 21.0577 46.3521 21.0078 46.4765C20.9579 46.6008 20.883 46.7003 20.7832 46.7997C20.6834 46.8992 20.5836 46.9489 20.4339 46.9987C20.3092 47.0484 20.1595 47.0733 20.0098 47.0733C19.8601 47.0733 19.7104 47.0484 19.5857 46.9987C19.4609 46.9489 19.3362 46.8743 19.2613 46.7997C19.1615 46.7003 19.0867 46.6008 19.0368 46.4765C18.9869 46.3521 18.9619 46.2029 18.9619 46.0537C18.9619 45.9045 18.9869 45.7553 19.0368 45.631C19.0867 45.5067 19.1615 45.4072 19.2613 45.3077C19.3611 45.2082 19.4609 45.1585 19.5857 45.1088C19.7104 45.059 19.8601 45.0342 20.0098 45.0342C20.1595 45.0342 20.3092 45.059 20.4339 45.1088C20.5587 45.1585 20.6834 45.2331 20.7832 45.3077C20.883 45.4072 20.9579 45.5067 21.0078 45.631C21.0577 45.7802 21.0826 45.9045 21.0826 46.0537Z" fill="white"/>
<path d="M22.9296 45.6559C22.8797 45.6061 22.8298 45.5564 22.7549 45.5067C22.6801 45.4818 22.6052 45.4569 22.5054 45.4569C22.4056 45.4569 22.3308 45.4818 22.2559 45.5067C22.1811 45.5315 22.1312 45.5813 22.0813 45.631C22.0314 45.6807 21.9815 45.7553 21.9566 45.8299C21.9316 45.9045 21.9067 45.9791 21.9067 46.0786C21.9067 46.1532 21.9316 46.2527 21.9566 46.3273C21.9815 46.4019 22.0314 46.4765 22.0813 46.5262C22.1312 46.5759 22.206 46.6257 22.2559 46.6505C22.3308 46.6754 22.4056 46.7003 22.5054 46.7003C22.6052 46.7003 22.6801 46.6754 22.7549 46.6505C22.8298 46.6257 22.8797 46.5759 22.9296 46.5013L23.229 46.7997C23.1541 46.8992 23.0543 46.9489 22.9296 46.9987C22.8048 47.0484 22.6551 47.0733 22.5054 47.0733C22.3557 47.0733 22.206 47.0484 22.0813 46.9987C21.9566 46.9489 21.8318 46.8743 21.732 46.7997C21.6322 46.7003 21.5574 46.6008 21.5075 46.4765C21.4576 46.3521 21.4326 46.2029 21.4326 46.0537C21.4326 45.9045 21.4576 45.7553 21.5075 45.631C21.5574 45.5067 21.6322 45.4072 21.732 45.3077C21.8318 45.2082 21.9316 45.1585 22.0813 45.1088C22.231 45.059 22.3557 45.0342 22.5054 45.0342C22.6302 45.0342 22.7799 45.059 22.9046 45.1088C23.0294 45.1585 23.1541 45.2331 23.229 45.3326L22.9296 45.6559Z" fill="white"/>
<path d="M23.3525 45.1084H25.0741V45.4814H24.4254V47.048H23.9513V45.4814H23.3525V45.1084Z" fill="white"/>
<path d="M25.8969 47.048H25.4229V45.1084H25.8969V45.8544H26.7701V45.1084H27.2442V47.048H26.7701V46.2274H25.8969V47.048Z" fill="white"/>
<path d="M29.3659 46.0786C29.3659 46.004 29.3409 45.9045 29.316 45.8299C29.291 45.7553 29.2411 45.6807 29.1912 45.631C29.1413 45.5813 29.0914 45.5315 29.0166 45.5067C28.9417 45.4818 28.8669 45.4569 28.7671 45.4569C28.6673 45.4569 28.5924 45.4818 28.5176 45.5067C28.4427 45.5315 28.3928 45.5813 28.3429 45.631C28.293 45.6807 28.2431 45.7553 28.2182 45.8299C28.1932 45.9045 28.1683 45.9791 28.1683 46.0786C28.1683 46.1532 28.1932 46.2527 28.2182 46.3273C28.2431 46.4019 28.293 46.4765 28.3429 46.5262C28.3928 46.5759 28.4427 46.6257 28.5176 46.6505C28.5924 46.6754 28.6673 46.7003 28.7671 46.7003C28.8669 46.7003 28.9417 46.6754 29.0166 46.6505C29.0914 46.6257 29.1413 46.5759 29.1912 46.5262C29.2411 46.4765 29.2661 46.4019 29.316 46.3273C29.3659 46.2278 29.3659 46.1532 29.3659 46.0786ZM29.8648 46.0537C29.8648 46.2029 29.8399 46.3521 29.79 46.4765C29.7401 46.6008 29.6653 46.7003 29.5655 46.7997C29.4657 46.8992 29.3659 46.9489 29.2162 46.9987C29.0914 47.0484 28.9417 47.0733 28.792 47.0733C28.6423 47.0733 28.4926 47.0484 28.3679 46.9987C28.2431 46.9489 28.1184 46.8743 28.0435 46.7997C27.9437 46.7003 27.8689 46.6008 27.819 46.4765C27.7691 46.3521 27.7441 46.2029 27.7441 46.0537C27.7441 45.9045 27.7691 45.7553 27.819 45.631C27.8689 45.5067 27.9437 45.4072 28.0435 45.3077C28.1433 45.2082 28.2431 45.1585 28.3679 45.1088C28.4926 45.059 28.6423 45.0342 28.792 45.0342C28.9417 45.0342 29.0914 45.059 29.2162 45.1088C29.3409 45.1585 29.4657 45.2331 29.5655 45.3077C29.6653 45.4072 29.7401 45.5067 29.79 45.631C29.8149 45.7802 29.8648 45.9045 29.8648 46.0537Z" fill="white"/>
<path d="M30.6627 44.3133C30.6876 44.363 30.7126 44.4128 30.7625 44.4625C30.8124 44.5122 30.8623 44.562 30.9122 44.5868C30.9621 44.6366 31.0369 44.6614 31.1118 44.6863C31.1866 44.7112 31.2615 44.7112 31.3613 44.7112C31.4361 44.7112 31.511 44.7112 31.5858 44.6863C31.6607 44.6614 31.7355 44.6366 31.7854 44.5868C31.8353 44.5371 31.8852 44.5122 31.9351 44.4625C31.985 44.4128 32.0099 44.363 32.0349 44.3133L31.7854 44.189C31.7605 44.2636 31.7106 44.3382 31.6108 44.3879C31.5359 44.4376 31.4361 44.4625 31.3613 44.4625C31.2615 44.4625 31.1866 44.4376 31.1118 44.3879C31.0369 44.3382 30.987 44.2636 30.9371 44.189L30.6627 44.3133ZM31.8353 45.7058L30.8373 47.0238H30.3633V45.0842H30.8373V46.3773L31.8353 45.0842H32.3093V47.0238H31.8353V45.7058Z" fill="white"/>
<path d="M34.3822 47.048H33.9082V45.1084H35.7046V47.048H35.2056V45.4814H34.3822V47.048Z" fill="white"/>
<path d="M37.6981 45.8797C37.6981 45.7305 37.6482 45.631 37.5734 45.5316C37.4985 45.4321 37.3738 45.3824 37.1992 45.3824C37.1243 45.3824 37.0495 45.4072 36.9746 45.4321C36.8998 45.457 36.8499 45.5067 36.8 45.5316C36.7501 45.5813 36.7251 45.631 36.6752 45.6808C36.6503 45.7305 36.6253 45.8051 36.6253 45.8797H37.6981ZM38.1472 46.0538V46.1284C38.1472 46.1532 38.1472 46.1781 38.1472 46.203H36.6503C36.6503 46.2776 36.6752 46.3522 36.7002 46.4019C36.7251 46.4765 36.775 46.5262 36.8249 46.576C36.8748 46.6257 36.9247 46.6506 36.9996 46.6754C37.0744 46.7003 37.1493 46.7252 37.2241 46.7252C37.3488 46.7252 37.4486 46.7003 37.5484 46.6506C37.6482 46.6008 37.6981 46.5262 37.748 46.4765L38.0973 46.7003C37.9975 46.8495 37.8728 46.949 37.7231 46.9987C37.5734 47.0733 37.4237 47.0982 37.2241 47.0982C37.0744 47.0982 36.9497 47.0733 36.8249 47.0236C36.7002 46.9738 36.5754 46.8992 36.5006 46.8246C36.4008 46.7252 36.3259 46.6257 36.276 46.5014C36.2261 46.377 36.2012 46.2278 36.2012 46.0786C36.2012 45.9294 36.2261 45.7802 36.276 45.6559C36.3259 45.5316 36.4008 45.4321 36.5006 45.3326C36.6004 45.2332 36.7002 45.1834 36.8249 45.1337C36.9497 45.0839 37.0744 45.0591 37.2241 45.0591C37.3738 45.0591 37.4985 45.0839 37.6233 45.1337C37.748 45.1834 37.8478 45.258 37.9227 45.3326C37.9975 45.4321 38.0724 45.5316 38.1223 45.6559C38.1472 45.7554 38.1472 45.9046 38.1472 46.0538Z" fill="white"/>
<path d="M39.4704 45.8047L39.146 46.6502H39.9195L39.5702 45.6306L39.4704 45.8047ZM38.7718 47.5951H38.3477V46.6502H38.672L39.2957 45.1084H39.8446L40.4185 46.6502H40.7428V47.5951H40.3187V47.048H38.7468V47.5951H38.7718Z" fill="white"/>
<path d="M42.1649 46.1283C42.0651 46.1283 41.9903 46.1283 41.8905 46.1283C41.7907 46.1283 41.7158 46.1532 41.641 46.1781C41.5661 46.2029 41.5162 46.2278 41.4663 46.2775C41.4164 46.3273 41.3915 46.377 41.3915 46.4516C41.3915 46.5013 41.3915 46.5511 41.4164 46.5759C41.4414 46.6008 41.4663 46.6505 41.4913 46.6505C41.5162 46.6754 41.5661 46.6754 41.616 46.7003C41.6659 46.7003 41.6909 46.7251 41.7408 46.7251C41.8905 46.7251 42.0152 46.6754 42.115 46.5759C42.1899 46.4765 42.2398 46.3521 42.2398 46.2029V46.1035H42.1649V46.1283ZM42.2398 45.7802C42.2398 45.6559 42.1899 45.5564 42.115 45.5066C42.0402 45.4569 41.9404 45.4072 41.8156 45.4072C41.7158 45.4072 41.616 45.432 41.5162 45.4569C41.4164 45.5067 41.3416 45.5564 41.2917 45.6061L41.0422 45.3326C41.142 45.2331 41.2667 45.1585 41.4164 45.1088C41.5661 45.059 41.7158 45.0342 41.8655 45.0342C42.115 45.0342 42.3146 45.0839 42.4643 45.2082C42.614 45.3326 42.6888 45.5067 42.6888 45.7802C42.6888 45.8299 42.6888 45.8548 42.6888 45.9045C42.6888 45.9294 42.6888 45.9791 42.6888 46.0289V46.6505C42.6888 46.7251 42.6888 46.7997 42.6888 46.8495C42.6888 46.9241 42.6888 46.9987 42.6888 47.0484H42.2398C42.2398 46.9987 42.2398 46.9738 42.2398 46.9241C42.2398 46.8743 42.2398 46.8495 42.2398 46.7997C42.1649 46.8992 42.0901 46.9738 41.9903 47.0235C41.8905 47.0733 41.7657 47.0981 41.641 47.0981C41.5661 47.0981 41.4913 47.0981 41.4164 47.0733C41.3416 47.0484 41.2667 47.0235 41.1919 46.9738C41.117 46.9241 41.0671 46.8743 41.0172 46.7997C40.9673 46.7251 40.9424 46.6257 40.9424 46.5262C40.9424 46.377 40.9923 46.2775 41.0671 46.1781C41.142 46.1035 41.2418 46.0289 41.3665 45.9791C41.4913 45.9294 41.641 45.9045 41.7907 45.8797C41.9404 45.8548 42.115 45.8548 42.2647 45.8548V45.7802H42.2398Z" fill="white"/>
<path d="M43.7358 47.048H43.2617V45.1084H44.5591V45.4814H43.7358V47.048Z" fill="white"/>
<path d="M46.4567 46.0786C46.4567 46.004 46.4317 45.9045 46.4068 45.8299C46.3818 45.7553 46.3319 45.6807 46.282 45.631C46.2321 45.5813 46.1822 45.5315 46.1074 45.5067C46.0325 45.4818 45.9577 45.4569 45.8579 45.4569C45.7581 45.4569 45.6832 45.4818 45.6084 45.5067C45.5335 45.5315 45.4836 45.5813 45.4337 45.631C45.3838 45.6807 45.334 45.7553 45.309 45.8299C45.2841 45.9045 45.2591 45.9791 45.2591 46.0786C45.2591 46.1532 45.2841 46.2527 45.309 46.3273C45.334 46.4019 45.3838 46.4765 45.4337 46.5262C45.4836 46.5759 45.5335 46.6257 45.6084 46.6505C45.6832 46.6754 45.7581 46.7003 45.8579 46.7003C45.9577 46.7003 46.0325 46.6754 46.1074 46.6505C46.1822 46.6257 46.2321 46.5759 46.282 46.5262C46.3319 46.4765 46.3569 46.4019 46.4068 46.3273C46.4567 46.2278 46.4567 46.1532 46.4567 46.0786ZM46.9557 46.0537C46.9557 46.2029 46.9307 46.3521 46.8808 46.4765C46.8309 46.6008 46.7561 46.7003 46.6563 46.7997C46.5565 46.8992 46.4567 46.9489 46.307 46.9987C46.1822 47.0484 46.0325 47.0733 45.8828 47.0733C45.7331 47.0733 45.5834 47.0484 45.4587 46.9987C45.3339 46.9489 45.2092 46.8743 45.1344 46.7997C45.0346 46.7003 44.9597 46.6008 44.9098 46.4765C44.8599 46.3521 44.835 46.2029 44.835 46.0537C44.835 45.9045 44.8599 45.7553 44.9098 45.631C44.9597 45.5067 45.0346 45.4072 45.1344 45.3077C45.2341 45.2082 45.3339 45.1585 45.4587 45.1088C45.5834 45.059 45.7331 45.0342 45.8828 45.0342C46.0325 45.0342 46.1822 45.059 46.307 45.1088C46.4317 45.1585 46.5565 45.2331 46.6563 45.3077C46.7561 45.4072 46.8309 45.5067 46.8808 45.631C46.9058 45.7802 46.9557 45.9045 46.9557 46.0537Z" fill="white"/>
<path d="M47.9037 47.048H47.4297V45.1084H48.7271V45.4814H47.9037V47.048Z" fill="white"/>
<path d="M50.5731 45.7052L49.5752 47.048H49.0762V45.1084H49.5752V46.4015L50.5731 45.1084H51.0472V47.048H50.5731V45.7052Z" fill="white"/>
<path d="M52.1435 45.8544C52.2184 45.8544 52.2932 45.8544 52.3681 45.8793L52.917 45.1084H53.4409L52.7673 46.0285C52.9669 46.1279 53.1166 46.2523 53.2163 46.4263C53.3161 46.6004 53.4159 46.7994 53.4658 47.048H52.9419C52.917 46.8988 52.8671 46.7745 52.8172 46.675C52.7673 46.5755 52.7174 46.5009 52.6425 46.4263C52.5677 46.3766 52.4928 46.3269 52.418 46.302C52.3431 46.2771 52.2433 46.2523 52.1186 46.2523V47.0729H51.6445V45.1333H52.1186V45.8544H52.1435Z" fill="white"/>
<path d="M55.4393 45.7052L54.4164 47.048H53.9424V45.1084H54.4164V46.4015L55.4393 45.1084H55.9134V47.048H55.4393V45.7052Z" fill="white"/>
<path d="M6.73658 50.0073V56.5722H5.16477V51.3253H2.74467V56.5722H1.17285V50.0073H6.73658Z" fill="white"/>
<path d="M8.80664 56.5722V50.0073H13.2227V51.3253H10.3286V52.5686H13.073V53.8368H10.3286V55.2045H13.3973V56.5722H8.80664Z" fill="white"/>
<path d="M18.1374 51.3501V56.5722H16.5655V51.3501H14.6943V50.0073H20.0086V51.3501H18.1374Z" fill="white"/>
<path d="M21.6074 56.5722V50.0073H26.0484V51.3253H23.1543V52.5686H25.8738V53.8368H23.1543V55.2045H26.1981V56.5722H21.6074Z" fill="white"/>
<path d="M31.5368 52.0215C31.5368 51.8723 31.5118 51.748 31.437 51.6485C31.3871 51.5491 31.2873 51.4745 31.1875 51.4247C31.0877 51.375 30.9629 51.3253 30.8382 51.3253C30.7134 51.3004 30.5637 51.3004 30.4141 51.3004H29.7155V52.8421H30.3891C30.5388 52.8421 30.6885 52.8173 30.8132 52.8173C30.938 52.7924 31.0627 52.7427 31.1875 52.6929C31.2873 52.6432 31.3871 52.5437 31.437 52.4443C31.5118 52.3199 31.5368 52.1707 31.5368 52.0215ZM33.1335 52.0215C33.1335 52.3945 33.0587 52.7178 32.909 52.9914C32.7593 53.2649 32.5847 53.4638 32.3352 53.6379C32.0857 53.7871 31.8112 53.9114 31.4869 53.986C31.1625 54.0606 30.8382 54.0855 30.4889 54.0855H29.6905V56.5722H28.0938V50.0073H30.5138C30.8631 50.0073 31.2124 50.0322 31.5118 50.1068C31.8362 50.1814 32.0857 50.2809 32.3352 50.4549C32.5597 50.6041 32.7593 50.8279 32.884 51.0766C33.0587 51.3253 33.1335 51.6485 33.1335 52.0215Z" fill="white"/>
<path d="M39.4953 56.4481C39.0712 56.647 38.5722 56.7465 38.0233 56.7465C37.5243 56.7465 37.0503 56.6719 36.6261 56.4978C36.202 56.3237 35.8277 56.0999 35.5034 55.7766C35.1791 55.4782 34.9296 55.1052 34.7549 54.6825C34.5803 54.2598 34.4805 53.7873 34.4805 53.2651C34.4805 52.7429 34.5803 52.2704 34.7549 51.8477C34.9296 51.4249 35.1791 51.0519 35.5034 50.7535C35.8277 50.4551 36.202 50.2313 36.6261 50.0573C37.0503 49.9081 37.5243 49.8086 38.0233 49.8086C38.4973 49.8086 38.9464 49.8832 39.3955 50.0573C39.8446 50.2313 40.2189 50.4551 40.4933 50.7784L39.4205 51.8477C39.2708 51.6487 39.0712 51.4995 38.8466 51.4001C38.5971 51.3006 38.3476 51.2509 38.0981 51.2509C37.8237 51.2509 37.5742 51.3006 37.3247 51.4001C37.1002 51.4995 36.9006 51.6487 36.7259 51.8228C36.5513 51.9969 36.4265 52.2207 36.3267 52.4694C36.2269 52.718 36.177 52.9916 36.177 53.2651C36.177 53.5635 36.2269 53.837 36.3267 54.0857C36.4265 54.3344 36.5513 54.5333 36.701 54.7322C36.8756 54.9063 37.0503 55.0555 37.2998 55.155C37.5243 55.2544 37.7738 55.3042 38.0482 55.3042C38.3726 55.3042 38.647 55.2544 38.8716 55.1301C39.0961 55.0058 39.2957 54.8566 39.4454 54.6576L40.5432 55.702C40.2937 55.9756 39.9444 56.2491 39.4953 56.4481Z" fill="white"/>
<path d="M46.9307 53.2402C46.9307 52.9667 46.8808 52.6931 46.781 52.4445C46.6812 52.1958 46.5565 51.9969 46.4068 51.7979C46.2321 51.6239 46.0326 51.4747 45.808 51.3752C45.5835 51.2757 45.309 51.226 45.0346 51.226C44.7601 51.226 44.5106 51.2757 44.2611 51.3752C44.0366 51.4747 43.837 51.6239 43.6624 51.7979C43.4877 51.972 43.363 52.1958 43.2881 52.4445C43.1883 52.6931 43.1634 52.9667 43.1634 53.2402C43.1634 53.5386 43.2133 53.8122 43.3131 54.0608C43.4129 54.3095 43.5376 54.5333 43.6873 54.7074C43.8619 54.8814 44.0366 55.0306 44.2861 55.1301C44.5106 55.2296 44.7601 55.2793 45.0595 55.2793C45.3589 55.2793 45.5835 55.2296 45.833 55.1301C46.0575 55.0306 46.2571 54.8814 46.4317 54.7074C46.6064 54.5333 46.7311 54.3095 46.8309 54.0608C46.8808 53.8122 46.9307 53.5386 46.9307 53.2402ZM48.6273 53.2402C48.6273 53.7624 48.5275 54.2349 48.3529 54.6576C48.1782 55.0804 47.9287 55.4534 47.6044 55.7518C47.28 56.0502 46.9058 56.2988 46.4567 56.4729C46.0076 56.647 45.5336 56.7216 45.0346 56.7216C44.5106 56.7216 44.0366 56.647 43.6125 56.4729C43.1634 56.2988 42.7891 56.075 42.4897 55.7518C42.1654 55.4534 41.9159 55.0804 41.7412 54.6576C41.5666 54.2349 41.4668 53.7624 41.4668 53.2402C41.4668 52.718 41.5666 52.2455 41.7412 51.8228C41.9159 51.4001 42.1654 51.0519 42.4897 50.7535C42.8141 50.4551 43.1883 50.2313 43.6125 50.0573C44.0615 49.9081 44.5356 49.8086 45.0346 49.8086C45.5585 49.8086 46.0326 49.8832 46.4567 50.0573C46.9058 50.2065 47.28 50.4551 47.6044 50.7535C47.9287 51.0519 48.1782 51.4001 48.3529 51.8228C48.5525 52.2455 48.6273 52.718 48.6273 53.2402Z" fill="white"/>
<path d="M10.6784 11.2895C10.4788 11.0906 10.2542 10.9165 10.0297 10.7673C9.80513 10.6181 9.53069 10.5186 9.2812 10.4192C8.90695 10.27 8.55766 10.071 8.15847 9.99643C7.70938 9.92183 7.26029 9.97156 6.8112 9.99643C6.43696 10.0213 6.03776 10.0462 5.66352 10.1208C5.26433 10.1954 4.89009 10.3197 4.51585 10.4938C4.1416 10.643 3.74241 10.8419 3.41807 11.0906C3.01888 11.3641 2.66959 11.7122 2.34524 12.0604C2.1207 12.3091 1.94605 12.5826 1.7714 12.881C1.62171 13.1297 1.52191 13.4032 1.42211 13.7016C1.32231 13.9751 1.27242 14.3233 1.19757 14.6217C1.29736 14.6217 1.42211 14.6465 1.52191 14.6714C1.54686 14.5471 1.59676 14.4476 1.62171 14.3233C1.67161 14.1741 1.74646 14.0995 1.8213 13.9751C1.74646 14.4725 1.64666 14.8206 1.59676 15.2931C1.54686 15.6661 1.54686 16.0391 1.52191 16.4121C1.62171 16.4121 1.74646 16.4867 1.8213 16.5364C1.84625 16.3624 1.8213 16.1137 1.8712 15.9396C1.89615 15.8153 1.94605 15.6164 1.99595 15.492C1.971 15.9396 1.89615 16.437 1.9211 16.8846C1.9211 17.2824 1.971 17.7052 1.99595 18.103C2.09575 18.2025 2.24544 18.2771 2.34524 18.3766C2.32029 18.1776 2.27039 18.0036 2.27039 17.8046C2.27039 17.6306 2.29534 17.4316 2.32029 17.2576C2.46999 17.6057 2.54484 18.0036 2.71948 18.3517C2.86918 18.6501 3.06878 18.9485 3.24342 19.2469C3.39312 19.2967 3.54282 19.3464 3.69251 19.3713C3.61767 19.1972 3.54282 19.0231 3.54282 18.7993C3.66756 18.9485 3.74241 19.1475 3.89211 19.2718C4.04181 19.421 4.2913 19.6199 4.441 19.7691C4.51585 19.7443 4.56575 19.7443 4.64059 19.7443C4.5408 19.5453 4.3911 19.2967 4.26635 19.0977C4.1915 18.9236 4.1915 18.6998 4.1416 18.5258C4.2913 18.7496 4.3911 19.0231 4.56574 19.2221C4.74039 19.421 4.86514 19.7443 4.98989 20.0427C5.08968 20.0427 5.21443 20.0675 5.31423 20.0675C5.38908 19.8686 5.33918 19.6697 5.33918 19.4459C5.43898 19.6945 5.56372 19.9432 5.53877 20.2416C5.61362 20.2416 5.68847 20.2416 5.78827 20.2416C5.91302 20.0924 5.96292 19.8189 5.96292 19.6448C5.98786 19.8437 6.01281 20.0675 5.96292 20.3411C6.03776 20.3659 6.11261 20.3659 6.18746 20.3908C6.31221 20.2665 6.41201 20.1421 6.46191 20.0178C6.5118 20.1421 6.5118 20.2913 6.48685 20.4157C6.5617 20.4405 6.6116 20.4903 6.68645 20.5151C6.96089 20.3908 7.08564 20.2416 7.26029 20.0178C7.38504 19.8686 7.45988 19.6199 7.60958 19.4707C7.83413 19.5453 8.08362 19.5951 8.28322 19.7194C8.48281 19.8189 8.65746 19.9681 8.75726 20.167C8.80715 20.2416 8.70736 20.3411 8.63251 20.3908C8.38301 20.4903 8.10857 20.4903 7.85908 20.5897C7.75928 20.6395 7.68443 20.7638 7.55968 20.7887C7.21039 20.8881 6.8611 20.8881 6.48685 20.913C6.13756 20.9627 5.78827 21.0125 5.43898 21.0373C5.26433 21.0871 5.08968 21.1119 4.91504 21.1617C4.46595 21.0373 4.04181 20.913 3.59272 20.8135C3.19352 20.7389 2.76938 20.7141 2.34524 20.6892C2.1706 20.6643 1.99595 20.6146 1.84625 20.5897C1.59676 20.5151 1.32231 20.4903 1.04787 20.4903C0.948072 20.4903 0.848274 20.5649 0.923122 20.6395C0.997971 20.7638 1.17262 20.7887 1.29736 20.8881C1.22252 20.9379 1.14767 20.9876 1.07282 21.0125C0.873224 21.1119 0.673628 21.1865 0.474032 21.2611C0.324335 21.3109 0.0997899 21.2611 -8.03918e-06 21.3855C-0.049907 21.4849 0.124739 21.5844 0.224537 21.6341C0.374234 21.7087 0.54888 21.7336 0.723527 21.7585C0.973021 21.7833 1.22252 21.8082 1.47201 21.8082C1.64666 21.8082 1.8213 21.7833 1.99595 21.8082C2.1706 21.8331 2.34524 21.9574 2.51989 22.0071C2.81928 22.1066 3.11868 22.2061 3.44302 22.2558C3.84221 22.3304 4.26635 22.3553 4.66554 22.4299C4.74039 22.4547 4.79029 22.5293 4.89009 22.5293C4.96494 22.5293 5.03978 22.4547 5.11463 22.4796C5.46393 22.5542 5.81322 22.7034 6.16251 22.7531C6.5617 22.8278 6.96089 22.8526 7.38504 22.8775C7.68443 22.8775 7.95887 22.8526 8.25827 22.8526C8.43291 23.1262 8.58261 23.3748 8.75726 23.6484C8.9319 23.9219 9.15645 24.1706 9.30614 24.4441C9.43089 24.6928 9.50574 24.9663 9.58059 25.2398C9.63049 25.4636 9.65544 25.7123 9.63049 25.9361C9.60554 26.0853 9.48079 26.1848 9.43089 26.3091C9.35604 26.5329 9.28119 26.7567 9.25625 26.9805C9.2313 27.1795 9.20635 27.3784 9.2313 27.5773C9.25625 27.7265 9.33109 27.9006 9.40594 28.0249C9.48079 28.1741 9.60554 28.3233 9.70534 28.4725C9.48079 28.6963 9.20635 28.8953 9.00675 29.1439C8.75726 29.4423 8.53271 29.7656 8.35806 30.0889C8.28322 30.2381 8.25827 30.4122 8.20837 30.5614C8.08362 30.5116 7.95887 30.4619 7.80918 30.437C7.53473 30.3873 7.26029 30.3873 6.96089 30.3873C6.78625 30.3873 6.63655 30.437 6.46191 30.437C6.18746 30.4122 5.91302 30.3873 5.66352 30.2878C5.51382 30.2381 5.41403 30.064 5.26433 29.9894C5.13958 29.9148 4.98989 29.8899 4.84019 29.8899C4.71544 29.8899 4.61564 29.9646 4.5408 30.064C4.3911 30.2132 4.31625 30.437 4.1915 30.6111C4.0917 30.7354 3.99191 30.8846 3.86716 30.9841C3.64261 31.1333 3.36817 31.183 3.16857 31.3571C2.99393 31.5063 2.91908 31.7052 2.81928 31.9042C2.76938 32.0285 2.76938 32.1777 2.74443 32.3269C2.71948 32.4264 2.61969 32.501 2.64464 32.6004C2.66959 32.6999 2.74443 32.7745 2.84423 32.7745C3.01888 32.7745 3.19352 32.6253 3.36817 32.5507C3.59272 32.4761 3.81726 32.4512 4.01686 32.3766C4.2414 32.302 4.46595 32.1777 4.69049 32.0782C4.86514 32.0036 5.03978 31.8047 5.21443 31.8544C5.73837 31.9539 6.18746 32.2772 6.6615 32.4264C7.13554 32.5756 7.63453 32.6502 8.13352 32.7745C8.25827 32.7994 8.38301 32.874 8.50776 32.874C8.70736 32.874 8.90695 32.7994 9.0816 32.7248C9.20635 32.675 9.2812 32.5507 9.40594 32.4761C9.73029 32.2772 10.0796 32.1528 10.4039 31.929C10.7532 31.7052 11.0776 31.4068 11.4019 31.1582C11.5765 31.009 11.7512 30.8349 11.9258 30.6857C12.1254 30.8846 12.3001 31.0836 12.4997 31.2576C12.6743 31.4068 12.849 31.556 13.0486 31.6804C13.2482 31.8047 13.4478 31.8544 13.6474 31.9539C13.6973 31.9788 13.7472 32.0534 13.7721 32.1031C13.797 32.1777 13.797 32.2772 13.797 32.3518C13.797 32.5507 13.7721 32.7496 13.822 32.9486C13.8719 33.1972 13.9717 33.4459 14.0964 33.6946C14.1962 33.8687 14.3459 33.9681 14.4457 34.1422C14.6204 34.4655 14.7701 34.7887 14.9198 35.112C14.9447 35.1866 14.9946 35.2363 14.9946 35.3109C14.9946 35.4353 14.9198 35.5596 14.9198 35.6839C14.9198 35.8083 14.9447 35.9575 14.9946 36.0818C15.0445 36.2061 15.1693 36.2807 15.2691 36.3553C15.3689 36.4051 15.5186 36.4299 15.6433 36.4548C15.793 36.4797 15.9427 36.5045 16.0675 36.5543C16.2421 36.604 16.3918 36.7035 16.5664 36.7781C16.6912 36.8278 16.8159 36.8775 16.9656 36.9024C17.1153 36.9273 17.265 36.9024 17.4147 36.9024C17.5894 36.9024 17.764 36.8775 17.9387 36.8278C18.0884 36.8029 18.2381 36.7781 18.3878 36.7283C18.5374 36.6786 18.7121 36.604 18.8119 36.4797C18.8867 36.4051 18.8867 36.2559 18.8618 36.1564C18.8368 36.0818 18.7121 36.0569 18.6372 36.0072C18.4875 35.9077 18.3379 35.7834 18.1882 35.6591C17.8888 35.4353 17.6143 35.1617 17.3399 34.9131C17.0904 34.7141 16.8409 34.5649 16.6163 34.3411C16.4916 33.7941 16.4167 33.247 16.292 32.6999C16.2171 32.4264 16.0425 32.1777 15.9926 31.9042C15.9677 31.8296 16.0176 31.7301 15.9926 31.6555C15.9427 31.4317 15.8679 31.2079 15.7681 30.9841C15.7182 30.9095 15.6184 30.8598 15.5934 30.7852C15.4188 30.4619 15.319 30.0889 15.1443 29.7407C14.82 29.1191 14.4707 28.5471 14.1214 27.9255C14.1713 27.7017 14.2461 27.5027 14.2711 27.2789C14.321 26.9059 14.3459 26.5329 14.321 26.1599C14.296 25.8366 14.1463 25.5382 14.1214 25.215C14.0964 24.9166 14.1713 24.5933 14.1713 24.2949C14.1713 23.723 14.1713 23.1262 14.0964 22.5542C14.0715 22.2061 13.9218 21.8828 13.8968 21.5347C13.8968 21.4352 13.9717 21.3606 14.0465 21.3109C14.7451 20.8881 15.4936 20.4903 16.1922 19.9183C16.9157 19.5453 17.5395 18.9485 18.1632 18.3766C18.6871 18.2274 19.1612 17.9538 19.6352 17.6306C19.6851 17.5808 19.7101 17.4565 19.6352 17.4565C19.0364 17.4316 18.4127 17.4814 17.8139 17.5062C17.6143 17.5062 17.4397 17.6057 17.2401 17.7549C16.6163 18.0284 16.0176 18.3766 15.4188 18.7247C14.3958 18.9734 13.3729 19.2469 12.325 19.5453C12.1005 19.5951 11.8759 19.5702 11.6514 19.5951C11.5765 19.5951 11.5017 19.5951 11.4268 19.5951C11.377 19.5951 11.3271 19.6199 11.2522 19.6199C11.2273 19.6199 11.1774 19.5951 11.1774 19.5453C11.1025 19.4459 11.0277 19.3713 10.9778 19.2469C10.9528 19.2221 10.9778 19.1475 11.0027 19.1475C11.3021 19.048 11.6514 19.048 11.9258 18.9485C12.0007 18.9236 12.0506 18.8242 12.0755 18.7496C12.1254 18.5755 12.1254 18.3766 12.1753 18.2025C12.2003 18.103 12.3001 18.0036 12.2502 17.9041C12.2003 17.7798 12.0007 17.7549 11.9258 17.6554C11.851 17.5808 11.826 17.4565 11.7512 17.357C11.851 17.3073 11.9757 17.3322 12.0506 17.2576C12.1504 17.183 12.3001 17.2327 12.3999 17.1581C12.4747 17.1084 12.4747 17.0338 12.4747 16.9592C12.4498 16.7354 12.3999 16.5613 12.35 16.3624C12.4747 16.2132 12.5995 16.0391 12.6993 15.865C12.7242 15.8153 12.6993 15.7407 12.6494 15.7158C12.35 15.5417 11.9757 15.492 11.7512 15.2433C11.5516 15.0195 11.5516 14.6714 11.4268 14.3979C11.3021 14.0497 11.1524 13.7016 11.0027 13.3286C11.1025 13.254 11.2023 13.0551 11.2522 12.881C11.352 13.0302 11.3021 13.2291 11.2772 13.3783C11.377 13.3783 11.4767 13.4032 11.5516 13.4032C11.6015 13.1794 11.7262 12.9059 11.377 12.1599C11.2023 11.8117 10.9279 11.563 10.6784 11.2895Z" fill="white"/>
<path d="M23.2784 6.19169C23.6526 6.51496 24.0269 6.83823 24.3263 7.2361C24.6257 7.63397 24.8253 8.08157 24.9999 8.55404C25.1496 8.92705 25.2245 9.32492 25.2993 9.72279C25.3741 10.1704 25.3991 10.618 25.3741 11.0905C25.3242 11.7619 25.1995 12.4581 25.0249 13.1047C24.9251 13.4528 24.7005 13.7761 24.5009 14.0745C24.2764 14.3978 24.0019 14.721 23.7275 15.0194C23.478 15.293 23.2035 15.5665 22.9042 15.7654C22.48 16.039 22.0309 16.2877 21.5319 16.4617C21.1327 16.6109 20.6836 16.7104 20.2595 16.7601C19.9102 16.8099 19.5609 16.8099 19.2116 16.785C18.7376 16.7601 18.2635 16.7601 17.8145 16.6607C17.3404 16.5612 16.8913 16.3374 16.4422 16.1384C16.0929 15.9892 15.7686 15.84 15.4692 15.6411C15.07 15.3427 14.6958 15.0194 14.3714 14.6464C14.072 14.3232 13.7726 13.9999 13.598 13.602C13.3236 13.0052 13.1739 12.3338 13.0491 11.6873C12.9493 11.1899 12.8994 10.6926 12.8994 10.1704C12.9244 9.74766 13.0242 9.34978 13.1489 8.95191C13.2986 8.52918 13.4982 8.10644 13.7477 7.73344C13.9972 7.33557 14.3215 6.98743 14.6708 6.68903C15.0451 6.34089 15.4692 6.01762 15.9183 5.76895C16.4672 5.47055 17.066 5.22188 17.6648 5.04781C18.1887 4.89861 18.7126 4.82401 19.2615 4.87374C19.8354 4.89861 20.3843 5.02294 20.9082 5.24675C21.4321 5.47055 21.9062 5.84355 22.3553 6.21656C22.6547 6.46522 22.9291 6.78849 23.1536 7.13663C23.3782 7.48477 23.6027 7.85777 23.7275 8.25564C23.8522 8.62864 23.9271 9.02652 23.952 9.39952C24.0019 9.84712 24.0019 10.2947 23.952 10.7175C23.9021 11.1402 23.8273 11.5878 23.6277 11.9857C23.3782 12.5327 23.0538 13.0798 22.6297 13.5026C22.1806 13.9253 21.6317 14.2486 21.0828 14.4972C20.6337 14.6962 20.1597 14.7708 19.6607 14.7956C19.1118 14.8205 18.5629 14.8205 18.039 14.6464C17.54 14.4724 17.0909 14.1242 16.6917 13.7761C16.3923 13.5274 16.1179 13.2539 15.9183 12.9306C15.6938 12.5576 15.5441 12.1349 15.4692 11.6873C15.3944 11.2894 15.3694 10.8667 15.4443 10.4439C15.5191 9.97146 15.6189 9.47412 15.8684 9.07625C16.1428 8.65351 16.5171 8.30537 16.9412 8.03184C17.2905 7.78317 17.6897 7.63397 18.0889 7.5345C18.538 7.43503 19.037 7.3853 19.511 7.4599C19.8354 7.50963 20.1597 7.65884 20.4342 7.8329C20.7335 8.00697 21.0329 8.18104 21.2325 8.45458C21.4571 8.72811 21.6068 9.07625 21.7066 9.39952C21.8064 9.72279 21.8313 10.0461 21.8064 10.3693C21.8064 10.618 21.7315 10.8915 21.6317 11.1153C21.5319 11.3391 21.4072 11.5629 21.2325 11.737C21.0579 11.9359 20.8583 12.1597 20.6088 12.2841C20.3094 12.4333 19.9851 12.5576 19.6607 12.5576C19.3613 12.5576 19.037 12.5079 18.7625 12.3587C18.4631 12.2095 18.2137 11.9608 18.039 11.6873C17.9143 11.4883 17.9143 11.2148 17.9143 10.9661C17.9143 10.7423 17.9642 10.5185 18.064 10.3445C18.1638 10.1953 18.3134 10.0958 18.4881 9.99632C18.6128 9.92172 18.7625 9.84712 18.8873 9.82226C18.9621 9.82226 19.037 9.87199 19.0619 9.94659C19.0869 10.0461 18.9621 10.1455 18.9372 10.245C18.9372 10.3693 18.9372 10.5434 19.037 10.6429C19.1617 10.7672 19.3613 10.8169 19.536 10.8418C19.6857 10.8667 19.8603 10.8667 19.9851 10.7921C20.1348 10.6926 20.2845 10.5434 20.3344 10.3693C20.3843 10.1953 20.3593 9.97146 20.2845 9.79739C20.2096 9.62332 20.0849 9.47412 19.9352 9.34978C19.7855 9.22545 19.6108 9.12598 19.4362 9.07625C19.2615 9.02652 19.0619 9.05138 18.8623 9.10112C18.6378 9.15085 18.4132 9.22545 18.2137 9.32492C18.0141 9.42439 17.8394 9.54872 17.6897 9.69792C17.5151 9.87199 17.3654 10.0958 17.2656 10.3445C17.1907 10.5683 17.1907 10.8418 17.1907 11.0905C17.2157 11.3391 17.2406 11.5878 17.3404 11.8116C17.4402 12.0354 17.5899 12.2343 17.7646 12.4084C17.9642 12.5825 18.2137 12.7317 18.4631 12.856C18.6877 12.9555 18.9372 12.9804 19.1867 13.0052C19.4861 13.0301 19.7855 13.055 20.0849 13.0052C20.4342 12.9555 20.7585 12.8312 21.0579 12.682C21.2824 12.5576 21.507 12.3835 21.6816 12.2095C21.8563 12.0105 22.006 11.7867 22.1307 11.5381C22.2555 11.2894 22.3802 11.0407 22.4052 10.7423C22.4551 10.3196 22.4551 9.89686 22.3553 9.47412C22.2555 9.00165 22.1058 8.52918 21.8313 8.15617C21.5818 7.80804 21.2325 7.58423 20.8832 7.36043C20.5838 7.1615 20.2595 6.98743 19.9352 6.86309C19.6358 6.76363 19.3114 6.71389 19.012 6.68903C18.7376 6.66416 18.4382 6.68903 18.1388 6.73876C17.8394 6.78849 17.565 6.88796 17.2656 6.98743C16.9911 7.11176 16.6917 7.26096 16.4422 7.43503C16.1678 7.63397 15.9432 7.85777 15.7187 8.08157C15.5191 8.28051 15.3445 8.50431 15.2197 8.75298C15.07 9.02652 14.9453 9.30005 14.8704 9.57359C14.7956 9.84712 14.7706 10.1207 14.7457 10.3942C14.7207 10.8418 14.6459 11.2894 14.7457 11.737C14.8205 12.1349 15.0201 12.5327 15.2197 12.9058C15.4443 13.3036 15.7437 13.6766 16.068 13.9999C16.4173 14.348 16.7915 14.6216 17.1907 14.8702C17.4901 15.0443 17.8145 15.1686 18.1388 15.2432C18.5629 15.3427 19.012 15.4422 19.4362 15.4422C19.7605 15.4422 20.1098 15.4173 20.4342 15.3178C20.8583 15.1935 21.2325 14.9448 21.6317 14.7459C21.981 14.5718 22.3303 14.4226 22.6297 14.174C22.9042 13.975 23.1037 13.7015 23.3033 13.428C23.5029 13.1544 23.6277 12.856 23.7524 12.5576C23.8772 12.2592 23.952 11.9359 24.0269 11.6127C24.1267 11.2645 24.1516 10.9164 24.1766 10.5683C24.2015 10.1704 24.2514 9.77252 24.2265 9.37465C24.1766 8.97678 24.1017 8.57891 24.0019 8.18104C23.9271 7.88264 23.8023 7.58423 23.6776 7.28583C23.5778 7.03716 23.4281 6.78849 23.3033 6.53982C23.2534 6.44036 23.1786 6.36576 23.1786 6.26629C23.1536 6.21656 23.2534 6.14195 23.2784 6.19169Z" fill="#F4964E"/>
<path d="M16.2428 5.0719C16.3676 4.97243 16.4923 4.79836 16.4424 4.64916C16.2428 3.92802 15.9185 3.25661 15.5692 2.58521C15.2449 1.96353 14.8956 1.36673 14.4714 0.819656C14.2469 0.521253 13.9724 0.272584 13.673 0.0736487C13.5234 -0.0258189 13.2988 -0.0258189 13.1491 0.0487818C12.8996 0.148249 12.6501 0.297451 12.5254 0.54612C12.4006 0.794789 12.4256 1.11806 12.5503 1.34186C12.725 1.73973 13.0992 1.9884 13.3737 2.31167C13.698 2.70954 13.9974 3.10741 14.2718 3.50528C14.5213 3.87828 14.696 4.30102 14.9704 4.64916C15.17 4.87296 15.3946 5.12163 15.694 5.2211C15.8936 5.27083 16.0931 5.17136 16.2428 5.0719Z" fill="#F4964E"/>
<path d="M7.61058 6.53997C7.73533 6.39077 7.93493 6.26643 8.13452 6.26643C8.55866 6.24157 8.95786 6.39077 9.35705 6.46537C9.73129 6.53997 10.1055 6.61457 10.4798 6.73891C10.8291 6.83837 11.1534 7.01244 11.5027 7.16164C11.852 7.31084 12.2262 7.33571 12.5506 7.58438C12.6753 7.68385 12.7751 7.88278 12.7751 8.08172C12.7751 8.30552 12.6753 8.52932 12.5506 8.65366C12.4009 8.80286 12.2013 8.85259 12.0266 8.85259C11.6773 8.80286 11.3281 8.57906 10.9788 8.47959C10.6045 8.38012 10.2053 8.40499 9.83109 8.30552C9.4319 8.20605 9.05765 8.00712 8.65846 7.85792C8.35907 7.73358 8.05967 7.65898 7.81018 7.48491C7.68543 7.38545 7.56069 7.23624 7.51079 7.03731C7.46089 6.83837 7.51079 6.63944 7.61058 6.53997Z" fill="#F4964E"/>
<path d="M21.2579 17.4566C21.5573 17.4566 21.9066 17.382 22.1312 17.5809C22.4555 17.8793 22.5303 18.3766 22.68 18.7994C22.8547 19.2967 22.9046 19.3713 23.0293 19.8935C23.1541 20.4406 23.3038 20.9877 23.3786 21.5347C23.4285 21.7834 23.5533 22.057 23.4285 22.2808C23.3038 22.5046 23.0044 22.604 22.7549 22.604C22.5303 22.6289 22.2808 22.5294 22.1312 22.3802C21.9815 22.231 21.9066 22.0072 21.8567 21.7834C21.7569 21.4104 21.7569 21.0125 21.6821 20.6395C21.5823 20.2665 21.4076 19.9184 21.3078 19.5454C21.208 19.1724 21.3078 19.247 21.1831 18.8989C21.0833 18.6253 20.7839 18.4264 20.709 18.1528C20.6591 17.9788 20.709 17.7798 20.8088 17.6306C20.9336 17.5063 21.1082 17.4566 21.2579 17.4566Z" fill="#F4964E"/>
<path d="M25.4229 13.7761C25.5975 13.6517 25.7971 13.5771 25.9967 13.5771C26.4708 13.5771 26.9448 13.6269 27.3939 13.7761C28.0675 13.9999 28.7162 14.348 29.315 14.6962C29.7641 14.9448 30.2132 15.2184 30.5375 15.6411C30.7122 15.8649 30.787 16.1882 30.6872 16.4368C30.5874 16.6855 30.2631 16.785 30.0136 16.8844C29.8389 16.9342 29.6144 16.9342 29.4647 16.8596C29.0904 16.6855 28.7911 16.3622 28.4168 16.1633C28.0675 15.9644 27.7182 15.8152 27.3689 15.6411C27.0695 15.4919 26.7951 15.3676 26.4957 15.2432C26.1215 15.0692 25.6724 15.0443 25.348 14.7708C25.1734 14.6464 25.1734 14.3729 25.1983 14.1491C25.1983 13.975 25.3231 13.8507 25.4229 13.7761Z" fill="#F4964E"/>
<path d="M25.4729 8.50478C25.5228 8.30585 25.5977 8.10691 25.7474 7.95771C26.0967 7.63444 26.4709 7.36091 26.92 7.16197C27.5687 6.88843 28.2673 6.6895 28.9659 6.5403C29.4648 6.44083 29.9888 6.3165 30.4878 6.41596C30.7622 6.4657 31.0367 6.63976 31.1365 6.9133C31.2363 7.16197 31.0616 7.46037 30.9369 7.68417C30.8371 7.85824 30.6874 7.98258 30.5127 8.03231C30.1135 8.15665 29.6894 8.13178 29.2652 8.23125C28.891 8.30585 28.5168 8.45505 28.1425 8.55452C27.8431 8.65398 27.5188 8.72859 27.2194 8.82805C26.8202 8.95239 26.4709 9.22592 26.0468 9.25079C25.8472 9.25079 25.6476 9.07672 25.5228 8.90265C25.448 8.82805 25.448 8.65398 25.4729 8.50478Z" fill="#F4964E"/>
<path d="M22.2304 5.0239C22.455 4.99904 22.7045 4.99903 22.8541 4.82497C23.2533 4.32763 23.4529 3.65622 23.7773 3.10915C24.1266 2.53721 24.5008 2.01501 24.8501 1.44307C24.9749 1.269 25.1495 1.09493 25.1994 0.87113C25.2243 0.721929 25.1994 0.522993 25.0747 0.423526C24.8501 0.224591 24.5507 0.0505223 24.2513 0.000788524C24.0767 -0.0240784 23.902 0.125123 23.7773 0.249458C23.3282 0.721929 22.904 1.269 22.5298 1.81607C22.2554 2.21394 22.0059 2.66155 21.7813 3.10915C21.6566 3.40755 21.5568 3.70596 21.4819 4.00436C21.432 4.22816 21.3572 4.45196 21.4071 4.6509C21.457 4.8001 21.6316 4.8747 21.7813 4.9493C21.931 5.0239 22.0807 5.04877 22.2304 5.0239Z" fill="#F4964E"/>
</g>
<defs>
<clipPath id="clip0_7123_48908">
<rect width="55.9118" height="56.7463" fill="white"/>
</clipPath>
</defs>
</svg>
