<svg width="212" height="216" viewBox="0 0 212 216" fill="none" xmlns="http://www.w3.org/2000/svg">
<g clip-path="url(#clip0_7227_1537)">
<path d="M68.7752 195.461V215.338H62.8154V195.461H55.7203V190.35H75.8703V195.461H68.7752Z" fill="white"/>
<path d="M33.3942 215.338V190.35H50.1385V195.366H39.1648V200.099H49.5709V204.926H39.1648V210.132H50.8007V215.338H33.3942Z" fill="white"/>
<path d="M25.5428 190.35V215.338H19.583V195.366H10.4067V215.338H4.4469V190.35H25.5428Z" fill="white"/>
<path d="M205.379 215.336V204.83H195.635V215.336H189.675V190.348H195.635V199.813H205.379V190.348H211.433V215.336H205.379Z" fill="white"/>
<path d="M119.575 198.015C119.575 197.447 119.481 196.973 119.197 196.595C119.008 196.216 118.629 195.932 118.251 195.743C117.872 195.554 117.399 195.364 116.926 195.364C116.453 195.27 115.886 195.27 115.318 195.27H112.669V201.138H115.224C115.791 201.138 116.359 201.044 116.832 201.044C117.305 200.949 117.778 200.76 118.251 200.57C118.629 200.381 119.008 200.002 119.197 199.624C119.481 199.15 119.575 198.583 119.575 198.015ZM125.63 198.015C125.63 199.434 125.346 200.665 124.778 201.706C124.211 202.747 123.548 203.505 122.602 204.167C121.656 204.735 120.616 205.208 119.386 205.492C118.156 205.776 116.926 205.871 115.602 205.871H112.575V215.336H106.52V190.348H115.697C117.021 190.348 118.345 190.442 119.481 190.726C120.71 191.01 121.656 191.389 122.602 192.051C123.454 192.619 124.211 193.471 124.684 194.418C125.346 195.364 125.63 196.595 125.63 198.015Z" fill="white"/>
<path d="M81.9244 215.336V190.348H98.7633V195.364H87.7897V200.097H98.1011V204.924H87.7897V210.13H99.3309V215.336H81.9244Z" fill="white"/>
<path d="M177.944 202.654C177.944 201.613 177.755 200.572 177.377 199.625C176.998 198.679 176.525 197.921 175.958 197.164C175.295 196.502 174.539 195.934 173.687 195.555C172.836 195.176 171.795 194.987 170.755 194.987C169.714 194.987 168.768 195.176 167.822 195.555C166.971 195.934 166.214 196.502 165.552 197.164C164.889 197.827 164.416 198.679 164.133 199.625C163.754 200.572 163.66 201.613 163.66 202.654C163.66 203.79 163.849 204.831 164.227 205.778C164.606 206.724 165.079 207.576 165.646 208.239C166.308 208.901 166.971 209.469 167.917 209.848C168.768 210.226 169.714 210.416 170.849 210.416C171.984 210.416 172.836 210.226 173.782 209.848C174.633 209.469 175.39 208.901 176.052 208.239C176.714 207.576 177.187 206.724 177.566 205.778C177.755 204.831 177.944 203.79 177.944 202.654ZM184.377 202.654C184.377 204.642 183.999 206.44 183.336 208.049C182.674 209.658 181.728 211.078 180.498 212.214C179.269 213.35 177.85 214.296 176.147 214.959C174.444 215.622 172.647 215.906 170.755 215.906C168.768 215.906 166.971 215.622 165.362 214.959C163.66 214.296 162.241 213.445 161.105 212.214C159.876 211.078 158.93 209.658 158.267 208.049C157.605 206.44 157.227 204.642 157.227 202.654C157.227 200.666 157.605 198.868 158.267 197.259C158.93 195.65 159.876 194.324 161.105 193.189C162.335 192.053 163.754 191.201 165.362 190.538C167.065 189.97 168.863 189.592 170.755 189.592C172.741 189.592 174.539 189.876 176.147 190.538C177.85 191.106 179.269 192.053 180.498 193.189C181.728 194.324 182.674 195.65 183.336 197.259C184.093 198.868 184.377 200.666 184.377 202.654Z" fill="white"/>
<path d="M149.753 214.864C148.145 215.622 146.253 216 144.172 216C142.28 216 140.482 215.716 138.874 215.054C137.266 214.391 135.847 213.539 134.617 212.309C133.387 211.173 132.441 209.753 131.779 208.144C131.117 206.535 130.738 204.736 130.738 202.749C130.738 200.761 131.117 198.963 131.779 197.353C132.441 195.744 133.387 194.324 134.617 193.189C135.847 192.053 137.266 191.201 138.874 190.538C140.482 189.97 142.28 189.592 144.172 189.592C145.969 189.592 147.672 189.876 149.375 190.538C151.077 191.201 152.496 192.053 153.537 193.283L149.469 197.353C148.902 196.596 148.145 196.028 147.293 195.65C146.347 195.271 145.401 195.082 144.455 195.082C143.415 195.082 142.469 195.271 141.523 195.65C140.671 196.028 139.915 196.596 139.252 197.259C138.59 197.921 138.117 198.773 137.739 199.72C137.36 200.666 137.171 201.707 137.171 202.749C137.171 203.885 137.36 204.926 137.739 205.872C138.117 206.819 138.59 207.576 139.158 208.333C139.82 208.996 140.482 209.564 141.428 209.942C142.28 210.321 143.226 210.51 144.266 210.51C145.496 210.51 146.537 210.321 147.388 209.848C148.239 209.374 148.996 208.807 149.564 208.049L153.726 212.025C152.78 213.066 151.456 214.107 149.753 214.864Z" fill="white"/>
<path d="M24.0288 174.069C24.0288 174.447 24.1234 174.636 24.5018 174.731C24.7856 174.826 25.164 174.92 25.7317 174.92H26.8669V173.217H25.7317C25.164 173.217 24.7856 173.311 24.5018 173.406C24.218 173.501 24.0288 173.69 24.0288 174.069ZM26.0155 176.435C25.7317 176.435 25.4479 176.435 25.2586 176.53C24.9748 176.624 24.7856 176.719 24.5964 177.003C24.4072 177.192 24.3126 177.476 24.1234 177.855C24.0288 178.233 23.9342 178.612 23.8396 179.085H21.853C21.9476 178.139 22.2314 177.381 22.7044 176.814C23.0828 176.246 23.5558 175.962 24.1234 175.772C23.6504 175.678 23.1774 175.583 22.8936 175.299C22.5152 175.015 22.4206 174.542 22.4206 173.879C22.4206 173.501 22.5152 173.217 22.7044 172.933C22.8936 172.649 23.0828 172.459 23.3666 172.27C23.6504 172.081 23.9342 171.986 24.3126 171.892C24.691 171.797 25.0694 171.797 25.4478 171.797H28.8535V179.18H27.0561V176.53H26.0155V176.435Z" fill="white"/>
<path d="M210.203 173.973L206.325 179.084H204.527V171.701H206.325V176.623L210.203 171.701H212.001V179.084H210.203V173.973Z" fill="white"/>
<path d="M197.716 174.541C198 174.541 198.284 174.541 198.568 174.635L200.649 171.701H202.635L200.081 175.203C200.838 175.582 201.406 176.055 201.784 176.718C202.162 177.38 202.541 178.138 202.73 179.084H200.743C200.649 178.516 200.46 178.043 200.27 177.664C200.081 177.286 199.892 177.002 199.608 176.718C199.324 176.529 199.041 176.339 198.757 176.245C198.473 176.15 198.095 176.055 197.622 176.055V179.179H195.824V171.796H197.622V174.541H197.716Z" fill="white"/>
<path d="M191.756 173.973L187.972 179.084H186.08V171.701H187.972V176.623L191.756 171.701H193.553V179.084H191.756V173.973Z" fill="white"/>
<path d="M181.633 179.084H179.836V171.701H184.755V173.121H181.633V179.084Z" fill="white"/>
<path d="M165.835 179.084H164.038V171.701H168.957V173.121H165.835V179.084Z" fill="white"/>
<path d="M149.659 174.351L148.429 177.57H151.362L150.037 173.689L149.659 174.351ZM147.01 181.167H145.402V177.57H146.632L148.997 171.701H151.078L153.254 177.57H154.484V181.167H152.875V179.084H146.916V181.167H147.01Z" fill="white"/>
<path d="M130.36 179.084H128.563V171.701H135.374V179.084H133.482V173.121H130.36V179.084Z" fill="white"/>
<path d="M98.1963 179.084H96.3989V171.701H98.1963V174.541H101.507V171.701H103.305V179.084H101.507V175.961H98.1963V179.084Z" fill="white"/>
<path d="M88.5464 171.701H95.0738V173.121H92.6142V179.084H90.8168V173.121H88.5464V171.701Z" fill="white"/>
<path d="M64.9905 179.084H63.0985V171.701H64.9905V174.541H68.2069V171.701H70.0044V179.084H68.2069V175.961H64.9905V179.084Z" fill="white"/>
<path d="M51.6523 179.084L49.6657 173.878L47.5845 179.084H45.6925L48.6251 171.701H50.7063L53.5443 179.084H51.6523Z" fill="white"/>
<path d="M29.7997 171.701H36.3271V173.121H33.8675V179.084H32.0701V173.121H29.7997V171.701Z" fill="white"/>
<path d="M7.66255 174.351L6.43274 177.57H9.36536L8.04095 173.689L7.66255 174.351ZM5.01373 181.167H3.40552V177.57H4.63533L7.00034 171.701H9.08156L11.2574 177.57H12.4872V181.167H10.879V179.084H5.01373V181.167Z" fill="white"/>
<path d="M56.761 177.76H58.18C58.653 177.76 59.0314 177.665 59.3152 177.476C59.599 177.287 59.7882 177.003 59.7882 176.529C59.7882 176.34 59.7882 176.151 59.6936 175.961C59.599 175.772 59.5044 175.678 59.3152 175.583C59.126 175.488 59.0314 175.394 58.8422 175.394C58.653 175.394 58.4638 175.299 58.18 175.299H56.761V177.76ZM56.761 171.702V174.068H58.4638C59.0314 174.068 59.5044 174.163 59.8828 174.258C60.2613 174.352 60.5451 174.542 60.8289 174.826C61.1127 175.015 61.2073 175.299 61.3019 175.583C61.3965 175.867 61.4911 176.245 61.4911 176.529C61.4911 176.908 61.3965 177.192 61.3019 177.476C61.2073 177.76 61.0181 178.044 60.7343 178.233C60.4504 178.422 60.1667 178.612 59.7882 178.801C59.4098 178.896 59.0314 178.99 58.4638 178.99H54.869V171.607H56.761V171.702Z" fill="white"/>
<path d="M142.942 174.635C142.942 174.067 142.753 173.689 142.469 173.31C142.185 172.932 141.712 172.742 141.05 172.742C140.766 172.742 140.482 172.837 140.199 172.932C139.915 173.026 139.726 173.215 139.536 173.31C139.347 173.499 139.253 173.689 139.063 173.878C138.969 174.067 138.874 174.351 138.874 174.635H142.942ZM144.645 175.298V175.582C144.645 175.676 144.645 175.771 144.645 175.866H138.969C138.969 176.15 139.063 176.434 139.158 176.623C139.253 176.907 139.442 177.096 139.631 177.286C139.82 177.475 140.009 177.57 140.293 177.664C140.577 177.759 140.861 177.853 141.145 177.853C141.618 177.853 141.996 177.759 142.374 177.57C142.753 177.38 142.942 177.096 143.131 176.907L144.456 177.759C144.077 178.327 143.604 178.705 143.037 178.895C142.469 179.179 141.901 179.273 141.145 179.273C140.577 179.273 140.104 179.179 139.631 178.989C139.158 178.8 138.685 178.516 138.401 178.232C138.023 177.854 137.739 177.475 137.55 177.002C137.361 176.528 137.266 175.96 137.266 175.393C137.266 174.825 137.361 174.257 137.55 173.783C137.739 173.31 138.023 172.932 138.401 172.553C138.78 172.174 139.158 171.985 139.631 171.796C140.104 171.606 140.577 171.512 141.145 171.512C141.712 171.512 142.185 171.606 142.658 171.796C143.131 171.985 143.51 172.269 143.793 172.553C144.077 172.932 144.361 173.31 144.55 173.783C144.645 174.162 144.645 174.73 144.645 175.298Z" fill="white"/>
<path d="M42.9486 174.635C42.9486 174.067 42.7594 173.689 42.4756 173.31C42.1918 172.932 41.7188 172.742 41.0566 172.742C40.7728 172.742 40.489 172.837 40.2052 172.932C39.9214 173.026 39.7322 173.215 39.543 173.31C39.3538 173.499 39.2592 173.689 39.07 173.878C38.9754 174.067 38.8808 174.351 38.8808 174.635H42.9486ZM44.746 175.298V175.582C44.746 175.676 44.746 175.771 44.746 175.866H39.07C39.07 176.15 39.1646 176.434 39.2592 176.623C39.3538 176.907 39.543 177.096 39.7322 177.286C39.9214 177.475 40.1106 177.57 40.3944 177.664C40.6782 177.759 40.962 177.853 41.2458 177.853C41.7188 177.853 42.0972 177.759 42.4756 177.57C42.854 177.38 43.0432 177.096 43.2324 176.907L44.5568 177.759C44.1784 178.327 43.7054 178.705 43.1378 178.895C42.5702 179.179 42.0026 179.273 41.2458 179.273C40.6782 179.273 40.2052 179.179 39.7322 178.989C39.2592 178.8 38.7862 178.516 38.5024 178.232C38.124 177.854 37.8402 177.475 37.651 177.002C37.4618 176.528 37.3672 175.96 37.3672 175.393C37.3672 174.825 37.4618 174.257 37.651 173.783C37.8402 173.31 38.124 172.932 38.5024 172.553C38.8808 172.174 39.2592 171.985 39.7322 171.796C40.2052 171.606 40.6782 171.512 41.2458 171.512C41.8134 171.512 42.2864 171.606 42.7594 171.796C43.2324 171.985 43.6108 172.269 43.8946 172.553C44.1784 172.932 44.4622 173.31 44.6514 173.783C44.6514 174.162 44.746 174.73 44.746 175.298Z" fill="white"/>
<path d="M19.0153 174.635C19.0153 174.067 18.8261 173.689 18.5423 173.31C18.2585 172.932 17.7855 172.742 17.1233 172.742C16.8395 172.742 16.5557 172.837 16.2719 172.932C15.988 173.026 15.7988 173.215 15.6096 173.31C15.4204 173.499 15.3258 173.689 15.1366 173.878C15.042 174.067 14.9474 174.351 14.9474 174.635H19.0153ZM20.7181 175.298V175.582C20.7181 175.676 20.7181 175.771 20.7181 175.866H15.042C15.042 176.15 15.1366 176.434 15.2312 176.623C15.3258 176.907 15.515 177.096 15.7042 177.286C15.8934 177.475 16.0826 177.57 16.3665 177.664C16.6503 177.759 16.9341 177.853 17.2179 177.853C17.6909 177.853 18.0693 177.759 18.4477 177.57C18.8261 177.38 19.0153 177.096 19.2045 176.907L20.5289 177.759C20.1505 178.327 19.6775 178.705 19.1099 178.895C18.5423 179.179 17.9747 179.273 17.2179 179.273C16.6503 179.273 16.1773 179.179 15.7042 178.989C15.2312 178.8 14.7582 178.516 14.4744 178.232C14.096 177.854 13.8122 177.475 13.623 177.002C13.4338 176.528 13.3392 175.96 13.3392 175.393C13.3392 174.825 13.4338 174.257 13.623 173.783C13.8122 173.31 14.096 172.932 14.4744 172.553C14.8528 172.174 15.2312 171.985 15.7042 171.796C16.1773 171.606 16.6503 171.512 17.2179 171.512C17.7855 171.512 18.2585 171.606 18.7315 171.796C19.2045 171.985 19.5829 172.269 19.8667 172.553C20.1505 172.932 20.4343 173.31 20.6235 173.783C20.6235 174.162 20.7181 174.73 20.7181 175.298Z" fill="white"/>
<path d="M176.147 175.393C176.147 175.109 176.052 174.731 175.958 174.447C175.863 174.163 175.674 173.879 175.485 173.69C175.295 173.5 175.106 173.311 174.822 173.216C174.539 173.122 174.255 173.027 173.876 173.027C173.498 173.027 173.214 173.122 172.93 173.216C172.647 173.311 172.457 173.5 172.268 173.69C172.079 173.879 171.89 174.163 171.795 174.447C171.701 174.731 171.606 175.015 171.606 175.393C171.606 175.677 171.701 176.056 171.795 176.34C171.89 176.624 172.079 176.908 172.268 177.097C172.457 177.287 172.647 177.476 172.93 177.57C173.214 177.665 173.498 177.76 173.876 177.76C174.255 177.76 174.539 177.665 174.822 177.57C175.106 177.476 175.295 177.287 175.485 177.097C175.674 176.908 175.768 176.624 175.958 176.34C176.147 175.961 176.147 175.677 176.147 175.393ZM178.039 175.299C178.039 175.867 177.944 176.435 177.755 176.908C177.566 177.381 177.282 177.76 176.904 178.138C176.525 178.517 176.147 178.706 175.579 178.896C175.106 179.085 174.539 179.18 173.971 179.18C173.403 179.18 172.836 179.085 172.363 178.896C171.89 178.706 171.417 178.422 171.133 178.138C170.755 177.76 170.471 177.381 170.282 176.908C170.092 176.435 169.998 175.867 169.998 175.299C169.998 174.731 170.092 174.163 170.282 173.69C170.471 173.216 170.755 172.838 171.133 172.459C171.511 172.081 171.89 171.891 172.363 171.702C172.836 171.513 173.403 171.418 173.971 171.418C174.539 171.418 175.106 171.513 175.579 171.702C176.052 171.891 176.525 172.175 176.904 172.459C177.282 172.838 177.566 173.216 177.755 173.69C177.85 174.258 178.039 174.731 178.039 175.299Z" fill="white"/>
<path d="M159.875 175.583C159.497 175.583 159.213 175.583 158.835 175.583C158.456 175.583 158.172 175.677 157.889 175.772C157.605 175.867 157.416 175.961 157.226 176.151C157.037 176.34 156.943 176.529 156.943 176.813C156.943 177.003 156.943 177.192 157.037 177.287C157.132 177.381 157.226 177.57 157.321 177.57C157.416 177.665 157.605 177.665 157.794 177.76C157.983 177.76 158.078 177.854 158.267 177.854C158.835 177.854 159.308 177.665 159.686 177.287C159.97 176.908 160.159 176.435 160.159 175.867V175.488H159.875V175.583ZM160.159 174.258C160.159 173.784 159.97 173.406 159.686 173.216C159.402 173.027 159.024 172.838 158.551 172.838C158.172 172.838 157.794 172.932 157.416 173.027C157.037 173.216 156.753 173.406 156.564 173.595L155.618 172.554C155.997 172.175 156.47 171.891 157.037 171.702C157.605 171.513 158.172 171.418 158.74 171.418C159.686 171.418 160.443 171.607 161.01 172.081C161.578 172.554 161.862 173.216 161.862 174.258C161.862 174.447 161.862 174.542 161.862 174.731C161.862 174.826 161.862 175.015 161.862 175.204V177.57C161.862 177.854 161.862 178.138 161.862 178.328C161.862 178.612 161.862 178.896 161.862 179.085H160.159C160.159 178.896 160.159 178.801 160.159 178.612C160.159 178.422 160.159 178.328 160.159 178.138C159.875 178.517 159.591 178.801 159.213 178.99C158.835 179.18 158.362 179.274 157.889 179.274C157.605 179.274 157.321 179.274 157.037 179.18C156.753 179.085 156.47 178.99 156.186 178.801C155.902 178.612 155.713 178.422 155.524 178.138C155.334 177.854 155.24 177.476 155.24 177.097C155.24 176.529 155.429 176.151 155.713 175.772C155.997 175.488 156.375 175.204 156.848 175.015C157.321 174.825 157.889 174.731 158.456 174.636C159.024 174.542 159.686 174.542 160.254 174.542V174.258H160.159Z" fill="white"/>
<path d="M111.345 175.393C111.345 175.109 111.251 174.731 111.156 174.447C111.061 174.163 110.872 173.879 110.683 173.69C110.494 173.5 110.305 173.311 110.021 173.216C109.737 173.122 109.453 173.027 109.075 173.027C108.696 173.027 108.413 173.122 108.129 173.216C107.845 173.311 107.656 173.5 107.467 173.69C107.277 173.879 107.088 174.163 106.994 174.447C106.899 174.731 106.804 175.015 106.804 175.393C106.804 175.677 106.899 176.056 106.994 176.34C107.088 176.624 107.277 176.908 107.467 177.097C107.656 177.287 107.845 177.476 108.129 177.57C108.413 177.665 108.696 177.76 109.075 177.76C109.453 177.76 109.737 177.665 110.021 177.57C110.305 177.476 110.494 177.287 110.683 177.097C110.872 176.908 110.967 176.624 111.156 176.34C111.345 175.961 111.345 175.677 111.345 175.393ZM113.237 175.299C113.237 175.867 113.143 176.435 112.953 176.908C112.764 177.381 112.48 177.76 112.102 178.138C111.724 178.517 111.345 178.706 110.778 178.896C110.305 179.085 109.737 179.18 109.169 179.18C108.602 179.18 108.034 179.085 107.561 178.896C107.088 178.706 106.615 178.422 106.331 178.138C105.953 177.76 105.669 177.381 105.48 176.908C105.291 176.435 105.196 175.867 105.196 175.299C105.196 174.731 105.291 174.163 105.48 173.69C105.669 173.216 105.953 172.838 106.331 172.459C106.71 172.081 107.088 171.891 107.561 171.702C108.034 171.513 108.602 171.418 109.169 171.418C109.737 171.418 110.305 171.513 110.778 171.702C111.251 171.891 111.724 172.175 112.102 172.459C112.48 172.838 112.764 173.216 112.953 173.69C113.048 174.258 113.237 174.731 113.237 175.299Z" fill="white"/>
<path d="M86.9385 173.784C86.7493 173.595 86.5601 173.406 86.2763 173.216C85.9925 173.122 85.7087 173.027 85.3303 173.027C84.9519 173.027 84.6681 173.122 84.3843 173.216C84.1005 173.311 83.9113 173.5 83.7221 173.69C83.5329 173.879 83.3437 174.163 83.2491 174.447C83.1545 174.731 83.0599 175.015 83.0599 175.393C83.0599 175.677 83.1545 176.056 83.2491 176.34C83.3437 176.624 83.5329 176.908 83.7221 177.097C83.9113 177.287 84.1951 177.476 84.3843 177.57C84.6681 177.665 84.9519 177.76 85.3303 177.76C85.7087 177.76 85.9925 177.665 86.2763 177.57C86.5601 177.476 86.7493 177.287 86.9385 177.003L88.0737 178.138C87.7899 178.517 87.4115 178.706 86.9385 178.896C86.4655 179.085 85.8979 179.18 85.3303 179.18C84.7627 179.18 84.1951 179.085 83.7221 178.896C83.2491 178.706 82.7761 178.422 82.3977 178.138C82.0193 177.76 81.7354 177.381 81.5462 176.908C81.357 176.435 81.2625 175.867 81.2625 175.299C81.2625 174.731 81.357 174.163 81.5462 173.69C81.7354 173.216 82.0193 172.838 82.3977 172.459C82.7761 172.081 83.1545 171.891 83.7221 171.702C84.2897 171.513 84.7627 171.418 85.3303 171.418C85.8033 171.418 86.3709 171.513 86.8439 171.702C87.3169 171.891 87.7899 172.175 88.0737 172.554L86.9385 173.784Z" fill="white"/>
<path d="M78.1402 175.393C78.1402 175.109 78.0456 174.731 77.951 174.447C77.8564 174.163 77.6672 173.879 77.478 173.69C77.2888 173.5 77.0996 173.311 76.8158 173.216C76.532 173.122 76.2482 173.027 75.8698 173.027C75.4914 173.027 75.2076 173.122 74.9238 173.216C74.64 173.311 74.4508 173.5 74.2616 173.69C74.0724 173.879 73.8832 174.163 73.7886 174.447C73.694 174.731 73.5994 175.015 73.5994 175.393C73.5994 175.677 73.694 176.056 73.7886 176.34C73.8832 176.624 74.0724 176.908 74.2616 177.097C74.4508 177.287 74.64 177.476 74.9238 177.57C75.2076 177.665 75.4914 177.76 75.8698 177.76C76.2482 177.76 76.532 177.665 76.8158 177.57C77.0996 177.476 77.2888 177.287 77.478 177.097C77.6672 176.908 77.7618 176.624 77.951 176.34C78.0456 175.961 78.1402 175.677 78.1402 175.393ZM79.9377 175.299C79.9377 175.867 79.843 176.435 79.6538 176.908C79.4646 177.381 79.1809 177.76 78.8024 178.138C78.424 178.517 78.0456 178.706 77.478 178.896C77.005 179.085 76.4374 179.18 75.8698 179.18C75.3022 179.18 74.7346 179.085 74.2616 178.896C73.7886 178.706 73.3156 178.422 73.0318 178.138C72.6534 177.76 72.3696 177.381 72.1804 176.908C71.9912 176.435 71.8966 175.867 71.8966 175.299C71.8966 174.731 71.9912 174.163 72.1804 173.69C72.3696 173.216 72.6534 172.838 73.0318 172.459C73.4102 172.081 73.7886 171.891 74.2616 171.702C74.7346 171.513 75.3022 171.418 75.8698 171.418C76.4374 171.418 77.005 171.513 77.478 171.702C77.951 171.891 78.424 172.175 78.8024 172.459C79.1809 172.838 79.4646 173.216 79.6538 173.69C79.843 174.258 79.9377 174.731 79.9377 175.299Z" fill="white"/>
<path d="M116.264 168.672C116.359 168.862 116.453 169.051 116.643 169.24C116.832 169.43 117.021 169.619 117.21 169.714C117.399 169.903 117.683 169.998 117.967 170.092C118.251 170.187 118.535 170.187 118.913 170.187C119.197 170.187 119.481 170.187 119.764 170.092C120.048 169.998 120.332 169.903 120.521 169.714C120.71 169.524 120.9 169.43 121.089 169.24C121.278 169.051 121.373 168.862 121.467 168.672L120.521 168.199C120.427 168.483 120.237 168.767 119.859 168.956C119.575 169.146 119.197 169.24 118.913 169.24C118.535 169.24 118.251 169.146 117.967 168.956C117.683 168.767 117.494 168.483 117.305 168.199L116.264 168.672ZM120.71 173.973L116.926 178.99H115.129V171.607H116.926V176.529L120.71 171.607H122.508V178.99H120.71V173.973Z" fill="white"/>
<path d="M149.564 156.084H145.875V157.598H149.564V156.084Z" fill="white"/>
<path d="M64.1399 153.244H70.6673V154.664H68.3023V160.627H66.4103V154.664H64.1399V153.244Z" fill="white"/>
<path d="M59.9771 158.639L61.8691 153.244H63.8557L60.6393 161.574C60.4501 161.952 60.3555 162.331 60.1663 162.71C59.9771 163.088 59.7879 163.372 59.5987 163.561C59.4095 163.751 59.1257 163.94 58.7473 164.129C58.4635 164.224 58.0851 164.319 57.6121 164.319C57.4229 164.319 57.2337 164.319 57.0445 164.319C56.8553 164.319 56.6661 164.224 56.4769 164.224L56.6661 162.615C56.7607 162.615 56.9499 162.71 57.0445 162.71C57.1391 162.71 57.3283 162.71 57.4229 162.71C57.8013 162.71 58.0851 162.615 58.2743 162.426C58.4635 162.236 58.6527 161.952 58.7473 161.574L59.1257 160.532L56.0039 153.244H57.9905L59.9771 158.639Z" fill="white"/>
<path d="M49.0984 153.244H55.6258V154.664H53.1662V160.627H51.3688V154.664H49.0984V153.244Z" fill="white"/>
<path d="M45.8814 155.516L42.0973 160.627H40.2053V153.244H42.0973V158.166L45.8814 153.244H47.6788V160.627H45.8814V155.516Z" fill="white"/>
<path d="M32.3536 153.244H38.8811V154.664H36.5161V160.627H34.6241V154.664H32.3536V153.244Z" fill="white"/>
<path d="M18.2583 160.627H16.4609V153.244H18.2583V156.084H21.5694V153.244H23.3668V160.627H21.5694V157.504H18.2583V160.627Z" fill="white"/>
<path d="M129.508 160.627H127.711V153.244H129.508V156.084H132.819V153.244H134.617V160.627H132.819V157.504H129.508V160.627Z" fill="white"/>
<path d="M118.346 153.244L121.09 156.557L123.833 153.244H125.441V160.627H123.644V155.8L121.279 158.829H120.901L118.536 155.8V160.627H116.738V153.244H118.346Z" fill="white"/>
<path d="M99.9934 153.244H106.426V154.664H104.061V160.627H102.264V154.664H99.9934V153.244Z" fill="white"/>
<path d="M89.1139 155.516L85.3299 160.627H83.4379V153.244H85.3299V158.166L89.1139 153.244H90.9113V160.627H89.1139V155.516Z" fill="white"/>
<path d="M113.143 156.178C113.143 155.61 112.954 155.232 112.67 154.853C112.386 154.475 111.913 154.285 111.251 154.285C110.967 154.285 110.683 154.38 110.4 154.474C110.116 154.569 109.927 154.758 109.737 154.853C109.548 155.042 109.454 155.232 109.264 155.421C109.17 155.61 109.075 155.894 109.075 156.178H113.143ZM114.94 156.841V157.125C114.94 157.219 114.94 157.314 114.94 157.409H109.264C109.264 157.693 109.359 157.977 109.454 158.166C109.548 158.45 109.737 158.639 109.927 158.829C110.116 159.018 110.305 159.113 110.589 159.207C110.873 159.302 111.156 159.396 111.44 159.396C111.913 159.396 112.292 159.302 112.67 159.113C113.048 158.923 113.238 158.639 113.427 158.45L114.751 159.302C114.373 159.87 113.9 160.248 113.332 160.438C112.765 160.722 112.197 160.816 111.44 160.816C110.873 160.816 110.4 160.722 109.927 160.532C109.454 160.343 108.981 160.059 108.697 159.775C108.318 159.396 108.035 159.018 107.845 158.545C107.656 158.071 107.562 157.503 107.562 156.935C107.562 156.368 107.656 155.8 107.845 155.326C108.035 154.853 108.318 154.474 108.697 154.096C109.075 153.717 109.454 153.528 109.927 153.339C110.4 153.149 110.873 153.055 111.44 153.055C112.008 153.055 112.481 153.149 112.954 153.339C113.427 153.528 113.805 153.812 114.089 154.096C114.373 154.474 114.657 154.853 114.846 155.326C114.846 155.8 114.94 156.273 114.94 156.841Z" fill="white"/>
<path d="M30.84 155.327C30.6508 155.138 30.4616 154.949 30.1778 154.759C29.894 154.665 29.6102 154.57 29.2318 154.57C28.8534 154.57 28.5696 154.665 28.2858 154.759C28.002 154.854 27.8128 155.043 27.6236 155.233C27.4344 155.422 27.2452 155.706 27.1506 155.99C27.056 156.274 26.9614 156.558 26.9614 156.936C26.9614 157.22 27.056 157.599 27.1506 157.883C27.2452 158.167 27.4344 158.451 27.6236 158.64C27.8128 158.829 28.0966 159.019 28.2858 159.113C28.5696 159.208 28.8534 159.303 29.2318 159.303C29.6102 159.303 29.894 159.208 30.1778 159.113C30.4616 159.019 30.6508 158.829 30.84 158.546L31.9752 159.681C31.6914 160.06 31.313 160.249 30.84 160.439C30.367 160.628 29.7994 160.723 29.2318 160.723C28.6642 160.723 28.0966 160.628 27.6236 160.439C27.1506 160.249 26.6775 159.965 26.2991 159.681C25.9207 159.303 25.6369 158.924 25.4477 158.451C25.2585 157.978 25.1639 157.41 25.1639 156.842C25.1639 156.274 25.2585 155.706 25.4477 155.233C25.6369 154.759 25.9207 154.381 26.2991 154.002C26.6775 153.624 27.056 153.434 27.6236 153.245C28.1912 153.056 28.6642 152.961 29.2318 152.961C29.7048 152.961 30.2724 153.056 30.7454 153.245C31.2184 153.434 31.6914 153.718 31.9752 154.097L30.84 155.327Z" fill="white"/>
<path d="M142.659 156.936C142.659 156.652 142.564 156.274 142.469 155.99C142.375 155.706 142.186 155.422 141.996 155.233C141.807 155.043 141.618 154.854 141.334 154.759C141.05 154.665 140.767 154.57 140.388 154.57C140.01 154.57 139.726 154.665 139.442 154.759C139.158 154.854 138.969 155.043 138.78 155.233C138.591 155.422 138.402 155.706 138.307 155.99C138.212 156.274 138.118 156.558 138.118 156.936C138.118 157.22 138.212 157.599 138.307 157.883C138.402 158.167 138.591 158.451 138.78 158.64C138.969 158.829 139.158 159.019 139.442 159.113C139.726 159.208 140.01 159.303 140.388 159.303C140.767 159.303 141.05 159.208 141.334 159.113C141.618 159.019 141.807 158.829 141.996 158.64C142.186 158.451 142.28 158.167 142.469 157.883C142.659 157.504 142.659 157.22 142.659 156.936ZM144.551 156.842C144.551 157.41 144.456 157.978 144.267 158.451C144.078 158.924 143.794 159.303 143.415 159.681C143.037 160.06 142.659 160.249 142.091 160.439C141.618 160.628 141.05 160.723 140.483 160.723C139.915 160.723 139.348 160.628 138.875 160.439C138.402 160.249 137.929 159.965 137.645 159.681C137.266 159.303 136.983 158.924 136.793 158.451C136.604 157.978 136.51 157.41 136.51 156.842C136.51 156.274 136.604 155.706 136.793 155.233C136.983 154.759 137.266 154.381 137.645 154.002C138.023 153.624 138.402 153.434 138.875 153.245C139.348 153.056 139.915 152.961 140.483 152.961C141.05 152.961 141.618 153.056 142.091 153.245C142.564 153.434 143.037 153.718 143.415 154.002C143.794 154.381 144.078 154.759 144.267 155.233C144.456 155.801 144.551 156.274 144.551 156.842Z" fill="white"/>
<path d="M98.3847 155.327C98.1955 155.138 98.0063 154.949 97.7225 154.759C97.4387 154.665 97.1549 154.57 96.7764 154.57C96.398 154.57 96.1142 154.665 95.8304 154.759C95.5466 154.854 95.3574 155.043 95.1682 155.233C94.979 155.422 94.7898 155.706 94.6952 155.99C94.6006 156.274 94.506 156.558 94.506 156.936C94.506 157.22 94.6006 157.599 94.6952 157.883C94.7898 158.167 94.979 158.451 95.1682 158.64C95.3574 158.829 95.6412 159.019 95.8304 159.113C96.1142 159.208 96.398 159.303 96.7764 159.303C97.1549 159.303 97.4387 159.208 97.7225 159.113C98.0063 159.019 98.1955 158.829 98.3847 158.546L99.5199 159.681C99.2361 160.06 98.8577 160.249 98.3847 160.439C97.9117 160.628 97.3441 160.723 96.7764 160.723C96.2088 160.723 95.6412 160.628 95.1682 160.439C94.6952 160.249 94.2222 159.965 93.8438 159.681C93.4654 159.303 93.1816 158.924 92.9924 158.451C92.8032 157.978 92.7086 157.41 92.7086 156.842C92.7086 156.274 92.8032 155.706 92.9924 155.233C93.1816 154.759 93.4654 154.381 93.8438 154.002C94.2222 153.624 94.6006 153.434 95.1682 153.245C95.7358 153.056 96.2088 152.961 96.7764 152.961C97.2495 152.961 97.8171 153.056 98.2901 153.245C98.7631 153.434 99.2361 153.718 99.5199 154.097L98.3847 155.327Z" fill="white"/>
<path d="M81.0729 155.327C80.8837 155.138 80.6945 154.949 80.4107 154.759C80.1269 154.665 79.8431 154.57 79.4647 154.57C79.0863 154.57 78.8025 154.665 78.5187 154.759C78.2349 154.854 78.0457 155.043 77.8565 155.233C77.6673 155.422 77.4781 155.706 77.3835 155.99C77.2889 156.274 77.1943 156.558 77.1943 156.936C77.1943 157.22 77.2889 157.599 77.3835 157.883C77.4781 158.167 77.6673 158.451 77.8565 158.64C78.0457 158.829 78.3295 159.019 78.5187 159.113C78.8025 159.208 79.0863 159.303 79.4647 159.303C79.8431 159.303 80.1269 159.208 80.4107 159.113C80.6945 159.019 80.8837 158.829 81.0729 158.546L82.2081 159.681C81.9243 160.06 81.5459 160.249 81.0729 160.439C80.5999 160.628 80.0323 160.723 79.4647 160.723C78.8971 160.723 78.3295 160.628 77.8565 160.439C77.3835 160.249 76.9105 159.965 76.5321 159.681C76.1537 159.303 75.8699 158.924 75.6807 158.451C75.4915 157.978 75.3969 157.41 75.3969 156.842C75.3969 156.274 75.4915 155.706 75.6807 155.233C75.8699 154.759 76.1537 154.381 76.5321 154.002C76.9105 153.624 77.2889 153.434 77.8565 153.245C78.4241 153.056 78.8971 152.961 79.4647 152.961C79.9377 152.961 80.5053 153.056 80.9783 153.245C81.4513 153.434 81.9243 153.718 82.2081 154.097L81.0729 155.327Z" fill="white"/>
<path d="M6.52739 157.882L11.825 149.836H14.0954V160.627H12.2034V152.486H12.1088L6.81119 160.627H4.63538V149.836H6.52739V157.882Z" fill="white"/>
<path d="M80.5998 66.4467C81.735 66.4467 83.0594 66.1627 83.9108 66.92C85.1406 68.0558 85.4244 69.9489 85.992 71.558C86.6542 73.4511 86.8434 73.735 87.3164 75.7228C87.7894 77.8051 88.357 79.8875 88.6408 81.9699C88.83 82.9165 89.3031 83.9576 88.83 84.8095C88.357 85.6614 87.2218 86.04 86.2758 86.04C85.4244 86.1347 84.4784 85.7561 83.9108 85.1881C83.3432 84.6202 83.0594 83.7683 82.8702 82.9165C82.4918 81.4966 82.4918 79.9822 82.208 78.5624C81.8296 77.1426 81.1674 75.8174 80.789 74.3976C80.4106 72.9778 80.789 73.2618 80.316 71.9366C79.9376 70.8954 78.8024 70.1382 78.5186 69.097C78.3294 68.4344 78.5186 67.6772 78.897 67.1093C79.37 66.636 80.0322 66.4467 80.5998 66.4467Z" fill="#F4964E"/>
<path d="M40.4895 42.9724C39.7327 42.2151 38.8813 41.5526 38.0299 40.9846C37.1785 40.4167 36.1379 40.0381 35.1919 39.6595C33.7729 39.0916 32.4485 38.3343 30.9349 38.0504C29.2321 37.7664 27.5292 37.9557 25.8264 38.0504C24.4074 38.145 22.8938 38.2397 21.4748 38.5236C19.9612 38.8076 18.5422 39.2809 17.1232 39.9434C15.7042 40.5114 14.1906 41.2686 12.9607 42.2151C11.4471 43.2563 10.1227 44.5815 8.89292 45.9066C8.04151 46.8532 7.37931 47.8944 6.7171 49.0302C6.1495 49.9767 5.7711 51.0179 5.39269 52.1538C5.01429 53.195 4.82509 54.5201 4.54129 55.656C4.91969 55.656 5.39269 55.7506 5.7711 55.8453C5.8657 55.372 6.0549 54.9934 6.1495 54.5201C6.3387 53.9522 6.6225 53.6682 6.9063 53.195C6.6225 55.0881 6.2441 56.4132 6.0549 58.2116C5.8657 59.6314 5.8657 61.0512 5.7711 62.471C6.1495 62.471 6.6225 62.755 6.9063 62.9443C7.00091 62.2817 6.9063 61.3352 7.09551 60.6726C7.19011 60.1994 7.37931 59.4421 7.56851 58.9689C7.47391 60.6726 7.19011 62.5657 7.28471 64.2695C7.28471 65.7839 7.47391 67.3931 7.56851 68.9075C7.94691 69.2861 8.51451 69.5701 8.89292 69.9487C8.79832 69.1915 8.60912 68.5289 8.60912 67.7717C8.60912 67.1091 8.70372 66.3519 8.79832 65.6893C9.36592 67.0144 9.64972 68.5289 10.3119 69.8541C10.8795 70.9899 11.6363 72.1257 12.2985 73.2616C12.8661 73.4509 13.4337 73.6402 14.0014 73.7349C13.7175 73.0723 13.4337 72.4097 13.4337 71.5578C13.9068 72.1257 14.1906 72.883 14.7582 73.3562C15.3258 73.9242 16.2718 74.6814 16.8394 75.2493C17.1232 75.1547 17.3124 75.1547 17.5962 75.1547C17.2178 74.3974 16.6502 73.4509 16.1772 72.6937C15.8934 72.0311 15.8934 71.1792 15.7042 70.5166C16.2718 71.3685 16.6502 72.4097 17.3124 73.1669C17.9746 73.9242 18.4476 75.1547 18.9206 76.2905C19.299 76.2905 19.772 76.3852 20.1504 76.3852C20.4342 75.6279 20.245 74.8707 20.245 74.0188C20.6234 74.9654 21.0964 75.9119 21.0018 77.0477C21.2856 77.0477 21.5694 77.0477 21.9478 77.0477C22.4208 76.4798 22.61 75.4386 22.61 74.776C22.7046 75.5333 22.7992 76.3852 22.61 77.4264C22.8938 77.521 23.1776 77.521 23.4614 77.6157C23.9344 77.1424 24.3128 76.6691 24.502 76.1959C24.6912 76.6691 24.6912 77.237 24.5966 77.7103C24.8804 77.805 25.0696 77.9943 25.3534 78.0889C26.394 77.6157 26.867 77.0477 27.5292 76.1959C28.0022 75.6279 28.286 74.6814 28.8536 74.1135C29.7051 74.3974 30.6511 74.5867 31.4079 75.06C32.1647 75.4386 32.8269 76.0065 33.2053 76.7638C33.3945 77.0477 33.0161 77.4264 32.7323 77.6157C31.7863 77.9943 30.7457 77.9943 29.7997 78.3729C29.4213 78.5622 29.1375 79.0355 28.6644 79.1301C27.34 79.5087 26.0156 79.5087 24.5966 79.6034C23.2722 79.7927 21.9478 79.982 20.6234 80.0767C19.9612 80.266 19.299 80.3606 18.6368 80.5499C16.934 80.0767 15.3258 79.6034 13.6229 79.2248C12.1093 78.9408 10.5011 78.8462 8.89292 78.7515C8.23071 78.6568 7.56851 78.4675 7.00091 78.3729C6.0549 78.0889 5.01429 77.9943 3.97368 77.9943C3.59528 77.9943 3.21688 78.2782 3.50068 78.5622C3.78448 79.0355 4.44669 79.1301 4.91969 79.5087C4.63589 79.698 4.35209 79.8874 4.06829 79.982C3.31148 80.3606 2.55468 80.6446 1.79787 80.9285C1.23027 81.1179 0.378861 80.9285 0.000457995 81.4018C-0.188743 81.7804 0.473461 82.159 0.851864 82.3484C1.41947 82.6323 2.08167 82.727 2.74388 82.8216C3.68988 82.9163 4.63589 83.0109 5.5819 83.0109C6.2441 83.0109 6.9063 82.9163 7.56851 83.0109C8.23071 83.1056 8.89292 83.5788 9.55512 83.7682C10.6903 84.1468 11.8255 84.5254 13.0553 84.7147C14.569 84.9987 16.1772 85.0933 17.6908 85.3773C17.9746 85.4719 18.1638 85.7559 18.5422 85.7559C18.826 85.7559 19.1098 85.4719 19.3936 85.5666C20.718 85.8505 22.0424 86.4185 23.3668 86.6078C24.8804 86.8917 26.394 86.9864 28.0022 87.081C29.1375 87.081 30.1781 86.9864 31.3133 86.9864C31.9755 88.0276 32.5431 88.9741 33.2053 90.0153C33.8675 91.0565 34.7189 92.003 35.2865 93.0442C35.7595 93.9908 36.0433 95.032 36.3271 96.0732C36.5163 96.925 36.6109 97.8716 36.5163 98.7235C36.4217 99.2914 35.9487 99.67 35.7595 100.143C35.4757 100.995 35.1919 101.847 35.0973 102.699C35.0027 103.456 34.9081 104.213 35.0027 104.971C35.0973 105.539 35.3811 106.201 35.6649 106.674C35.9487 107.242 36.4217 107.81 36.8001 108.378C35.9487 109.23 34.9081 109.987 34.1513 110.934C33.2053 112.07 32.3539 113.3 31.6917 114.531C31.4079 115.099 31.3133 115.761 31.1241 116.329C30.6511 116.14 30.1781 115.95 29.6105 115.856C28.5698 115.666 27.5292 115.666 26.394 115.666C25.7318 115.666 25.1642 115.856 24.502 115.856C23.4614 115.761 22.4208 115.666 21.4748 115.288C20.9072 115.099 20.5288 114.436 19.9612 114.152C19.4882 113.868 18.9206 113.773 18.353 113.773C17.88 113.773 17.5016 114.057 17.2178 114.436C16.6502 115.004 16.3664 115.856 15.8934 116.518C15.515 116.992 15.1366 117.56 14.6636 117.938C13.8122 118.506 12.7715 118.695 12.0147 119.358C11.3525 119.926 11.0687 120.683 10.6903 121.44C10.5011 121.914 10.5011 122.482 10.4065 123.049C10.3119 123.428 9.93352 123.712 10.0281 124.091C10.1227 124.469 10.4065 124.753 10.7849 124.753C11.4471 124.753 12.1093 124.185 12.7715 123.901C13.6229 123.617 14.4744 123.523 15.2312 123.239C16.0826 122.955 16.934 122.482 17.7854 122.103C18.4476 121.819 19.1098 121.062 19.772 121.251C21.7586 121.63 23.4614 122.86 25.2588 123.428C27.0562 123.996 28.9482 124.28 30.8403 124.753C31.3133 124.848 31.7863 125.132 32.2593 125.132C33.0161 125.132 33.7729 124.848 34.4351 124.564C34.9081 124.375 35.1919 123.901 35.6649 123.617C36.8947 122.86 38.2191 122.387 39.4489 121.535C40.7733 120.683 42.0031 119.547 43.2329 118.601C43.8951 118.033 44.5574 117.37 45.2196 116.802C45.9764 117.56 46.6386 118.317 47.3954 118.979C48.0576 119.547 48.7198 120.115 49.4766 120.588C50.2334 121.062 50.9902 121.251 51.747 121.63C51.9362 121.724 52.1254 122.008 52.22 122.198C52.3146 122.482 52.3146 122.86 52.3146 123.144C52.3146 123.901 52.22 124.659 52.4092 125.416C52.5984 126.362 52.9768 127.309 53.4498 128.255C53.8282 128.918 54.3958 129.297 54.7742 129.959C55.4364 131.19 56.004 132.42 56.5716 133.651C56.6662 133.935 56.8554 134.124 56.8554 134.408C56.8554 134.881 56.5716 135.354 56.5716 135.828C56.5716 136.301 56.6662 136.869 56.8554 137.342C57.0446 137.815 57.5176 138.099 57.896 138.383C58.2744 138.573 58.842 138.667 59.3151 138.762C59.8827 138.857 60.4503 138.951 60.9233 139.141C61.5855 139.33 62.1531 139.709 62.8153 139.993C63.2883 140.182 63.7613 140.371 64.3289 140.466C64.8965 140.56 65.4641 140.466 66.0317 140.466C66.6939 140.466 67.3561 140.371 68.0183 140.182C68.5859 140.087 69.1535 139.993 69.7211 139.803C70.2887 139.614 70.9509 139.33 71.3293 138.857C71.6131 138.573 71.6131 138.005 71.5185 137.626C71.4239 137.342 70.9509 137.248 70.6671 137.058C70.0995 136.68 69.5319 136.206 68.9643 135.733C67.8291 134.881 66.7885 133.84 65.7479 132.893C64.8019 132.136 63.8559 131.568 63.0045 130.716C62.5315 128.634 62.2477 126.552 61.7747 124.469C61.4909 123.428 60.8287 122.482 60.6395 121.44C60.5449 121.156 60.7341 120.778 60.6395 120.494C60.4503 119.642 60.1665 118.79 59.7881 117.938C59.5989 117.654 59.2205 117.465 59.1259 117.181C58.4636 115.95 58.0852 114.531 57.423 113.205C56.1932 110.839 54.8688 108.662 53.5444 106.296C53.7336 105.444 54.0174 104.687 54.112 103.835C54.3012 102.415 54.3958 100.995 54.3012 99.5753C54.2066 98.3448 53.639 97.209 53.5444 95.9785C53.4498 94.8427 53.7336 93.6122 53.7336 92.4763C53.7336 90.2993 53.7336 88.0276 53.4498 85.8505C53.3552 84.5254 52.7876 83.2949 52.693 81.9697C52.693 81.5911 52.9768 81.3072 53.2606 81.1178C55.9094 79.5087 58.7474 77.9943 61.3963 75.8172C64.1397 74.3974 66.5047 72.1257 68.8697 69.9487C70.8563 69.3808 72.6537 68.3396 74.4511 67.1091C74.6404 66.9198 74.735 66.4465 74.4511 66.4465C72.1807 66.3519 69.8157 66.5412 67.5453 66.6358C66.7885 66.6358 66.1263 67.0144 65.3695 67.5824C63.0045 68.6235 60.7341 69.9487 58.4636 71.2739C54.585 72.2204 50.7064 73.2616 46.7332 74.3974C45.8818 74.5867 45.0304 74.4921 44.179 74.5867C43.8951 74.5867 43.6113 74.5867 43.3275 74.5867C43.1383 74.5867 42.9491 74.6814 42.6653 74.6814C42.5707 74.6814 42.3815 74.5867 42.3815 74.3974C42.0977 74.0188 41.8139 73.7349 41.6247 73.2616C41.5301 73.1669 41.6247 72.883 41.7193 72.883C42.8545 72.5044 44.179 72.5044 45.2196 72.1257C45.5034 72.0311 45.6926 71.6525 45.7872 71.3685C45.9764 70.7059 45.9764 69.9487 46.1656 69.2861C46.2602 68.9075 46.6386 68.5289 46.4494 68.1503C46.2602 67.677 45.5034 67.5824 45.2196 67.2037C44.9358 66.9198 44.8412 66.4465 44.5574 66.0679C44.9358 65.8786 45.4088 65.9732 45.6926 65.6893C46.071 65.4053 46.6386 65.5946 47.017 65.3107C47.3008 65.1214 47.3008 64.8374 47.3008 64.5534C47.2062 63.7015 47.017 63.039 46.8278 62.2817C47.3008 61.7138 47.7738 61.0512 48.1522 60.3887C48.2468 60.1994 48.1522 59.9154 47.963 59.8207C46.8278 59.1582 45.4088 58.9689 44.5574 58.0223C43.8005 57.1704 43.8005 55.8453 43.3275 54.8041C42.8545 53.4789 42.2869 52.1538 41.7193 50.734C42.0977 50.45 42.4761 49.6928 42.6653 49.0302C43.0437 49.5981 42.8545 50.3554 42.7599 50.9233C43.1383 50.9233 43.5167 51.0179 43.8005 51.0179C43.9897 50.1661 44.4628 49.1249 43.1383 46.2852C42.4761 44.9601 41.4355 44.0136 40.4895 42.9724Z" fill="white"/>
<path d="M28.8541 24.8935C29.3271 24.3256 30.0839 23.8523 30.8407 23.8523C32.4489 23.7577 33.9625 24.3256 35.4762 24.6095C36.8952 24.8935 38.3142 25.1775 39.7332 25.6507C41.0576 26.0294 42.2874 26.6919 43.6118 27.2599C44.9362 27.8278 46.3552 27.9224 47.585 28.869C48.058 29.2476 48.4364 30.0048 48.4364 30.762C48.4364 31.6139 48.058 32.4658 47.585 32.9391C47.0174 33.507 46.2606 33.6963 45.5984 33.6963C44.274 33.507 42.9496 32.6551 41.6252 32.2765C40.2062 31.8979 38.6926 31.9925 37.2736 31.6139C35.76 31.2353 34.341 30.4781 32.8273 29.9102C31.6921 29.4369 30.5569 29.1529 29.6109 28.4904C29.1379 28.1117 28.6649 27.5438 28.4757 26.7866C28.2865 26.0294 28.4757 25.2721 28.8541 24.8935Z" fill="#F4964E"/>
<path d="M88.2623 23.5692C89.6813 24.7997 91.1003 26.0302 92.2355 27.5447C93.3707 29.0591 94.1275 30.7629 94.7897 32.5613C95.3573 33.9811 95.6411 35.4956 95.9249 37.01C96.2087 38.7138 96.3033 40.4176 96.2087 42.216C96.0195 44.7717 95.5465 47.422 94.8843 49.883C94.5059 51.2081 93.6545 52.4386 92.8977 53.5745C92.0463 54.805 91.0057 56.0355 89.9651 57.1713C89.0191 58.2125 87.9785 59.2537 86.8433 60.0109C85.2351 61.0521 83.5323 61.9986 81.6403 62.6612C80.1266 63.2291 78.4238 63.6078 76.8156 63.7971C75.4912 63.9864 74.1668 63.9864 72.8424 63.8917C71.045 63.7971 69.2476 63.7971 67.5448 63.4185C65.7474 63.0398 64.0445 62.188 62.3417 61.4307C61.0173 60.8628 59.7875 60.2949 58.6523 59.5377C57.1387 58.4018 55.7197 57.1713 54.4899 55.7515C53.3547 54.521 52.2195 53.2905 51.5573 51.776C50.5167 49.5043 49.9491 46.9487 49.476 44.4877C49.0976 42.5946 48.9084 40.7015 48.9084 38.7138C49.003 37.1047 49.3815 35.5902 49.8545 34.0758C50.4221 32.4667 51.1789 30.8575 52.1249 29.4377C53.0709 27.9233 54.3007 26.5981 55.6251 25.4623C57.0441 24.1371 58.6523 22.9066 60.3551 21.9601C62.4363 20.8242 64.7067 19.8777 66.9772 19.2151C68.9638 18.6472 70.9504 18.3632 73.0316 18.5525C75.2074 18.6472 77.2886 19.1205 79.2752 19.9724C81.2619 20.8242 83.0593 22.244 84.7621 23.6639C85.8973 24.6104 86.9379 25.8409 87.7893 27.166C88.6407 28.4912 89.4921 29.911 89.9651 31.4255C90.4381 32.8453 90.7219 34.3597 90.8165 35.7795C91.0057 37.4833 91.0057 39.1871 90.8165 40.7962C90.6273 42.4053 90.3435 44.1091 89.5867 45.6235C88.6407 47.7059 87.4109 49.7883 85.8027 51.3974C84.0999 53.0065 82.0187 54.237 79.9374 55.1836C78.2346 55.9408 76.4372 56.2248 74.5452 56.3194C72.464 56.4141 70.3828 56.4141 68.3962 55.7515C66.5042 55.0889 64.8013 53.7638 63.2877 52.4386C62.1525 51.4921 61.1119 50.4509 60.3551 49.2204C59.5037 47.8006 58.9361 46.1915 58.6523 44.4877C58.3685 42.9732 58.2739 41.3641 58.5577 39.755C58.8415 37.9566 59.2199 36.0635 60.1659 34.549C61.2065 32.9399 62.6255 31.6148 64.2337 30.5736C65.5582 29.627 67.0718 29.0591 68.5854 28.6805C70.2882 28.3019 72.1802 28.1126 73.9776 28.3965C75.2074 28.5859 76.4372 29.1538 77.4778 29.8164C78.613 30.4789 79.7482 31.1415 80.505 32.1827C81.3564 33.2239 81.9241 34.549 82.3025 35.7795C82.6809 37.01 82.7755 38.2405 82.6809 39.471C82.6809 40.4176 82.3971 41.4588 82.0187 42.3107C81.6403 43.1625 81.1673 44.0144 80.505 44.677C79.8428 45.4342 79.086 46.2861 78.14 46.7594C77.0048 47.3273 75.775 47.8006 74.5452 47.8006C73.41 47.8006 72.1802 47.6113 71.1396 47.0433C70.0044 46.4754 69.0584 45.5289 68.3962 44.4877C67.9232 43.7305 67.9232 42.6893 67.9232 41.7427C67.9232 40.8908 68.1124 40.039 68.4908 39.3764C68.8692 38.8085 69.4368 38.4298 70.099 38.0512C70.572 37.7673 71.1396 37.4833 71.6126 37.3887C71.8964 37.3887 72.1802 37.578 72.2748 37.8619C72.3694 38.2405 71.8964 38.6192 71.8018 38.9978C71.8018 39.471 71.8018 40.1336 72.1802 40.5122C72.6532 40.9855 73.41 41.1748 74.0722 41.2695C74.6398 41.3641 75.302 41.3641 75.775 41.0802C76.3426 40.7015 76.9102 40.1336 77.0994 39.471C77.2886 38.8085 77.194 37.9566 76.9102 37.294C76.6264 36.6314 76.1534 36.0635 75.5858 35.5902C75.0182 35.117 74.356 34.7383 73.6938 34.549C73.0316 34.3597 72.2748 34.4544 71.518 34.6437C70.6666 34.833 69.8152 35.117 69.0584 35.4956C68.3016 35.8742 67.6394 36.3475 67.0718 36.9154C66.4096 37.578 65.842 38.4298 65.4635 39.3764C65.1797 40.2283 65.1798 41.2695 65.1798 42.216C65.2744 43.1625 65.369 44.1091 65.7474 44.961C66.1258 45.8128 66.6934 46.5701 67.3556 47.2327C68.1124 47.8952 69.0584 48.4632 70.0044 48.9364C70.8558 49.315 71.8018 49.4097 72.7478 49.5043C73.883 49.599 75.0182 49.6937 76.1534 49.5043C77.4778 49.315 78.7076 48.8418 79.8428 48.2738C80.6943 47.8006 81.5457 47.138 82.2079 46.4754C82.8701 45.7182 83.4377 44.8663 83.9107 43.9198C84.3837 42.9732 84.8567 42.0267 84.9513 40.8909C85.1405 39.2817 85.1405 37.6726 84.7621 36.0635C84.3837 34.2651 83.8161 32.4667 82.7755 31.0469C81.8295 29.7217 80.505 28.8698 79.1806 28.0179C78.0454 27.2607 76.8156 26.5981 75.5858 26.1249C74.4506 25.7462 73.2208 25.5569 72.0856 25.4623C71.045 25.3676 69.9098 25.4623 68.7746 25.6516C67.6394 25.8409 66.5988 26.2195 65.4635 26.5981C64.4229 27.0714 63.2877 27.6393 62.3417 28.3019C61.3011 29.0591 60.4497 29.911 59.5983 30.7629C58.8415 31.5201 58.1793 32.372 57.7063 33.3185C57.1387 34.3597 56.6657 35.4009 56.3819 36.4421C56.0981 37.4833 56.0035 38.5245 55.9089 39.5657C55.8143 41.2695 55.5305 42.9732 55.9089 44.677C56.1927 46.1915 56.9495 47.7059 57.7063 49.1257C58.5577 50.6402 59.6929 52.06 60.9227 53.2905C62.2471 54.6157 63.6661 55.6568 65.1798 56.6034C66.315 57.266 67.5448 57.7392 68.7746 58.0232C70.3828 58.4018 72.0856 58.7804 73.6938 58.7804C74.9236 58.7804 76.248 58.6858 77.4778 58.3072C79.086 57.8339 80.505 56.8873 82.0187 56.1301C83.3431 55.4675 84.6675 54.8996 85.8027 53.9531C86.8433 53.1958 87.6001 52.1547 88.3569 51.1135C89.1137 50.0723 89.5867 48.9364 90.0597 47.8006C90.5327 46.6647 90.8165 45.4342 91.1003 44.2037C91.4787 42.8786 91.5733 41.5534 91.6679 40.2283C91.7625 38.7138 91.9517 37.1994 91.8571 35.6849C91.6679 34.1704 91.3841 32.656 91.0057 31.1415C90.7219 30.0057 90.2489 28.8698 89.7759 27.734C89.3975 26.7874 88.8299 25.8409 88.3569 24.8944C88.1677 24.5157 87.8839 24.2318 87.8839 23.8532C87.7893 23.6639 88.1677 23.3799 88.2623 23.5692Z" fill="#F4964E"/>
<path d="M96.3983 52.4389C97.0605 51.9656 97.8173 51.6816 98.5741 51.6816C100.371 51.6816 102.169 51.871 103.872 52.4389C106.426 53.2908 108.886 54.6159 111.156 55.9411C112.859 56.8876 114.562 57.9288 115.791 59.5379C116.454 60.3898 116.737 61.6203 116.359 62.5668C115.981 63.5134 114.751 63.892 113.805 64.2706C113.143 64.4599 112.291 64.4599 111.724 64.1759C110.305 63.5134 109.169 62.2829 107.75 61.5256C106.426 60.7684 105.102 60.2005 103.777 59.5379C102.642 58.97 101.601 58.4967 100.466 58.0234C99.0471 57.3609 97.3443 57.2662 96.1145 56.225C95.4523 55.7518 95.4523 54.7106 95.5469 53.8587C95.5469 53.1961 96.0199 52.7228 96.3983 52.4389Z" fill="#F4964E"/>
<path d="M96.5876 32.3714C96.7768 31.6141 97.0606 30.8569 97.6282 30.289C98.9526 29.0585 100.372 28.0173 102.074 27.2601C104.534 26.2189 107.183 25.4616 109.832 24.8937C111.724 24.5151 113.71 24.0418 115.602 24.4204C116.643 24.6098 117.684 25.2723 118.062 26.3135C118.44 27.2601 117.778 28.3959 117.305 29.2478C116.927 29.9104 116.359 30.3836 115.697 30.5729C114.183 31.0462 112.575 30.9516 110.967 31.3302C109.548 31.6141 108.129 32.1821 106.71 32.5607C105.575 32.9393 104.345 33.2232 103.21 33.6019C101.696 34.0751 100.372 35.1163 98.7634 35.211C98.0066 35.211 97.2498 34.5484 96.7768 33.8858C96.493 33.6019 96.493 32.9393 96.5876 32.3714Z" fill="#F4964E"/>
<path d="M84.2898 19.1207C85.1412 19.0261 86.0872 19.0261 86.6548 18.3635C88.1684 16.4704 88.9252 13.9148 90.1551 11.8324C91.4795 9.65536 92.8985 7.66763 94.2229 5.49059C94.6959 4.82801 95.3581 4.16544 95.5473 3.31355C95.6419 2.74563 95.5473 1.9884 95.0743 1.60979C94.2229 0.852555 93.0877 0.189978 91.9525 0.000670235C91.2903 -0.0939836 90.6281 0.473939 90.1551 0.947208C88.4522 2.74563 86.844 4.82801 85.425 6.9104C84.3844 8.42486 83.4384 10.1286 82.587 11.8324C82.114 12.9682 81.7356 14.1041 81.4518 15.2399C81.2626 16.0918 80.9788 16.9437 81.168 17.7009C81.3572 18.2689 82.0194 18.5528 82.587 18.8368C83.1546 19.1207 83.7222 19.2154 84.2898 19.1207Z" fill="#F4964E"/>
<path d="M61.5852 19.3088C62.0582 18.9302 62.5312 18.2676 62.342 17.6997C61.5852 14.9547 60.3554 12.3991 59.031 9.84343C57.8012 7.47708 56.4767 5.20539 54.8685 3.12301C54.0171 1.98716 52.9765 1.04062 51.8413 0.283393C51.2737 -0.0952219 50.4223 -0.0952219 49.8547 0.188739C48.9087 0.567355 47.9627 1.13528 47.4897 2.08182C47.0167 3.02835 47.1113 4.25885 47.5843 5.11074C48.2465 6.6252 49.6655 7.57174 50.7061 8.80224C51.9359 10.3167 53.0711 11.8312 54.1117 13.3456C55.0577 14.7654 55.7199 16.3745 56.7605 17.6997C57.5173 18.5516 58.3688 19.4981 59.504 19.8767C60.2608 20.066 61.0176 19.6874 61.5852 19.3088Z" fill="#F4964E"/>
</g>
<defs>
<clipPath id="clip0_7227_1537">
<rect width="212" height="216" fill="white"/>
</clipPath>
</defs>
</svg>
