<svg width="100" height="102" viewBox="0 0 100 102" fill="none" xmlns="http://www.w3.org/2000/svg">
<g clip-path="url(#clip0_7135_8484)">
<path d="M96.8764 101.687V96.7255H92.2803V101.687H89.469V89.8867H92.2803V94.3565H96.8764V89.8867H99.7323V101.687H96.8764Z" fill="#2976BC"/>
<path d="M56.4034 93.5072C56.4034 93.239 56.3588 93.0156 56.2249 92.8368C56.1357 92.658 55.9572 92.5239 55.7787 92.4345C55.6002 92.3451 55.3771 92.2557 55.154 92.2557C54.9309 92.211 54.6631 92.211 54.3954 92.211H53.146V94.9822H54.3508C54.6185 94.9822 54.8863 94.9375 55.1094 94.9375C55.3325 94.8929 55.5556 94.8035 55.7787 94.7141C55.9572 94.6247 56.1357 94.4459 56.2249 94.2671C56.3588 94.0436 56.4034 93.7754 56.4034 93.5072ZM59.2593 93.5072C59.2593 94.1777 59.1254 94.7588 58.8577 95.2504C58.59 95.7421 58.2776 96.0997 57.8314 96.4126C57.3851 96.6808 56.8943 96.9043 56.3142 97.0383C55.7341 97.1724 55.154 97.2171 54.5293 97.2171H53.1013V101.687H50.2455V89.8867H54.5739C55.1986 89.8867 55.8233 89.9314 56.3588 90.0655C56.9389 90.1996 57.3851 90.3784 57.8314 90.6913C58.233 90.9595 58.59 91.3617 58.8131 91.8087C59.1254 92.2557 59.2593 92.8368 59.2593 93.5072Z" fill="#2976BC"/>
<path d="M38.6436 101.687V89.8867H46.5864V92.2557H41.4102V94.4906H46.2741V96.7702H41.4102V99.2285H46.8542V101.687H38.6436Z" fill="#2976BC"/>
<path d="M32.441 92.3004V101.687H29.6298V92.3004H26.283V89.8867H35.7877V92.3004H32.441Z" fill="#2976BC"/>
<path d="M15.752 101.687V89.8867H23.6503V92.2557H18.474V94.4906H23.3825V96.7702H18.474V99.2285H23.9626V101.687H15.752Z" fill="#2976BC"/>
<path d="M12.0482 89.8867V101.687H9.23694V92.2557H4.90852V101.687H2.09727V89.8867H12.0482Z" fill="#2976BC"/>
<path d="M83.9357 95.6976C83.9357 95.2059 83.8465 94.7142 83.668 94.2672C83.4895 93.8203 83.2664 93.4627 82.9986 93.1051C82.6863 92.7922 82.3293 92.524 81.9277 92.3453C81.5261 92.1665 81.0352 92.0771 80.5444 92.0771C80.0535 92.0771 79.6073 92.1665 79.161 92.3453C78.7594 92.524 78.4025 92.7922 78.0901 93.1051C77.7777 93.418 77.5546 93.8203 77.4208 94.2672C77.2423 94.7142 77.1976 95.2059 77.1976 95.6976C77.1976 96.2339 77.2869 96.7256 77.4654 97.1726C77.6439 97.6196 77.867 98.0218 78.1347 98.3347C78.4471 98.6476 78.7594 98.9158 79.2057 99.0946C79.6073 99.2734 80.0535 99.3628 80.589 99.3628C81.0798 99.3628 81.5261 99.2734 81.9723 99.0946C82.3739 98.9158 82.7309 98.6476 83.0432 98.3347C83.3556 98.0218 83.5787 97.6196 83.7572 97.1726C83.8465 96.7256 83.9357 96.2339 83.9357 95.6976ZM86.9701 95.6976C86.9701 96.6362 86.7916 97.4855 86.4792 98.2453C86.1668 99.0052 85.7206 99.6757 85.1405 100.212C84.5604 100.748 83.8911 101.195 83.0879 101.508C82.2847 101.821 81.4368 101.955 80.5444 101.955C79.6073 101.955 78.7594 101.821 78.0009 101.508C77.1976 101.195 76.5283 100.793 75.9928 100.212C75.4127 99.6757 74.9665 99.0052 74.6541 98.2453C74.3418 97.4855 74.1633 96.6362 74.1633 95.6976C74.1633 94.7589 74.3418 93.9097 74.6541 93.1498C74.9665 92.3899 75.4127 91.7642 75.9928 91.2278C76.5729 90.6914 77.2423 90.2892 78.0009 89.9763C78.8041 89.7081 79.6519 89.5293 80.5444 89.5293C81.4814 89.5293 82.3293 89.6634 83.0879 89.9763C83.8911 90.2445 84.5604 90.6914 85.1405 91.2278C85.7206 91.7642 86.1668 92.3899 86.4792 93.1498C86.8362 93.9097 86.9701 94.7589 86.9701 95.6976Z" fill="#2976BC"/>
<path d="M70.638 101.464C69.8794 101.821 68.987 102 68.0052 102C67.1128 102 66.265 101.866 65.5064 101.553C64.7478 101.24 64.0784 100.838 63.4983 100.257C62.9182 99.7203 62.472 99.0499 62.1596 98.29C61.8473 97.5302 61.6688 96.6809 61.6688 95.7423C61.6688 94.8036 61.8473 93.9544 62.1596 93.1945C62.472 92.4346 62.9182 91.7642 63.4983 91.2278C64.0784 90.6914 64.7478 90.2892 65.5064 89.9763C66.265 89.7081 67.1128 89.5293 68.0052 89.5293C68.8531 89.5293 69.6563 89.6634 70.4595 89.9763C71.2627 90.2892 71.9321 90.6914 72.4229 91.2725L70.5041 93.1945C70.2364 92.8369 69.8794 92.5687 69.4778 92.3899C69.0316 92.2111 68.5853 92.1218 68.1391 92.1218C67.6483 92.1218 67.202 92.2111 66.7558 92.3899C66.3542 92.5687 65.9972 92.8369 65.6849 93.1498C65.3725 93.4627 65.1494 93.865 64.9709 94.3119C64.7924 94.7589 64.7032 95.2506 64.7032 95.7423C64.7032 96.2786 64.7924 96.7703 64.9709 97.2173C65.1494 97.6643 65.3725 98.0218 65.6402 98.3794C65.9526 98.6923 66.265 98.9605 66.7112 99.1393C67.1128 99.3181 67.559 99.4075 68.0499 99.4075C68.63 99.4075 69.1208 99.3181 69.5224 99.0946C69.924 98.8711 70.281 98.6029 70.5488 98.2453L72.5122 100.123C72.0659 100.614 71.4412 101.106 70.638 101.464Z" fill="#2976BC"/>
<path d="M11.3341 82.1997C11.3341 82.3785 11.3788 82.4679 11.5573 82.5126C11.6911 82.5573 11.8696 82.602 12.1374 82.602H12.6728V81.7974H12.1374C11.8696 81.7974 11.6911 81.8421 11.5573 81.8868C11.4234 81.9315 11.3341 82.0209 11.3341 82.1997ZM12.2712 83.3171C12.1374 83.3171 12.0035 83.3171 11.9142 83.3618C11.7804 83.4065 11.6911 83.4512 11.6019 83.5853C11.5126 83.6747 11.468 83.8088 11.3788 83.9876C11.3341 84.1664 11.2895 84.3452 11.2449 84.5687H10.3078C10.3524 84.1217 10.4863 83.7641 10.7094 83.4959C10.8879 83.2277 11.111 83.0937 11.3788 83.0043C11.1557 82.9596 10.9325 82.9149 10.7987 82.7808C10.6202 82.6467 10.5756 82.4232 10.5756 82.1103C10.5756 81.9315 10.6202 81.7974 10.7094 81.6633C10.7987 81.5292 10.8879 81.4398 11.0218 81.3504C11.1557 81.261 11.2895 81.2164 11.468 81.1717C11.6465 81.127 11.825 81.127 12.0035 81.127H13.6099V84.6134H12.7621V83.3618H12.2712V83.3171Z" fill="#2976BC"/>
<path d="M99.1521 82.1548L97.3225 84.5684H96.4747V81.082H97.3225V83.4063L99.1521 81.082H99.9999V84.5684H99.1521V82.1548Z" fill="#2976BC"/>
<path d="M93.2619 82.423C93.3957 82.423 93.5296 82.423 93.6635 82.4677L94.6452 81.082H95.5823L94.3774 82.7358C94.7344 82.9146 95.0022 83.1381 95.1807 83.451C95.3592 83.7639 95.5376 84.1215 95.6269 84.5684H94.6898C94.6452 84.3003 94.5559 84.0768 94.4667 83.898C94.3774 83.7192 94.2882 83.5851 94.1543 83.451C94.0205 83.3616 93.8866 83.2722 93.7527 83.2275C93.6189 83.1828 93.4404 83.1381 93.2172 83.1381V84.6131H92.3694V81.1267H93.2172V82.423H93.2619Z" fill="#2976BC"/>
<path d="M90.4506 82.1548L88.6657 84.5684H87.7733V81.082H88.6657V83.4063L90.4506 81.082H91.2985V84.5684H90.4506V82.1548Z" fill="#2976BC"/>
<path d="M85.676 84.5684H84.8281V81.082H87.1485V81.7525H85.676V84.5684Z" fill="#2976BC"/>
<path d="M78.2241 84.5684H77.3763V81.082H79.6967V81.7525H78.2241V84.5684Z" fill="#2976BC"/>
<path d="M70.5933 82.3336L70.0132 83.8533H71.3965L70.7718 82.0207L70.5933 82.3336ZM69.3439 85.5518H68.5853V83.8533H69.1654L70.281 81.082H71.2627L72.289 83.8533H72.8691V85.5518H72.1105V84.5684H69.2993V85.5518H69.3439Z" fill="#2976BC"/>
<path d="M61.4905 84.5684H60.6426V81.082H63.8555V84.5684H62.963V81.7525H61.4905V84.5684Z" fill="#2976BC"/>
<path d="M46.3186 84.5684H45.4708V81.082H46.3186V82.423H47.8804V81.082H48.7283V84.5684H47.8804V83.0934H46.3186V84.5684Z" fill="#2976BC"/>
<path d="M41.767 81.082H44.846V81.7525H43.6858V84.5684H42.8379V81.7525H41.767V81.082Z" fill="#2976BC"/>
<path d="M30.6559 84.5684H29.7635V81.082H30.6559V82.423H32.1731V81.082H33.0209V84.5684H32.1731V83.0934H30.6559V84.5684Z" fill="#2976BC"/>
<path d="M24.3643 84.5684L23.4272 82.1101L22.4455 84.5684H21.553L22.9363 81.082H23.918L25.2567 84.5684H24.3643Z" fill="#2976BC"/>
<path d="M14.0562 81.082H17.1352V81.7525H15.975V84.5684H15.1272V81.7525H14.0562V81.082Z" fill="#2976BC"/>
<path d="M3.61428 82.3336L3.03418 83.8533H4.41749L3.79277 82.0207L3.61428 82.3336ZM2.36484 85.5518H1.60625V83.8533H2.18635L3.30192 81.082H4.28362L5.30995 83.8533H5.89005V85.5518H5.13146V84.5684H2.36484V85.5518Z" fill="#2976BC"/>
<path d="M26.7737 83.9424H27.4431C27.6662 83.9424 27.8447 83.8977 27.9785 83.8083C28.1124 83.7189 28.2016 83.5849 28.2016 83.3614C28.2016 83.272 28.2016 83.1826 28.157 83.0932C28.1124 83.0038 28.0678 82.9591 27.9785 82.9144C27.8893 82.8697 27.8447 82.825 27.7554 82.825C27.6662 82.825 27.5769 82.7803 27.4431 82.7803H26.7737V83.9424ZM26.7737 81.0818V82.1992H27.5769C27.8447 82.1992 28.0678 82.2439 28.2463 82.2886C28.4248 82.3333 28.5586 82.4227 28.6925 82.5568C28.8264 82.6462 28.871 82.7803 28.9156 82.9144C28.9602 83.0485 29.0049 83.2273 29.0049 83.3614C29.0049 83.5402 28.9602 83.6742 28.9156 83.8083C28.871 83.9424 28.7817 84.0765 28.6479 84.1659C28.514 84.2553 28.3801 84.3447 28.2016 84.4341C28.0232 84.4788 27.8447 84.5235 27.5769 84.5235H25.8813V81.0371H26.7737V81.0818Z" fill="#2976BC"/>
<path d="M67.4252 82.4672C67.4252 82.199 67.336 82.0202 67.2021 81.8414C67.0682 81.6627 66.8451 81.5733 66.5328 81.5733C66.3989 81.5733 66.265 81.618 66.1311 81.6627C65.9973 81.7074 65.908 81.7967 65.8188 81.8414C65.7295 81.9308 65.6849 82.0202 65.5957 82.1096C65.551 82.199 65.5064 82.3331 65.5064 82.4672H67.4252ZM68.2284 82.7801V82.9142C68.2284 82.9589 68.2284 83.0036 68.2284 83.0483H65.551C65.551 83.1824 65.5957 83.3165 65.6403 83.4059C65.6849 83.54 65.7742 83.6294 65.8634 83.7187C65.9527 83.8081 66.0419 83.8528 66.1758 83.8975C66.3096 83.9422 66.4435 83.9869 66.5774 83.9869C66.8005 83.9869 66.979 83.9422 67.1575 83.8528C67.336 83.7634 67.4252 83.6293 67.5145 83.54L68.1392 83.9422C67.9607 84.2104 67.7376 84.3892 67.4698 84.4786C67.2021 84.6127 66.9344 84.6574 66.5774 84.6574C66.3096 84.6574 66.0865 84.6127 65.8634 84.5233C65.6403 84.4339 65.4172 84.2998 65.2833 84.1657C65.1048 83.9869 64.9709 83.8081 64.8817 83.5847C64.7925 83.3612 64.7478 83.093 64.7478 82.8248C64.7478 82.5566 64.7925 82.2884 64.8817 82.0649C64.9709 81.8414 65.1048 81.6627 65.2833 81.4839C65.4618 81.3051 65.6403 81.2157 65.8634 81.1263C66.0865 81.0369 66.3096 80.9922 66.5774 80.9922C66.8451 80.9922 67.0682 81.0369 67.2913 81.1263C67.5145 81.2157 67.6929 81.3498 67.8268 81.4839C67.9607 81.6627 68.0946 81.8414 68.1838 82.0649C68.2284 82.2437 68.2284 82.5119 68.2284 82.7801Z" fill="#2976BC"/>
<path d="M20.2589 82.4672C20.2589 82.199 20.1696 82.0202 20.0358 81.8414C19.9019 81.6627 19.6788 81.5733 19.3664 81.5733C19.2325 81.5733 19.0987 81.618 18.9648 81.6627C18.8309 81.7074 18.7417 81.7967 18.6524 81.8414C18.5632 81.9308 18.5186 82.0202 18.4293 82.1096C18.3847 82.199 18.3401 82.3331 18.3401 82.4672H20.2589ZM21.1067 82.7801V82.9142C21.1067 82.9589 21.1067 83.0036 21.1067 83.0483H18.4293C18.4293 83.1824 18.4739 83.3165 18.5186 83.4059C18.5632 83.54 18.6524 83.6294 18.7417 83.7187C18.8309 83.8081 18.9202 83.8528 19.054 83.8975C19.1879 83.9422 19.3218 83.9869 19.4557 83.9869C19.6788 83.9869 19.8573 83.9422 20.0358 83.8528C20.2142 83.7634 20.3035 83.6293 20.3927 83.54L21.0175 83.9422C20.839 84.2104 20.6159 84.3892 20.3481 84.4786C20.0804 84.6127 19.8126 84.6574 19.4557 84.6574C19.1879 84.6574 18.9648 84.6127 18.7417 84.5233C18.5186 84.4339 18.2955 84.2998 18.1616 84.1657C17.9831 83.9869 17.8492 83.8081 17.76 83.5847C17.6707 83.3612 17.6261 83.093 17.6261 82.8248C17.6261 82.5566 17.6707 82.2884 17.76 82.0649C17.8492 81.8414 17.9831 81.6627 18.1616 81.4839C18.3401 81.3051 18.5186 81.2157 18.7417 81.1263C18.9648 81.0369 19.1879 80.9922 19.4557 80.9922C19.7234 80.9922 19.9465 81.0369 20.1696 81.1263C20.3927 81.2157 20.5712 81.3498 20.7051 81.4839C20.839 81.6627 20.9728 81.8414 21.0621 82.0649C21.0621 82.2437 21.1067 82.5119 21.1067 82.7801Z" fill="#2976BC"/>
<path d="M8.96917 82.4672C8.96917 82.199 8.87992 82.0202 8.74605 81.8414C8.61219 81.6627 8.38907 81.5733 8.07671 81.5733C7.94284 81.5733 7.80897 81.618 7.6751 81.6627C7.54124 81.7074 7.45199 81.7967 7.36274 81.8414C7.2735 81.9308 7.22888 82.0202 7.13963 82.1096C7.09501 82.199 7.05038 82.3331 7.05038 82.4672H8.96917ZM9.77238 82.7801V82.9142C9.77238 82.9589 9.77238 83.0036 9.77238 83.0483H7.09501C7.09501 83.1824 7.13963 83.3165 7.18425 83.4059C7.22888 83.54 7.31812 83.6294 7.40737 83.7187C7.49661 83.8081 7.58586 83.8528 7.71973 83.8975C7.8536 83.9422 7.98747 83.9869 8.12133 83.9869C8.34445 83.9869 8.52294 83.9422 8.70143 83.8528C8.87992 83.7634 8.96917 83.6293 9.05841 83.54L9.68314 83.9422C9.50464 84.2104 9.28153 84.3892 9.01379 84.4786C8.74605 84.6127 8.47832 84.6574 8.12133 84.6574C7.8536 84.6574 7.63048 84.6127 7.40737 84.5233C7.18425 84.4339 6.96114 84.2998 6.82727 84.1657C6.64878 83.9869 6.51491 83.8081 6.42566 83.5847C6.33642 83.3612 6.29179 83.093 6.29179 82.8248C6.29179 82.5566 6.33642 82.2884 6.42566 82.0649C6.51491 81.8414 6.64878 81.6627 6.82727 81.4839C7.00576 81.3051 7.18425 81.2157 7.40737 81.1263C7.63048 81.0369 7.8536 80.9922 8.12133 80.9922C8.38907 80.9922 8.61219 81.0369 8.8353 81.1263C9.05841 81.2157 9.23691 81.3498 9.37078 81.4839C9.50464 81.6627 9.63851 81.8414 9.72776 82.0649C9.72776 82.2437 9.77238 82.5119 9.77238 82.7801Z" fill="#2976BC"/>
<path d="M83.0879 82.8246C83.0879 82.6905 83.0432 82.5117 82.9986 82.3776C82.954 82.2435 82.8648 82.1094 82.7755 82.02C82.6863 81.9306 82.597 81.8412 82.4631 81.7965C82.3293 81.7518 82.1954 81.7071 82.0169 81.7071C81.8384 81.7071 81.7046 81.7518 81.5707 81.7965C81.4368 81.8412 81.3476 81.9306 81.2583 82.02C81.1691 82.1094 81.0798 82.2435 81.0352 82.3776C80.9906 82.5117 80.946 82.6458 80.946 82.8246C80.946 82.9587 80.9906 83.1374 81.0352 83.2715C81.0798 83.4056 81.1691 83.5397 81.2583 83.6291C81.3476 83.7185 81.4368 83.8079 81.5707 83.8526C81.7046 83.8973 81.8384 83.942 82.0169 83.942C82.1954 83.942 82.3293 83.8973 82.4631 83.8526C82.597 83.8079 82.6863 83.7185 82.7755 83.6291C82.8648 83.5397 82.954 83.4056 82.9986 83.2715C83.0879 83.0927 83.0879 82.9587 83.0879 82.8246ZM83.9803 82.7799C83.9803 83.048 83.9357 83.3162 83.8465 83.5397C83.7572 83.7632 83.6233 83.942 83.4448 84.1208C83.2664 84.2996 83.0879 84.389 82.8201 84.4784C82.597 84.5678 82.3293 84.6125 82.0615 84.6125C81.7938 84.6125 81.5261 84.5678 81.3029 84.4784C81.0798 84.389 80.8567 84.2549 80.7228 84.1208C80.5444 83.942 80.4105 83.7632 80.3212 83.5397C80.232 83.3162 80.1874 83.048 80.1874 82.7799C80.1874 82.5117 80.232 82.2435 80.3212 82.02C80.4105 81.7965 80.5444 81.6177 80.7228 81.4389C80.9013 81.2601 81.0798 81.1707 81.3029 81.0814C81.5261 80.992 81.7938 80.9473 82.0615 80.9473C82.3293 80.9473 82.597 80.992 82.8201 81.0814C83.0432 81.1707 83.2664 81.3048 83.4448 81.4389C83.6233 81.6177 83.7572 81.7965 83.8465 82.02C83.8911 82.2882 83.9803 82.5117 83.9803 82.7799Z" fill="#2976BC"/>
<path d="M75.4127 82.914C75.2342 82.914 75.1004 82.914 74.9219 82.914C74.7434 82.914 74.6095 82.9586 74.4756 83.0033C74.3418 83.048 74.2525 83.0927 74.1633 83.1821C74.074 83.2715 74.0294 83.3609 74.0294 83.495C74.0294 83.5844 74.0294 83.6738 74.074 83.7185C74.1187 83.7632 74.1633 83.8526 74.2079 83.8526C74.2525 83.8973 74.3418 83.8973 74.431 83.942C74.5203 83.942 74.5649 83.9867 74.6541 83.9867C74.9219 83.9867 75.145 83.8973 75.3235 83.7185C75.4574 83.5397 75.5466 83.3162 75.5466 83.048V82.8693H75.4127V82.914ZM75.5466 82.2882C75.5466 82.0647 75.4574 81.8859 75.3235 81.7965C75.1896 81.7071 75.0111 81.6177 74.788 81.6177C74.6095 81.6177 74.431 81.6624 74.2525 81.7071C74.074 81.7965 73.9402 81.8859 73.8509 81.9753L73.4047 81.4836C73.5832 81.3048 73.8063 81.1707 74.074 81.0814C74.3418 80.992 74.6095 80.9473 74.8773 80.9473C75.3235 80.9473 75.6805 81.0367 75.9482 81.2601C76.2159 81.4836 76.3498 81.7965 76.3498 82.2882C76.3498 82.3776 76.3498 82.4223 76.3498 82.5117C76.3498 82.5564 76.3498 82.6458 76.3498 82.7352V83.8526C76.3498 83.9867 76.3498 84.1208 76.3498 84.2102C76.3498 84.3443 76.3498 84.4784 76.3498 84.5678H75.5466C75.5466 84.4784 75.5466 84.4337 75.5466 84.3443C75.5466 84.2549 75.5466 84.2102 75.5466 84.1208C75.4127 84.2996 75.2789 84.4337 75.1004 84.5231C74.9219 84.6125 74.6988 84.6572 74.4756 84.6572C74.3418 84.6572 74.2079 84.6572 74.074 84.6125C73.9402 84.5678 73.8063 84.5231 73.6724 84.4337C73.5386 84.3443 73.4493 84.2549 73.3601 84.1208C73.2708 83.9867 73.2262 83.8079 73.2262 83.6291C73.2262 83.3609 73.3154 83.1821 73.4493 83.0033C73.5832 82.8693 73.7617 82.7352 73.9848 82.6458C74.2079 82.5564 74.4756 82.5117 74.7434 82.467C75.0111 82.4223 75.3235 82.4223 75.5912 82.4223V82.2882H75.5466Z" fill="#2976BC"/>
<path d="M52.5211 82.8246C52.5211 82.6905 52.4764 82.5117 52.4318 82.3776C52.3872 82.2435 52.2979 82.1094 52.2087 82.02C52.1195 81.9306 52.0302 81.8412 51.8963 81.7965C51.7625 81.7518 51.6286 81.7071 51.4501 81.7071C51.2716 81.7071 51.1378 81.7518 51.0039 81.7965C50.87 81.8412 50.7808 81.9306 50.6915 82.02C50.6023 82.1094 50.513 82.2435 50.4684 82.3776C50.4238 82.5117 50.3792 82.6458 50.3792 82.8246C50.3792 82.9587 50.4238 83.1374 50.4684 83.2715C50.513 83.4056 50.6023 83.5397 50.6915 83.6291C50.7808 83.7185 50.87 83.8079 51.0039 83.8526C51.1378 83.8973 51.2716 83.942 51.4501 83.942C51.6286 83.942 51.7625 83.8973 51.8963 83.8526C52.0302 83.8079 52.1195 83.7185 52.2087 83.6291C52.2979 83.5397 52.3872 83.4056 52.4318 83.2715C52.5211 83.0927 52.5211 82.9587 52.5211 82.8246ZM53.4135 82.7799C53.4135 83.048 53.3689 83.3162 53.2796 83.5397C53.1904 83.7632 53.0565 83.942 52.878 84.1208C52.6995 84.2996 52.5211 84.389 52.2533 84.4784C52.0302 84.5678 51.7625 84.6125 51.4947 84.6125C51.227 84.6125 50.9593 84.5678 50.7361 84.4784C50.513 84.389 50.2899 84.2549 50.1561 84.1208C49.9776 83.942 49.8437 83.7632 49.7544 83.5397C49.6652 83.3162 49.6206 83.048 49.6206 82.7799C49.6206 82.5117 49.6652 82.2435 49.7544 82.02C49.8437 81.7965 49.9776 81.6177 50.1561 81.4389C50.3345 81.2601 50.513 81.1707 50.7361 81.0814C50.9593 80.992 51.227 80.9473 51.4947 80.9473C51.7625 80.9473 52.0302 80.992 52.2533 81.0814C52.4764 81.1707 52.6995 81.3048 52.878 81.4389C53.0565 81.6177 53.1904 81.7965 53.2796 82.02C53.3243 82.2882 53.4135 82.5117 53.4135 82.7799Z" fill="#2976BC"/>
<path d="M41.0086 82.0647C40.9193 81.9753 40.8301 81.8859 40.6962 81.7965C40.5623 81.7518 40.4285 81.7071 40.25 81.7071C40.0715 81.7071 39.9376 81.7518 39.8037 81.7965C39.6699 81.8412 39.5806 81.9306 39.4914 82.02C39.4021 82.1094 39.3129 82.2435 39.2683 82.3776C39.2236 82.5117 39.179 82.6458 39.179 82.8246C39.179 82.9587 39.2236 83.1374 39.2683 83.2715C39.3129 83.4056 39.4021 83.5397 39.4914 83.6291C39.5806 83.7185 39.7145 83.8079 39.8037 83.8526C39.9376 83.8973 40.0715 83.942 40.25 83.942C40.4285 83.942 40.5623 83.8973 40.6962 83.8526C40.8301 83.8079 40.9193 83.7185 41.0086 83.5844L41.544 84.1208C41.4102 84.2996 41.2317 84.389 41.0086 84.4784C40.7854 84.5678 40.5177 84.6125 40.25 84.6125C39.9822 84.6125 39.7145 84.5678 39.4914 84.4784C39.2683 84.389 39.0451 84.2549 38.8667 84.1208C38.6882 83.942 38.5543 83.7632 38.465 83.5397C38.3758 83.3162 38.3312 83.048 38.3312 82.7799C38.3312 82.5117 38.3758 82.2435 38.465 82.02C38.5543 81.7965 38.6882 81.6177 38.8667 81.4389C39.0451 81.2601 39.2236 81.1707 39.4914 81.0814C39.7591 80.992 39.9822 80.9473 40.25 80.9473C40.4731 80.9473 40.7408 80.992 40.9639 81.0814C41.187 81.1707 41.4102 81.3048 41.544 81.4836L41.0086 82.0647Z" fill="#2976BC"/>
<path d="M36.8586 82.8246C36.8586 82.6905 36.814 82.5117 36.7694 82.3776C36.7248 82.2435 36.6355 82.1094 36.5463 82.02C36.457 81.9306 36.3678 81.8412 36.2339 81.7965C36.1 81.7518 35.9662 81.7071 35.7877 81.7071C35.6092 81.7071 35.4753 81.7518 35.3414 81.7965C35.2076 81.8412 35.1183 81.9306 35.0291 82.02C34.9398 82.1094 34.8506 82.2435 34.806 82.3776C34.7613 82.5117 34.7167 82.6458 34.7167 82.8246C34.7167 82.9587 34.7613 83.1374 34.806 83.2715C34.8506 83.4056 34.9398 83.5397 35.0291 83.6291C35.1183 83.7185 35.2076 83.8079 35.3414 83.8526C35.4753 83.8973 35.6092 83.942 35.7877 83.942C35.9662 83.942 36.1 83.8973 36.2339 83.8526C36.3678 83.8079 36.457 83.7185 36.5463 83.6291C36.6355 83.5397 36.7248 83.4056 36.7694 83.2715C36.814 83.0927 36.8586 82.9587 36.8586 82.8246ZM37.7065 82.7799C37.7065 83.048 37.6618 83.3162 37.5726 83.5397C37.4833 83.7632 37.3495 83.942 37.171 84.1208C36.9925 84.2996 36.814 84.389 36.5463 84.4784C36.3232 84.5678 36.0554 84.6125 35.7877 84.6125C35.5199 84.6125 35.2522 84.5678 35.0291 84.4784C34.806 84.389 34.5829 84.2549 34.449 84.1208C34.2705 83.942 34.1366 83.7632 34.0474 83.5397C33.9581 83.3162 33.9135 83.048 33.9135 82.7799C33.9135 82.5117 33.9581 82.2435 34.0474 82.02C34.1366 81.7965 34.2705 81.6177 34.449 81.4389C34.6275 81.2601 34.806 81.1707 35.0291 81.0814C35.2522 80.992 35.5199 80.9473 35.7877 80.9473C36.0554 80.9473 36.3232 80.992 36.5463 81.0814C36.7694 81.1707 36.9925 81.3048 37.171 81.4389C37.3495 81.6177 37.4833 81.7965 37.5726 82.02C37.6618 82.2882 37.7065 82.5117 37.7065 82.7799Z" fill="#2976BC"/>
<path d="M54.8415 79.6512C54.8861 79.7406 54.9308 79.83 55.02 79.9194C55.1093 80.0088 55.1985 80.0982 55.2877 80.1429C55.377 80.2323 55.5109 80.277 55.6447 80.3217C55.7786 80.3664 55.9125 80.3664 56.091 80.3664C56.2248 80.3664 56.3587 80.3664 56.4926 80.3217C56.6264 80.277 56.7603 80.2323 56.8495 80.1429C56.9388 80.0535 57.028 80.0088 57.1173 79.9194C57.2065 79.83 57.2511 79.7406 57.2958 79.6512L56.8495 79.4277C56.8049 79.5618 56.7157 79.6959 56.5372 79.7853C56.4033 79.8747 56.2248 79.9194 56.091 79.9194C55.9125 79.9194 55.7786 79.8747 55.6447 79.7853C55.5109 79.6959 55.4216 79.5618 55.3324 79.4277L54.8415 79.6512ZM56.9388 82.1543L55.1539 84.5233H54.306V81.0369H55.1539V83.3611L56.9388 81.0369H57.7866V84.5233H56.9388V82.1543Z" fill="#2976BC"/>
<path d="M70.5488 73.707H68.8085V74.4224H70.5488V73.707Z" fill="#2976BC"/>
<path d="M61.0889 75.8516H60.241V72.3652H61.0889V73.7062H62.6507V72.3652H63.4985V75.8516H62.6507V74.3766H61.0889V75.8516Z" fill="#2976BC"/>
<path d="M55.8232 72.3652L57.1173 73.9296L58.4113 72.3652H59.1699V75.8516H58.3221V73.5721L57.2065 75.0024H57.028L55.9125 73.5721V75.8516H55.0646V72.3652H55.8232Z" fill="#2976BC"/>
<path d="M47.1664 72.3652H50.2007V73.0357H49.0852V75.8516H48.2373V73.0357H47.1664V72.3652Z" fill="#2976BC"/>
<path d="M42.0347 73.438L40.2498 75.8516H39.3573V72.3652H40.2498V74.6895L42.0347 72.3652H42.8826V75.8516H42.0347V73.438Z" fill="#2976BC"/>
<path d="M30.2544 72.3652H33.3334V73.0357H32.2178V75.8516H31.3253V73.0357H30.2544V72.3652Z" fill="#2976BC"/>
<path d="M28.2909 74.913L29.1834 72.3652H30.1205L28.6033 76.2986C28.514 76.4774 28.4694 76.6562 28.3802 76.835C28.2909 77.0138 28.2017 77.1479 28.1124 77.2373C28.0232 77.3267 27.8893 77.4161 27.7108 77.5054C27.577 77.5501 27.3985 77.5948 27.1754 77.5948C27.0861 77.5948 26.9969 77.5948 26.9076 77.5948C26.8184 77.5948 26.7291 77.5501 26.6399 77.5501L26.7291 76.7903C26.7737 76.7903 26.863 76.835 26.9076 76.835C26.9522 76.835 27.0415 76.835 27.0861 76.835C27.2646 76.835 27.3985 76.7903 27.4877 76.7009C27.577 76.6115 27.6662 76.4774 27.7108 76.2986L27.8893 75.8069L26.4168 72.3652H27.3538L28.2909 74.913Z" fill="#2976BC"/>
<path d="M23.1592 72.3652H26.2382V73.0357H25.078V75.8516H24.2302V73.0357H23.1592V72.3652Z" fill="#2976BC"/>
<path d="M21.6422 73.438L19.8573 75.8516H18.9648V72.3652H19.8573V74.6895L21.6422 72.3652H22.49V75.8516H21.6422V73.438Z" fill="#2976BC"/>
<path d="M15.261 72.3652H18.34V73.0357H17.2244V75.8516H16.3319V73.0357H15.261V72.3652Z" fill="#2976BC"/>
<path d="M8.6123 75.8516H7.76447V72.3652H8.6123V73.7062H10.1741V72.3652H11.0219V75.8516H10.1741V74.3766H8.6123V75.8516Z" fill="#2976BC"/>
<path d="M53.369 73.7504C53.369 73.4822 53.2798 73.3034 53.1459 73.1247C53.012 72.9459 52.7889 72.8565 52.4766 72.8565C52.3427 72.8565 52.2088 72.9012 52.075 72.9459C51.9411 72.9906 51.8518 73.08 51.7626 73.1247C51.6734 73.2141 51.6287 73.3034 51.5395 73.3928C51.4949 73.4822 51.4502 73.6163 51.4502 73.7504H53.369ZM54.2169 74.0633V74.1974C54.2169 74.2421 54.2169 74.2868 54.2169 74.3315H51.5395C51.5395 74.4656 51.5841 74.5997 51.6287 74.6891C51.6733 74.8232 51.7626 74.9126 51.8518 75.002C51.9411 75.0914 52.0303 75.1361 52.1642 75.1808C52.2981 75.2255 52.4319 75.2702 52.5658 75.2702C52.7889 75.2702 52.9674 75.2255 53.1459 75.1361C53.3244 75.0467 53.4136 74.9126 53.5029 74.8232L54.1276 75.2255C53.9491 75.4936 53.726 75.6724 53.4583 75.7618C53.1905 75.8959 52.9228 75.9406 52.5658 75.9406C52.2981 75.9406 52.075 75.8959 51.8518 75.8065C51.6287 75.7171 51.4056 75.583 51.2717 75.4489C51.0933 75.2702 50.9594 75.0914 50.8701 74.8679C50.7809 74.6444 50.7363 74.3762 50.7363 74.108C50.7363 73.8398 50.7809 73.5716 50.8701 73.3481C50.9594 73.1247 51.0933 72.9459 51.2717 72.7671C51.4502 72.5883 51.6287 72.4989 51.8518 72.4095C52.075 72.3201 52.2981 72.2754 52.5658 72.2754C52.8336 72.2754 53.0567 72.3201 53.2798 72.4095C53.5029 72.4989 53.6814 72.633 53.8153 72.7671C53.9491 72.9012 54.083 73.1247 54.1722 73.3481C54.1722 73.5716 54.2169 73.7951 54.2169 74.0633Z" fill="#2976BC"/>
<path d="M67.2915 74.1078C67.2915 73.9737 67.2468 73.7949 67.2022 73.6608C67.1576 73.5267 67.0684 73.3926 66.9791 73.3032C66.8899 73.2138 66.8006 73.1244 66.6667 73.0797C66.5329 73.035 66.399 72.9903 66.2205 72.9903C66.042 72.9903 65.9082 73.035 65.7743 73.0797C65.6404 73.1244 65.5512 73.2138 65.4619 73.3032C65.3727 73.3926 65.2834 73.5267 65.2388 73.6608C65.1942 73.7949 65.1496 73.929 65.1496 74.1078C65.1496 74.2419 65.1942 74.4206 65.2388 74.5547C65.2834 74.6888 65.3727 74.8229 65.4619 74.9123C65.5512 75.0017 65.6404 75.0911 65.7743 75.1358C65.9082 75.1805 66.042 75.2252 66.2205 75.2252C66.399 75.2252 66.5329 75.1805 66.6667 75.1358C66.8006 75.0911 66.8899 75.0017 66.9791 74.9123C67.0684 74.8229 67.1576 74.6888 67.2022 74.5547C67.2915 74.376 67.2915 74.2419 67.2915 74.1078ZM68.1839 74.0631C68.1839 74.3313 68.1393 74.5994 68.0501 74.8229C67.9608 75.0464 67.8269 75.2252 67.6484 75.404C67.47 75.5828 67.2915 75.6722 67.0237 75.7616C66.8006 75.851 66.5329 75.8957 66.2651 75.8957C65.9974 75.8957 65.7297 75.851 65.5065 75.7616C65.2834 75.6722 65.0603 75.5381 64.9264 75.404C64.748 75.2252 64.6141 75.0464 64.5248 74.8229C64.4356 74.5994 64.391 74.3313 64.391 74.0631C64.391 73.7949 64.4356 73.5267 64.5248 73.3032C64.6141 73.0797 64.748 72.9009 64.9264 72.7221C65.1049 72.5433 65.2834 72.454 65.5065 72.3646C65.7297 72.2752 65.9974 72.2305 66.2651 72.2305C66.5329 72.2305 66.8006 72.2752 67.0237 72.3646C67.2468 72.454 67.47 72.588 67.6484 72.7221C67.8269 72.9009 67.9608 73.0797 68.0501 73.3032C68.1393 73.5714 68.1839 73.7949 68.1839 74.0631Z" fill="#2976BC"/>
<path d="M46.4079 73.3479C46.3186 73.2585 46.2294 73.1691 46.0955 73.0797C45.9617 73.035 45.8278 72.9903 45.6493 72.9903C45.4708 72.9903 45.3369 73.035 45.2031 73.0797C45.0692 73.1244 44.9799 73.2138 44.8907 73.3032C44.8015 73.3926 44.7122 73.5267 44.6676 73.6608C44.623 73.7949 44.5783 73.929 44.5783 74.1078C44.5783 74.2419 44.623 74.4206 44.6676 74.5547C44.7122 74.6888 44.8015 74.8229 44.8907 74.9123C44.9799 75.0017 45.1138 75.0911 45.2031 75.1358C45.3369 75.1805 45.4708 75.2252 45.6493 75.2252C45.8278 75.2252 45.9617 75.1805 46.0955 75.1358C46.2294 75.0911 46.3186 75.0017 46.4079 74.8676L46.9434 75.404C46.8095 75.5828 46.631 75.6722 46.4079 75.7616C46.1848 75.851 45.917 75.8957 45.6493 75.8957C45.3816 75.8957 45.1138 75.851 44.8907 75.7616C44.6676 75.6722 44.4445 75.5381 44.266 75.404C44.0875 75.2252 43.9536 75.0464 43.8644 74.8229C43.7751 74.5994 43.7305 74.3313 43.7305 74.0631C43.7305 73.7949 43.7751 73.5267 43.8644 73.3032C43.9536 73.0797 44.0875 72.9009 44.266 72.7221C44.4445 72.5433 44.623 72.454 44.8907 72.3646C45.1584 72.2752 45.3816 72.2305 45.6493 72.2305C45.8724 72.2305 46.1401 72.2752 46.3633 72.3646C46.5864 72.454 46.8095 72.588 46.9434 72.7668L46.4079 73.3479Z" fill="#2976BC"/>
<path d="M38.2417 73.3479C38.1524 73.2585 38.0632 73.1691 37.9293 73.0797C37.7955 73.035 37.6616 72.9903 37.4831 72.9903C37.3046 72.9903 37.1707 73.035 37.0369 73.0797C36.903 73.1244 36.8138 73.2138 36.7245 73.3032C36.6353 73.3926 36.546 73.5267 36.5014 73.6608C36.4568 73.7949 36.4122 73.929 36.4122 74.1078C36.4122 74.2419 36.4568 74.4206 36.5014 74.5547C36.546 74.6888 36.6353 74.8229 36.7245 74.9123C36.8138 75.0017 36.9476 75.0911 37.0369 75.1358C37.1707 75.1805 37.3046 75.2252 37.4831 75.2252C37.6616 75.2252 37.7955 75.1805 37.9293 75.1358C38.0632 75.0911 38.1524 75.0017 38.2417 74.8676L38.7772 75.404C38.6433 75.5828 38.4648 75.6722 38.2417 75.7616C38.0186 75.851 37.7508 75.8957 37.4831 75.8957C37.2154 75.8957 36.9476 75.851 36.7245 75.7616C36.5014 75.6722 36.2783 75.5381 36.0998 75.404C35.9213 75.2252 35.7874 75.0464 35.6982 74.8229C35.6089 74.5994 35.5643 74.3313 35.5643 74.0631C35.5643 73.7949 35.6089 73.5267 35.6982 73.3032C35.7874 73.0797 35.9213 72.9009 36.0998 72.7221C36.2783 72.5433 36.4568 72.454 36.7245 72.3646C36.9923 72.2752 37.2154 72.2305 37.4831 72.2305C37.7062 72.2305 37.974 72.2752 38.1971 72.3646C38.4202 72.454 38.6433 72.588 38.7772 72.7668L38.2417 73.3479Z" fill="#2976BC"/>
<path d="M14.547 73.3479C14.4578 73.2585 14.3685 73.1691 14.2347 73.0797C14.1008 73.035 13.9669 72.9903 13.7884 72.9903C13.61 72.9903 13.4761 73.035 13.3422 73.0797C13.2083 73.1244 13.1191 73.2138 13.0299 73.3032C12.9406 73.3926 12.8514 73.5267 12.8067 73.6608C12.7621 73.7949 12.7175 73.929 12.7175 74.1078C12.7175 74.2419 12.7621 74.4206 12.8067 74.5547C12.8514 74.6888 12.9406 74.8229 13.0299 74.9123C13.1191 75.0017 13.253 75.0911 13.3422 75.1358C13.4761 75.1805 13.61 75.2252 13.7884 75.2252C13.9669 75.2252 14.1008 75.1805 14.2347 75.1358C14.3685 75.0911 14.4578 75.0017 14.547 74.8676L15.0825 75.404C14.9486 75.5828 14.7702 75.6722 14.547 75.7616C14.3239 75.851 14.0562 75.8957 13.7884 75.8957C13.5207 75.8957 13.253 75.851 13.0299 75.7616C12.8067 75.6722 12.5836 75.5381 12.4051 75.404C12.2266 75.2252 12.0928 75.0464 12.0035 74.8229C11.9143 74.5994 11.8697 74.3313 11.8697 74.0631C11.8697 73.7949 11.9143 73.5267 12.0035 73.3032C12.0928 73.0797 12.2266 72.9009 12.4051 72.7221C12.5836 72.5433 12.7621 72.454 13.0299 72.3646C13.2976 72.2752 13.5207 72.2305 13.7884 72.2305C14.0116 72.2305 14.2793 72.2752 14.5024 72.3646C14.7255 72.454 14.9486 72.588 15.0825 72.7668L14.547 73.3479Z" fill="#2976BC"/>
<path d="M3.07894 74.5552L5.57782 70.7559H6.64877V75.8514H5.75631V72.0074H5.71169L3.2128 75.8514H2.18648V70.7559H3.07894V74.5552Z" fill="#2976BC"/>
<path d="M38.0187 31.3781C38.5542 31.3781 39.1789 31.2441 39.5805 31.6016C40.1606 32.138 40.2945 33.032 40.5622 33.7918C40.8746 34.6858 40.9639 34.8199 41.187 35.7585C41.4101 36.7419 41.6778 37.7252 41.8117 38.7086C41.9009 39.1555 42.124 39.6472 41.9009 40.0495C41.6778 40.4518 41.1423 40.6306 40.6961 40.6306C40.2945 40.6753 39.8483 40.4965 39.5805 40.2283C39.3128 39.9601 39.1789 39.5578 39.0897 39.1555C38.9112 38.4851 38.9112 37.7699 38.7773 37.0994C38.5988 36.429 38.2865 35.8032 38.108 35.1327C37.9295 34.4623 38.108 34.5964 37.8849 33.9706C37.7064 33.4789 37.1709 33.1214 37.037 32.6297C36.9478 32.3168 37.037 31.9592 37.2155 31.691C37.4386 31.4675 37.751 31.3781 38.0187 31.3781Z" fill="#F4964E"/>
<path d="M19.0986 20.2935C18.7416 19.936 18.34 19.6231 17.9384 19.3549C17.5368 19.0867 17.0459 18.9079 16.5997 18.7291C15.9304 18.4609 15.3056 18.1034 14.5917 17.9693C13.7885 17.8352 12.9853 17.9246 12.182 17.9693C11.5127 18.014 10.7987 18.0587 10.1294 18.1927C9.41542 18.3268 8.74607 18.5503 8.07673 18.8632C7.40739 19.1314 6.69342 19.489 6.11332 19.936C5.39935 20.4276 4.77463 21.0534 4.19453 21.6792C3.79293 22.1261 3.48057 22.6178 3.16821 23.1542C2.90047 23.6012 2.72198 24.0928 2.54349 24.6292C2.36499 25.1209 2.27575 25.7466 2.14188 26.283C2.32037 26.283 2.54349 26.3277 2.72198 26.3724C2.7666 26.1489 2.85585 25.9701 2.90047 25.7466C2.98972 25.4785 3.12358 25.3444 3.25745 25.1209C3.12358 26.0148 2.94509 26.6406 2.85585 27.4899C2.7666 28.1603 2.7666 28.8308 2.72198 29.5012C2.90047 29.5012 3.12358 29.6353 3.25745 29.7247C3.30208 29.4119 3.25745 28.9649 3.3467 28.652C3.39132 28.4285 3.48057 28.0709 3.56981 27.8474C3.52519 28.652 3.39132 29.5459 3.43595 30.3505C3.43595 31.0657 3.52519 31.8255 3.56981 32.5407C3.74831 32.7195 4.01604 32.8536 4.19453 33.0324C4.14991 32.6748 4.06067 32.3619 4.06067 32.0043C4.06067 31.6914 4.10529 31.3339 4.14991 31.021C4.41765 31.6467 4.55152 32.3619 4.86388 32.9877C5.13162 33.524 5.4886 34.0604 5.80096 34.5968C6.0687 34.6862 6.33644 34.7756 6.60417 34.8203C6.4703 34.5074 6.33643 34.1945 6.33643 33.7922C6.55955 34.0604 6.69342 34.418 6.96116 34.6415C7.22889 34.9097 7.67512 35.2672 7.94286 35.5354C8.07673 35.4907 8.16598 35.4907 8.29984 35.4907C8.12135 35.1332 7.85361 34.6862 7.6305 34.3286C7.49663 34.0157 7.49663 33.6134 7.40739 33.3005C7.67512 33.7028 7.85361 34.1945 8.16597 34.5521C8.47834 34.9097 8.70145 35.4907 8.87994 36.0271C9.05843 36.0271 9.28155 36.0718 9.46004 36.0718C9.59391 35.7142 9.50466 35.3566 9.50466 34.9544C9.68315 35.4013 9.90627 35.8483 9.86165 36.3847C9.99552 36.3847 10.1294 36.3847 10.3079 36.3847C10.531 36.1165 10.6202 35.6248 10.6202 35.3119C10.6649 35.6695 10.7095 36.0718 10.6202 36.5635C10.7541 36.6082 10.888 36.6082 11.0218 36.6529C11.245 36.4294 11.4234 36.2059 11.5127 35.9824C11.6019 36.2059 11.6019 36.4741 11.5573 36.6976C11.6912 36.7423 11.7804 36.8317 11.9143 36.8764C12.4052 36.6529 12.6283 36.3847 12.9406 35.9824C13.1637 35.7142 13.2976 35.2672 13.5653 34.9991C13.967 35.1332 14.4132 35.2225 14.7702 35.446C15.1272 35.6248 15.4395 35.893 15.618 36.2506C15.7073 36.3847 15.5288 36.5635 15.3949 36.6529C14.9487 36.8317 14.4578 36.8317 14.0116 37.0105C13.8331 37.0998 13.6992 37.3233 13.4761 37.368C12.8514 37.5468 12.2267 37.5468 11.5573 37.5915C10.9326 37.6809 10.3079 37.7703 9.68316 37.815C9.37079 37.9044 9.05843 37.9491 8.74607 38.0385C7.94286 37.815 7.18427 37.5915 6.38106 37.4127C5.66709 37.2786 4.9085 37.2339 4.14991 37.1892C3.83755 37.1445 3.52519 37.0551 3.25745 37.0105C2.81122 36.8764 2.32037 36.8317 1.82952 36.8317C1.65103 36.8317 1.47254 36.9658 1.6064 37.0998C1.74027 37.3233 2.05263 37.368 2.27575 37.5468C2.14188 37.6362 2.00801 37.7256 1.87414 37.7703C1.51716 37.9491 1.16018 38.0832 0.803192 38.2173C0.535455 38.3067 0.133848 38.2173 -0.0446434 38.4408C-0.133889 38.6196 0.178471 38.7984 0.356963 38.8878C0.624701 39.0218 0.937061 39.0665 1.24942 39.1112C1.69565 39.1559 2.14188 39.2006 2.58811 39.2006C2.90047 39.2006 3.21283 39.1559 3.52519 39.2006C3.83755 39.2453 4.14991 39.4688 4.46227 39.5582C4.99775 39.737 5.53322 39.9158 6.11332 40.0052C6.82729 40.1393 7.58588 40.184 8.29984 40.3181C8.43371 40.3628 8.52296 40.4969 8.70145 40.4969C8.83532 40.4969 8.96919 40.3628 9.10306 40.4075C9.72778 40.5416 10.3525 40.8097 10.9772 40.8991C11.6912 41.0332 12.4052 41.0779 13.1637 41.1226C13.6992 41.1226 14.1901 41.0779 14.7255 41.0779C15.0379 41.5696 15.3056 42.0166 15.618 42.5083C15.9304 42.9999 16.332 43.4469 16.5997 43.9386C16.8228 44.3856 16.9567 44.8772 17.0906 45.3689C17.1798 45.7712 17.2244 46.2182 17.1798 46.6204C17.1352 46.8886 16.9121 47.0674 16.8228 47.2909C16.689 47.6932 16.5551 48.0955 16.5105 48.4977C16.4658 48.8553 16.4212 49.2129 16.4658 49.5705C16.5105 49.8387 16.6443 50.1516 16.7782 50.375C16.9121 50.6432 17.1352 50.9114 17.3137 51.1796C16.9121 51.5819 16.4212 51.9395 16.0642 52.3864C15.618 52.9228 15.2164 53.5039 14.904 54.0849C14.7702 54.3531 14.7255 54.666 14.6363 54.9342C14.4132 54.8448 14.1901 54.7554 13.9223 54.7107C13.4315 54.6213 12.9406 54.6213 12.4052 54.6213C12.0928 54.6213 11.8251 54.7107 11.5127 54.7107C11.0218 54.666 10.531 54.6213 10.0848 54.4425C9.81702 54.3531 9.63853 54.0402 9.37079 53.9062C9.14768 53.7721 8.87994 53.7274 8.6122 53.7274C8.38909 53.7274 8.2106 53.8615 8.07673 54.0402C7.80899 54.3084 7.67512 54.7107 7.45201 55.0236C7.27352 55.2471 7.09502 55.5153 6.87191 55.6941C6.4703 55.9622 5.97945 56.0516 5.62247 56.3645C5.31011 56.6327 5.17624 56.9903 4.99775 57.3479C4.9085 57.5714 4.9085 57.8395 4.86388 58.1077C4.81926 58.2865 4.64076 58.4206 4.68539 58.5994C4.73001 58.7782 4.86388 58.9123 5.04237 58.9123C5.35473 58.9123 5.66709 58.6441 5.97945 58.51C6.38106 58.3759 6.78266 58.3312 7.13965 58.1971C7.54125 58.063 7.94286 57.8395 8.34447 57.6608C8.65683 57.5267 8.96919 57.1691 9.28155 57.2585C10.2186 57.4373 11.0218 58.0183 11.8697 58.2865C12.7175 58.5547 13.61 58.6888 14.5024 58.9123C14.7255 58.957 14.9487 59.0911 15.1718 59.0911C15.5288 59.0911 15.8857 58.957 16.1981 58.8229C16.4212 58.7335 16.5551 58.51 16.7782 58.3759C17.3583 58.0183 17.983 57.7948 18.5631 57.3926C19.1878 56.9903 19.7679 56.4539 20.348 56.0069C20.6604 55.7388 20.9728 55.4259 21.2851 55.1577C21.6421 55.5153 21.9545 55.8728 22.3114 56.1857C22.6238 56.4539 22.9362 56.7221 23.2931 56.9456C23.6501 57.1691 24.0071 57.2585 24.3641 57.4373C24.4533 57.482 24.5426 57.6161 24.5872 57.7055C24.6318 57.8395 24.6318 58.0183 24.6318 58.1524C24.6318 58.51 24.5872 58.8676 24.6765 59.2252C24.7657 59.6721 24.9442 60.1191 25.1673 60.5661C25.3458 60.879 25.6135 61.0578 25.792 61.3707C26.1044 61.9517 26.3721 62.5328 26.6399 63.1139C26.6845 63.248 26.7737 63.3374 26.7737 63.4714C26.7737 63.6949 26.6399 63.9184 26.6399 64.1419C26.6399 64.3654 26.6845 64.6336 26.7737 64.8571C26.863 65.0806 27.0861 65.2147 27.2646 65.3487C27.4431 65.4381 27.7108 65.4828 27.9339 65.5275C28.2017 65.5722 28.4694 65.6169 28.6925 65.7063C29.0049 65.7957 29.2726 65.9745 29.585 66.1086C29.8081 66.198 30.0312 66.2874 30.2989 66.3321C30.5667 66.3768 30.8344 66.3321 31.1022 66.3321C31.4145 66.3321 31.7269 66.2874 32.0392 66.198C32.307 66.1533 32.5747 66.1086 32.8425 66.0192C33.1102 65.9298 33.4226 65.7957 33.601 65.5722C33.7349 65.4381 33.7349 65.17 33.6903 64.9912C33.6457 64.8571 33.4226 64.8124 33.2887 64.723C33.0209 64.5442 32.7532 64.3207 32.4855 64.0972C31.95 63.6949 31.4591 63.2033 30.9683 62.7563C30.5221 62.3987 30.0758 62.1305 29.6742 61.7282C29.4511 60.7449 29.3172 59.7615 29.0941 58.7782C28.9603 58.2865 28.6479 57.8395 28.5587 57.3479C28.514 57.2138 28.6033 57.035 28.5587 56.9009C28.4694 56.4986 28.3355 56.0963 28.157 55.6941C28.0678 55.56 27.8893 55.4706 27.8447 55.3365C27.5323 54.7554 27.3538 54.0849 27.0415 53.4592C26.4614 52.3417 25.8367 51.3137 25.2119 50.1963C25.3012 49.794 25.435 49.4364 25.4797 49.0341C25.5689 48.3636 25.6135 47.6932 25.5689 47.0227C25.5243 46.4416 25.2566 45.9053 25.2119 45.3242C25.1673 44.7878 25.3012 44.2068 25.3012 43.6704C25.3012 42.6423 25.3012 41.5696 25.1673 40.5416C25.1227 39.9158 24.8549 39.3347 24.8103 38.709C24.8103 38.5302 24.9442 38.3961 25.0781 38.3067C26.3275 37.5468 27.6662 36.8317 28.9156 35.8036C30.2097 35.1331 31.3253 34.0604 32.4408 33.0324C33.3779 32.7642 34.2258 32.2725 35.0736 31.6914C35.1628 31.602 35.2075 31.3785 35.0736 31.3785C34.0026 31.3338 32.8871 31.4232 31.8161 31.4679C31.4591 31.4679 31.1468 31.6467 30.7898 31.9149C29.6742 32.4066 28.6033 33.0324 27.5323 33.6581C25.7028 34.1051 23.8732 34.5968 21.9991 35.1331C21.5975 35.2225 21.1959 35.1778 20.7943 35.2225C20.6604 35.2225 20.5265 35.2225 20.3927 35.2225C20.3034 35.2225 20.2142 35.2672 20.0803 35.2672C20.0357 35.2672 19.9464 35.2225 19.9464 35.1331C19.8126 34.9544 19.6787 34.8203 19.5894 34.5968C19.5448 34.5521 19.5894 34.418 19.6341 34.418C20.1695 34.2392 20.7943 34.2392 21.2851 34.0604C21.419 34.0157 21.5082 33.8369 21.5529 33.7028C21.6421 33.3899 21.6421 33.0324 21.7313 32.7195C21.776 32.5407 21.9545 32.3619 21.8652 32.1831C21.776 31.9596 21.419 31.9149 21.2851 31.7361C21.1512 31.602 21.1066 31.3785 20.9728 31.1998C21.1512 31.1104 21.3744 31.1551 21.5082 31.021C21.6867 30.8869 21.9545 30.9763 22.133 30.8422C22.2668 30.7528 22.2668 30.6187 22.2668 30.4846C22.2222 30.0823 22.133 29.7694 22.0437 29.4119C22.2668 29.1437 22.4899 28.8308 22.6684 28.5179C22.7131 28.4285 22.6684 28.2944 22.5792 28.2497C22.0437 27.9368 21.3744 27.8474 20.9728 27.4005C20.6158 26.9982 20.6158 26.3724 20.3927 25.8807C20.1695 25.255 19.9018 24.6292 19.6341 23.9587C19.8126 23.8246 19.9911 23.4671 20.0803 23.1542C20.2588 23.4224 20.1695 23.78 20.1249 24.0481C20.3034 24.0481 20.4819 24.0928 20.6158 24.0928C20.705 23.6906 20.9281 23.1989 20.3034 21.858C20.0357 21.2322 19.5448 20.7852 19.0986 20.2935Z" fill="#2976BC"/>
<path d="M13.61 11.7564C13.8331 11.4882 14.1901 11.2647 14.5471 11.2647C15.3057 11.22 16.0196 11.4882 16.7336 11.6223C17.4029 11.7564 18.0723 11.8905 18.7416 12.114C19.3663 12.2928 19.9464 12.6057 20.5712 12.8738C21.1959 13.142 21.8652 13.1867 22.4453 13.6337C22.6684 13.8125 22.8469 14.1701 22.8469 14.5277C22.8469 14.9299 22.6684 15.3322 22.4453 15.5557C22.1776 15.8239 21.8206 15.9133 21.5083 15.9133C20.8835 15.8239 20.2588 15.4216 19.6341 15.2428C18.9647 15.064 18.2508 15.1087 17.5814 14.9299C16.8675 14.7511 16.1981 14.3936 15.4842 14.1254C14.9487 13.9019 14.4132 13.7678 13.967 13.4549C13.7439 13.2761 13.5207 13.0079 13.4315 12.6504C13.3423 12.2928 13.4315 11.9352 13.61 11.7564Z" fill="#F4964E"/>
<path d="M41.6332 11.129C42.3025 11.71 42.9719 12.2911 43.5073 13.0063C44.0428 13.7214 44.3998 14.526 44.7122 15.3753C44.9799 16.0457 45.1138 16.7609 45.2476 17.476C45.3815 18.2806 45.4261 19.0852 45.3815 19.9344C45.2923 21.1412 45.0691 22.3928 44.7568 23.5549C44.5783 24.1807 44.1767 24.7618 43.8197 25.2981C43.4181 25.8792 42.9272 26.4603 42.4364 26.9966C41.9902 27.4883 41.4993 27.98 40.9638 28.3376C40.2052 28.8292 39.402 29.2762 38.5096 29.5891C37.7956 29.8573 36.9924 30.0361 36.2338 30.1255C35.6091 30.2149 34.9844 30.2149 34.3596 30.1702C33.5118 30.1255 32.664 30.1255 31.8608 29.9467C31.0129 29.7679 30.2097 29.3656 29.4065 29.008C28.7818 28.7398 28.2017 28.4717 27.6662 28.1141C26.9522 27.5777 26.2829 26.9966 25.7028 26.3262C25.1673 25.7451 24.6318 25.164 24.3195 24.4489C23.8286 23.3761 23.5609 22.1693 23.3378 21.0072C23.1593 20.1132 23.07 19.2192 23.07 18.2806C23.1147 17.5207 23.2932 16.8056 23.5163 16.0904C23.784 15.3306 24.141 14.5707 24.5872 13.9002C25.0334 13.1851 25.6135 12.5593 26.2383 12.0229C26.9076 11.3972 27.6662 10.8161 28.4694 10.3691C29.4511 9.83275 30.5221 9.38577 31.593 9.07289C32.5301 8.8047 33.4672 8.67061 34.4489 8.76C35.4752 8.8047 36.4569 9.02819 37.394 9.43047C38.3311 9.83275 39.1789 10.5032 39.9821 11.1737C40.5176 11.6207 41.0085 12.2017 41.4101 12.8275C41.8117 13.4533 42.2133 14.1237 42.4364 14.8389C42.6595 15.5093 42.7934 16.2245 42.838 16.895C42.9272 17.6995 42.9272 18.5041 42.838 19.2639C42.7488 20.0238 42.6149 20.8284 42.2579 21.5435C41.8117 22.5269 41.2316 23.5102 40.473 24.2701C39.6698 25.0299 38.6881 25.611 37.7064 26.058C36.9031 26.4156 36.0553 26.5497 35.1629 26.5944C34.1811 26.6391 33.1994 26.6391 32.2624 26.3262C31.3699 26.0133 30.5667 25.3875 29.8527 24.7618C29.3172 24.3148 28.8264 23.8231 28.4694 23.242C28.0678 22.5716 27.8001 21.8117 27.6662 21.0072C27.5323 20.292 27.4877 19.5321 27.6216 18.7723C27.7554 17.923 27.9339 17.0291 28.3802 16.3139C28.871 15.554 29.5404 14.9283 30.299 14.4366C30.9237 13.9896 31.6376 13.7214 32.3516 13.5426C33.1548 13.3639 34.0473 13.2745 34.8951 13.4086C35.4752 13.498 36.0553 13.7661 36.5462 14.079C37.0816 14.3919 37.6171 14.7048 37.9741 15.1965C38.3757 15.6881 38.6434 16.3139 38.8219 16.895C39.0004 17.476 39.045 18.0571 39.0004 18.6382C39.0004 19.0852 38.8666 19.5768 38.6881 19.9791C38.5096 20.3814 38.2865 20.7837 37.9741 21.0965C37.6617 21.4541 37.3048 21.8564 36.8585 22.0799C36.323 22.3481 35.743 22.5716 35.1629 22.5716C34.6274 22.5716 34.0473 22.4822 33.5564 22.214C33.021 21.9458 32.5747 21.4988 32.2624 21.0072C32.0392 20.6496 32.0392 20.1579 32.0392 19.7109C32.0392 19.3086 32.1285 18.9064 32.307 18.5935C32.4855 18.3253 32.7532 18.1465 33.021 17.9677C33.2441 17.8336 33.5118 17.6995 33.7349 17.6548C33.8688 17.6548 34.0027 17.7442 34.0473 17.8783C34.0919 18.0571 33.8688 18.2359 33.8242 18.4147C33.8242 18.6382 33.8242 18.9511 34.0027 19.1299C34.2258 19.3533 34.5828 19.4427 34.8951 19.4874C35.1629 19.5321 35.4752 19.5321 35.6983 19.398C35.9661 19.2192 36.2338 18.9511 36.323 18.6382C36.4123 18.3253 36.3677 17.923 36.2338 17.6101C36.0999 17.2972 35.8768 17.0291 35.6091 16.8056C35.3413 16.5821 35.029 16.4033 34.7166 16.3139C34.4043 16.2245 34.0473 16.2692 33.6903 16.3586C33.2887 16.448 32.8871 16.5821 32.5301 16.7609C32.1731 16.9397 31.8608 17.1632 31.593 17.4313C31.2807 17.7442 31.0129 18.1465 30.8344 18.5935C30.7006 18.9958 30.7006 19.4874 30.7006 19.9344C30.7452 20.3814 30.7898 20.8284 30.9683 21.2306C31.1468 21.6329 31.4145 21.9905 31.7269 22.3034C32.0839 22.6163 32.5301 22.8845 32.9763 23.1079C33.3779 23.2867 33.8242 23.3314 34.2704 23.3761C34.8059 23.4208 35.3413 23.4655 35.8768 23.3761C36.5015 23.2867 37.0816 23.0632 37.6171 22.7951C38.0187 22.5716 38.4203 22.2587 38.7327 21.9458C39.045 21.5882 39.3128 21.1859 39.5359 20.739C39.759 20.292 39.9821 19.845 40.0268 19.3086C40.116 18.5488 40.116 17.7889 39.9375 17.0291C39.759 16.1798 39.4913 15.3306 39.0004 14.6601C38.5542 14.0343 37.9295 13.632 37.3048 13.2298C36.7693 12.8722 36.1892 12.5593 35.6091 12.3358C35.0736 12.157 34.4935 12.0676 33.958 12.0229C33.4672 11.9782 32.9317 12.0229 32.3962 12.1123C31.8608 12.2017 31.3699 12.3805 30.8344 12.5593C30.3436 12.7828 29.8081 13.051 29.3619 13.3639C28.871 13.7214 28.4694 14.1237 28.0678 14.526C27.7108 14.8836 27.3985 15.2859 27.1753 15.7328C26.9076 16.2245 26.6845 16.7162 26.5506 17.2079C26.4168 17.6995 26.3721 18.1912 26.3275 18.6829C26.2829 19.4874 26.149 20.292 26.3275 21.0965C26.4614 21.8117 26.8184 22.5269 27.1753 23.1973C27.577 23.9125 28.1124 24.583 28.6925 25.164C29.3172 25.7898 29.9866 26.2815 30.7006 26.7284C31.236 27.0413 31.8161 27.2648 32.3962 27.3989C33.1548 27.5777 33.958 27.7565 34.7166 27.7565C35.2967 27.7565 35.9214 27.7118 36.5015 27.533C37.2601 27.3095 37.9295 26.8625 38.6434 26.505C39.2682 26.1921 39.8929 25.9239 40.4284 25.4769C40.9192 25.1193 41.2762 24.6277 41.6332 24.136C41.9902 23.6443 42.2133 23.1079 42.4364 22.5716C42.6595 22.0352 42.7934 21.4541 42.9272 20.8731C43.1057 20.2473 43.1504 19.6215 43.195 18.9958C43.2396 18.2806 43.3288 17.5654 43.2842 16.8503C43.195 16.1351 43.0611 15.4199 42.8826 14.7048C42.7488 14.1684 42.5256 13.632 42.3025 13.0957C42.124 12.6487 41.8563 12.2017 41.6332 11.7547C41.5439 11.576 41.4101 11.4419 41.4101 11.2631C41.4101 11.1737 41.5886 11.0396 41.6332 11.129Z" fill="#F4964E"/>
<path d="M45.4709 24.7619C45.7832 24.5384 46.1402 24.4043 46.4972 24.4043C47.345 24.4043 48.1929 24.4937 48.9961 24.7619C50.2009 25.1642 51.3611 25.7899 52.432 26.4157C53.2352 26.8627 54.0385 27.3543 54.6186 28.1142C54.9309 28.5165 55.0648 29.0975 54.8863 29.5445C54.7078 29.9915 54.1277 30.1703 53.6815 30.3491C53.3691 30.4385 52.9675 30.4385 52.6998 30.3044C52.0304 29.9915 51.495 29.4104 50.8256 29.0528C50.2009 28.6953 49.5762 28.4271 48.9514 28.1142C48.416 27.846 47.9251 27.6225 47.3896 27.399C46.7203 27.0862 45.9171 27.0415 45.337 26.5498C45.0246 26.3263 45.0246 25.8346 45.0692 25.4323C45.0692 25.1195 45.2924 24.896 45.4709 24.7619Z" fill="#F4964E"/>
<path d="M45.5601 15.2871C45.6494 14.9295 45.7832 14.572 46.051 14.3038C46.6757 13.7227 47.345 13.231 48.1482 12.8735C49.3084 12.3818 50.5579 12.0242 51.8073 11.756C52.6998 11.5772 53.6369 11.3537 54.5293 11.5325C55.0202 11.6219 55.511 11.9348 55.6895 12.4265C55.868 12.8735 55.5557 13.4098 55.3325 13.8121C55.154 14.125 54.8863 14.3485 54.5739 14.4379C53.86 14.6614 53.1014 14.6167 52.3428 14.7955C51.6735 14.9295 51.0041 15.1977 50.3348 15.3765C49.7993 15.5553 49.2192 15.6894 48.6837 15.8682C47.9698 16.0917 47.345 16.5834 46.5864 16.6281C46.2295 16.6281 45.8725 16.3152 45.6494 16.0023C45.5155 15.8682 45.5155 15.5553 45.5601 15.2871Z" fill="#F4964E"/>
<path d="M39.7591 9.02799C40.1607 8.98329 40.607 8.98329 40.8747 8.67041C41.5887 7.77646 41.9457 6.56962 42.5258 5.58627C43.1505 4.55823 43.8198 3.61958 44.4445 2.59153C44.6677 2.27865 44.98 1.96576 45.0693 1.56349C45.1139 1.2953 45.0693 0.937719 44.8461 0.758929C44.4445 0.401347 43.9091 0.0884639 43.3736 -0.00093133C43.0612 -0.045629 42.7489 0.222557 42.5258 0.446045C41.7225 1.2953 40.9639 2.27865 40.2946 3.262C39.8038 3.97716 39.3575 4.78172 38.9559 5.58627C38.7328 6.12264 38.5543 6.65902 38.4204 7.19539C38.3312 7.59767 38.1973 7.99995 38.2866 8.35753C38.3758 8.62571 38.6882 8.7598 38.9559 8.8939C39.2237 9.02799 39.4914 9.07269 39.7591 9.02799Z" fill="#F4964E"/>
<path d="M29.0496 9.11865C29.2727 8.93985 29.4958 8.62697 29.4065 8.35879C29.0496 7.06255 28.4695 5.85572 27.8447 4.64888C27.2646 3.53144 26.6399 2.4587 25.8813 1.47535C25.4797 0.938979 24.9889 0.492002 24.4534 0.134421C24.1856 -0.0443691 23.784 -0.0443691 23.5163 0.0897238C23.0701 0.268514 22.6238 0.5367 22.4007 0.983676C22.1776 1.43065 22.2222 2.01172 22.4454 2.414C22.7577 3.12916 23.4271 3.57614 23.9179 4.15721C24.498 4.87237 25.0335 5.58753 25.5243 6.30269C25.9706 6.97316 26.2829 7.73302 26.7738 8.35879C27.1308 8.76106 27.5324 9.20804 28.0678 9.38683C28.4248 9.47623 28.7818 9.29744 29.0496 9.11865Z" fill="#F4964E"/>
</g>
<defs>
<clipPath id="clip0_7135_8484">
<rect width="100" height="102" fill="white"/>
</clipPath>
</defs>
</svg>
