<svg width="122" height="51" viewBox="0 0 122 51" fill="none" xmlns="http://www.w3.org/2000/svg">
<path d="M119.635 37.0771V33.2639H116.155V37.0771H114.027V28.0078H116.155V31.4432H119.635V28.0078H121.796V37.0771H119.635Z" fill="white"/>
<path d="M48.6326 16.2242L50.5242 13.3042H51.3349V17.2205H50.6593V14.2661H50.6256L48.7339 17.2205H47.957V13.3042H48.6326V16.2242Z" fill="white"/>
<path d="M52.8195 17.2203H52.1777V14.5408H52.8195V15.5714H54.0018V14.5408H54.6436V17.2203H54.0018V16.0867H52.8195V17.2203Z" fill="white"/>
<path d="M57.3119 15.2966C57.2443 15.2279 57.1768 15.1592 57.0754 15.0905C56.9741 15.0561 56.8728 15.0217 56.7376 15.0217C56.6025 15.0217 56.5012 15.0561 56.3999 15.0905C56.2985 15.1248 56.231 15.1935 56.1634 15.2622C56.0958 15.3309 56.0283 15.434 55.9945 15.537C55.9607 15.6401 55.927 15.7432 55.927 15.8806C55.927 15.9836 55.9607 16.1211 55.9945 16.2241C56.0283 16.3272 56.0958 16.4302 56.1634 16.4989C56.231 16.5676 56.3323 16.6364 56.3999 16.6707C56.5012 16.7051 56.6025 16.7394 56.7376 16.7394C56.8728 16.7394 56.9741 16.7051 57.0754 16.6707C57.1768 16.6364 57.2443 16.5676 57.3119 16.4646L57.7172 16.8768C57.6159 17.0142 57.4808 17.0829 57.3119 17.1516C57.143 17.2204 56.9403 17.2547 56.7376 17.2547C56.535 17.2547 56.3323 17.2204 56.1634 17.1516C55.9945 17.0829 55.8256 16.9799 55.6905 16.8768C55.5554 16.7394 55.454 16.602 55.3865 16.4302C55.3189 16.2585 55.2852 16.0523 55.2852 15.8462C55.2852 15.6401 55.3189 15.434 55.3865 15.2622C55.454 15.0905 55.5554 14.953 55.6905 14.8156C55.8256 14.6782 55.9607 14.6095 56.1634 14.5408C56.3661 14.4721 56.535 14.4377 56.7376 14.4377C56.9065 14.4377 57.1092 14.4721 57.2781 14.5408C57.447 14.6095 57.6159 14.7126 57.7172 14.85L57.3119 15.2966Z" fill="white"/>
<path d="M57.8535 14.5408H60.1843V15.0561H59.3398V17.2203H58.6642V15.0561H57.8535V14.5408Z" fill="white"/>
<path d="M62.684 15.3652L61.3328 17.2203H60.6572V14.5408H61.3328V16.3271L62.684 14.5408H63.3258V17.2203H62.684V15.3652Z" fill="white"/>
<path d="M63.833 14.5408H66.1637V15.0561H65.2855V17.2203H64.6437V15.0561H63.833V14.5408Z" fill="white"/>
<path d="M67.7175 16.4989L68.3931 14.5408H69.1025L67.954 17.5639C67.8864 17.7013 67.8527 17.8387 67.7851 17.9761C67.7175 18.1135 67.65 18.2166 67.5824 18.2853C67.5149 18.354 67.4135 18.4227 67.2784 18.4914C67.1771 18.5257 67.042 18.5601 66.8731 18.5601C66.8055 18.5601 66.738 18.5601 66.6704 18.5601C66.6028 18.5601 66.5353 18.5258 66.4677 18.5258L66.5353 17.9417C66.5691 17.9417 66.6366 17.9761 66.6704 17.9761C66.7042 17.9761 66.7717 17.9761 66.8055 17.9761C66.9406 17.9761 67.042 17.9417 67.1095 17.873C67.1771 17.8043 67.2446 17.7013 67.2784 17.5639L67.4135 17.186L66.2988 14.5408H67.0082L67.7175 16.4989Z" fill="white"/>
<path d="M69.2031 14.5408H71.5339V15.0561H70.6894V17.2203H70.0138V15.0561H69.2031V14.5408Z" fill="white"/>
<path d="M75.2484 15.2966C75.1809 15.2279 75.1133 15.1592 75.012 15.0905C74.9106 15.0561 74.8093 15.0217 74.6742 15.0217C74.5391 15.0217 74.4377 15.0561 74.3364 15.0905C74.235 15.1248 74.1675 15.1935 74.0999 15.2622C74.0324 15.3309 73.9648 15.434 73.931 15.537C73.8973 15.6401 73.8635 15.7432 73.8635 15.8806C73.8635 15.9836 73.8973 16.1211 73.931 16.2241C73.9648 16.3272 74.0324 16.4302 74.0999 16.4989C74.1675 16.5676 74.2688 16.6364 74.3364 16.6707C74.4377 16.7051 74.5391 16.7394 74.6742 16.7394C74.8093 16.7394 74.9106 16.7051 75.012 16.6707C75.1133 16.6364 75.1809 16.5676 75.2484 16.4646L75.6538 16.8768C75.5524 17.0142 75.4173 17.0829 75.2484 17.1516C75.0795 17.2204 74.8768 17.2547 74.6742 17.2547C74.4715 17.2547 74.2688 17.2204 74.0999 17.1516C73.931 17.0829 73.7621 16.9799 73.627 16.8768C73.4919 16.7394 73.3906 16.602 73.323 16.4302C73.2555 16.2585 73.2217 16.0523 73.2217 15.8462C73.2217 15.6401 73.2555 15.434 73.323 15.2622C73.3906 15.0905 73.4919 14.953 73.627 14.8156C73.7621 14.6782 73.8973 14.6095 74.0999 14.5408C74.3026 14.4721 74.4715 14.4377 74.6742 14.4377C74.8431 14.4377 75.0457 14.4721 75.2146 14.5408C75.3835 14.6095 75.5524 14.7126 75.6538 14.85L75.2484 15.2966Z" fill="white"/>
<path d="M78.1205 15.3652L76.7693 17.2203H76.0938V14.5408H76.7693V16.3271L78.1205 14.5408H78.7623V17.2203H78.1205V15.3652Z" fill="white"/>
<path d="M81.432 15.2966C81.3645 15.2279 81.2969 15.1592 81.1956 15.0905C81.0942 15.0561 80.9929 15.0217 80.8578 15.0217C80.7227 15.0217 80.6213 15.0561 80.52 15.0905C80.4186 15.1248 80.3511 15.1935 80.2835 15.2622C80.216 15.3309 80.1484 15.434 80.1146 15.537C80.0809 15.6401 80.0471 15.7432 80.0471 15.8806C80.0471 15.9836 80.0809 16.1211 80.1146 16.2241C80.1484 16.3272 80.216 16.4302 80.2835 16.4989C80.3511 16.5676 80.4524 16.6364 80.52 16.6707C80.6213 16.7051 80.7227 16.7394 80.8578 16.7394C80.9929 16.7394 81.0942 16.7051 81.1956 16.6707C81.2969 16.6364 81.3645 16.5676 81.432 16.4646L81.8374 16.8768C81.736 17.0142 81.6009 17.0829 81.432 17.1516C81.2631 17.2204 81.0604 17.2547 80.8578 17.2547C80.6551 17.2547 80.4524 17.2204 80.2835 17.1516C80.1146 17.0829 79.9457 16.9799 79.8106 16.8768C79.6755 16.7394 79.5742 16.602 79.5066 16.4302C79.4391 16.2585 79.4053 16.0523 79.4053 15.8462C79.4053 15.6401 79.4391 15.434 79.5066 15.2622C79.5742 15.0905 79.6755 14.953 79.8106 14.8156C79.9457 14.6782 80.0809 14.6095 80.2835 14.5408C80.4862 14.4721 80.6551 14.4377 80.8578 14.4377C81.0267 14.4377 81.2293 14.4721 81.3982 14.5408C81.5671 14.6095 81.736 14.7126 81.8374 14.85L81.432 15.2966Z" fill="white"/>
<path d="M82.0049 14.5408H84.3018V15.0561H83.4574V17.2203H82.8156V15.0561H82.0049V14.5408Z" fill="white"/>
<path d="M86.7 15.6053C86.7 15.3992 86.6324 15.2618 86.5311 15.1244C86.4298 14.987 86.2609 14.9183 86.0244 14.9183C85.9231 14.9183 85.8217 14.9526 85.7204 14.987C85.6191 15.0213 85.5515 15.09 85.4839 15.1244C85.4164 15.1931 85.3826 15.2618 85.3151 15.3305C85.2813 15.3992 85.2475 15.5023 85.2475 15.6053H86.7ZM87.3418 15.8458V15.9489C87.3418 15.9832 87.3418 16.0176 87.3418 16.0519H85.3151C85.3151 16.155 85.3488 16.2581 85.3826 16.3268C85.4164 16.4298 85.4839 16.4985 85.5515 16.5672C85.6191 16.636 85.6866 16.6703 85.788 16.7047C85.8893 16.739 85.9906 16.7734 86.092 16.7734C86.2609 16.7734 86.396 16.739 86.5311 16.6703C86.6662 16.6016 86.7338 16.4985 86.8013 16.4298L87.2742 16.739C87.1391 16.9451 86.9702 17.0825 86.7675 17.1513C86.5649 17.2543 86.3622 17.2887 86.092 17.2887C85.8893 17.2887 85.7204 17.2543 85.5515 17.1856C85.3826 17.1169 85.2137 17.0138 85.1124 16.9108C84.9773 16.7734 84.8759 16.6359 84.8084 16.4642C84.7408 16.2924 84.707 16.0863 84.707 15.8802C84.707 15.6741 84.7408 15.4679 84.8084 15.2962C84.8759 15.1244 84.9773 14.987 85.1124 14.8496C85.2475 14.7122 85.3826 14.6434 85.5515 14.5747C85.7204 14.506 85.8893 14.4717 86.092 14.4717C86.2946 14.4717 86.4635 14.506 86.6324 14.5747C86.8013 14.6434 86.9364 14.7465 87.0378 14.8496C87.1391 14.9526 87.2405 15.1244 87.308 15.2962C87.308 15.4679 87.3418 15.6397 87.3418 15.8458Z" fill="white"/>
<path d="M88.5586 14.5408L89.5382 15.7431L90.5178 14.5408H91.092V17.2203H90.4502V15.4683L89.6058 16.5676H89.4706L88.6262 15.4683V17.2203H87.9844V14.5408H88.5586Z" fill="white"/>
<path d="M92.5451 17.2203H91.9033V14.5408H92.5451V15.5714H93.7274V14.5408H94.3692V17.2203H93.7274V16.0867H92.5451V17.2203Z" fill="white"/>
<path d="M97.2396 15.8806C97.2396 15.7775 97.2058 15.6401 97.172 15.537C97.1382 15.434 97.0707 15.3309 97.0031 15.2622C96.9356 15.1935 96.868 15.1248 96.7667 15.0905C96.6653 15.0561 96.564 15.0217 96.4289 15.0217C96.2938 15.0217 96.1924 15.0561 96.0911 15.0905C95.9898 15.1248 95.9222 15.1935 95.8546 15.2622C95.7871 15.3309 95.7195 15.434 95.6857 15.537C95.652 15.6401 95.6182 15.7432 95.6182 15.8806C95.6182 15.9836 95.652 16.1211 95.6857 16.2241C95.7195 16.3272 95.7871 16.4302 95.8546 16.4989C95.9222 16.5676 95.9898 16.6364 96.0911 16.6707C96.1924 16.7051 96.2938 16.7394 96.4289 16.7394C96.564 16.7394 96.6653 16.7051 96.7667 16.6707C96.868 16.6364 96.9356 16.5676 97.0031 16.4989C97.0707 16.4302 97.1382 16.3272 97.172 16.2241C97.2396 16.0867 97.2396 15.9836 97.2396 15.8806ZM97.9152 15.8462C97.9152 16.0523 97.8814 16.2585 97.8138 16.4302C97.7463 16.602 97.6449 16.7394 97.5098 16.8768C97.3747 17.0142 97.2396 17.0829 97.0369 17.1516C96.868 17.2204 96.6653 17.2547 96.4627 17.2547C96.26 17.2547 96.0573 17.2204 95.8884 17.1516C95.7195 17.0829 95.5506 16.9799 95.4493 16.8768C95.3142 16.7394 95.2128 16.602 95.1453 16.4302C95.0777 16.2585 95.0439 16.0523 95.0439 15.8462C95.0439 15.6401 95.0777 15.434 95.1453 15.2622C95.2128 15.0905 95.3142 14.953 95.4493 14.8156C95.5844 14.6782 95.7195 14.6095 95.8884 14.5408C96.0573 14.4721 96.26 14.4377 96.4627 14.4377C96.6653 14.4377 96.868 14.4721 97.0369 14.5408C97.2058 14.6095 97.3747 14.7126 97.5098 14.8156C97.6449 14.953 97.7463 15.0905 97.8138 15.2622C97.8814 15.4683 97.9152 15.6401 97.9152 15.8462Z" fill="white"/>
<path d="M99.7044 15.5715H98.3877V16.1212H99.7044V15.5715Z" fill="white"/>
<path d="M49.0357 22.2014L48.5966 23.3694H49.6437L49.1708 21.9609L49.0357 22.2014ZM48.0899 24.6748H47.5156V23.3694H47.9548L48.7992 21.2395H49.5424L50.3193 23.3694H50.7584V24.6748H50.1842V23.9191H48.0899V24.6748Z" fill="white"/>
<path d="M53.0892 22.305C53.0892 22.0989 53.0217 21.9615 52.9203 21.8241C52.819 21.6867 52.6501 21.618 52.4137 21.618C52.3123 21.618 52.211 21.6523 52.1096 21.6867C52.0083 21.721 51.9408 21.7898 51.8732 21.8241C51.8056 21.8928 51.7719 21.9615 51.7043 22.0302C51.6705 22.0989 51.6367 22.202 51.6367 22.305H53.0892ZM53.6973 22.5455V22.6486C53.6973 22.6829 53.6973 22.7173 53.6973 22.7516H51.6705C51.6705 22.8547 51.7043 22.9578 51.7381 23.0265C51.7719 23.1295 51.8394 23.1982 51.907 23.2669C51.9745 23.3357 52.0421 23.37 52.1434 23.4044C52.2448 23.4387 52.3461 23.4731 52.4474 23.4731C52.6163 23.4731 52.7514 23.4387 52.8866 23.37C53.0217 23.3013 53.0892 23.1982 53.1568 23.1295L53.6297 23.4387C53.4946 23.6448 53.3257 23.7822 53.123 23.851C52.9203 23.954 52.7177 23.9884 52.4474 23.9884C52.2448 23.9884 52.0759 23.954 51.907 23.8853C51.7381 23.8166 51.5692 23.7135 51.4678 23.6105C51.3327 23.4731 51.2314 23.3356 51.1638 23.1639C51.0963 22.9921 51.0625 22.786 51.0625 22.5799C51.0625 22.3738 51.0963 22.1676 51.1638 21.9959C51.2314 21.8241 51.3327 21.6867 51.4678 21.5493C51.603 21.4119 51.7381 21.3432 51.907 21.2744C52.0759 21.2057 52.2448 21.1714 52.4474 21.1714C52.6501 21.1714 52.819 21.2057 52.9879 21.2744C53.1568 21.3432 53.2919 21.4462 53.3932 21.5493C53.4946 21.6867 53.5959 21.8241 53.6635 21.9959C53.6635 22.1333 53.6973 22.3394 53.6973 22.5455Z" fill="white"/>
<path d="M54.8814 22.0986C54.8814 22.2361 54.9152 22.3048 55.0503 22.3391C55.1516 22.3735 55.2868 22.4078 55.4894 22.4078H55.8948V21.7895H55.4894C55.2868 21.7895 55.1516 21.8238 55.0503 21.8582C54.949 21.8925 54.8814 21.9612 54.8814 22.0986ZM55.5908 22.9575C55.4894 22.9575 55.3881 22.9575 55.3205 22.9918C55.2192 23.0262 55.1516 23.0605 55.0841 23.1636C55.0165 23.2323 54.9827 23.3354 54.9152 23.4728C54.8814 23.6102 54.8476 23.7476 54.8139 23.9194H54.1045C54.1383 23.5758 54.2396 23.301 54.4085 23.0949C54.5436 22.8888 54.7125 22.7857 54.9152 22.717C54.7463 22.6827 54.5774 22.6483 54.4761 22.5452C54.3409 22.4422 54.3072 22.2704 54.3072 22.0299C54.3072 21.8925 54.3409 21.7895 54.4085 21.6864C54.4761 21.5833 54.5436 21.5146 54.645 21.4459C54.7463 21.3772 54.8476 21.3429 54.9827 21.3085C55.1179 21.2742 55.253 21.2742 55.3881 21.2742H56.6041V23.9537H55.9623V22.9918H55.5908V22.9575Z" fill="white"/>
<path d="M56.9414 21.2395H59.2722V21.7548H58.3939V23.919H57.7521V21.7548H56.9414V21.2395Z" fill="white"/>
<path d="M61.6365 22.305C61.6365 22.0989 61.569 21.9615 61.4676 21.8241C61.3663 21.6867 61.1974 21.618 60.9609 21.618C60.8596 21.618 60.7583 21.6523 60.6569 21.6867C60.5556 21.721 60.488 21.7898 60.4205 21.8241C60.3529 21.8928 60.3191 21.9615 60.2516 22.0302C60.2178 22.0989 60.184 22.202 60.184 22.305H61.6365ZM62.2783 22.5455V22.6486C62.2783 22.6829 62.2783 22.7173 62.2783 22.7516H60.2516C60.2516 22.8547 60.2854 22.9578 60.3191 23.0265C60.3529 23.1295 60.4205 23.1982 60.488 23.2669C60.5556 23.3357 60.6231 23.37 60.7245 23.4044C60.8258 23.4387 60.9272 23.4731 61.0285 23.4731C61.1974 23.4731 61.3325 23.4387 61.4676 23.37C61.6027 23.3013 61.6703 23.1982 61.7378 23.1295L62.2108 23.4387C62.0756 23.6448 61.9067 23.7822 61.7041 23.851C61.5014 23.954 61.2987 23.9884 61.0285 23.9884C60.8258 23.9884 60.6569 23.954 60.488 23.8853C60.3191 23.8166 60.1502 23.7135 60.0489 23.6105C59.9138 23.4731 59.8124 23.3356 59.7449 23.1639C59.6773 22.9921 59.6436 22.786 59.6436 22.5799C59.6436 22.3738 59.6773 22.1676 59.7449 21.9959C59.8124 21.8241 59.9138 21.6867 60.0489 21.5493C60.184 21.4119 60.3191 21.3432 60.488 21.2744C60.6569 21.2057 60.8258 21.1714 61.0285 21.1714C61.2312 21.1714 61.4001 21.2057 61.569 21.2744C61.7378 21.3432 61.873 21.4462 61.9743 21.5493C62.0756 21.6867 62.177 21.8241 62.2445 21.9959C62.2445 22.1333 62.2783 22.3394 62.2783 22.5455Z" fill="white"/>
<path d="M64.7453 23.919L64.0359 22.0296L63.2928 23.919H62.6172L63.6643 21.2395H64.4075L65.4208 23.919H64.7453Z" fill="white"/>
<path d="M66.5672 23.4385H67.0739C67.2428 23.4385 67.3779 23.4042 67.4792 23.3355C67.5805 23.2668 67.6481 23.1637 67.6481 22.9919C67.6481 22.9232 67.6481 22.8545 67.6143 22.7858C67.5805 22.7171 67.5468 22.6828 67.4792 22.6484C67.4116 22.614 67.3779 22.5797 67.3103 22.5797C67.2428 22.5797 67.1752 22.5453 67.0739 22.5453H66.5672V23.4385ZM66.5672 21.2399V22.0987H67.1752C67.3779 22.0987 67.5468 22.1331 67.6819 22.1675C67.817 22.2018 67.9183 22.2705 68.0197 22.3736C68.121 22.4423 68.1548 22.5453 68.1886 22.6484C68.2223 22.7515 68.2561 22.8889 68.2561 22.9919C68.2561 23.1293 68.2223 23.2324 68.1886 23.3355C68.1548 23.4385 68.0872 23.5416 67.9859 23.6103C67.8846 23.679 67.7832 23.7477 67.6481 23.8164C67.513 23.8508 67.3779 23.8851 67.1752 23.8851H65.8916V21.2056H66.5672V21.2399Z" fill="white"/>
<path d="M69.5066 23.919H68.8311V21.2395H69.5066V22.2701H70.6551V21.2395H71.2969V23.919H70.6551V22.7854H69.5066V23.919Z" fill="white"/>
<path d="M74.2021 22.5793C74.2021 22.4763 74.1683 22.3388 74.1345 22.2358C74.1007 22.1327 74.0332 22.0297 73.9656 21.961C73.8981 21.8922 73.8305 21.8235 73.7292 21.7892C73.6278 21.7548 73.5265 21.7205 73.3914 21.7205C73.2563 21.7205 73.1549 21.7548 73.0536 21.7892C72.9522 21.8235 72.8847 21.8922 72.8171 21.961C72.7496 22.0297 72.682 22.1327 72.6482 22.2358C72.6145 22.3388 72.5807 22.4419 72.5807 22.5793C72.5807 22.6824 72.6145 22.8198 72.6482 22.9228C72.682 23.0259 72.7496 23.129 72.8171 23.1977C72.8847 23.2664 72.9522 23.3351 73.0536 23.3694C73.1549 23.4038 73.2563 23.4381 73.3914 23.4381C73.5265 23.4381 73.6278 23.4038 73.7292 23.3694C73.8305 23.3351 73.8981 23.2664 73.9656 23.1977C74.0332 23.129 74.1007 23.0259 74.1345 22.9228C74.1683 22.7854 74.2021 22.6824 74.2021 22.5793ZM74.8439 22.545C74.8439 22.7511 74.8101 22.9572 74.7425 23.129C74.675 23.3007 74.5736 23.4381 74.4385 23.5756C74.3034 23.713 74.1683 23.7817 73.9656 23.8504C73.7967 23.9191 73.594 23.9534 73.3914 23.9534C73.1887 23.9534 72.986 23.9191 72.8171 23.8504C72.6482 23.7817 72.4793 23.6786 72.378 23.5756C72.2429 23.4381 72.1416 23.3007 72.074 23.129C72.0064 22.9572 71.9727 22.7511 71.9727 22.545C71.9727 22.3388 72.0064 22.1327 72.074 21.961C72.1416 21.7892 72.2429 21.6518 72.378 21.5144C72.5131 21.3769 72.6482 21.3082 72.8171 21.2395C72.986 21.1708 73.1887 21.1365 73.3914 21.1365C73.594 21.1365 73.7967 21.1708 73.9656 21.2395C74.1345 21.3082 74.3034 21.4113 74.4385 21.5144C74.5736 21.6518 74.675 21.7892 74.7425 21.961C74.8101 22.1671 74.8439 22.3388 74.8439 22.545Z" fill="white"/>
<path d="M77.3441 21.9953C77.2766 21.9266 77.209 21.8579 77.1077 21.7892C77.0063 21.7548 76.905 21.7205 76.7699 21.7205C76.6348 21.7205 76.5334 21.7548 76.4321 21.7892C76.3307 21.8235 76.2632 21.8922 76.1956 21.961C76.1281 22.0297 76.0605 22.1327 76.0267 22.2358C75.993 22.3388 75.9592 22.4419 75.9592 22.5793C75.9592 22.6824 75.993 22.8198 76.0267 22.9228C76.0605 23.0259 76.1281 23.129 76.1956 23.1977C76.2632 23.2664 76.3645 23.3351 76.4321 23.3694C76.5334 23.4038 76.6348 23.4381 76.7699 23.4381C76.905 23.4381 77.0063 23.4038 77.1077 23.3694C77.209 23.3351 77.2766 23.2664 77.3441 23.1633L77.7495 23.5756C77.6481 23.713 77.513 23.7817 77.3441 23.8504C77.1752 23.9191 76.9725 23.9534 76.7699 23.9534C76.5672 23.9534 76.3645 23.9191 76.1956 23.8504C76.0267 23.7817 75.8578 23.6786 75.7227 23.5756C75.5876 23.4381 75.4863 23.3007 75.4187 23.129C75.3512 22.9572 75.3174 22.7511 75.3174 22.545C75.3174 22.3388 75.3512 22.1327 75.4187 21.961C75.4863 21.7892 75.5876 21.6518 75.7227 21.5144C75.8578 21.3769 75.993 21.3082 76.1956 21.2395C76.3983 21.1708 76.5672 21.1365 76.7699 21.1365C76.9388 21.1365 77.1414 21.1708 77.3103 21.2395C77.4792 21.3082 77.6481 21.4113 77.7495 21.5487L77.3441 21.9953Z" fill="white"/>
<path d="M77.9189 21.2395H80.2497V21.7548H79.3714V23.919H78.7296V21.7548H77.9189V21.2395Z" fill="white"/>
<path d="M81.3635 23.919H80.7217V21.2395H81.3635V22.2701H82.5457V21.2395H83.1875V23.919H82.5457V22.7854H81.3635V23.919Z" fill="white"/>
<path d="M86.0589 22.5793C86.0589 22.4763 86.0251 22.3388 85.9913 22.2358C85.9576 22.1327 85.89 22.0297 85.8224 21.961C85.7549 21.8922 85.6873 21.8235 85.586 21.7892C85.4847 21.7548 85.3833 21.7205 85.2482 21.7205C85.1131 21.7205 85.0118 21.7548 84.9104 21.7892C84.8091 21.8235 84.7415 21.8922 84.674 21.961C84.6064 22.0297 84.5389 22.1327 84.5051 22.2358C84.4713 22.3388 84.4375 22.4419 84.4375 22.5793C84.4375 22.6824 84.4713 22.8198 84.5051 22.9228C84.5389 23.0259 84.6064 23.129 84.674 23.1977C84.7415 23.2664 84.8091 23.3351 84.9104 23.3694C85.0118 23.4038 85.1131 23.4381 85.2482 23.4381C85.3833 23.4381 85.4847 23.4038 85.586 23.3694C85.6873 23.3351 85.7549 23.2664 85.8224 23.1977C85.89 23.129 85.9576 23.0259 85.9913 22.9228C86.0589 22.7854 86.0589 22.6824 86.0589 22.5793ZM86.7345 22.545C86.7345 22.7511 86.7007 22.9572 86.6331 23.129C86.5656 23.3007 86.4642 23.4381 86.3291 23.5756C86.194 23.713 86.0589 23.7817 85.8562 23.8504C85.6873 23.9191 85.4847 23.9534 85.282 23.9534C85.0793 23.9534 84.8766 23.9191 84.7077 23.8504C84.5389 23.7817 84.37 23.6786 84.2686 23.5756C84.1335 23.4381 84.0322 23.3007 83.9646 23.129C83.8971 22.9572 83.8633 22.7511 83.8633 22.545C83.8633 22.3388 83.8971 22.1327 83.9646 21.961C84.0322 21.7892 84.1335 21.6518 84.2686 21.5144C84.4037 21.3769 84.5389 21.3082 84.7077 21.2395C84.8766 21.1708 85.0793 21.1365 85.282 21.1365C85.4847 21.1365 85.6873 21.1708 85.8562 21.2395C86.0251 21.3082 86.194 21.4113 86.3291 21.5144C86.4642 21.6518 86.5656 21.7892 86.6331 21.961C86.6669 22.1671 86.7345 22.3388 86.7345 22.545Z" fill="white"/>
<path d="M87.8155 20.1403C87.8493 20.209 87.8831 20.2777 87.9506 20.3464C88.0182 20.4151 88.0857 20.4838 88.1533 20.5182C88.2208 20.5869 88.3222 20.6212 88.4235 20.6556C88.5249 20.6899 88.6262 20.6899 88.7613 20.6899C88.8626 20.6899 88.964 20.6899 89.0653 20.6556C89.1667 20.6212 89.268 20.5869 89.3355 20.5182C89.4031 20.4495 89.4707 20.4151 89.5382 20.3464C89.6058 20.2777 89.6396 20.209 89.6733 20.1403L89.3355 19.9685C89.3018 20.0716 89.2342 20.1746 89.0991 20.2433C88.9978 20.312 88.8626 20.3464 88.7613 20.3464C88.6262 20.3464 88.5249 20.312 88.4235 20.2433C88.3222 20.1746 88.2546 20.0716 88.1871 19.9685L87.8155 20.1403ZM89.4031 22.0641L88.052 23.8848H87.4102V21.2052H88.052V22.9916L89.4031 21.2052H90.0449V23.8848H89.4031V22.0641Z" fill="white"/>
<path d="M92.8488 23.919H92.207V21.2395H94.6391V23.919H93.9635V21.7548H92.8488V23.919Z" fill="white"/>
<path d="M97.3412 22.305C97.3412 22.0989 97.2736 21.9615 97.1723 21.8241C97.071 21.6867 96.9021 21.618 96.6656 21.618C96.5643 21.618 96.4629 21.6523 96.3616 21.6867C96.2603 21.721 96.1927 21.7898 96.1251 21.8241C96.0576 21.8928 96.0238 21.9615 95.9562 22.0302C95.9225 22.0989 95.8887 22.202 95.8887 22.305H97.3412ZM97.9492 22.5455V22.6486C97.9492 22.6829 97.9492 22.7173 97.9492 22.7516H95.9225C95.9225 22.8547 95.9563 22.9578 95.99 23.0265C96.0238 23.1295 96.0914 23.1982 96.1589 23.2669C96.2265 23.3357 96.294 23.37 96.3954 23.4044C96.4967 23.4387 96.598 23.4731 96.6994 23.4731C96.8683 23.4731 97.0034 23.4387 97.1385 23.37C97.2736 23.3013 97.3412 23.1982 97.4087 23.1295L97.8816 23.4387C97.7465 23.6448 97.5776 23.7822 97.375 23.851C97.1723 23.954 96.9696 23.9884 96.6994 23.9884C96.4967 23.9884 96.3278 23.954 96.1589 23.8853C95.99 23.8166 95.8211 23.7135 95.7198 23.6105C95.5847 23.4731 95.4833 23.3356 95.4158 23.1639C95.3482 22.9921 95.3145 22.786 95.3145 22.5799C95.3145 22.3738 95.3482 22.1676 95.4158 21.9959C95.4833 21.8241 95.5847 21.6867 95.7198 21.5493C95.8549 21.4119 95.99 21.3432 96.1589 21.2744C96.3278 21.2057 96.4967 21.1714 96.6994 21.1714C96.9021 21.1714 97.0709 21.2057 97.2398 21.2744C97.4087 21.3432 97.5439 21.4462 97.6452 21.5493C97.7465 21.6867 97.8479 21.8241 97.9154 21.9959C97.9492 22.1333 97.9492 22.3394 97.9492 22.5455Z" fill="white"/>
<path d="M99.7388 22.2014L99.2997 23.3694H100.347L99.8739 21.9609L99.7388 22.2014ZM98.793 24.6748H98.2188V23.3694H98.6579L99.5023 21.2395H100.245L101.022 23.3694H101.462V24.6748H100.887V23.9191H98.7592V24.6748H98.793Z" fill="white"/>
<path d="M103.388 22.648C103.252 22.648 103.151 22.648 103.016 22.648C102.881 22.648 102.78 22.6824 102.678 22.7167C102.577 22.7511 102.509 22.7854 102.442 22.8541C102.374 22.9228 102.34 22.9916 102.34 23.0946C102.34 23.1633 102.34 23.232 102.374 23.2664C102.408 23.3007 102.442 23.3694 102.476 23.3694C102.509 23.4038 102.577 23.4038 102.644 23.4381C102.712 23.4381 102.746 23.4725 102.813 23.4725C103.016 23.4725 103.185 23.4038 103.32 23.2664C103.421 23.129 103.489 22.9572 103.489 22.7511V22.6137H103.388V22.648ZM103.489 22.1671C103.489 21.9953 103.421 21.8579 103.32 21.7892C103.219 21.7205 103.084 21.6518 102.915 21.6518C102.78 21.6518 102.644 21.6861 102.509 21.7205C102.374 21.7892 102.273 21.8579 102.205 21.9266L101.868 21.5487C102.003 21.4113 102.172 21.3082 102.374 21.2395C102.577 21.1708 102.78 21.1365 102.982 21.1365C103.32 21.1365 103.59 21.2052 103.793 21.3769C103.996 21.5487 104.097 21.7892 104.097 22.1671C104.097 22.2358 104.097 22.2701 104.097 22.3388C104.097 22.3732 104.097 22.4419 104.097 22.5106V23.3694C104.097 23.4725 104.097 23.5756 104.097 23.6443C104.097 23.7473 104.097 23.8504 104.097 23.9191H103.489C103.489 23.8504 103.489 23.816 103.489 23.7473C103.489 23.6786 103.489 23.6443 103.489 23.5756C103.388 23.713 103.286 23.816 103.151 23.8847C103.016 23.9534 102.847 23.9878 102.678 23.9878C102.577 23.9878 102.476 23.9878 102.374 23.9534C102.273 23.9191 102.172 23.8847 102.07 23.816C101.969 23.7473 101.901 23.6786 101.834 23.5756C101.766 23.4725 101.732 23.3351 101.732 23.1977C101.732 22.9916 101.8 22.8541 101.901 22.7167C102.003 22.6137 102.138 22.5106 102.307 22.4419C102.476 22.3732 102.678 22.3388 102.881 22.3045C103.084 22.2701 103.32 22.2701 103.523 22.2701V22.1671H103.489Z" fill="white"/>
<path d="M105.515 23.919H104.873V21.2395H106.63V21.7548H105.515V23.919Z" fill="white"/>
<path d="M109.197 22.5793C109.197 22.4763 109.163 22.3388 109.129 22.2358C109.095 22.1327 109.028 22.0297 108.96 21.961C108.893 21.8922 108.825 21.8235 108.724 21.7892C108.622 21.7548 108.521 21.7205 108.386 21.7205C108.251 21.7205 108.149 21.7548 108.048 21.7892C107.947 21.8235 107.879 21.8922 107.812 21.961C107.744 22.0297 107.677 22.1327 107.643 22.2358C107.609 22.3388 107.575 22.4419 107.575 22.5793C107.575 22.6824 107.609 22.8198 107.643 22.9228C107.677 23.0259 107.744 23.129 107.812 23.1977C107.879 23.2664 107.947 23.3351 108.048 23.3694C108.149 23.4038 108.251 23.4381 108.386 23.4381C108.521 23.4381 108.622 23.4038 108.724 23.3694C108.825 23.3351 108.893 23.2664 108.96 23.1977C109.028 23.129 109.095 23.0259 109.129 22.9228C109.197 22.7854 109.197 22.6824 109.197 22.5793ZM109.872 22.545C109.872 22.7511 109.838 22.9572 109.771 23.129C109.703 23.3007 109.602 23.4381 109.467 23.5756C109.332 23.713 109.197 23.7817 108.994 23.8504C108.825 23.9191 108.622 23.9534 108.42 23.9534C108.217 23.9534 108.014 23.9191 107.845 23.8504C107.677 23.7817 107.508 23.6786 107.406 23.5756C107.271 23.4381 107.17 23.3007 107.102 23.129C107.035 22.9572 107.001 22.7511 107.001 22.545C107.001 22.3388 107.035 22.1327 107.102 21.961C107.17 21.7892 107.271 21.6518 107.406 21.5144C107.541 21.3769 107.677 21.3082 107.845 21.2395C108.014 21.1708 108.217 21.1365 108.42 21.1365C108.622 21.1365 108.825 21.1708 108.994 21.2395C109.163 21.3082 109.332 21.4113 109.467 21.5144C109.602 21.6518 109.703 21.7892 109.771 21.961C109.805 22.1671 109.872 22.3388 109.872 22.545Z" fill="white"/>
<path d="M111.157 23.919H110.516V21.2395H112.272V21.7548H111.157V23.919Z" fill="white"/>
<path d="M114.772 22.064L113.421 23.919H112.745V21.2395H113.421V23.0259L114.772 21.2395H115.414V23.919H114.772V22.064Z" fill="white"/>
<path d="M116.898 22.2701C117 22.2701 117.101 22.2701 117.202 22.3045L117.945 21.2395H118.655L117.743 22.5106C118.013 22.648 118.216 22.8198 118.351 23.0602C118.486 23.3007 118.621 23.5755 118.689 23.9191H117.979C117.945 23.7129 117.878 23.5412 117.81 23.4038C117.743 23.2663 117.675 23.1633 117.574 23.0602C117.472 22.9915 117.371 22.9228 117.27 22.8885C117.168 22.8541 117.033 22.8198 116.864 22.8198V23.9534H116.223V21.2739H116.864V22.2701H116.898Z" fill="white"/>
<path d="M121.359 22.064L119.974 23.919H119.332V21.2395H119.974V23.0259L121.359 21.2395H122.001V23.919H121.359V22.064Z" fill="white"/>
<path d="M55.4223 28.0078V37.0771H53.2943V29.8285H50.0177V37.0771H47.8896V28.0078H55.4223Z" fill="white"/>
<path d="M58.2266 37.0771V28.0078H64.2054V29.8285H60.2871V31.5462H64.0028V33.2982H60.2871V35.1877H64.4419V37.0771H58.2266Z" fill="white"/>
<path d="M70.8578 29.8629V37.0771H68.7297V29.8629H66.1963V28.0078H73.3912V29.8629H70.8578Z" fill="white"/>
<path d="M75.5537 37.0771V28.0078H81.5663V29.8285H77.648V31.5462H81.3299V33.2982H77.648V35.1877H81.769V37.0771H75.5537Z" fill="white"/>
<path d="M88.9984 30.7904C88.9984 30.5843 88.9646 30.4125 88.8633 30.2751C88.7957 30.1377 88.6606 30.0347 88.5255 29.966C88.3904 29.8972 88.2215 29.8285 88.0526 29.8285C87.8837 29.7942 87.681 29.7942 87.4784 29.7942H86.5325V31.9241H87.4446C87.6473 31.9241 87.8499 31.8897 88.0188 31.8897C88.1877 31.8554 88.3566 31.7867 88.5255 31.718C88.6606 31.6493 88.7957 31.5119 88.8633 31.3744C88.9646 31.2027 88.9984 30.9966 88.9984 30.7904ZM91.1603 30.7904C91.1603 31.3057 91.0589 31.7523 90.8562 32.1302C90.6536 32.5081 90.4171 32.7829 90.0793 33.0234C89.7415 33.2295 89.37 33.4013 88.9309 33.5044C88.4917 33.6074 88.0526 33.6418 87.5797 33.6418H86.4988V37.0771H84.3369V28.0078H87.6135C88.0864 28.0078 88.5593 28.0422 88.9646 28.1452C89.4038 28.2483 89.7415 28.3857 90.0793 28.6262C90.3833 28.8323 90.6536 29.1415 90.8225 29.485C91.0589 29.8285 91.1603 30.2751 91.1603 30.7904Z" fill="white"/>
<path d="M99.7749 36.9045C99.2007 37.1793 98.5251 37.3168 97.782 37.3168C97.1064 37.3168 96.4646 37.2137 95.8903 36.9732C95.3161 36.7328 94.8094 36.4236 94.3703 35.977C93.9312 35.5647 93.5934 35.0494 93.3569 34.4654C93.1205 33.8814 92.9854 33.2287 92.9854 32.5073C92.9854 31.7859 93.1205 31.1332 93.3569 30.5492C93.5934 29.9651 93.9312 29.4498 94.3703 29.0376C94.8094 28.6254 95.3161 28.3162 95.8903 28.0757C96.4646 27.8696 97.1064 27.7322 97.782 27.7322C98.4237 27.7322 99.0318 27.8352 99.6398 28.0757C100.248 28.3162 100.754 28.6254 101.126 29.072L99.6736 30.5492C99.4709 30.2743 99.2007 30.0682 98.8967 29.9308C98.5589 29.7934 98.2211 29.7247 97.8833 29.7247C97.5117 29.7247 97.1739 29.7934 96.8361 29.9308C96.5321 30.0682 96.2619 30.2743 96.0255 30.5148C95.789 30.7553 95.6201 31.0645 95.485 31.408C95.3499 31.7515 95.2823 32.1294 95.2823 32.5073C95.2823 32.9195 95.3499 33.2974 95.485 33.641C95.6201 33.9845 95.789 34.2593 95.9917 34.5341C96.2281 34.7746 96.4646 34.9807 96.8024 35.1181C97.1064 35.2556 97.4442 35.3243 97.8157 35.3243C98.2549 35.3243 98.6264 35.2556 98.9304 35.0838C99.2344 34.912 99.5047 34.7059 99.7074 34.4311L101.194 35.8739C100.856 36.2518 100.383 36.6297 99.7749 36.9045Z" fill="white"/>
<path d="M109.84 32.4729C109.84 32.0951 109.772 31.7172 109.637 31.3736C109.502 31.0301 109.333 30.7553 109.131 30.4804C108.894 30.24 108.624 30.0339 108.32 29.8964C108.016 29.759 107.644 29.6903 107.273 29.6903C106.901 29.6903 106.563 29.759 106.226 29.8964C105.922 30.0339 105.651 30.24 105.415 30.4804C105.178 30.7209 105.01 31.0301 104.908 31.3736C104.773 31.7172 104.739 32.0951 104.739 32.4729C104.739 32.8852 104.807 33.2631 104.942 33.6066C105.077 33.9501 105.246 34.2593 105.449 34.4998C105.685 34.7403 105.922 34.9464 106.259 35.0838C106.563 35.2212 106.901 35.2899 107.307 35.2899C107.678 35.2899 108.016 35.2212 108.354 35.0838C108.658 34.9464 108.928 34.7403 109.164 34.4998C109.401 34.2593 109.57 33.9501 109.705 33.6066C109.772 33.2631 109.84 32.8852 109.84 32.4729ZM112.137 32.4729C112.137 33.1944 112.002 33.8471 111.765 34.4311C111.529 35.0151 111.191 35.5304 110.752 35.9426C110.313 36.3549 109.806 36.6984 109.198 36.9389C108.59 37.1793 107.948 37.2824 107.273 37.2824C106.563 37.2824 105.922 37.1793 105.347 36.9389C104.739 36.6984 104.233 36.3892 103.827 35.9426C103.388 35.5304 103.05 35.0151 102.814 34.4311C102.578 33.8471 102.442 33.1944 102.442 32.4729C102.442 31.7515 102.578 31.0988 102.814 30.5148C103.05 29.9308 103.388 29.4498 103.827 29.0376C104.266 28.6254 104.773 28.3162 105.347 28.0757C105.955 27.8696 106.597 27.7322 107.273 27.7322C107.982 27.7322 108.624 27.8352 109.198 28.0757C109.806 28.2818 110.313 28.6254 110.752 29.0376C111.191 29.4498 111.529 29.9308 111.765 30.5148C112.036 31.0988 112.137 31.7515 112.137 32.4729Z" fill="white"/>
<path d="M14.504 15.6006C14.2338 15.3257 13.9298 15.0853 13.6258 14.8792C13.3217 14.673 12.9502 14.5356 12.6124 14.3982C12.1057 14.1921 11.6328 13.9173 11.0923 13.8142C10.4843 13.7111 9.8763 13.7798 9.26828 13.8142C8.76159 13.8486 8.22113 13.8829 7.71445 13.986C7.17399 14.089 6.6673 14.2608 6.16062 14.5013C5.65394 14.7074 5.11347 14.9822 4.67435 15.3257C4.13389 15.7036 3.66098 16.1846 3.22186 16.6655C2.91785 17.0091 2.6814 17.3869 2.44494 17.7992C2.24227 18.1427 2.10716 18.5206 1.97204 18.9328C1.83692 19.3107 1.76937 19.7917 1.66803 20.2039C1.80315 20.2039 1.97204 20.2383 2.10716 20.2726C2.14093 20.1009 2.20849 19.9634 2.24227 19.7917C2.30983 19.5856 2.41117 19.4825 2.5125 19.3107C2.41117 19.9978 2.27605 20.4787 2.20849 21.1315C2.14093 21.6468 2.14093 22.1621 2.10716 22.6774C2.24227 22.6774 2.41117 22.7804 2.5125 22.8491C2.54628 22.6087 2.5125 22.2651 2.58006 22.0246C2.61384 21.8529 2.6814 21.5781 2.74895 21.4063C2.71517 22.0246 2.61384 22.7117 2.64762 23.3301C2.64762 23.8797 2.71517 24.4637 2.74895 25.0134C2.88407 25.1508 3.08674 25.2539 3.22186 25.3913C3.18808 25.1165 3.12052 24.876 3.12052 24.6011C3.12052 24.3607 3.1543 24.0858 3.18808 23.8454C3.39075 24.3263 3.49209 24.876 3.72854 25.3569C3.93121 25.7692 4.20145 26.1814 4.4379 26.5936C4.64057 26.6624 4.84324 26.7311 5.04592 26.7654C4.94458 26.5249 4.84324 26.2845 4.84324 25.9753C5.01214 26.1814 5.11347 26.4562 5.31615 26.628C5.51882 26.8341 5.85661 27.1089 6.05928 27.3151C6.16062 27.2807 6.22818 27.2807 6.32951 27.2807C6.1944 27.0059 5.99173 26.6624 5.82283 26.3875C5.72149 26.1471 5.72149 25.8379 5.65394 25.5974C5.85661 25.9066 5.99173 26.2845 6.22818 26.5593C6.46463 26.8341 6.63352 27.2807 6.76864 27.693C6.90375 27.693 7.07265 27.7273 7.20777 27.7273C7.3091 27.4525 7.24154 27.1777 7.24154 26.8685C7.37666 27.212 7.54555 27.5555 7.51178 27.9678C7.61311 27.9678 7.71445 27.9678 7.84956 27.9678C8.01846 27.7617 8.08602 27.3838 8.08602 27.1433C8.11979 27.4181 8.15357 27.7273 8.08602 28.1052C8.18735 28.1395 8.28869 28.1395 8.39003 28.1739C8.55892 28.0021 8.69404 27.8304 8.76159 27.6586C8.82915 27.8304 8.82915 28.0365 8.79537 28.2083C8.89671 28.2426 8.96427 28.3113 9.0656 28.3457C9.43717 28.1739 9.60606 27.9678 9.84252 27.6586C10.0114 27.4525 10.1127 27.1089 10.3154 26.9028C10.6194 27.0059 10.9572 27.0746 11.2275 27.2464C11.4977 27.3838 11.7341 27.5899 11.8693 27.8647C11.9368 27.9678 11.8017 28.1052 11.7004 28.1739C11.3626 28.3113 10.991 28.3113 10.6532 28.4487C10.5181 28.5174 10.4168 28.6892 10.2479 28.7236C9.77496 28.861 9.30206 28.861 8.79537 28.8953C8.32247 28.964 7.84956 29.0327 7.37666 29.0671C7.14021 29.1358 6.90376 29.1701 6.6673 29.2389C6.05928 29.0671 5.48504 28.8953 4.87702 28.7579C4.33656 28.6548 3.76232 28.6205 3.18808 28.5861C2.95163 28.5518 2.71518 28.4831 2.5125 28.4487C2.17471 28.3457 1.80315 28.3113 1.43158 28.3113C1.29646 28.3113 1.16135 28.4144 1.26268 28.5174C1.36402 28.6892 1.60047 28.7236 1.76937 28.861C1.66803 28.9297 1.56669 28.9984 1.46536 29.0327C1.19513 29.1701 0.924895 29.2732 0.654664 29.3763C0.45199 29.445 0.147981 29.3763 0.0128651 29.548C-0.0546926 29.6854 0.181759 29.8229 0.316875 29.8916C0.519548 29.9946 0.756 30.029 0.992452 30.0633C1.33024 30.0977 1.66803 30.132 2.00582 30.132C2.24227 30.132 2.47872 30.0977 2.71517 30.132C2.95163 30.1664 3.18808 30.3382 3.42453 30.4069C3.82988 30.5443 4.23522 30.6817 4.67435 30.7504C5.21481 30.8535 5.78905 30.8878 6.32951 30.9909C6.43085 31.0252 6.49841 31.1283 6.63352 31.1283C6.73486 31.1283 6.8362 31.0252 6.93753 31.0596C7.41044 31.1626 7.88334 31.3688 8.35625 31.4375C8.89671 31.5405 9.43717 31.5749 10.0114 31.6092C10.4168 31.6092 10.7883 31.5749 11.1937 31.5749C11.4301 31.9528 11.6328 32.2963 11.8693 32.6742C12.1057 33.0521 12.4097 33.3956 12.6124 33.7735C12.7813 34.117 12.8826 34.4949 12.984 34.8728C13.0515 35.182 13.0853 35.5255 13.0515 35.8347C13.0177 36.0408 12.8488 36.1782 12.7813 36.35C12.6799 36.6592 12.5786 36.9684 12.5448 37.2775C12.511 37.5524 12.4773 37.8272 12.511 38.102C12.5448 38.3081 12.6462 38.5486 12.7475 38.7204C12.8488 38.9265 13.0177 39.1326 13.1528 39.3387C12.8488 39.6479 12.4773 39.9227 12.207 40.2663C11.8693 40.6785 11.5652 41.1251 11.3288 41.5717C11.2275 41.7778 11.1937 42.0183 11.1261 42.2244C10.9572 42.1557 10.7883 42.087 10.5857 42.0527C10.2141 41.9839 9.84252 41.9839 9.43717 41.9839C9.20072 41.9839 8.99804 42.0527 8.76159 42.0527C8.39003 42.0183 8.01846 41.9839 7.68067 41.8465C7.478 41.7778 7.34288 41.5374 7.14021 41.4343C6.97131 41.3312 6.76864 41.2969 6.56597 41.2969C6.39707 41.2969 6.26196 41.3999 6.16062 41.5374C5.95795 41.7435 5.85661 42.0527 5.68772 42.2931C5.5526 42.4649 5.41748 42.671 5.24859 42.8084C4.94458 43.0145 4.57301 43.0833 4.30278 43.3237C4.06633 43.5298 3.96499 43.8047 3.82988 44.0795C3.76232 44.2513 3.76232 44.4574 3.72854 44.6635C3.69476 44.8009 3.55965 44.904 3.59343 45.0414C3.6272 45.1788 3.72854 45.2819 3.86366 45.2819C4.10011 45.2819 4.33656 45.0757 4.57301 44.9727C4.87702 44.8696 5.18103 44.8353 5.45126 44.7322C5.75527 44.6292 6.05928 44.4574 6.36329 44.32C6.59975 44.2169 6.8362 43.9421 7.07265 44.0108C7.78201 44.1482 8.39003 44.5948 9.03182 44.8009C9.67362 45.007 10.3492 45.1101 11.0248 45.2819C11.1937 45.3162 11.3626 45.4193 11.5315 45.4193C11.8017 45.4193 12.0719 45.3162 12.3084 45.2132C12.4773 45.1445 12.5786 44.9727 12.7475 44.8696C13.1866 44.5948 13.6595 44.423 14.0987 44.1139C14.5716 43.8047 15.0107 43.3924 15.4498 43.0489C15.6863 42.8428 15.9227 42.6023 16.1592 42.3962C16.4294 42.671 16.6658 42.9458 16.9361 43.1863C17.1725 43.3924 17.409 43.5986 17.6792 43.7703C17.9494 43.9421 18.2197 44.0108 18.4899 44.1482C18.5575 44.1826 18.625 44.2856 18.6588 44.3543C18.6926 44.4574 18.6926 44.5948 18.6926 44.6979C18.6926 44.9727 18.6588 45.2475 18.7264 45.5223C18.7939 45.8659 18.929 46.2094 19.0979 46.5529C19.233 46.7934 19.4357 46.9308 19.5708 47.1713C19.8073 47.6179 20.01 48.0645 20.2126 48.5111C20.2464 48.6141 20.314 48.6828 20.314 48.7859C20.314 48.9577 20.2126 49.1294 20.2126 49.3012C20.2126 49.473 20.2464 49.6791 20.314 49.8509C20.3815 50.0226 20.5504 50.1257 20.6855 50.2288C20.8207 50.2975 21.0233 50.3318 21.1922 50.3662C21.3949 50.4005 21.5976 50.4349 21.7665 50.5036C22.0029 50.5723 22.2056 50.7097 22.442 50.8128C22.6109 50.8815 22.7798 50.9502 22.9825 50.9845C23.1852 51.0189 23.3878 50.9845 23.5905 50.9845C23.827 50.9845 24.0634 50.9502 24.2999 50.8815C24.5025 50.8471 24.7052 50.8128 24.9079 50.7441C25.1106 50.6753 25.347 50.5723 25.4821 50.4005C25.5835 50.2975 25.5835 50.0913 25.5497 49.9539C25.5159 49.8509 25.347 49.8165 25.2457 49.7478C25.043 49.6104 24.8403 49.4386 24.6377 49.2669C24.2323 48.9577 23.8607 48.5798 23.4892 48.2363C23.1514 47.9614 22.8136 47.7553 22.5096 47.4461C22.3407 46.6904 22.2394 45.9346 22.0705 45.1788C21.9691 44.8009 21.7327 44.4574 21.6651 44.0795C21.6313 43.9764 21.6989 43.839 21.6651 43.736C21.5976 43.4268 21.4962 43.1176 21.3611 42.8084C21.2936 42.7054 21.1584 42.6367 21.1247 42.5336C20.8882 42.087 20.7531 41.5717 20.5166 41.0908C20.0775 40.2319 19.6046 39.4418 19.1317 38.583C19.1993 38.2738 19.3006 37.999 19.3344 37.6898C19.4019 37.1745 19.4357 36.6592 19.4019 36.1439C19.3682 35.6973 19.1655 35.285 19.1317 34.8385C19.0979 34.4262 19.1993 33.9796 19.1993 33.5674C19.1993 32.7772 19.1993 31.9528 19.0979 31.1626C19.0641 30.6817 18.8615 30.2351 18.8277 29.7542C18.8277 29.6167 18.929 29.5137 19.0304 29.445C19.9762 28.861 20.9895 28.3113 21.9354 27.5212C22.9149 27.0059 23.7594 26.1814 24.6039 25.3913C25.3132 25.1852 25.955 24.8073 26.5968 24.3607C26.6644 24.292 26.6982 24.1202 26.5968 24.1202C25.7861 24.0858 24.9417 24.1546 24.131 24.1889C23.8608 24.1889 23.6243 24.3263 23.3541 24.5324C22.5096 24.9103 21.6989 25.3913 20.8882 25.8722C19.5033 26.2158 18.1183 26.5936 16.6996 27.0059C16.3956 27.0746 16.0916 27.0402 15.7876 27.0746C15.6863 27.0746 15.5849 27.0746 15.4836 27.0746C15.416 27.0746 15.3485 27.1089 15.2471 27.1089C15.2134 27.1089 15.1458 27.0746 15.1458 27.0059C15.0445 26.8685 14.9431 26.7654 14.8756 26.5936C14.8418 26.5593 14.8756 26.4562 14.9093 26.4562C15.3147 26.3188 15.7876 26.3188 16.1592 26.1814C16.2605 26.1471 16.3281 26.0096 16.3618 25.9066C16.4294 25.6661 16.4294 25.3913 16.497 25.1508C16.5307 25.0134 16.6658 24.876 16.5983 24.7386C16.5307 24.5668 16.2605 24.5324 16.1592 24.395C16.0578 24.292 16.0241 24.1202 15.9227 23.9828C16.0578 23.9141 16.2267 23.9484 16.3281 23.8454C16.4632 23.7423 16.6658 23.811 16.801 23.708C16.9023 23.6393 16.9023 23.5362 16.9023 23.4331C16.8685 23.124 16.801 22.8835 16.7334 22.6087C16.9023 22.4025 17.0712 22.1621 17.2063 21.9216C17.2401 21.8529 17.2063 21.7498 17.1388 21.7155C16.7334 21.475 16.2267 21.4063 15.9227 21.0628C15.6525 20.7536 15.6525 20.2726 15.4836 19.8947C15.3147 19.4138 15.112 18.9328 14.9093 18.4175C15.0445 18.3145 15.1796 18.0397 15.2471 17.7992C15.3823 18.0053 15.3147 18.2801 15.2809 18.4863C15.416 18.4863 15.5511 18.5206 15.6525 18.5206C15.72 18.2114 15.8889 17.8335 15.416 16.8029C15.2134 16.322 14.8418 15.9785 14.504 15.6006Z" fill="#2976BC"/>
<path d="M31.5627 8.55872C32.0694 9.00532 32.5761 9.45191 32.9815 10.0016C33.3868 10.5512 33.657 11.1696 33.8935 11.8223C34.0962 12.3376 34.1975 12.8872 34.2988 13.4369C34.4002 14.0553 34.434 14.6736 34.4002 15.3263C34.3326 16.2539 34.1637 17.2158 33.9273 18.109C33.7922 18.5899 33.4881 19.0365 33.2179 19.4487C32.9139 19.8953 32.5423 20.3419 32.1708 20.7542C31.833 21.132 31.4614 21.5099 31.0561 21.7848C30.4818 22.1627 29.8738 22.5062 29.1982 22.7467C28.6578 22.9528 28.0497 23.0902 27.4755 23.1589C27.0026 23.2276 26.5297 23.2276 26.0568 23.1933C25.415 23.1589 24.7732 23.1589 24.1652 23.0215C23.5234 22.8841 22.9154 22.5749 22.3073 22.3001C21.8344 22.0939 21.3953 21.8878 20.99 21.613C20.4495 21.2008 19.9428 20.7542 19.5037 20.2389C19.0983 19.7923 18.693 19.3457 18.4566 18.796C18.085 17.9715 17.8823 17.044 17.7134 16.1508C17.5783 15.4637 17.5107 14.7767 17.5107 14.0553C17.5445 13.4713 17.6796 12.9216 17.8485 12.3719C18.0512 11.7879 18.3214 11.2039 18.6592 10.6886C18.997 10.139 19.4361 9.65803 19.909 9.24579C20.4157 8.76484 20.99 8.31825 21.598 7.97472C22.3411 7.56248 23.1518 7.21894 23.9625 6.97847C24.6719 6.77235 25.3812 6.66929 26.1244 6.73799C26.9013 6.77235 27.6444 6.94411 28.3538 7.25329C29.0631 7.56247 29.7049 8.07778 30.3129 8.59308C30.7183 8.93661 31.0898 9.3832 31.3939 9.86415C31.6979 10.3451 32.0019 10.8604 32.1708 11.4101C32.3397 11.9254 32.441 12.475 32.4748 12.9903C32.5423 13.6087 32.5423 14.227 32.4748 14.811C32.4072 15.395 32.3059 16.0134 32.0357 16.5631C31.6979 17.3188 31.2587 18.0746 30.6845 18.6586C30.0765 19.2426 29.3333 19.6892 28.5902 20.0327C27.9822 20.3076 27.3404 20.4106 26.6648 20.445C25.9217 20.4793 25.1785 20.4793 24.4692 20.2389C23.7936 19.9984 23.1856 19.5174 22.6451 19.0365C22.2398 18.693 21.8682 18.3151 21.598 17.8685C21.294 17.3532 21.0913 16.7692 20.99 16.1508C20.8886 15.6012 20.8548 15.0172 20.9562 14.4331C21.0575 13.7804 21.1926 13.0934 21.5304 12.5437C21.902 11.9597 22.4087 11.4788 22.9829 11.1009C23.4558 10.7573 23.9963 10.5512 24.5367 10.4138C25.1448 10.2764 25.8203 10.2077 26.4621 10.3107C26.9013 10.3794 27.3404 10.5856 27.712 10.826C28.1173 11.0665 28.5226 11.307 28.7929 11.6849C29.0969 12.0628 29.2996 12.5437 29.4347 12.9903C29.5698 13.4369 29.6036 13.8835 29.5698 14.3301C29.5698 14.6736 29.4685 15.0515 29.3333 15.3607C29.1982 15.6699 29.0293 15.979 28.7929 16.2195C28.5564 16.4943 28.2862 16.8035 27.9484 16.9753C27.5431 17.1814 27.1039 17.3532 26.6648 17.3532C26.2595 17.3532 25.8203 17.2845 25.4488 17.0784C25.0434 16.8722 24.7056 16.5287 24.4692 16.1508C24.3003 15.876 24.3003 15.4981 24.3003 15.1546C24.3003 14.8454 24.3679 14.5362 24.503 14.2957C24.6381 14.0896 24.8408 13.9522 25.0434 13.8148C25.2123 13.7117 25.415 13.6087 25.5839 13.5743C25.6852 13.5743 25.7866 13.643 25.8203 13.7461C25.8541 13.8835 25.6852 14.0209 25.6514 14.1583C25.6514 14.3301 25.6514 14.5706 25.7866 14.708C25.9555 14.8797 26.2257 14.9484 26.4621 14.9828C26.6648 15.0172 26.9013 15.0172 27.0702 14.9141C27.2728 14.7767 27.4755 14.5706 27.5431 14.3301C27.6106 14.0896 27.5768 13.7804 27.4755 13.54C27.3742 13.2995 27.2053 13.0934 27.0026 12.9216C26.7999 12.7498 26.5635 12.6124 26.327 12.5437C26.0906 12.475 25.8203 12.5094 25.5501 12.5781C25.2461 12.6468 24.9421 12.7498 24.6719 12.8872C24.4016 13.0247 24.1652 13.1964 23.9625 13.4025C23.7261 13.643 23.5234 13.9522 23.3883 14.2957C23.2869 14.6049 23.2869 14.9828 23.2869 15.3263C23.3207 15.6699 23.3545 16.0134 23.4896 16.3226C23.6247 16.6318 23.8274 16.9066 24.0638 17.1471C24.3341 17.3875 24.6719 17.5937 25.0096 17.7654C25.3137 17.9028 25.6514 17.9372 25.9892 17.9715C26.3946 18.0059 26.7999 18.0402 27.2053 17.9715C27.6782 17.9028 28.1173 17.7311 28.5227 17.5249C28.8267 17.3532 29.1307 17.1127 29.3671 16.8722C29.6036 16.5974 29.8062 16.2882 29.9751 15.9447C30.144 15.6012 30.3129 15.2576 30.3467 14.8454C30.4143 14.2614 30.4143 13.6774 30.2792 13.0934C30.144 12.4406 29.9414 11.7879 29.5698 11.2726C29.232 10.7917 28.7591 10.4825 28.2862 10.1733C27.8809 9.8985 27.4417 9.65803 27.0026 9.48626C26.5973 9.34885 26.1581 9.28014 25.7528 9.24579C25.3812 9.21144 24.9759 9.24579 24.5705 9.3145C24.1652 9.3832 23.7936 9.52062 23.3883 9.65803C23.0167 9.8298 22.6114 10.0359 22.2736 10.2764C21.902 10.5512 21.598 10.8604 21.294 11.1696C21.0237 11.4444 20.7873 11.7536 20.6184 12.0971C20.4157 12.475 20.2468 12.8529 20.1455 13.2308C20.0442 13.6087 20.0104 13.9866 19.9766 14.3644C19.9428 14.9828 19.8415 15.6012 19.9766 16.2195C20.0779 16.7692 20.3482 17.3188 20.6184 17.8341C20.9224 18.3838 21.3278 18.8991 21.7669 19.3457C22.2398 19.8266 22.7465 20.2045 23.2869 20.548C23.6923 20.7885 24.1314 20.9603 24.5705 21.0633C25.1448 21.2008 25.7528 21.3382 26.327 21.3382C26.7662 21.3382 27.2391 21.3038 27.6782 21.1664C28.2524 20.9946 28.7591 20.6511 29.2996 20.3763C29.7725 20.1358 30.2454 19.9297 30.6507 19.5861C31.0223 19.3113 31.2925 18.9334 31.5627 18.5555C31.833 18.1777 32.0019 17.7654 32.1708 17.3532C32.3397 16.9409 32.441 16.4943 32.5423 16.0478C32.6774 15.5668 32.7112 15.0859 32.745 14.6049C32.7788 14.0553 32.8463 13.5056 32.8126 12.956C32.745 12.4063 32.6437 11.8566 32.5086 11.307C32.4072 10.8948 32.2383 10.4825 32.0694 10.0703C31.9343 9.72674 31.7316 9.3832 31.5627 9.03967C31.4952 8.90226 31.3939 8.7992 31.3939 8.66178C31.3939 8.59308 31.529 8.49002 31.5627 8.55872Z" fill="#F4964E"/>
<path d="M22.0347 7.01235C22.2036 6.87494 22.3725 6.63446 22.305 6.42834C22.0347 5.4321 21.5956 4.50456 21.1227 3.57702C20.6836 2.71818 20.2107 1.8937 19.6364 1.13793C19.3324 0.725688 18.9608 0.382154 18.5555 0.107328C18.3528 -0.0300858 18.0488 -0.0300858 17.8461 0.0729743C17.5083 0.210388 17.1706 0.416508 17.0017 0.760041C16.8328 1.10357 16.8665 1.55017 17.0354 1.85935C17.2719 2.409 17.7786 2.75254 18.1501 3.19913C18.5893 3.74878 18.9946 4.29844 19.3662 4.84809C19.704 5.36339 19.9404 5.9474 20.312 6.42834C20.5822 6.73752 20.8862 7.08106 21.2916 7.21847C21.5618 7.28718 21.832 7.14976 22.0347 7.01235Z" fill="#F4964E"/>
<path d="M10.3491 9.03917C10.518 8.83305 10.7882 8.66129 11.0585 8.66129C11.6327 8.62693 12.1732 8.83305 12.7136 8.93611C13.2203 9.03917 13.727 9.14223 14.2337 9.314C14.7066 9.45141 15.1457 9.69189 15.6186 9.89801C16.0915 10.1041 16.5982 10.1385 17.0373 10.482C17.2062 10.6194 17.3413 10.8943 17.3413 11.1691C17.3413 11.4783 17.2062 11.7874 17.0373 11.9592C16.8347 12.1653 16.5644 12.234 16.328 12.234C15.8551 12.1653 15.3822 11.8562 14.9093 11.7187C14.4026 11.5813 13.8621 11.6157 13.3554 11.4783C12.815 11.3409 12.3083 11.066 11.7678 10.8599C11.3625 10.6881 10.9571 10.5851 10.6193 10.3446C10.4505 10.2072 10.2816 10.0011 10.214 9.72624C10.1464 9.45141 10.214 9.17659 10.3491 9.03917Z" fill="#F4964E"/>
<path d="M28.8243 24.1207C29.2297 24.1207 29.7026 24.0177 30.0066 24.2925C30.4457 24.7047 30.547 25.3918 30.7497 25.9758C30.9862 26.6629 31.0537 26.7659 31.2226 27.4874C31.3915 28.2431 31.5942 28.9989 31.6955 29.7547C31.7631 30.0982 31.932 30.4761 31.7631 30.7853C31.5942 31.0945 31.1888 31.2319 30.8511 31.2319C30.547 31.2662 30.2093 31.1288 30.0066 30.9227C29.8039 30.7166 29.7026 30.4074 29.635 30.0982C29.4999 29.5829 29.4999 29.0333 29.3986 28.518C29.2635 28.0027 29.027 27.5217 28.8919 27.0064C28.7568 26.4911 28.8919 26.5942 28.723 26.1132C28.5879 25.7353 28.1825 25.4605 28.0812 25.0826C28.0136 24.8422 28.0812 24.5673 28.2163 24.3612C28.3852 24.1894 28.6217 24.1207 28.8243 24.1207Z" fill="#F4964E"/>
<path d="M34.4665 19.0365C34.7029 18.8648 34.9732 18.7617 35.2434 18.7617C35.8852 18.7617 36.527 18.8304 37.135 19.0365C38.047 19.3457 38.9253 19.8267 39.736 20.3076C40.344 20.6512 40.952 21.029 41.3912 21.613C41.6276 21.9222 41.7289 22.3688 41.5938 22.7124C41.4587 23.0559 41.0196 23.1933 40.6818 23.3307C40.4453 23.3994 40.1413 23.3994 39.9387 23.2964C39.432 23.0559 39.0266 22.6093 38.5199 22.3345C38.047 22.0596 37.5741 21.8535 37.1012 21.613C36.6959 21.4069 36.3243 21.2352 35.919 21.0634C35.4123 20.8229 34.8043 20.7886 34.3651 20.4107C34.1287 20.2389 34.1287 19.861 34.1625 19.5518C34.1625 19.3114 34.3314 19.1396 34.4665 19.0365Z" fill="#F4964E"/>
<path d="M34.5349 11.7536C34.6024 11.4788 34.7037 11.2039 34.9064 10.9978C35.3793 10.5512 35.886 10.1733 36.494 9.8985C37.3723 9.52061 38.3181 9.24579 39.2639 9.03967C39.9395 8.90225 40.6488 8.73049 41.3244 8.8679C41.696 8.93661 42.0675 9.17708 42.2027 9.55497C42.3378 9.8985 42.1013 10.3107 41.9324 10.6199C41.7973 10.8604 41.5946 11.0322 41.3582 11.1009C40.8177 11.2726 40.2435 11.2383 39.6692 11.3757C39.1626 11.4788 38.6559 11.6849 38.1492 11.8223C37.7438 11.9597 37.3047 12.0628 36.8994 12.2002C36.3589 12.3719 35.886 12.7498 35.3118 12.7842C35.0415 12.7842 34.7713 12.5437 34.6024 12.3032C34.5011 12.2002 34.5011 11.9597 34.5349 11.7536Z" fill="#F4964E"/>
<path d="M30.1428 6.94341C30.4469 6.90906 30.7846 6.90905 30.9873 6.66858C31.5278 5.98151 31.798 5.05397 32.2371 4.2982C32.71 3.50807 33.2167 2.78665 33.6896 1.99653C33.8585 1.75605 34.095 1.51558 34.1625 1.2064C34.1963 1.00028 34.1625 0.725452 33.9936 0.588039C33.6896 0.313212 33.2843 0.0727384 32.8789 0.0040317C32.6425 -0.0303217 32.406 0.175798 32.2371 0.347565C31.6291 1.00028 31.0549 1.75605 30.5482 2.51183C30.1766 3.06148 29.8388 3.67984 29.5348 4.2982C29.3659 4.71044 29.2308 5.12268 29.1295 5.53492C29.0619 5.8441 28.9606 6.15328 29.0281 6.42811C29.0957 6.63423 29.3321 6.73729 29.5348 6.84035C29.7375 6.94341 29.9402 6.97776 30.1428 6.94341Z" fill="#F4964E"/>
</svg>
