<svg width="266" height="216" viewBox="0 0 266 216" fill="none" xmlns="http://www.w3.org/2000/svg">
<path d="M96.1575 216C139.133 216 174.14 180.825 174.14 137.643C174.14 102.467 145.669 73.8592 110.662 73.8592C82.101 73.8592 58.8226 97.2495 58.8226 125.948C58.8226 149.518 77.8929 168.68 101.35 168.68C120.689 168.68 136.447 152.846 136.447 133.414C136.447 117.221 123.375 104.087 107.259 104.087C93.8297 104.087 82.8172 115.062 82.8172 128.646H93.5611C93.5611 121.09 99.6493 114.882 107.259 114.882C117.377 114.882 125.703 123.159 125.703 133.414C125.703 146.909 114.78 157.884 101.35 157.884C83.8021 157.884 69.5665 143.58 69.5665 125.948C69.5665 103.187 88.0101 84.6547 110.662 84.6547C139.76 84.6547 163.396 108.405 163.396 137.643C163.396 174.887 133.224 205.204 96.1575 205.204C49.0636 205.204 10.7438 166.701 10.7438 119.38C10.7438 59.5552 59.2703 10.7955 118.899 10.7955C191.867 10.7955 251.764 62.434 255.256 128.376H266C264.12 92.8413 247.198 59.5552 218.369 35.6252C190.793 12.6847 155.428 0 118.899 0C53.3612 0 0 53.6176 0 119.38C0 172.728 43.1545 216 96.1575 216Z" fill="white"/>
</svg>
