<svg width="175" height="165" viewBox="0 0 175 165" fill="none" xmlns="http://www.w3.org/2000/svg">
<g opacity="0.2">
<path d="M66.9194 37.0818C67.855 36.4579 68.6347 35.0542 68.3229 33.9624C66.9194 28.6593 64.4243 23.8241 61.9292 18.9889C59.59 14.4657 56.939 10.0984 53.9761 6.04309C52.4167 3.85946 50.3894 1.98778 48.0502 0.584017C46.9586 -0.0398773 45.3992 -0.195851 44.1517 0.27207C42.4363 1.05194 40.409 2.14375 39.6293 3.85946C38.8496 5.57517 38.8496 7.91477 39.7853 9.63048C40.701 11.4623 42.2143 12.8958 43.7186 14.3208C44.5198 15.0797 45.3185 15.8362 46.023 16.6493C48.3621 19.4568 50.5453 22.4203 52.5726 25.3838C53.3577 26.4962 54.0055 27.691 54.6543 28.8875C55.552 30.543 56.4514 32.2018 57.7187 33.6504C59.1222 35.3661 60.8376 37.0818 63.0208 37.8617C64.2683 38.6416 65.8278 37.8617 66.9194 37.0818Z" fill="#F59655"/>
<path d="M117.913 45.1923C120.564 47.5319 123.371 50.0275 125.398 52.835C127.425 55.7985 128.985 59.074 130.388 62.3494C131.48 65.001 132.104 67.9645 132.571 70.928C133.039 74.2034 133.351 77.4789 133.039 80.7543C132.571 85.7454 131.792 90.7366 130.388 95.4158C129.757 97.5608 128.617 99.3995 127.461 101.262L127.46 101.264C127.187 101.703 126.913 102.144 126.646 102.591C124.93 105.086 123.059 107.27 121.032 109.453C119.16 111.481 117.289 113.353 114.95 114.912C111.831 116.94 108.556 118.656 105.125 120.06C102.163 121.151 99.0437 121.775 95.9248 122.243C93.4297 122.555 90.7787 122.555 88.2836 122.555C87.7154 122.529 87.1472 122.508 86.5797 122.486C83.7207 122.378 80.8797 122.27 78.1473 121.619C75.2496 120.961 72.4633 119.746 69.6942 118.538L69.6928 118.538C69.1838 118.316 68.6753 118.094 68.1669 117.876C65.6718 116.784 63.1767 115.692 60.9935 114.133C58.0306 112.105 55.3796 109.609 53.0404 106.958C50.8572 104.618 48.674 102.279 47.4265 99.4711C45.3992 95.1039 44.3076 90.2687 43.372 85.4335C42.5922 81.8461 42.1244 78.1027 42.2804 74.3594C42.4363 71.3959 43.0601 68.2764 44.1517 65.4689C45.2433 62.3494 46.6468 59.2299 48.5181 56.4224C50.3894 53.6149 52.7285 51.1193 55.2236 48.7797C58.0306 46.2841 60.9935 43.9445 64.4243 42.0729C68.4788 39.8892 72.6893 38.1735 77.0557 36.9257C80.7983 35.9899 84.6969 35.366 88.5955 35.522C92.65 35.6779 96.8605 36.6138 100.603 38.1735C104.502 39.8892 107.932 42.5408 111.207 45.3483C113.39 47.22 115.418 49.5596 116.977 52.0552C118.692 54.5507 120.096 57.2023 121.188 60.1658C122.123 62.8173 122.591 65.7808 122.903 68.5884C123.215 71.8638 123.215 74.9833 122.903 78.2587L122.871 78.4714C122.413 81.5267 121.935 84.7174 120.564 87.4612C118.692 91.5165 116.353 95.4158 113.234 98.5353C110.116 101.655 106.061 103.994 102.007 105.71C98.7318 107.114 95.1451 107.582 91.7143 107.894C87.8158 108.05 83.7612 108.05 80.0186 106.802C76.6128 105.666 73.7236 103.369 70.9984 101.201C70.7289 100.987 70.4609 100.774 70.1942 100.563C68.011 98.8472 65.9837 96.8196 64.5802 94.48C63.0208 91.6724 61.9292 88.553 61.3054 85.4335C60.6816 82.47 60.6816 79.3505 61.1495 76.387C61.6173 72.9556 62.397 69.3682 64.2683 66.4047C66.1397 63.2853 69.1026 60.7897 72.0655 58.762C74.5606 57.0463 77.5235 55.7985 80.4864 55.1746C83.7612 54.3948 87.3479 54.0828 90.7787 54.5507C92.9388 54.8388 95.0988 55.9249 97.1362 56.9493L97.1385 56.9505L97.1525 56.9576L97.1547 56.9586L97.4976 57.1309C97.5452 57.1547 97.5927 57.1786 97.6402 57.2023C99.8234 58.4501 102.007 59.6979 103.41 61.7255C104.97 63.7532 106.061 66.2487 106.841 68.7443C107.465 71.0839 107.621 73.4235 107.621 75.9191C107.465 77.7908 106.997 79.6625 106.373 81.3782C105.5 82.3602 104.704 83.4185 103.93 84.4464L103.93 84.4472C103.598 84.8884 103.27 85.3239 102.942 85.7454C101.695 87.3052 100.291 88.7089 98.4199 89.6448C96.3926 90.7366 93.8975 91.5165 91.5584 91.6724C89.3752 91.8284 87.036 91.2045 85.0088 90.2687C82.8256 89.1769 80.9542 87.4612 79.7067 85.4335C78.771 83.8738 78.771 82.0021 78.771 80.2864C78.771 78.7266 79.0829 77.0109 79.8627 75.7631C80.4864 74.6713 81.734 73.8915 82.8256 73.2676C83.7612 72.6437 84.6969 72.1757 85.7885 72.0198C86.2563 72.0198 87.036 72.3317 87.036 72.7996C87.1195 73.217 86.8903 73.5896 86.6592 73.9655C86.4585 74.2919 86.2563 74.6207 86.2563 74.9833C86.2563 75.9191 86.2563 77.1669 86.8801 77.7908C87.8158 78.7266 89.2192 79.0386 90.4668 79.1946C91.5584 79.3505 92.8059 79.3505 93.7416 78.7266C94.8332 78.1027 95.9248 77.0109 96.2367 75.7631C96.7045 74.5153 96.3926 72.9556 95.9248 71.7078C95.457 70.46 94.3654 69.3682 93.4297 68.4324C92.3381 67.4965 91.0906 66.7167 89.843 66.4047C88.4395 66.0928 87.036 66.2487 85.7885 66.5607C84.0731 66.8727 82.5137 67.4965 80.9543 68.1204C79.5508 68.7443 78.1473 69.6802 77.2116 70.772C75.9641 72.1758 74.8725 73.7355 74.2487 75.4512C73.6249 77.1669 73.6249 79.0386 73.7809 80.9103C73.9368 82.626 74.2487 84.4977 74.8725 86.2134C75.4962 87.7731 76.5878 89.3328 77.8354 90.5806C79.2389 91.9844 81.1102 93.0762 82.9815 93.7001C84.5409 94.324 86.4123 94.6359 88.1276 94.7919C90.3108 94.9479 92.494 95.1039 94.6773 94.7919C97.1723 94.324 99.5115 93.5441 101.695 92.4523C103.41 91.5165 104.969 90.4247 106.217 89.0209C107.465 87.6171 108.556 85.9014 109.492 84.0297C110.427 82.1581 111.207 80.2864 111.519 78.2587C111.831 75.1392 111.831 72.0198 111.051 69.0563C110.272 65.6249 109.18 62.1934 107.153 59.3859C105.557 57.0648 103.152 55.4183 100.816 53.819C100.641 53.6988 100.466 53.5789 100.291 53.4589C98.108 51.8992 95.9248 50.6514 93.4297 49.8715C91.2465 49.0917 88.9073 48.7797 86.7241 48.6237C84.6969 48.4678 82.5137 48.6237 80.4864 48.9357C78.3032 49.2476 76.276 50.0275 74.2487 50.8074C72.2214 51.7432 70.1942 52.835 68.3229 54.0828C66.4515 55.4866 64.5802 57.0463 63.0208 58.762C61.6173 60.3218 60.3698 61.8815 59.2782 63.7532C58.1866 65.6249 57.2509 67.6525 56.7831 69.8361C56.3152 71.7078 56.0034 73.7355 56.0034 75.7631C55.9685 76.4963 55.9179 77.2294 55.8675 77.9608L55.8674 77.9617C55.6926 80.4976 55.5193 83.0126 56.0034 85.4335C56.6271 88.397 57.8747 91.2045 59.4341 93.8561C61.1495 96.8196 63.1767 99.4711 65.5159 101.811C68.011 104.306 70.8179 106.49 73.7809 108.206C75.9641 109.453 78.3032 110.389 80.7983 111.013C83.9172 111.793 87.036 112.417 90.3108 112.417C92.8059 112.417 95.301 112.261 97.6402 111.481C99.6708 110.872 101.503 109.866 103.352 108.85L103.353 108.85C104.344 108.306 105.339 107.759 106.373 107.27C106.907 107.003 107.447 106.743 107.989 106.483C109.981 105.526 111.986 104.563 113.702 103.214C115.574 101.811 117.289 99.7831 118.537 97.9114C119.94 96.0397 120.876 93.8561 121.811 91.6725C122.501 90.0631 122.936 88.284 123.368 86.523L123.368 86.5227C123.521 85.8945 123.675 85.2687 123.839 84.6536C124.462 82.1581 124.774 79.6625 124.93 77.0109L124.954 76.7885C125.257 73.9066 125.546 71.1657 125.242 68.2764C124.93 65.3129 124.306 62.3494 123.683 59.5419C123.059 57.3584 122.123 55.1749 121.188 52.9913L121.188 52.991C120.626 51.6434 119.903 50.3767 119.193 49.1327C118.917 48.6488 118.643 48.1684 118.381 47.6879C118.287 47.5003 118.165 47.3127 118.04 47.1209C117.75 46.6748 117.445 46.2056 117.445 45.6603C117.133 45.3483 117.757 45.0364 117.913 45.1923Z" fill="#F59655"/>
<path d="M7.97306 45.6605C6.56957 45.6605 5.16608 46.4404 4.23042 47.6882C3.45071 48.624 2.98288 50.0278 3.13882 51.2756C3.45071 52.6793 4.38637 53.9271 5.32203 54.551C6.54864 55.4712 7.97625 55.9892 9.38528 56.5005C10.1259 56.7692 10.8613 57.0361 11.5598 57.3585C12.4954 57.7225 13.4137 58.1211 14.3321 58.5197C16.1687 59.3169 18.0054 60.1141 19.9807 60.634C21.5118 61.0594 23.0428 61.2063 24.5739 61.3533C25.8498 61.4757 27.1257 61.5982 28.4016 61.8818C29.5779 62.1586 30.6928 62.6504 31.8007 63.1391C33.1898 63.7518 34.5681 64.3598 36.0428 64.5333C37.2904 64.6893 38.6939 64.2214 39.7855 63.1296C40.8771 62.1937 41.5008 60.478 41.5008 58.9183C41.5008 57.5145 40.8771 55.9548 39.9414 55.3309C38.5057 54.3736 36.8937 53.8863 35.2858 53.4003C34.274 53.0944 33.2638 52.7891 32.3002 52.3674C31.5588 52.043 30.8312 51.7048 30.1092 51.3692C28.4012 50.5754 26.7246 49.7961 24.9709 49.2479C23.0471 48.5688 21.0412 48.1361 19.0724 47.7114C18.3281 47.5508 17.5891 47.3914 16.8618 47.2203C16.0537 47.0501 15.2457 46.8452 14.4376 46.6402C12.2828 46.0936 10.1279 45.5471 7.97306 45.6605Z" fill="#F59655"/>
<path d="M103.254 127.391C103.523 127.371 103.799 127.347 104.079 127.323C106.073 127.15 108.28 126.959 109.648 128.326C111.468 130.026 112.25 132.576 113.021 135.093C113.241 135.811 113.46 136.525 113.702 137.217C115.106 140.96 115.262 141.428 116.197 145.171L116.307 145.648C116.343 145.803 116.379 145.958 116.415 146.113C116.491 146.439 116.566 146.765 116.642 147.09C117.426 150.467 118.192 153.769 118.848 157.181C118.925 157.602 119.038 158.05 119.155 158.51C119.516 159.929 119.905 161.463 119.316 162.641C118.38 164.2 116.197 164.98 114.482 164.98C112.922 165.136 111.051 164.356 109.96 163.264C108.987 162.292 108.51 160.825 108.087 159.524L108.047 159.402C108.035 159.365 108.023 159.329 108.011 159.292C107.985 159.212 107.959 159.132 107.932 159.053C107.507 157.522 107.36 155.99 107.213 154.459C107.091 153.183 106.968 151.907 106.685 150.631C106.328 149.115 105.768 147.6 105.208 146.085C104.788 144.949 104.368 143.812 104.034 142.676C103.664 141.42 103.645 140.864 103.627 140.361C103.608 139.803 103.591 139.31 103.098 137.997C102.725 137.026 102.066 136.199 101.412 135.377C100.699 134.482 99.9925 133.595 99.6673 132.538C99.3554 131.29 99.6673 129.73 100.447 128.794C100.915 127.702 102.162 127.391 103.254 127.391Z" fill="#F59655"/>
<path d="M137.718 99.0033C136.314 99.0033 134.911 99.7831 133.663 100.563C132.727 101.031 131.948 102.123 131.792 102.903C131.792 104.462 131.792 106.49 133.039 107.426C134.43 108.618 136.264 109.177 138.137 109.749C139.205 110.075 140.285 110.404 141.304 110.857C142.736 111.471 144.168 112.152 145.556 112.812L145.556 112.812L145.557 112.812L145.557 112.812C146.285 113.158 147.001 113.499 147.698 113.821C148.628 114.286 149.58 114.729 150.537 115.176C152.148 115.926 153.774 116.684 155.339 117.564C156.453 118.22 157.485 119.013 158.515 119.805C159.936 120.898 161.353 121.988 162.98 122.711C164.228 123.179 165.787 123.335 167.035 122.867C167.111 122.839 167.189 122.811 167.267 122.783C168.955 122.172 171.124 121.387 171.869 119.748C172.649 118.032 172.025 115.536 170.777 113.977C168.438 111.013 165.164 108.986 161.889 107.114C157.366 104.462 152.688 102.123 147.854 100.407C144.579 99.3152 141.148 99.0033 137.718 99.0033Z" fill="#F59655"/>
<path d="M37.6022 92.1405C37.6214 92.4093 37.6453 92.6852 37.6696 92.9653C37.8426 94.9604 38.034 97.1676 36.6665 98.5354C34.9673 100.356 32.4181 101.138 29.9008 101.91C29.1837 102.13 28.4692 102.349 27.7777 102.591C24.0351 103.994 23.5673 104.15 19.8246 105.086C15.9261 106.178 11.8715 107.114 7.81703 107.738C7.39704 107.814 6.949 107.928 6.48895 108.045L6.48859 108.045C5.06972 108.405 3.53654 108.795 2.35902 108.206C0.799585 107.27 0.0198698 105.086 0.0198698 103.371C-0.136073 101.811 0.643642 99.9391 1.73524 98.8473C2.70748 97.8749 4.17454 97.3974 5.47535 96.974L5.47711 96.9734L5.48068 96.9722C5.63854 96.9209 5.79395 96.8703 5.94571 96.8197C7.47675 96.3943 9.00778 96.2473 10.5388 96.1004C11.8147 95.9779 13.0907 95.8555 14.3666 95.5719C15.8815 95.2154 17.3964 94.6551 18.9113 94.0949C20.0474 93.6747 21.1836 93.2545 22.3197 92.9203C23.5754 92.5509 24.1313 92.5315 24.6339 92.5139C25.1923 92.4943 25.6847 92.4771 26.998 91.9845C27.9683 91.6112 28.7957 90.9522 29.6169 90.298C30.5116 89.5853 31.399 88.8784 32.456 88.5531C33.7036 88.2411 35.263 88.5531 36.1987 89.3329C37.2903 89.8008 37.6022 91.0486 37.6022 92.1405Z" fill="#F59655"/>
<path d="M65.9836 126.611C65.9836 125.207 65.2039 123.803 64.4242 122.555C63.8004 121.619 62.8648 120.84 61.9291 120.528C60.3697 120.528 58.3424 120.528 57.4067 121.775C56.2147 123.166 55.6554 125 55.084 126.874C54.7584 127.942 54.4288 129.023 53.976 130.042C53.3623 131.474 52.6814 132.907 52.0215 134.295L52.0214 134.295C51.6753 135.023 51.335 135.739 51.0131 136.437C50.548 137.367 50.1046 138.319 49.6587 139.277L49.6585 139.277C48.9082 140.888 48.1507 142.515 47.2705 144.08C46.615 145.194 45.8217 146.226 45.0297 147.256C43.9374 148.677 42.8475 150.095 42.1243 151.722C41.6565 152.97 41.5006 154.53 42.1243 155.934C42.1521 156.01 42.1801 156.087 42.2085 156.166C42.8192 157.854 43.604 160.024 45.2432 160.769C46.9586 161.549 49.4537 160.925 51.0131 159.677C53.976 157.337 56.0033 154.062 57.8746 150.787C60.5256 146.263 62.8648 141.584 64.5801 136.749C65.6717 133.473 65.9836 130.042 65.9836 126.611Z" fill="#F59655"/>
<path d="M133.819 62.1936C134.131 60.7898 134.755 59.2301 135.846 58.2942C138.341 55.9546 141.148 53.927 144.267 52.5232C148.946 50.4955 154.092 49.0918 159.082 48C162.669 47.2201 166.567 46.4402 170.154 47.0641C172.025 47.3761 174.208 48.7798 174.832 50.6515C175.411 52.3872 174.38 54.257 173.481 55.8878C173.41 56.0156 173.341 56.1419 173.273 56.2666C172.649 57.5144 171.401 58.4502 170.154 58.9181C168.429 59.4628 166.652 59.6376 164.884 59.8116C163.613 59.9366 162.348 60.0611 161.109 60.3219C159.15 60.7574 157.266 61.3449 155.406 61.9253C154.601 62.1763 153.801 62.426 153 62.6615C152.607 62.7737 152.21 62.8859 151.809 62.9989L151.806 62.9999C149.978 63.5154 148.084 64.0499 146.295 64.6891C145.267 65.0316 144.261 65.5202 143.253 66.0098C141.506 66.8582 139.752 67.7097 137.874 67.8086C136.314 67.8086 134.911 66.5608 133.975 65.313C133.663 64.5332 133.663 63.1294 133.819 62.1936Z" fill="#F59655"/>
<path d="M110.447 36.7524C110.388 36.7583 110.33 36.764 110.272 36.7698C109.336 36.9258 108.244 36.7698 107.309 36.3019C107.244 36.2694 107.176 36.236 107.107 36.2019C106.183 35.7449 104.948 35.1341 104.658 34.1183C104.289 33.0131 104.598 31.7145 104.898 30.4509C104.979 30.1096 105.059 29.7708 105.126 29.4391C105.188 29.2218 105.25 29.0029 105.312 28.783C105.877 26.7929 106.466 24.7141 107.309 22.8882C108.712 19.6127 110.584 16.4933 112.611 13.5298C115.418 9.47447 118.381 5.7311 121.655 2.14371C122.591 1.20787 123.839 0.116056 125.086 0.272029C127.269 0.583976 129.453 1.83176 131.012 3.3915C131.792 4.17137 132.104 5.57513 131.792 6.66694C131.573 7.75972 130.895 8.62281 130.187 9.52441C129.885 9.90968 129.577 10.302 129.297 10.7223C128.296 12.2856 127.246 13.874 126.185 15.4775C124.601 17.8734 122.994 20.3028 121.5 22.7322C120.609 24.2757 119.855 25.9095 119.098 27.5477C117.866 30.2138 116.629 32.8915 114.794 35.2101C113.893 36.4116 111.98 36.6008 110.447 36.7524Z" fill="#F59655"/>
</g>
</svg>